<?xml version="1.0" standalone="no"?>
<!DOCTYPE svg PUBLIC "-//W3C//DTD SVG 1.1//EN" "http://www.w3.org/Graphics/SVG/1.1/DTD/svg11.dtd" >
<svg xmlns="http://www.w3.org/2000/svg">
<metadata>
Created by FontPrep 20130207 at Tue Jun  3 20:46:46 2014
 By Kobi Benezri
Copyright (c) 2011 by Omnibus-Type (www.omnibus-type.com) with Reserved Font Name "Asap".
</metadata>
<defs>
<font id="340251cef530dd7e8d21458475afa26f" horiz-adv-x='1024' >
  <font-face 
    font-family="HudlAsap-Regular"
    font-weight="400"
    font-stretch="normal"
    units-per-em="2048"
    panose-1="0 0 5 0 0 0 0 0 0 0"
    ascent="1638"
    descent="-410"
    x-height="1071"
    cap-height="1438"
    bbox="-156 -434.014 2048 1908"
    underline-thickness="102"
    underline-position="-16"
    unicode-range="U+000D-FB02"
  />
<missing-glyph horiz-adv-x="2048" 
 />
    <glyph glyph-name=".notdef" horiz-adv-x="2048" 
 />
    <glyph glyph-name="uni0000" horiz-adv-x="0" 
 />
    <glyph glyph-name="uni0000" horiz-adv-x="0" 
 />
    <glyph glyph-name="uni000D" unicode="&#xd;" horiz-adv-x="681" 
 />
    <glyph glyph-name="space" unicode=" " horiz-adv-x="491" 
 />
    <glyph glyph-name="exclam" unicode="!" horiz-adv-x="559" 
d="M264 221h35q82 0 82 -45v-135q0 -45 -82 -45h-35q-82 0 -82 45v135q0 45 82 45zM268 414q-63 0 -63 45l-35 934q0 45 80 45h59q80 0 80 -45l-35 -934q0 -45 -63 -45h-23z" />
    <glyph glyph-name="quotedbl" unicode="&#x22;" horiz-adv-x="653" 
d="M365 1393q0 45 81 45h21q82 0 82 -45v-29l-47 -373q-6 -25 -46 -25t-46 25l-45 377v25zM102 1393q0 45 82 45h21q82 0 82 -45v-29l-47 -373q-6 -25 -46 -25t-47 25l-45 377v25z" />
    <glyph glyph-name="numbersign" unicode="#" horiz-adv-x="1093" 
d="M702 860h-241l-53 -301h241zM223 -4h-8q-57 0 -57 35l65 370h-155q-41 0 -41 62v35q0 61 41 61h186l53 301h-166q-41 0 -41 62v34q0 61 41 62h193l63 342q4 18 9 24q14 20 81 21h9q57 0 57 -31l-68 -356h244l62 342q4 18 8 24q14 20 82 21h10q57 0 57 -31l-63 -356h139
q41 0 41 -62v-34q0 -61 -41 -62h-170l-51 -301h155q41 0 41 -61v-35q0 -61 -41 -62h-188l-63 -360q-5 -27 -23 -36t-66 -9h-8q-57 0 -57 35l65 370h-241l-66 -360l-8 -25q-14 -20 -80 -20z" />
    <glyph glyph-name="dollar" unicode="$" horiz-adv-x="1015" 
d="M764 384q0 91 -50 146t-155 101v-490q92 16 149 84q56 68 56 159zM285 1070q0 -85 46 -135t146 -91v440q-90 -16 -141 -72t-51 -142zM72 137q0 25 27 68q28 43 44 43q8 0 50 -27q137 -84 284 -86v529q-243 97 -301 170q-78 100 -78 242t104 240t275 118v86q0 32 41 32
t41 -32v-82q111 -2 217 -37t107 -80q0 -23 -26 -66t-38 -43t-45 19q-102 57 -215 59v-477q97 -33 145 -57t115 -70q131 -94 131 -279t-102 -293t-289 -124v-103q0 -33 -41 -33t-41 33v101q-161 4 -283 54t-122 95z" />
    <glyph glyph-name="percent" unicode="%" horiz-adv-x="1566" 
d="M1163 102q150 0 150 217q0 162 -68 205q-33 20 -80 21q-98 0 -125 -78q-23 -59 -22 -154q0 -211 145 -211zM1163 -10q-281 0 -281 333t281 332q127 0 204 -80q77 -79 77 -253t-77 -253t-204 -79zM403 893q150 0 150 217q0 162 -68 205q-33 20 -79 20q-98 0 -127 -78
q-21 -55 -21 -136t8 -119t41 -74t96 -35zM330 4q0 12 8 21l764 1382q20 39 82 39h10q49 0 49 -19q0 -6 -8 -20l-764 -1382q-20 -39 -82 -39h-10q-49 0 -49 18zM403 780q-281 0 -281 333t281 333q127 0 204 -80t77 -254t-77 -253t-204 -79z" />
    <glyph glyph-name="ampersand" unicode="&#x26;" horiz-adv-x="1325" 
d="M283 412q0 -121 100 -201t244 -80t291 100l-420 461q-96 -39 -156 -115q-59 -77 -59 -165zM379 1135q0 -80 78 -170l90 -103q193 84 192 262q0 82 -51 134t-130 52t-129 -47q-50 -48 -50 -128zM1274 535v-27q0 -217 -127 -307l133 -142q14 -16 14 -34q0 -29 -82 -29h-28
q-57 0 -76 27l-82 92q-168 -131 -406 -131t-377 114q-140 114 -141 301q0 141 79 250t220 148l-59 63q-74 80 -101 137q-28 57 -28 131q0 140 98 228t252 88t248 -87t94 -223t-59 -222q-59 -85 -213 -144l405 -446q40 40 52 72t12 93v48q0 45 82 45h8q82 0 82 -45z" />
    <glyph glyph-name="quotesingle" unicode="'" horiz-adv-x="374" 
d="M102 1393q0 45 82 45h21q82 0 82 -45v-29l-47 -373q-6 -25 -46 -25t-47 25l-45 377v25z" />
    <glyph glyph-name="parenleft" unicode="(" horiz-adv-x="616" 
d="M113 586q0 308 101 571q101 264 275 426q42 42 83 8t3 -84q-141 -167 -219 -407t-78 -512t78 -514t217 -410q35 -39 0 -78q-17 -20 -39 -20t-45 22q-172 158 -274 424t-102 574z" />
    <glyph glyph-name="parenright" unicode=")" horiz-adv-x="616" 
d="M338 582q0 274 -78 516t-217 409q-18 21 -18 39t19 38q39 42 83 -1q174 -162 275 -426q102 -264 102 -571q0 -308 -102 -572t-275 -426q-20 -20 -43 -20q-22 0 -44 17q-38 30 -7 67q143 166 224 412q81 244 81 518z" />
    <glyph glyph-name="asterisk" unicode="*" horiz-adv-x="763" 
d="M190 848q-14 0 -29 11q-31 23 -5 56l145 203l-201 66q-28 10 -28 32t11 34q11 14 25 14t19 -2l203 -66v215q0 41 41 41t41 -41v-215l202 66q4 2 18 2t26 -14t12 -34q0 -22 -29 -32l-203 -66l148 -203q10 -16 10 -28q0 -11 -15 -25t-31 -14t-30 18l-149 207l-150 -207
q-17 -18 -31 -18z" />
    <glyph glyph-name="plus" unicode="+" horiz-adv-x="1146" 
d="M506 403h-367q-23 -1 -31 11t-10 43v14q0 70 41 70h367v366q0 41 61 41h15q61 0 61 -41v-366h365q41 0 41 -62v-14q0 -61 -41 -62h-365v-366q0 -41 -61 -41h-15q-61 0 -61 41v366z" />
    <glyph glyph-name="comma" unicode="," horiz-adv-x="405" 
d="M113 156q0 66 82 65h18q82 0 82 -57q0 -156 -72 -279t-135 -123t-63 31q0 12 18 49q70 138 70 314z" />
    <glyph glyph-name="hyphen" unicode="-" 
d="M131 471q-41 0 -41 61v21q0 61 41 61h387q41 0 41 -61v-21q0 -61 -41 -61h-387z" />
    <glyph glyph-name="period" unicode="." horiz-adv-x="405" 
d="M104 176q0 45 82 45h35q82 0 82 -45v-135q0 -45 -82 -45h-35q-82 0 -82 45v135z" />
    <glyph glyph-name="slash" unicode="/" horiz-adv-x="757" 
d="M700 1440q49 0 50 -41q0 -14 -7 -31l-634 -1477q-23 -47 -68 -47h-8q-53 0 -53 41q0 16 6 31l635 1477q23 47 71 47h8z" />
    <glyph glyph-name="zero" unicode="0" horiz-adv-x="1095" 
d="M254 717q0 -297 84 -439t208 -143q124 0 210 141q84 142 84 440t-84 441q-86 141 -210 141t-208 -142t-84 -439zM1014 717q0 -349 -130 -539t-337 -190t-337 189t-130 539t130 540t337 190t337 -190t130 -539z" />
    <glyph glyph-name="one" unicode="1" horiz-adv-x="1095" 
d="M88 86q0 61 41 61h356v1104l-362 -61q-17 0 -29 34t-12 66t37 43l475 105q25 0 44 -12t19 -31v-1248h304q41 0 40 -61v-25q0 -61 -40 -61h-832q-41 0 -41 61v25z" />
    <glyph glyph-name="two" unicode="2" horiz-adv-x="1095" 
d="M145 0q-16 0 -28 28q-13 28 -13 58t12 45q12 13 118 147q105 134 265 330q161 196 221 291q60 94 60 188t-67 153q-68 58 -170 58q-156 0 -277 -77q-39 -27 -51 -27t-38 40t-25 62q0 58 124 104t244 46q201 0 319 -93t117 -255q0 -98 -36 -184t-123 -200
q-88 -116 -310 -386l-149 -183h590q41 0 41 -61v-23q0 -61 -41 -61h-783z" />
    <glyph glyph-name="three" unicode="3" horiz-adv-x="1095" 
d="M92 104q0 29 27 66t45 37l12 -2q175 -70 281 -70q107 0 167 24t109 88t49 189q0 252 -307 252h-67q-41 0 -41 62v22q0 61 41 62h59q131 0 202 80t71 176t-59 152q-58 56 -194 56t-241 -49q-33 -18 -47 -18t-40 41t-26 65q0 41 125 75t242 34q194 0 304 -93t109 -270
q0 -96 -58 -171t-153 -111v-8q106 -27 182 -129t77 -230q0 -244 -154 -352q-133 -94 -305 -94t-289 39q-121 36 -121 77z" />
    <glyph glyph-name="four" unicode="4" horiz-adv-x="1095" 
d="M709 489v652l-9 4l-460 -656h469zM709 342h-623q-16 0 -33 36q-16 36 -16 62t4 29l674 940q23 29 69 29h33q61 0 62 -45v-904h137q41 0 41 -61v-25q0 -61 -41 -61h-137v-301q0 -45 -62 -45h-47q-61 0 -61 45v301z" />
    <glyph glyph-name="five" unicode="5" horiz-adv-x="1095" 
d="M96 111q0 29 27 65t38 37q11 0 109 -39t222 -39t214 82q89 82 89 217q0 283 -369 283h-174q-57 0 -57 61l34 594q4 61 66 62h545q41 0 41 -62v-24q0 -61 -41 -62h-445l-26 -422h106q180 0 330 -90q166 -98 166 -346t-160 -350q-139 -90 -314 -90t-288 40t-113 83z" />
    <glyph glyph-name="six" unicode="6" horiz-adv-x="1095" 
d="M276 489q0 -182 74 -267t189 -85t193 74t77 203q0 128 -76 198t-202 70t-246 -70q-9 -74 -9 -123zM104 506q0 162 54 318t143 268q168 217 348 307q76 39 111 39q34 0 56 -37t22 -63t-17 -31q-397 -164 -506 -545q117 68 282 68t275 -116t111 -302q0 -186 -126 -304
t-329 -118q-204 0 -314 134t-110 382z" />
    <glyph glyph-name="seven" unicode="7" horiz-adv-x="1095" 
d="M199 33q0 6 8 24l592 1229h-645q-41 0 -41 62v24q0 61 41 62h809q12 0 30 -45t6 -82l-606 -1278q-14 -33 -82 -33h-24q-88 0 -88 37z" />
    <glyph glyph-name="eight" unicode="8" horiz-adv-x="1095" 
d="M281 414q-1 -131 73 -205t193 -74t193 74t75 205q0 88 -43 142t-92 78q-50 24 -118 48t-93 35q-188 -110 -188 -303zM772 1092q0 100 -59 153t-161 53t-160 -52t-58 -156t61 -154t201 -100q176 102 176 256zM104 414q0 143 56 227t172 137q-170 102 -170 314
q0 164 107 259q108 95 282 95t284 -95t109 -259q0 -219 -199 -312q125 -57 185 -139t61 -227q0 -205 -121 -316q-120 -110 -322 -110t-323 110t-121 316z" />
    <glyph glyph-name="nine" unicode="9" horiz-adv-x="1095" 
d="M556 1296q-114 0 -192 -74t-77 -202q-1 -129 75 -199q76 -69 202 -69t247 69q8 74 8 123q0 182 -74 267q-75 85 -189 85zM337 -4q-35 0 -57 38t-22 62t16 31q397 164 506 545q-116 -68 -280 -68t-276 117t-112 303t127 303t329 117t313 -134t110 -382q0 -162 -54 -317
t-140 -267q-170 -219 -348 -309q-76 -39 -112 -39z" />
    <glyph glyph-name="colon" unicode=":" horiz-adv-x="405" 
d="M104 176q0 45 82 45h35q82 0 82 -45v-135q0 -45 -82 -45h-35q-82 0 -82 45v135zM186 850q-82 0 -82 45v135q0 45 82 45h35q82 0 82 -45v-135q0 -45 -82 -45h-35z" />
    <glyph glyph-name="semicolon" unicode=";" horiz-adv-x="405" 
d="M113 156q0 66 82 65h18q82 0 82 -57q0 -156 -72 -279t-135 -123t-63 31q0 12 18 49q70 138 70 314zM186 850q-82 0 -82 45v135q0 45 82 45h35q82 0 82 -45v-135q0 -45 -82 -45h-35z" />
    <glyph glyph-name="less" unicode="&#x3c;" horiz-adv-x="1146" 
d="M84 483q0 51 51 72l842 356q14 6 31 7q43 0 43 -54v-28q0 -53 -50 -72l-729 -297l729 -299q49 -20 50 -72v-28q0 -53 -43 -54q-16 0 -31 6l-842 357q-51 20 -51 72v34z" />
    <glyph glyph-name="equal" unicode="=" horiz-adv-x="1146" 
d="M160 219q-61 0 -62 62v16q0 61 62 61h827q61 0 62 -61v-16q0 -61 -62 -62h-827zM160 555q-61 0 -62 61v15q0 61 62 61h827q61 0 62 -61v-15q0 -61 -62 -61h-827z" />
    <glyph glyph-name="greater" unicode="&#x3e;" horiz-adv-x="1146" 
d="M94 94q0 49 49 72l729 299l-729 297q-49 18 -49 72v28q0 53 43 53q14 0 31 -6l842 -356q51 -20 51 -72v-35q0 -51 -51 -71l-842 -357q-16 -6 -31 -6q-43 0 -43 54v28z" />
    <glyph glyph-name="question" unicode="?" horiz-adv-x="911" 
d="M279 176q0 45 81 45h35q82 0 82 -45v-135q0 -45 -82 -45h-35q-82 0 -81 45v135zM305 461q0 150 176 325l78 78q52 52 84 111q33 59 33 106q0 213 -258 213q-76 0 -164 -34t-90 -35q-14 0 -40 41t-26 63q0 47 112 82t241 35q193 0 307 -97t112 -241q0 -144 -133 -285
l-114 -114q-141 -135 -158 -254q-6 -41 -68 -41h-30q-62 0 -62 47z" />
    <glyph glyph-name="at" unicode="@" horiz-adv-x="1994" 
d="M719 494q0 -258 180 -258q73 0 145 72t119 216q29 279 39 314q-82 70 -188 69q-295 1 -295 -413zM172 485q0 403 266 681t656 278q307 0 494 -181q188 -181 188 -475t-121 -486t-309 -191q-90 0 -145 48q-54 48 -58 122v14q-102 -184 -277 -184q-94 0 -166 53
q-131 96 -131 331q0 234 119 387t313 152q131 0 228 -96q19 58 31 74t40 16h13q45 0 45 -43q-68 -631 -68 -680q0 -86 82 -86q115 0 204 169t89 390q0 260 -158 418t-413 158q-342 0 -576 -252t-235 -617q-1 -291 153 -472t404 -181q119 0 216 30t99 29q29 0 29 -48
q0 -49 -108 -75t-236 -26q-296 0 -482 206t-186 537z" />
    <glyph glyph-name="A" unicode="A" horiz-adv-x="1255" 
d="M627 1249l-33 -119l-215 -610h489l-215 610zM25 31q0 10 6 28l485 1346q8 33 82 33h59q74 0 82 -33l486 -1348q6 -16 6 -26q0 -35 -88 -35h-17q-74 0 -82 33l-120 336h-602l-117 -336q-8 -33 -82 -33h-10q-88 0 -88 35z" />
    <glyph glyph-name="B" unicode="B" horiz-adv-x="1214" 
d="M379 659v-503h299q133 0 208 70t75 190q0 119 -81 181t-237 62h-264zM379 1278v-463h237q123 0 203 70t80 178q0 215 -291 215h-229zM199 1372q0 61 61 62h367q219 0 339 -98t119 -265q1 -102 -67 -194t-158 -117v-8q31 -4 91 -37q59 -33 99 -68t68 -99t29 -136
q0 -412 -535 -412h-352q-61 0 -61 61v1311z" />
    <glyph glyph-name="C" unicode="C" horiz-adv-x="1267" 
d="M117 717q0 729 663 729q143 0 271 -41q121 -43 120 -86q1 -29 -25 -74t-44 -45q-2 0 -43 23q-117 68 -275 67q-248 0 -364 -137t-117 -434q0 -297 116 -436t357 -140q168 0 301 78q45 25 51 25q16 0 44 -44t28 -67q0 -47 -127 -97t-297 -50q-338 0 -498 177t-161 552z
" />
    <glyph glyph-name="D" unicode="D" horiz-adv-x="1423" 
d="M379 1278v-1122h280q215 0 338 140t123 421t-123 421t-338 140h-280zM199 1372q0 61 61 62h414q299 0 466 -178t167 -540q0 -364 -167 -540t-466 -176h-414q-61 0 -61 61v1311z" />
    <glyph glyph-name="E" unicode="E" horiz-adv-x="1118" 
d="M199 1372q0 61 61 62h715q41 0 41 -62v-33q0 -61 -41 -61h-596v-467h534q41 0 41 -61v-33q0 -61 -41 -62h-534v-499h598q41 0 41 -62v-33q0 -61 -41 -61h-717q-61 0 -61 61v1311z" />
    <glyph glyph-name="F" unicode="F" horiz-adv-x="1030" 
d="M199 1372q0 61 61 62h645q41 0 41 -62v-33q0 -61 -41 -61h-526v-467h489q41 0 41 -61v-33q0 -61 -41 -62h-489v-614q0 -45 -82 -45h-16q-82 0 -82 45v1331z" />
    <glyph glyph-name="G" unicode="G" horiz-adv-x="1376" 
d="M117 705q0 741 663 741q143 0 271 -41q121 -43 120 -86q1 -29 -25 -74t-44 -45q-2 0 -43 23q-117 68 -275 67q-254 0 -368 -140t-113 -427q0 -580 459 -580q166 0 264 27v414h-240q-41 0 -41 61v33q0 61 41 61h359q61 0 61 -61v-543q0 -147 -456 -147q-633 0 -633 717z
" />
    <glyph glyph-name="H" unicode="H" horiz-adv-x="1501" 
d="M199 1393q0 45 82 45h16q82 0 82 -45v-580h741v580q0 45 82 45h17q82 0 81 -45v-1352q0 -45 -81 -45h-17q-82 0 -82 45v616h-741v-616q0 -45 -82 -45h-16q-82 0 -82 45v1352z" />
    <glyph glyph-name="I" unicode="I" horiz-adv-x="577" 
d="M199 1393q0 45 82 45h16q82 0 82 -45v-1352q0 -45 -82 -45h-16q-82 0 -82 45v1352z" />
    <glyph glyph-name="J" unicode="J" horiz-adv-x="823" 
d="M12 53q0 27 14 70q13 43 31 43q6 0 50 -9t79 -10q152 -1 220 59t67 193v994q0 45 82 45h16q82 0 82 -45v-973q0 -432 -434 -432q-207 -1 -207 65z" />
    <glyph glyph-name="K" unicode="K" horiz-adv-x="1179" 
d="M199 1393q0 45 82 45h16q82 0 82 -45v-627h8l504 643q23 29 110 29h21q72 0 72 -27q0 -20 -21 -41l-512 -639l621 -674q18 -20 18 -32q0 -29 -90 -29h-25q-88 0 -112 27l-586 659h-8v-641q0 -45 -82 -45h-16q-82 0 -82 45v1352z" />
    <glyph glyph-name="L" unicode="L" horiz-adv-x="991" 
d="M199 1393q0 45 82 45h16q82 0 82 -45v-1237h563q41 0 41 -62v-33q0 -61 -41 -61h-682q-61 0 -61 61v1332z" />
    <glyph glyph-name="M" unicode="M" horiz-adv-x="1726" 
d="M184 1393q0 45 82 45h74q66 0 86 -37l387 -672l53 -129l54 117l387 684q20 37 86 37h67q82 0 82 -45v-1352q0 -45 -82 -45h-14q-82 0 -82 45v1102l-412 -717q-14 -27 -45 -27h-82q-31 0 -45 27l-418 729v-1114q0 -45 -81 -45h-15q-82 0 -82 45v1352z" />
    <glyph glyph-name="N" unicode="N" horiz-adv-x="1472" 
d="M184 1393q0 45 82 45h43q59 0 86 -39l654 -987l61 -115v1096q0 45 82 45h14q82 0 82 -45v-1352q0 -45 -82 -45h-41q-53 0 -71 29l-676 1019l-56 105v-1108q0 -45 -81 -45h-15q-82 0 -82 45v1352z" />
    <glyph glyph-name="O" unicode="O" horiz-adv-x="1497" 
d="M303 722q0 -280 115 -430q115 -148 331 -148q217 0 331 146q114 148 114 430t-115 426t-331 144t-331 -144q-114 -144 -114 -424zM750 -12q-307 0 -470 187t-163 545t161 542t470 184t471 -184q161 -184 161 -542t-161 -545q-162 -187 -469 -187z" />
    <glyph glyph-name="P" unicode="P" horiz-adv-x="1167" 
d="M354 1278v-512h320q76 0 135 37q113 71 113 214q0 145 -77 203t-200 58h-291zM174 1372q0 61 62 62h415q154 0 259 -52q198 -99 198 -342q0 -213 -121 -319q-131 -111 -315 -111h-318v-569q0 -45 -82 -45h-16q-82 0 -82 45v1331z" />
    <glyph glyph-name="Q" unicode="Q" horiz-adv-x="1497" 
d="M303 713q0 -279 116 -427t330 -148q213 0 329 148t116 426t-117 428t-329 150t-329 -149q-116 -149 -116 -428zM117 711q0 360 162 547q162 188 470 188t470 -188t161 -547q0 -291 -105 -469t-306 -232v-8l403 -127q29 -10 29 -38t-29 -84t-57 -56q-14 0 -353 133
t-458 182q-387 154 -387 699z" />
    <glyph glyph-name="R" unicode="R" horiz-adv-x="1249" 
d="M379 1278v-492h270q111 0 187 76t75 187q0 111 -72 170q-73 59 -204 59h-256zM199 1372q0 61 61 62h344q248 0 371 -88t123 -275q0 -252 -236 -346v-8q57 -19 97 -77t88 -179l159 -404q6 -18 6 -28q0 -33 -86 -33h-20q-70 0 -82 33l-156 401q-43 115 -110 158
q-68 43 -195 43h-184v-590q0 -45 -82 -45h-16q-82 0 -82 45v1331z" />
    <glyph glyph-name="S" unicode="S" horiz-adv-x="1024" 
d="M76 137q0 25 27 68q28 43 44 43q6 0 52 -25q137 -80 315 -80q106 0 180 69t74 171q0 176 -233 264q-9 3 -49 17t-52 19t-47 18q-285 106 -285 368q0 170 125 273t330 104q109 0 219 -39t111 -86q0 -23 -26 -66t-38 -43t-45 21q-102 57 -225 57t-194 -59t-71 -178
t162 -183q62 -25 101 -36q170 -61 272 -140q131 -100 131 -294t-120 -304q-120 -108 -314 -108q-192 0 -318 51t-126 98z" />
    <glyph glyph-name="T" unicode="T" horiz-adv-x="1124" 
d="M475 1278h-393q-41 0 -41 61v33q0 61 41 62h960q41 0 41 -62v-33q0 -61 -41 -61h-387v-1237q0 -45 -82 -45h-16q-82 0 -82 45v1237z" />
    <glyph glyph-name="U" unicode="U" horiz-adv-x="1458" 
d="M170 1393q0 45 82 45h16q82 0 82 -45v-940q0 -135 108 -223t272 -87q164 0 270 87q108 87 108 223v940q0 45 82 45h16q82 0 82 -45v-934q0 -223 -145 -347t-413 -124t-415 124q-145 124 -145 347v934z" />
    <glyph glyph-name="V" unicode="V" horiz-adv-x="1263" 
d="M43 1403q0 35 88 35h19q74 0 81 -33l379 -1094l23 -106l26 108l379 1092q8 33 82 33h13q88 0 88 -35q0 -10 -7 -29l-469 -1345q-8 -33 -81 -33h-64q-74 0 -82 33l-469 1347q-6 17 -6 27z" />
    <glyph glyph-name="W" unicode="W" horiz-adv-x="1806" 
d="M119 1438h20q74 0 82 -33l260 -1008q12 -45 27 -123l10 -67l297 1196q10 35 80 35h33q70 0 80 -35l254 -1008l34 -188l297 1198q8 33 82 33h13q88 0 88 -35l-361 -1374q-8 -33 -82 -33h-84q-74 0 -82 33l-223 833l-43 266l-43 -266l-223 -833q-8 -33 -82 -33h-84
q-74 0 -82 33l-350 1345l-6 29q0 35 88 35z" />
    <glyph glyph-name="X" unicode="X" horiz-adv-x="1251" 
d="M41 31q0 14 16 37l459 680l-410 618q-16 23 -16 37q0 35 94 35h29q66 0 88 -31l328 -494l338 496q18 29 88 29h12q94 0 94 -35q0 -8 -16 -37l-410 -608l461 -690q16 -23 16 -37q0 -35 -94 -35h-33q-66 0 -88 31l-376 563l-381 -565q-18 -29 -88 -29h-17q-94 0 -94 35z
" />
    <glyph glyph-name="Y" unicode="Y" horiz-adv-x="1144" 
d="M37 1403q0 35 94 35h23q66 0 88 -31l336 -504l344 506q18 29 102 29t84 -35q0 -8 -16 -37l-430 -637v-688q0 -45 -82 -45h-17q-82 0 -82 45v694l-428 631q-16 23 -16 37z" />
    <glyph glyph-name="Z" unicode="Z" horiz-adv-x="1261" 
d="M127 0q-14 0 -32 38q-17 38 -17 62t6 33l840 1145h-738q-41 0 -41 70v16q0 70 41 70h938q12 0 28 -38t17 -62q0 -24 -6 -34l-839 -1144h800q41 0 41 -70v-16q0 -70 -41 -70h-997z" />
    <glyph glyph-name="bracketleft" unicode="[" horiz-adv-x="595" 
d="M184 1511q0 61 62 62h248q41 0 41 -60v-10q0 -59 -41 -59h-158v-1600h158q41 0 41 -59v-8q0 -59 -41 -60h-248q-61 0 -62 62v1732z" />
    <glyph glyph-name="backslash" unicode="\" horiz-adv-x="739" 
d="M10 1397q0 41 49 41h9q49 0 71 -47l586 -1360q6 -14 6 -31q0 -41 -53 -41h-8q-45 0 -68 47l-586 1360q-6 15 -6 31z" />
    <glyph glyph-name="bracketright" unicode="]" horiz-adv-x="595" 
d="M260 -156v1600h-158q-41 0 -41 59v10q0 59 41 60h248q61 0 62 -62v-1732q0 -61 -62 -62h-248q-41 0 -41 60v8q0 59 41 59h158z" />
    <glyph glyph-name="asciicircum" unicode="^" horiz-adv-x="921" 
d="M164 655q-55 0 -55 43q0 14 6 29l256 633q16 41 69 41h41q51 0 70 -41l256 -633q6 -14 6 -29q0 -43 -55 -43h-8q-53 0 -72 47l-217 535l-219 -535q-23 -47 -70 -47h-8z" />
    <glyph glyph-name="underscore" unicode="_" horiz-adv-x="1093" 
d="M1096 -184q41 0 41 -41v-17q0 -41 -41 -41h-1098q-41 0 -41 41v17q0 41 41 41h1098z" />
    <glyph glyph-name="grave" unicode="`" 
d="M496 1261q0 -21 -60 -21t-92 36q-178 203 -185 215t-7 22q0 27 97 27t128 -53q119 -205 119 -226z" />
    <glyph glyph-name="a" unicode="a" horiz-adv-x="1142" 
d="M575 934q-340 0 -286 -492q35 -305 237 -305q88 0 162 86t109 260v371q-111 80 -222 80zM991 45q0 -23 -35 -35q-34 -12 -66 -12t-43 18t-15 32t-10 38q-5 23 -7 31l-16 92q-92 -221 -295 -221q-111 0 -199 63t-133 162q-47 90 -59 217q-33 291 86 472t344 181
q143 0 272 -110q14 76 39 92q18 10 41 10h12q51 0 56 -43l4 -729q0 -117 12 -183t12 -75z" />
    <glyph glyph-name="b" unicode="b" horiz-adv-x="1165" 
d="M874 551q0 182 -68 280q-69 98 -200 101h-12q-137 0 -248 -92v-561q129 -141 264 -142q264 0 264 414zM174 1495q0 45 82 45h8q82 0 82 -45v-516q135 104 309 104t287 -144t113 -392v-19q0 -240 -109 -390t-288 -150t-326 153l-33 -121q-8 -25 -55 -24h-8q-61 0 -62 45
v1454z" />
    <glyph glyph-name="c" unicode="c" horiz-adv-x="993" 
d="M588 936q-297 0 -297 -391q0 -217 74 -313t243 -97q126 0 246 60q4 2 8 2q18 0 44 -39t26 -66q0 -36 -97 -70t-225 -34q-256 0 -380 133t-124 429t156 425q137 109 330 108q115 1 211 -27t96 -67q1 -27 -23 -69t-40 -41q-16 0 -25 8q-111 49 -223 49z" />
    <glyph glyph-name="d" unicode="d" horiz-adv-x="1157" 
d="M287 551q0 -414 266 -414q133 0 262 142v561q-111 92 -248 92h-12q-131 -2 -199 -100t-69 -281zM106 528v19q0 248 113 392t287 144t309 -104v516q0 45 82 45h8q82 0 82 -45v-1192q0 -117 12 -183t13 -75q0 -23 -35 -35t-67 -12t-43 18t-19 45l-6 27q-4 10 -8 28t-5 25
q-147 -153 -326 -153t-288 150t-109 390z" />
    <glyph glyph-name="e" unicode="e" horiz-adv-x="1103" 
d="M829 612q0 324 -245 324q-264 0 -287 -324h532zM614 -12q-256 0 -378 133t-123 406q0 273 119 415q120 141 346 141q434 0 434 -534q0 -18 -25 -51t-43 -33h-647q12 -170 88 -250t220 -80t263 66q39 20 43 20q18 0 45 -40t27 -62q0 -41 -111 -86t-258 -45z" />
    <glyph glyph-name="f" unicode="f" horiz-adv-x="665" 
d="M221 924h-82q-41 0 -41 61v25q0 61 41 61h82v195q0 283 264 282q150 0 150 -61q0 -25 -13 -61t-30 -35l-29 6q-33 4 -75 4q-96 0 -95 -152v-178h178q41 0 41 -61v-25q0 -61 -41 -61h-178v-883q0 -45 -82 -45h-8q-82 0 -82 45v883z" />
    <glyph glyph-name="g" unicode="g" horiz-adv-x="1155" 
d="M586 934q-350 0 -295 -492q31 -293 244 -292q93 0 169 87t113 263v354q-114 80 -231 80zM553 1083q152 0 283 -110q14 76 38 92q18 10 41 10h13q51 0 57 -43l2 -829q2 -349 -97 -493t-331 -144q-145 0 -253 47t-116 98q-12 113 17 113q4 0 45 -27q121 -84 281 -84
q161 0 227 120t57 388q-96 -221 -305 -221q-115 0 -204 61t-134 151t-61 218q-33 291 88 472t352 181z" />
    <glyph glyph-name="h" unicode="h" horiz-adv-x="1157" 
d="M188 1495q0 45 82 45h9q82 0 81 -45v-553q141 141 314 141q219 0 295 -163q31 -72 30 -168v-711q0 -45 -81 -45h-9q-82 0 -82 45v694q0 91 -52 145t-134 54q-81 0 -147 -33t-103 -74l-31 -36v-750q0 -45 -81 -45h-9q-82 0 -82 45v1454z" />
    <glyph glyph-name="i" unicode="i" horiz-adv-x="542" 
d="M186 1030q0 45 82 45h8q82 0 82 -45v-989q0 -45 -82 -45h-8q-82 0 -82 45v989zM260 1329q-82 0 -82 45v121q0 45 82 45h25q82 0 82 -45v-121q0 -45 -82 -45h-25z" />
    <glyph glyph-name="j" unicode="j" horiz-adv-x="565" 
d="M207 1030q0 45 82 45h8q82 0 82 -45v-1182q0 -147 -75 -215t-189 -67q-150 0 -150 61q0 25 13 61t30 36l29 -5q25 -6 59 -6q111 0 111 152v1165zM281 1329q-82 0 -82 45v121q0 45 82 45h24q82 0 82 -45v-121q0 -45 -82 -45h-24z" />
    <glyph glyph-name="k" unicode="k" horiz-adv-x="1067" 
d="M193 1495q0 45 81 45h9q82 0 82 -45v-915h8l391 467q23 29 108 28h9q72 0 71 -26q0 -20 -20 -41l-381 -451l422 -500q18 -20 18 -32q0 -29 -90 -29h-8q-90 0 -111 27l-409 485h-8v-467q0 -45 -82 -45h-9q-82 0 -81 45v1454z" />
    <glyph glyph-name="l" unicode="l" horiz-adv-x="608" 
d="M168 1495q0 45 82 45h8q82 0 82 -45v-1208q0 -152 111 -152q35 0 59 6l29 4q16 1 29 -35t14 -61q0 -61 -132 -61t-208 68q-74 68 -74 214v1225z" />
    <glyph glyph-name="m" unicode="m" horiz-adv-x="1736" 
d="M174 760q0 120 -12 184t-12 74q0 23 36 35t65 12q30 0 42 -15q12 -16 16 -32q5 -22 13 -37l6 -27l4 -24q131 154 311 153q221 0 293 -170q145 170 326 170q217 0 290 -163q31 -72 31 -168v-711q0 -45 -82 -45h-8q-82 0 -82 45v694q0 95 -50 147t-147 52q-125 0 -251 -141
q2 -10 2 -43v-709q0 -45 -82 -45h-9q-82 0 -81 45v694q-1 91 -51 145t-128 54t-141 -32t-96 -75l-31 -34v-752q0 -45 -82 -45h-8q-82 0 -82 45v719z" />
    <glyph glyph-name="n" unicode="n" horiz-adv-x="1140" 
d="M987 752v-711q0 -45 -82 -45h-8q-82 0 -82 45v694q0 95 -54 147t-155 52q-147 0 -258 -143v-750q0 -45 -82 -45h-8q-82 0 -82 45v719q0 120 -12 184t-12 74q0 23 36 35t65 12q30 0 42 -15t20 -44l9 -25l6 -27l4 -24q137 154 306 154t258 -88q89 -87 89 -244z" />
    <glyph glyph-name="o" unicode="o" horiz-adv-x="1165" 
d="M292 536q0 -208 71 -305q71 -96 220 -96t221 97q72 96 70 302q0 206 -71 304t-221 98t-220 -96t-70 -304zM587 -12q-230 0 -353 139q-122 139 -122 404t124 409q123 144 350 143q227 0 347 -141q120 -142 120 -410t-118 -406t-348 -138z" />
    <glyph glyph-name="p" unicode="p" horiz-adv-x="1173" 
d="M596 139h12q268 4 269 389q0 195 -67 300q-67 106 -200 106t-262 -141v-562q111 -92 248 -92zM1057 543v-19q0 -246 -113 -391t-287 -145t-309 104v-473q0 -45 -82 -45h-8q-82 0 -82 45v1141q0 120 -12 184t-12 74q0 23 36 35t65 12q30 0 42 -15t20 -44l9 -25l6 -27
l4 -24q146 154 326 154t288 -152q108 -150 109 -389z" />
    <glyph glyph-name="q" unicode="q" horiz-adv-x="1159" 
d="M567 139q137 0 248 92v562q-129 141 -262 141q-266 0 -266 -414q1 -182 69 -280t199 -101h12zM506 -12q-174 0 -287 145t-113 391v19q0 241 109 391t288 150t326 -154l33 121q10 25 56 24h8q61 0 61 -45v-1411q0 -45 -82 -45h-8q-82 0 -82 45v473q-135 -104 -309 -104z
" />
    <glyph glyph-name="r" unicode="r" horiz-adv-x="749" 
d="M657 893q-8 0 -42 11q-33 11 -73 11q-40 1 -87 -29t-74 -65l-25 -30v-750q0 -45 -82 -45h-8q-82 0 -82 45v719q0 120 -12 184t-12 74q0 23 36 35t66 12t41 -15q12 -15 21 -44l8 -25l6 -27l4 -24q106 154 238 153q55 1 87 -21q31 -22 31 -58t-12 -74q-12 -37 -29 -37z" />
    <glyph glyph-name="s" unicode="s" horiz-adv-x="845" 
d="M72 111q0 23 26 63t45 39q2 0 33 -18q92 -59 227 -60q82 0 134 47q51 47 51 126t-47 123t-185 82t-198 100q-60 63 -60 185t96 204t244 81q106 -1 188 -27t81 -59q0 -27 -24 -69t-42 -41q-2 0 -27 12q-70 37 -156 37t-134 -36q-50 -36 -50 -93t36 -90t122 -60
q194 -59 262 -130t68 -212t-100 -234t-244 -93t-244 42q-102 42 -102 81z" />
    <glyph glyph-name="t" unicode="t" horiz-adv-x="700" 
d="M219 924h-102q-41 0 -41 61v25q0 61 41 61h102l25 215q2 45 65 45h21q61 0 61 -45v-215h172q41 0 41 -61v-25q0 -61 -41 -61h-172v-637q0 -152 111 -152q35 0 59 6l29 4q16 1 30 -35t13 -61q-1 -61 -133 -61t-206 68t-75 214v654z" />
    <glyph glyph-name="u" unicode="u" horiz-adv-x="1140" 
d="M154 1030q0 45 82 45h8q82 0 82 -45v-694q0 -94 54 -146t155 -53q147 0 258 144v749q0 45 81 45h9q82 0 82 -45v-727q0 -117 12 -183t12 -75q0 -23 -35 -35q-34 -12 -66 -12t-43 18t-20 45l-6 27q-4 10 -6 28t-6 25q-139 -153 -306 -153t-257 88t-90 243v711z" />
    <glyph glyph-name="v" unicode="v" horiz-adv-x="993" 
d="M43 1040q0 35 88 35h16q74 0 82 -33l275 -829l274 829q8 33 90 33t82 -35q0 -10 -6 -28l-330 -983q-8 -33 -82 -33h-71q-74 0 -82 33l-330 985q-6 18 -6 26z" />
    <glyph glyph-name="w" unicode="w" horiz-adv-x="1529" 
d="M61 1040q0 35 89 35h18q74 0 82 -33l215 -817l213 815q10 35 80 35h22q70 0 80 -35l215 -815l213 817q8 33 92 33t84 -35q0 -10 -6 -28l-274 -983q-8 -33 -82 -33h-68q-72 0 -80 33l-188 745l-193 -745q-8 -33 -81 -33h-68q-74 0 -82 33l-274 985q-7 18 -7 26z" />
    <glyph glyph-name="x" unicode="x" horiz-adv-x="993" 
d="M41 31q0 14 16 37l332 481l-307 455q-16 23 -16 36q0 35 94 35h22q66 0 88 -31l234 -339l235 342q18 29 88 28h9q94 0 94 -35q0 -14 -17 -36l-309 -451l332 -485q16 -23 16 -37q0 -35 -94 -35h-22q-66 0 -88 31l-256 374l-261 -376q-23 -29 -88 -29h-8q-94 0 -94 35z" />
    <glyph glyph-name="y" unicode="y" horiz-adv-x="1134" 
d="M539 -434q-145 0 -253 47t-116 98q-12 113 16 113q4 0 45 -27q121 -84 291 -84q137 -1 204 99t71 319q-131 -143 -297 -143t-256 88t-90 243v711q0 45 82 45h8q82 0 82 -45v-694q0 -94 54 -146t155 -53q147 0 258 144v749q0 45 81 45h9q82 0 82 -45l2 -827
q3 -349 -97 -493t-331 -144z" />
    <glyph glyph-name="z" unicode="z" horiz-adv-x="1001" 
d="M121 0q-12 0 -29 37q-16 37 -16 59t6 31l600 797h-524q-41 0 -41 61v25q0 61 41 61h719q12 0 30 -47t6 -80l-598 -797h564q41 0 41 -61v-25q0 -61 -41 -61h-758z" />
    <glyph glyph-name="braceleft" unicode="{" horiz-adv-x="561" 
d="M197 297q0 117 -22 177t-77 85q-57 25 -57 72v28q0 47 56 73t78 84t22 177v342q0 119 47 178t112 60h103q41 0 41 -60v-8q0 -59 -41 -59h-45q-42 0 -56 -29t-14 -96v-360q0 -203 -160 -318q18 -10 58 -41q38 -34 70 -110t32 -162v-359q0 -71 14 -99t56 -28h45
q41 0 41 -59v-8q0 -59 -41 -60h-103q-66 1 -112 59t-47 179v342z" />
    <glyph glyph-name="bar" unicode="|" horiz-adv-x="512" 
d="M197 1532q0 45 49 45h20q49 0 49 -45v-1774q0 -45 -49 -45h-20q-49 0 -49 45v1774z" />
    <glyph glyph-name="braceright" unicode="}" horiz-adv-x="561" 
d="M147 -156q41 0 56 29q14 29 14 98v359q0 86 33 162t69 108t58 43q-160 115 -160 318v360q0 69 -14 97t-56 28h-45q-41 0 -41 59v8q0 59 41 60h103q67 1 113 -59t47 -179v-342q-1 -119 21 -177t78 -84t56 -73v-28q0 -47 -56 -72t-78 -85t-21 -177v-342q1 -121 -47 -179
t-113 -59h-103q-41 0 -41 60v8q0 59 41 59h45z" />
    <glyph glyph-name="asciitilde" unicode="~" horiz-adv-x="1120" 
d="M958 549q0 -37 -82 -73t-173 -36t-197 27t-146 27t-84 -12q-45 -12 -64 -11q-19 0 -35 26q-15 26 -15 42q0 35 83 71t173 35q90 0 196 -27q106 -26 148 -26t86 11q45 11 60 11q14 0 32 -19t18 -46z" />
    <glyph glyph-name="uni00A0" unicode="&#xa0;" horiz-adv-x="983" 
 />
    <glyph glyph-name="exclamdown" unicode="&#xa1;" horiz-adv-x="559" 
d="M268 657h23q63 0 63 -45l35 -934q0 -45 -80 -45h-59q-80 0 -80 45l35 934q0 45 63 45zM264 1075h35q82 0 82 -45v-135q0 -45 -82 -45h-35q-82 0 -82 45v135q0 45 82 45z" />
    <glyph glyph-name="cent" unicode="&#xa2;" horiz-adv-x="995" 
d="M295 545q0 -203 59 -298t197 -110v797q-256 -24 -256 -389zM113 552q0 284 137 406q123 115 301 123v80q0 33 41 33t41 -33v-80q104 -5 180 -31t76 -61q0 -27 -24 -69t-42 -41l-26 10q-80 39 -164 45v-799q96 8 186 49q29 12 33 13q18 0 44 -39t26 -66q0 -36 -86 -68
t-203 -36v-109q0 -33 -41 -33t-41 33v111q-223 12 -331 145q-107 133 -107 417z" />
    <glyph glyph-name="sterling" unicode="&#xa3;" horiz-adv-x="1005" 
d="M68 94q0 49 88 82q36 16 62 55t26 95v368h-113q-41 0 -41 62v24q0 61 41 62h113v178q0 426 420 426q207 0 206 -66q0 -24 -13 -62t-32 -38l-45 10q-41 8 -84 8q-147 0 -214 -64t-66 -204v-188h301q41 0 41 -62v-24q0 -61 -41 -62h-301v-184q0 -254 -80 -334
q-8 -8 -37 -29h573q41 0 41 -61v-25q0 -61 -41 -61h-763q-41 0 -41 61v33z" />
    <glyph glyph-name="currency" unicode="&#xa4;" horiz-adv-x="1093" 
d="M539 422q98 0 169 70q70 70 70 168t-70 168q-71 71 -169 71t-168 -71q-70 -70 -70 -168t70 -168t168 -70zM234 293q-20 0 -40 19q-40 40 3 83l49 49q-70 90 -70 213t70 217l-49 48q-20 20 -21 43q0 23 16 42t40 19q22 0 42 -25l50 -49q100 72 217 72t211 -70l49 50
q19 20 39 20t42 -19q43 -37 -1 -83l-50 -50q72 -96 72 -214t-72 -214l50 -49q41 -41 3 -82q-20 -20 -40 -20t-43 22l-49 50q-96 -68 -213 -68t-213 68l-52 -52q-20 -20 -40 -20z" />
    <glyph glyph-name="yen" unicode="&#xa5;" horiz-adv-x="1144" 
d="M481 391h-342q-41 0 -41 62v16q0 61 41 61h342v197h-342q-41 0 -41 61v17q0 61 41 61h252l-338 500q-16 23 -16 37q0 35 94 35h23q66 0 88 -31l336 -504l344 506q18 29 102 29t84 -35q0 -8 -16 -37l-338 -500h254q41 0 41 -61v-17q0 -61 -41 -61h-346v-197h346
q41 0 41 -61v-16q0 -61 -41 -62h-346v-350q0 -45 -82 -45h-17q-82 0 -82 45v350z" />
    <glyph glyph-name="brokenbar" unicode="&#xa6;" horiz-adv-x="512" 
d="M197 418q0 45 49 45h20q49 0 49 -45v-660q0 -45 -49 -45h-20q-49 0 -49 45v660zM246 825q-49 0 -49 45v662q0 45 49 45h20q49 0 49 -45v-662q0 -45 -49 -45h-20z" />
    <glyph glyph-name="section" unicode="&#xa7;" horiz-adv-x="878" 
d="M602 702q0 54 -31 94t-71 57t-109 38q-115 -35 -115 -156q0 -57 30 -95t68 -54t113 -41q115 28 115 157zM152 74q0 26 24 68t41 42q4 0 25 -12q70 -37 154 -37t130 34q45 34 45 87q1 96 -119 128t-227 95q-123 70 -123 256q0 139 109 236q-78 71 -78 197t93 202t217 76
t205 -27t81 -59q1 -27 -23 -69t-42 -42q-4 0 -25 13q-70 37 -158 36q-172 0 -172 -122q0 -96 166 -144q69 -20 97 -30t77 -40q49 -32 80 -75q47 -72 47 -185q0 -150 -112 -237q82 -68 82 -196q0 -129 -93 -205q-92 -76 -216 -76q-125 0 -205 26t-80 60z" />
    <glyph glyph-name="dieresis" unicode="&#xa8;" 
d="M473 1243q-82 0 -82 45v105q0 45 82 45h8q82 0 82 -45v-105q0 -45 -82 -45h-8zM178 1243q-82 0 -82 45v105q0 45 82 45h8q82 0 82 -45v-105q0 -45 -82 -45h-8z" />
    <glyph glyph-name="copyright" unicode="&#xa9;" horiz-adv-x="1513" 
d="M395 715q0 436 398 436q89 0 161 -25t72 -51q0 -18 -15 -45t-28 -26q-4 0 -25 14q-70 41 -163 41q-147 0 -218 -83t-71 -259t70 -260t212 -84q102 0 181 45q29 16 30 16q12 0 28 -25q15 -26 15 -40q0 -27 -76 -58t-178 -30q-201 1 -297 107t-96 327zM756 1356
q-264 0 -450 -184t-187 -446q0 -262 187 -450q186 -188 450 -188t451 187t187 451t-186 446q-188 184 -452 184zM756 1454q308 0 522 -212q215 -212 215 -517t-216 -520t-521 -215t-520 215t-216 520q0 305 214 517t522 212z" />
    <glyph glyph-name="ordfeminine" unicode="&#xaa;" horiz-adv-x="653" 
d="M184 1061q0 -82 84 -82t162 68v120q-186 0 -225 -45q-21 -22 -21 -61zM514 1059q0 -66 12 -127q0 -23 -55 -23q-25 0 -35 72q-72 -78 -158 -78t-137 38q-49 38 -49 101q0 153 154 181q86 16 184 16v49q0 84 -113 84q-77 0 -115 -20t-45 -20t-21 18t-13 30q0 20 60 43
q59 23 143 23t136 -43t52 -117v-227z" />
    <glyph glyph-name="guillemotleft" unicode="&#xab;" horiz-adv-x="964" 
d="M442 528q0 24 27 58l266 319q23 25 45 25t48 -20q24 -20 24 -43q0 -22 -16 -44l-228 -295l228 -297q16 -23 16 -41t-25 -42q-52 -50 -92 4l-266 319q-27 33 -27 57zM90 528q0 24 27 58l266 319q23 25 45 25t48 -20q24 -20 24 -43q0 -22 -17 -44l-227 -295l227 -297
q17 -23 17 -41t-25 -42q-52 -50 -92 4l-266 319q-27 33 -27 57z" />
    <glyph glyph-name="logicalnot" unicode="&#xac;" horiz-adv-x="1146" 
d="M920 543h-801q-41 0 -41 61v27q0 61 41 61h889q61 0 61 -61v-428q0 -45 -61 -45h-27q-61 0 -61 45v340z" />
    <glyph glyph-name="uni00AD" unicode="&#xad;" 
d="M131 471q-41 0 -41 61v21q0 61 41 61h387q41 0 41 -61v-21q0 -61 -41 -61h-387z" />
    <glyph glyph-name="registered" unicode="&#xae;" horiz-adv-x="1513" 
d="M616 1053v-289h160q63 0 109 44q45 44 45 103q0 141 -162 142h-152zM510 1108q0 37 37 37h203q291 0 290 -213q0 -150 -139 -205v-4q33 -12 55 -44t54 -108l94 -237l4 -19q0 -18 -51 -18h-13q-37 0 -47 18l-92 238q-27 67 -65 93t-115 26h-109v-348q0 -27 -49 -27h-8
q-49 0 -49 27v784zM756 1356q-264 0 -450 -184t-187 -446q0 -262 187 -450q186 -188 450 -188t451 187t187 451t-186 446q-188 184 -452 184zM756 1454q308 0 522 -212q215 -212 215 -517t-216 -520t-521 -215t-520 215t-216 520q0 305 214 517t522 212z" />
    <glyph glyph-name="macron" unicode="&#xaf;" 
d="M96 1253q-41 0 -41 62v20q0 61 41 62h457q41 0 41 -62v-20q0 -61 -41 -62h-457z" />
    <glyph glyph-name="degree" unicode="&#xb0;" horiz-adv-x="706" 
d="M178 1174q0 -74 50 -126t121 -52t121 52t50 126t-51 126t-121 54q-70 0 -120 -53t-50 -127zM348 903q-114 0 -192 79t-78 192q0 112 79 192t191 80t193 -80q80 -80 80 -192t-80 -192q-80 -79 -193 -79z" />
    <glyph glyph-name="plusminus" unicode="&#xb1;" horiz-adv-x="1146" 
d="M78 88q0 61 61 62h869q61 0 61 -62v-27q0 -61 -61 -61h-869q-61 0 -61 61v27zM506 670h-346q-61 0 -62 61v14q0 61 62 62h346v346q0 61 61 61h15q61 0 61 -61v-346h344q61 0 62 -62v-14q0 -61 -62 -61h-344v-344q0 -61 -61 -62h-15q-61 0 -61 62v344z" />
    <glyph glyph-name="twosuperior" unicode="&#xb2;" 
d="M96 610q-25 0 -24 52q0 8 4 20q311 388 348 446t37 111t-38 86q-37 33 -109 33t-148 -45q-20 -15 -28 -15t-24 23q-15 23 -16 37q0 34 73 60t140 26q117 0 185 -53t68 -141t-44 -156q-43 -70 -227 -295l-86 -105h340q23 0 22 -35v-14q0 -35 -22 -35h-451z" />
    <glyph glyph-name="threesuperior" unicode="&#xb3;" 
d="M88 668q0 16 15 38t23 22t66 -21q60 -21 130 -21t117 41q48 41 48 124t-44 119t-134 36h-37q-25 0 -24 36v13q0 37 24 37h33q76 0 117 46t41 99t-33 88q-34 35 -112 35t-140 -29q-24 -10 -30 -10t-21 24q-14 24 -14 37q-1 23 71 43q72 21 162 21t156 -55q64 -55 64 -159
t-124 -159v-8q62 -17 106 -75t44 -158t-77 -166t-179 -66t-175 22t-73 46z" />
    <glyph glyph-name="acute" unicode="&#xb4;" 
d="M496 1513q0 -14 -16 -33q-16 -20 -49 -58q-34 -38 -74 -84t-54 -62q-33 -37 -92 -37t-59 22t118 226q30 53 128 53t98 -27z" />
    <glyph glyph-name="mu" unicode="&#xb5;" horiz-adv-x="1159" 
d="M346 -381q0 -45 -82 -45h-8q-82 0 -82 45v1411q0 45 82 45h8q82 0 82 -45v-694q0 -94 54 -146t155 -53q147 0 258 144v749q0 45 82 45h8q82 0 82 -45v-727q0 -117 12 -183t13 -75q0 -23 -35 -35t-67 -12t-43 18t-19 45l-6 27q-4 10 -6 28t-7 25q-139 -154 -319 -153
q-86 0 -162 30v-399z" />
    <glyph glyph-name="paragraph" unicode="&#xb6;" horiz-adv-x="1054" 
d="M84 976q0 184 137 321q137 136 328 137h436q41 0 41 -50v-28q0 -49 -41 -49h-74v-1616q0 -45 -49 -45h-28q-49 0 -50 45v1616h-159v-1616q0 -45 -50 -45h-28q-49 0 -49 45v815q-176 20 -295 153t-119 317z" />
    <glyph glyph-name="periodcentered" unicode="&#xb7;" horiz-adv-x="546" 
d="M289 633q-45 0 -75 30q-30 31 -30 75t30 75t75 31t76 -31t31 -75t-31 -75q-31 -30 -76 -30z" />
    <glyph glyph-name="cedilla" unicode="&#xb8;" 
d="M389 -100q86 0 130 -44t44 -104q0 -182 -235 -182q-86 0 -161 26t-75 62q0 53 39 53q11 0 67 -20t103 -21q117 0 117 72q0 53 -101 86q-35 10 -34 33l4 24l35 115h88l-29 -100h8z" />
    <glyph glyph-name="onesuperior" unicode="&#xb9;" horiz-adv-x="444" 
d="M303 608q-43 0 -43 29v692l-151 -33q-25 0 -25 62q0 16 20 22l218 58q37 0 36 -25v-776q0 -29 -45 -29h-10z" />
    <glyph glyph-name="ordmasculine" unicode="&#xba;" horiz-adv-x="690" 
d="M201 1175q0 -198 144 -198t144 198t-143 197q-145 1 -145 -197zM578 1174q0 -270 -230 -271q-115 0 -175 70t-60 201q0 132 61 202t173 70q111 0 171 -70t60 -202z" />
    <glyph glyph-name="guillemotright" unicode="&#xbb;" horiz-adv-x="964" 
d="M536 125q-24 -1 -49 23t-24 42q0 18 16 41l228 297l-228 295q-16 23 -16 44t25 42q52 40 92 -4l266 -319q26 -33 26 -58t-26 -57l-266 -319q-20 -27 -44 -27zM183 125q-25 -1 -49 23t-23 42q0 18 16 41l227 297l-227 295q-16 23 -16 44t25 42q51 39 91 -4l267 -319
q26 -33 26 -58t-26 -57l-267 -319q-20 -27 -44 -27z" />
    <glyph glyph-name="onequarter" unicode="&#xbc;" horiz-adv-x="1374" 
d="M1085 264v268l5 127l-7 5l-268 -400h270zM1085 178h-358q-8 0 -18 22q-11 22 -11 37t2 17l390 557q12 16 40 16h19q35 0 35 -26v-537h80q23 0 22 -35v-14q0 -37 -22 -37h-80v-155q0 -27 -35 -27h-27q-37 0 -37 27v155zM303 608q-43 0 -43 29v692l-151 -33q-25 0 -25 62
q0 16 20 22l218 58q37 0 36 -25v-776q0 -29 -45 -29h-10zM213 -4q-29 0 -29 13t9 22l831 1374q23 35 61 35h27q29 0 29 -15q0 -6 -8 -20l-832 -1374q-23 -35 -61 -35h-27z" />
    <glyph glyph-name="onehalf" unicode="&#xbd;" horiz-adv-x="1527" 
d="M913 51q0 8 5 21q317 397 351 449q34 53 34 107t-38 87t-110 33t-147 -46q-20 -14 -28 -14t-25 23q-15 23 -15 37q0 34 73 60t140 26q117 0 185 -54t67 -140q0 -87 -43 -157t-227 -295l-86 -104h340q23 0 22 -35v-14q0 -35 -22 -35h-451q-25 0 -25 51zM303 608
q-43 0 -43 29v692l-151 -33q-25 0 -25 62q0 16 20 22l218 58q37 0 36 -25v-776q0 -29 -45 -29h-10zM213 -4q-29 0 -29 13t9 22l831 1374q23 35 61 35h27q29 0 29 -15q0 -6 -8 -20l-832 -1374q-23 -35 -61 -35h-27z" />
    <glyph glyph-name="threequarters" unicode="&#xbe;" horiz-adv-x="1511" 
d="M1227 264v268l4 127l-6 5l-269 -400h271zM1227 178h-359q-8 0 -18 22t-10 37t2 17l389 557q12 16 41 16h18q35 0 35 -26v-537h80q23 0 22 -35v-14q0 -37 -22 -37h-80v-155q0 -27 -35 -27h-26q-37 0 -37 27v155zM346 -4q-29 0 -29 13t9 22l831 1374q23 35 62 35h26
q29 0 29 -15q0 -6 -8 -20l-832 -1374q-23 -35 -61 -35h-27zM80 668q0 16 15 38t23 22t66 -21q59 -21 129 -21t118 41t48 124t-44 119t-134 36h-37q-25 0 -24 36v13q0 37 24 37h33q76 0 117 46t41 99t-33 88q-34 35 -112 35t-140 -29q-25 -10 -31 -10t-20 24t-15 37
q0 23 72 43q72 21 162 21t155 -55t65 -159t-124 -159v-8q62 -17 106 -75t44 -158t-77 -166t-179 -66t-175 22t-73 46z" />
    <glyph glyph-name="questiondown" unicode="&#xbf;" horiz-adv-x="870" 
d="M512 657h31q61 0 61 -47q0 -150 -176 -325l-78 -78q-48 -48 -84 -115q-33 -53 -33 -102q0 -213 259 -213q76 0 164 35t89 34q14 0 40 -41t26 -63q0 -47 -112 -82t-240 -35q-193 0 -307 97q-114 96 -113 242q0 146 133 286l115 115q141 135 157 251q6 41 68 41zM518 850
q-82 0 -82 45v135q0 45 82 45h35q82 0 82 -45v-135q0 -45 -82 -45h-35z" />
    <glyph glyph-name="Agrave" unicode="&#xc0;" horiz-adv-x="1255" 
d="M627 1249l-33 -119l-215 -610h489l-215 610zM25 31q0 10 6 28l485 1346q8 33 82 33h59q74 0 82 -33l486 -1348q6 -16 6 -26q0 -35 -88 -35h-17q-74 0 -82 33l-120 336h-602l-117 -336q-8 -33 -82 -33h-10q-88 0 -88 35zM766 1629q0 -21 -59 -21t-93 37q-178 203 -185 215
t-7 22q0 26 97 26t128 -53q119 -205 119 -226z" />
    <glyph glyph-name="Aacute" unicode="&#xc1;" horiz-adv-x="1255" 
d="M627 1249l-33 -119l-215 -610h489l-215 610zM25 31q0 10 6 28l485 1346q8 33 82 33h59q74 0 82 -33l486 -1348q6 -16 6 -26q0 -35 -88 -35h-17q-74 0 -82 33l-120 336h-602l-117 -336q-8 -33 -82 -33h-10q-88 0 -88 35zM858 1882q0 -14 -30 -53t-164 -184
q-34 -37 -92 -37t-58 22t119 225q31 53 128 53t97 -26z" />
    <glyph glyph-name="Acircumflex" unicode="&#xc2;" horiz-adv-x="1255" 
d="M627 1249l-33 -119l-215 -610h489l-215 610zM25 31q0 10 6 28l485 1346q8 33 82 33h59q74 0 82 -33l486 -1348q6 -16 6 -26q0 -35 -88 -35h-17q-74 0 -82 33l-120 336h-602l-117 -336q-8 -33 -82 -33h-10q-88 0 -88 35zM381 1593q0 16 12 37l115 180q31 45 94 45h51
q63 0 95 -45l116 -180q12 -18 13 -35q1 -31 -47 -31t-74 27l-129 152l-125 -152q-27 -27 -74 -27t-47 29z" />
    <glyph glyph-name="Atilde" unicode="&#xc3;" horiz-adv-x="1255" 
d="M627 1249l-33 -119l-215 -610h489l-215 610zM25 31q0 10 6 28l485 1346q8 33 82 33h59q74 0 82 -33l486 -1348q6 -16 6 -26q0 -35 -88 -35h-17q-74 0 -82 33l-120 336h-602l-117 -336q-8 -33 -82 -33h-10q-88 0 -88 35zM954 1743q0 -39 -70 -77t-141 -38t-151 20t-109 21
q-29 0 -61 -13q-71 -28 -100 7q-18 20 -19 41q0 39 70 77q69 38 141 38q72 -1 152 -21t114 -20t66 13q31 13 50 13t39 -21q19 -22 19 -40z" />
    <glyph glyph-name="Adieresis" unicode="&#xc4;" horiz-adv-x="1255" 
d="M627 1249l-33 -119l-215 -610h489l-215 610zM25 31q0 10 6 28l485 1346q8 33 82 33h59q74 0 82 -33l486 -1348q6 -16 6 -26q0 -35 -88 -35h-17q-74 0 -82 33l-120 336h-602l-117 -336q-8 -33 -82 -33h-10q-88 0 -88 35zM772 1612q-82 0 -82 45v104q0 45 82 45h8
q82 0 82 -45v-104q0 -45 -82 -45h-8zM477 1612q-82 0 -82 45v104q0 45 82 45h8q82 0 82 -45v-104q0 -45 -82 -45h-8z" />
    <glyph glyph-name="Aring" unicode="&#xc5;" horiz-adv-x="1255" 
d="M627 1249l-33 -119l-215 -610h489l-215 610zM25 31q0 10 6 28l485 1346q8 33 82 33h59q74 0 82 -33l486 -1348q6 -16 6 -26q0 -35 -88 -35h-17q-74 0 -82 33l-120 336h-602l-117 -336q-8 -33 -82 -33h-10q-88 0 -88 35zM629 1595q43 0 73 29t29 72q0 42 -30 72
q-31 30 -73 30t-71 -30t-29 -72t29 -72q29 -29 72 -29zM629 1524q-72 0 -122 50t-50 122t50 123t122 51t123 -51t51 -123t-51 -122t-123 -50z" />
    <glyph glyph-name="AE" unicode="&#xc6;" horiz-adv-x="1873" 
d="M743 1249l-47 -119l-303 -612h490l-131 612zM-23 31q0 18 9 32l657 1315q29 55 88 56h911q41 0 41 -62v-33q0 -61 -41 -61h-741l103 -467h577q41 0 41 -61v-33q0 -61 -41 -62h-545l109 -499h500q41 0 41 -62v-33q0 -61 -41 -61h-588q-61 0 -74 59l-65 306h-605l-163 -336
q-18 -33 -82 -33h-11q-80 0 -80 35z" />
    <glyph glyph-name="Ccedilla" unicode="&#xc7;" horiz-adv-x="1267" 
d="M117 717q0 729 663 729q143 0 271 -41q121 -43 120 -86q1 -29 -25 -74t-44 -45q-2 0 -43 23q-117 68 -275 67q-248 0 -364 -137t-117 -434q0 -297 116 -436t357 -140q168 0 301 78q45 25 51 25q16 0 44 -44t28 -67q0 -47 -127 -97t-297 -50h-20l-25 -88h8q87 0 131 -44
t43 -104q0 -182 -235 -182q-86 0 -161 26t-75 62q0 53 39 53q11 0 67 -20t103 -21q117 0 117 72q0 53 -100 86q-35 10 -35 33l4 24l33 109q-283 25 -418 202t-135 521z" />
    <glyph glyph-name="Egrave" unicode="&#xc8;" horiz-adv-x="1118" 
d="M199 1372q0 61 61 62h715q41 0 41 -62v-33q0 -61 -41 -61h-596v-467h534q41 0 41 -61v-33q0 -61 -41 -62h-534v-499h598q41 0 41 -62v-33q0 -61 -41 -61h-717q-61 0 -61 61v1311zM748 1629q0 -21 -58 -21t-94 37q-178 203 -185 215t-8 22q-1 26 97 26t129 -53
q119 -205 119 -226z" />
    <glyph glyph-name="Eacute" unicode="&#xc9;" horiz-adv-x="1118" 
d="M199 1372q0 61 61 62h715q41 0 41 -62v-33q0 -61 -41 -61h-596v-467h534q41 0 41 -61v-33q0 -61 -41 -62h-534v-499h598q41 0 41 -62v-33q0 -61 -41 -61h-717q-61 0 -61 61v1311zM840 1882q0 -14 -16 -34t-49 -57q-34 -38 -74 -84t-54 -62q-33 -37 -92 -37t-59 22
t118 225q30 53 128 53t98 -26z" />
    <glyph glyph-name="Ecircumflex" unicode="&#xca;" horiz-adv-x="1118" 
d="M199 1372q0 61 61 62h715q41 0 41 -62v-33q0 -61 -41 -61h-596v-467h534q41 0 41 -61v-33q0 -61 -41 -62h-534v-499h598q41 0 41 -62v-33q0 -61 -41 -61h-717q-61 0 -61 61v1311zM584 1855h51q63 0 94 -45l117 -180q12 -18 12 -35q0 -31 -47 -31t-74 27l-129 152
l-125 -152q-27 -27 -73 -27t-48 29q0 16 13 37l114 180q31 45 95 45z" />
    <glyph glyph-name="Edieresis" unicode="&#xcb;" horiz-adv-x="1118" 
d="M199 1372q0 61 61 62h715q41 0 41 -62v-33q0 -61 -41 -61h-596v-467h534q41 0 41 -61v-33q0 -61 -41 -62h-534v-499h598q41 0 41 -62v-33q0 -61 -41 -61h-717q-61 0 -61 61v1311zM754 1612q-82 0 -82 45v104q0 45 82 45h8q82 0 82 -45v-104q0 -45 -82 -45h-8zM459 1612
q-82 0 -82 45v104q0 45 82 45h8q82 0 82 -45v-104q0 -45 -82 -45h-8z" />
    <glyph glyph-name="Igrave" unicode="&#xcc;" horiz-adv-x="577" 
d="M199 1393q0 45 82 45h16q82 0 82 -45v-1352q0 -45 -82 -45h-16q-82 0 -82 45v1352zM426 1629q0 -21 -59 -21t-93 37q-178 203 -185 215t-7 22q0 26 97 26t128 -53q119 -205 119 -226z" />
    <glyph glyph-name="Iacute" unicode="&#xcd;" horiz-adv-x="577" 
d="M199 1393q0 45 82 45h16q82 0 82 -45v-1352q0 -45 -82 -45h-16q-82 0 -82 45v1352zM518 1882q0 -19 -49 -74t-89 -101t-54 -62q-36 -37 -94 -37t-58 22t119 225q31 53 128 53t97 -26z" />
    <glyph glyph-name="Icircumflex" unicode="&#xce;" horiz-adv-x="577" 
d="M199 1393q0 45 82 45h16q82 0 82 -45v-1352q0 -45 -82 -45h-16q-82 0 -82 45v1352zM41 1593q0 16 12 37l115 180q31 45 94 45h51q63 0 95 -45l116 -180q12 -18 13 -35q0 -31 -47 -31t-74 27l-129 152l-125 -152q-27 -27 -74 -27t-47 29z" />
    <glyph glyph-name="Idieresis" unicode="&#xcf;" horiz-adv-x="577" 
d="M199 1393q0 45 82 45h16q82 0 82 -45v-1352q0 -45 -82 -45h-16q-82 0 -82 45v1352zM432 1612q-82 0 -82 45v104q0 45 82 45h8q82 0 82 -45v-104q0 -45 -82 -45h-8zM137 1612q-82 0 -82 45v104q0 45 82 45h8q82 0 82 -45v-104q0 -45 -82 -45h-8z" />
    <glyph glyph-name="Eth" unicode="&#xd0;" horiz-adv-x="1425" 
d="M354 655v-499h308q216 0 340 140t124 421t-124 421t-340 140h-308v-467h226q41 0 41 -61v-33q0 -61 -41 -62h-226zM174 655h-133q-41 0 -41 62v33q0 61 41 61h133v561q0 61 62 62h440q293 0 465 -174t172 -543q0 -549 -387 -680q-115 -37 -250 -37h-440q-61 0 -62 61v594
z" />
    <glyph glyph-name="Ntilde" unicode="&#xd1;" horiz-adv-x="1472" 
d="M184 1393q0 45 82 45h43q59 0 86 -39l654 -987l61 -115v1096q0 45 82 45h14q82 0 82 -45v-1352q0 -45 -82 -45h-41q-53 0 -71 29l-676 1019l-56 105v-1108q0 -45 -81 -45h-15q-82 0 -82 45v1352zM850 1628q-72 0 -152 20t-108 21q-28 0 -62 -13q-70 -28 -100 7
q-18 20 -18 41q0 39 69 77t141 38q72 -1 152 -21t115 -20t65 13t50 13t39 -22t20 -39q1 -39 -69 -77t-142 -38z" />
    <glyph glyph-name="Ograve" unicode="&#xd2;" horiz-adv-x="1497" 
d="M303 722q0 -280 115 -430q115 -148 331 -148q217 0 331 146q114 148 114 430t-115 426t-331 144t-331 -144q-114 -144 -114 -424zM750 -12q-307 0 -470 187t-163 545t161 542t470 184t471 -184q161 -184 161 -542t-161 -545q-162 -187 -469 -187zM885 1629q1 -21 -59 -21
t-93 37q-178 203 -185 215t-7 22q0 26 97 26t128 -53q119 -205 119 -226z" />
    <glyph glyph-name="Oacute" unicode="&#xd3;" horiz-adv-x="1497" 
d="M303 722q0 -280 115 -430q115 -148 331 -148q217 0 331 146q114 148 114 430t-115 426t-331 144t-331 -144q-114 -144 -114 -424zM750 -12q-307 0 -470 187t-163 545t161 542t470 184t471 -184q161 -184 161 -542t-161 -545q-162 -187 -469 -187zM977 1882q0 -14 -31 -53
t-164 -184q-33 -37 -91 -37t-58 22t119 225q31 53 128 53t97 -26z" />
    <glyph glyph-name="Ocircumflex" unicode="&#xd4;" horiz-adv-x="1497" 
d="M303 722q0 -280 115 -430q115 -148 331 -148q217 0 331 146q114 148 114 430t-115 426t-331 144t-331 -144q-114 -144 -114 -424zM750 -12q-307 0 -470 187t-163 545t161 542t470 184t471 -184q161 -184 161 -542t-161 -545q-162 -187 -469 -187zM500 1593q0 16 12 37
l115 180q31 45 94 45h51q63 0 94 -45l117 -180q12 -18 12 -35q0 -31 -47 -31t-74 27l-129 152l-124 -152q-27 -27 -74 -27t-47 29z" />
    <glyph glyph-name="Otilde" unicode="&#xd5;" horiz-adv-x="1497" 
d="M303 722q0 -280 115 -430q115 -148 331 -148q217 0 331 146q114 148 114 430t-115 426t-331 144t-331 -144q-114 -144 -114 -424zM750 -12q-307 0 -470 187t-163 545t161 542t470 184t471 -184q161 -184 161 -542t-161 -545q-162 -187 -469 -187zM1073 1743
q1 -39 -69 -77t-142 -38t-152 20t-108 21q-30 0 -62 -13q-70 -28 -100 7q-18 20 -18 41q0 39 70 77t142 38q72 -1 150 -21q80 -20 115 -20t66 13t50 13t39 -21q19 -22 19 -40z" />
    <glyph glyph-name="Odieresis" unicode="&#xd6;" horiz-adv-x="1497" 
d="M303 722q0 -280 115 -430q115 -148 331 -148q217 0 331 146q114 148 114 430t-115 426t-331 144t-331 -144q-114 -144 -114 -424zM750 -12q-307 0 -470 187t-163 545t161 542t470 184t471 -184q161 -184 161 -542t-161 -545q-162 -187 -469 -187zM891 1612q-82 0 -82 45
v104q0 45 82 45h8q82 0 82 -45v-104q0 -45 -82 -45h-8zM596 1612q-82 0 -82 45v104q0 45 82 45h8q82 0 82 -45v-104q0 -45 -82 -45h-8z" />
    <glyph glyph-name="multiply" unicode="&#xd7;" horiz-adv-x="1146" 
d="M111 86q0 12 16 29l350 352l-350 350q-16 17 -16 29t16 28l39 41q29 29 57 0l350 -352l351 352q28 28 57 0l39 -41q14 -14 14 -28t-14 -29l-350 -350l350 -352q14 -15 14 -29t-14 -29l-39 -41q-17 -16 -29 -16t-28 16l-351 355l-350 -355q-16 -16 -28 -16t-29 16l-39 41
q-16 17 -16 29z" />
    <glyph glyph-name="Oslash" unicode="&#xd8;" horiz-adv-x="1497" 
d="M738 143q224 -1 340 145t116 408t-82 402l-709 -789q111 -166 335 -166zM741 1290q-211 0 -325 -145t-113 -424q0 -197 59 -338l701 780q-111 127 -322 127zM114 2q-13 0 -29 14q-15 14 -15 28t12 30l149 164q-115 182 -114 483q0 354 159 540q160 185 453 185t455 -150
l112 125q30 30 59 2q15 -14 15 -27t-12 -28l-119 -131q141 -184 141 -529t-162 -533q-163 -187 -470 -187t-467 184l-138 -152q-16 -18 -29 -18z" />
    <glyph glyph-name="Ugrave" unicode="&#xd9;" horiz-adv-x="1458" 
d="M170 1393q0 45 82 45h16q82 0 82 -45v-940q0 -135 108 -223t272 -87q164 0 270 87q108 87 108 223v940q0 45 82 45h16q82 0 82 -45v-934q0 -223 -145 -347t-413 -124t-415 124q-145 124 -145 347v934zM808 1608q-58 0 -93 37q-177 203 -185 215t-8 22q0 26 98 26t128 -53
q119 -205 118 -227q0 -20 -58 -20z" />
    <glyph glyph-name="Uacute" unicode="&#xda;" horiz-adv-x="1458" 
d="M170 1393q0 45 82 45h16q82 0 82 -45v-940q0 -135 108 -223t272 -87q164 0 270 87q108 87 108 223v940q0 45 82 45h16q82 0 82 -45v-934q0 -223 -145 -347t-413 -124t-415 124q-145 124 -145 347v934zM958 1882q0 -19 -49 -74t-89 -101t-54 -62q-33 -37 -92 -37t-60 20
q0 23 119 227q31 53 128 53t97 -26z" />
    <glyph glyph-name="Ucircumflex" unicode="&#xdb;" horiz-adv-x="1458" 
d="M170 1393q0 45 82 45h16q82 0 82 -45v-940q0 -135 108 -223t272 -87q164 0 270 87q108 87 108 223v940q0 45 82 45h16q82 0 82 -45v-934q0 -223 -145 -347t-413 -124t-415 124q-145 124 -145 347v934zM481 1593q0 16 13 37l114 180q31 45 94 45h52q63 0 94 -45l117 -180
q12 -18 12 -35q0 -31 -47 -31t-74 27l-129 152l-125 -152q-27 -27 -74 -27t-47 29z" />
    <glyph glyph-name="Udieresis" unicode="&#xdc;" horiz-adv-x="1458" 
d="M170 1393q0 45 82 45h16q82 0 82 -45v-940q0 -135 108 -223t272 -87q164 0 270 87q108 87 108 223v940q0 45 82 45h16q82 0 82 -45v-934q0 -223 -145 -347t-413 -124t-415 124q-145 124 -145 347v934zM872 1612q-82 0 -81 45v104q0 45 81 45h9q82 0 82 -45v-104
q0 -45 -82 -45h-9zM578 1612q-82 0 -82 45v104q0 45 82 45h8q82 0 82 -45v-104q0 -45 -82 -45h-8z" />
    <glyph glyph-name="Yacute" unicode="&#xdd;" horiz-adv-x="1144" 
d="M37 1403q0 35 94 35h23q66 0 88 -31l336 -504l344 506q18 29 102 29t84 -35q0 -8 -16 -37l-430 -637v-688q0 -45 -82 -45h-17q-82 0 -82 45v694l-428 631q-16 23 -16 37zM801 1882q0 -14 -31 -53t-164 -184q-33 -37 -91 -37t-58 22t118 225q31 53 129 53t97 -26z" />
    <glyph glyph-name="Thorn" unicode="&#xde;" horiz-adv-x="1161" 
d="M354 1028v-512h320q76 0 135 37q113 71 113 214q0 145 -77 203t-200 58h-291zM174 1393q0 45 82 45h16q82 0 82 -45v-209h297q154 0 259 -52q198 -98 198 -341q0 -213 -121 -320q-131 -111 -315 -111h-318v-319q0 -45 -82 -45h-16q-82 0 -82 45v1352z" />
    <glyph glyph-name="germandbls" unicode="&#xdf;" horiz-adv-x="1134" 
d="M184 1067q0 168 112 273q112 106 298 106t292 -86t107 -262q0 -94 -59 -184t-150 -126q125 -29 197 -128t72 -238q0 -194 -123 -308t-318 -114h-65q-41 0 -41 61v25q0 61 41 61h67q113 0 186 75t72 200q0 125 -72 200q-73 75 -186 74h-67q-41 0 -41 62v24q0 61 41 62h20
q98 0 171 70t73 167q0 217 -227 217q-104 0 -166 -62t-62 -169v-1026q0 -45 -82 -45h-8q-82 0 -82 45v1026z" />
    <glyph glyph-name="agrave" unicode="&#xe0;" horiz-adv-x="1142" 
d="M575 934q-340 0 -286 -492q35 -305 237 -305q88 0 162 86t109 260v371q-111 80 -222 80zM991 45q0 -23 -35 -35q-34 -12 -66 -12t-43 18t-15 32t-10 38q-5 23 -7 31l-16 92q-92 -221 -295 -221q-111 0 -199 63t-133 162q-47 90 -59 217q-33 291 86 472t344 181
q143 0 272 -110q14 76 39 92q18 10 41 10h12q51 0 56 -43l4 -729q0 -117 12 -183t12 -75zM342 1513q0 27 97 27t128 -53q119 -205 119 -226t-58 -21t-93 36q-177 203 -185 215t-8 22z" />
    <glyph glyph-name="aacute" unicode="&#xe1;" horiz-adv-x="1142" 
d="M575 934q-340 0 -286 -492q35 -305 237 -305q88 0 162 86t109 260v371q-111 80 -222 80zM991 45q0 -23 -35 -35q-34 -12 -66 -12t-43 18t-15 32t-10 38q-5 23 -7 31l-16 92q-92 -221 -295 -221q-111 0 -199 63t-133 162q-47 90 -59 217q-33 291 86 472t344 181
q143 0 272 -110q14 76 39 92q18 10 41 10h12q51 0 56 -43l4 -729q0 -117 12 -183t12 -75zM722 1540q97 0 97 -27q0 -14 -15 -33q-15 -20 -49 -58t-74 -84t-54 -62q-33 -37 -92 -37t-60 21q0 23 119 227q31 53 128 53z" />
    <glyph glyph-name="acircumflex" unicode="&#xe2;" horiz-adv-x="1142" 
d="M575 934q-340 0 -286 -492q35 -305 237 -305q88 0 162 86t109 260v371q-111 80 -222 80zM991 45q0 -23 -35 -35q-34 -12 -66 -12t-43 18t-15 32t-10 38q-5 23 -7 31l-16 92q-92 -221 -295 -221q-111 0 -199 63t-133 162q-47 90 -59 217q-33 291 86 472t344 181
q143 0 272 -110q14 76 39 92q18 10 41 10h12q51 0 56 -43l4 -729q0 -117 12 -183t12 -75zM551 1487h51q63 0 94 -45l117 -180q12 -18 12 -35q0 -31 -47 -31t-73 27l-130 151l-124 -151q-27 -27 -74 -27t-47 29q0 16 12 37l115 180q31 45 94 45z" />
    <glyph glyph-name="atilde" unicode="&#xe3;" horiz-adv-x="1142" 
d="M575 934q-340 0 -286 -492q35 -305 237 -305q88 0 162 86t109 260v371q-111 80 -222 80zM991 45q0 -23 -35 -35q-34 -12 -66 -12t-43 18t-15 32t-10 38q-5 23 -7 31l-16 92q-92 -221 -295 -221q-111 0 -199 63t-133 162q-47 90 -59 217q-33 291 86 472t344 181
q143 0 272 -110q14 76 39 92q18 10 41 10h12q51 0 56 -43l4 -729q0 -117 12 -183t12 -75zM455 1450q71 0 151 -20t115 -20t65 12q30 14 50 14t40 -22t19 -40q0 -39 -70 -77q-69 -37 -141 -37t-152 20t-110 20t-61 -13q-33 -13 -57 -13t-42 20t-18 41q0 39 69 77
q70 38 142 38z" />
    <glyph glyph-name="adieresis" unicode="&#xe4;" horiz-adv-x="1142" 
d="M575 934q-340 0 -286 -492q35 -305 237 -305q88 0 162 86t109 260v371q-111 80 -222 80zM991 45q0 -23 -35 -35q-34 -12 -66 -12t-43 18t-15 32t-10 38q-5 23 -7 31l-16 92q-92 -221 -295 -221q-111 0 -199 63t-133 162q-47 90 -59 217q-33 291 86 472t344 181
q143 0 272 -110q14 76 39 92q18 10 41 10h12q51 0 56 -43l4 -729q0 -117 12 -183t12 -75zM702 1438h9q82 0 82 -45v-105q0 -45 -82 -45h-9q-82 0 -81 45v105q-1 45 81 45zM408 1438h8q82 0 82 -45v-105q0 -45 -82 -45h-8q-82 0 -82 45v105q0 45 82 45z" />
    <glyph glyph-name="aring" unicode="&#xe5;" horiz-adv-x="1142" 
d="M575 934q-340 0 -286 -492q35 -305 237 -305q88 0 162 86t109 260v371q-111 80 -222 80zM991 45q0 -23 -35 -35q-34 -12 -66 -12t-43 18t-15 32t-10 38q-5 23 -7 31l-16 92q-92 -221 -295 -221q-111 0 -199 63t-133 162q-47 90 -59 217q-33 291 86 472t344 181
q143 0 272 -110q14 76 39 92q18 10 41 10h12q51 0 56 -43l4 -729q0 -117 12 -183t12 -75zM561 1430q-43 0 -72 -30t-29 -73t30 -72q28 -29 71 -29t73 30q30 28 30 71t-30 73t-73 30zM561 1501q72 0 123 -51t51 -123t-51 -122t-123 -50t-122 50t-50 122t50 123t122 51z" />
    <glyph glyph-name="ae" unicode="&#xe6;" horiz-adv-x="1697" 
d="M276 305q0 -168 175 -168q152 0 282 107q-43 100 -47 248q-301 -6 -375 -91q-35 -41 -35 -96zM1403 641q0 295 -246 295q-264 0 -287 -295h533zM442 -12q-162 0 -256 78t-94 235q0 156 127 240q55 37 137 57q143 39 336 41q12 129 58 213q-54 84 -202 84t-274 -64
q-45 -23 -47 -22q-18 0 -45 40t-26 62q0 41 120 88q121 43 265 43q205 0 311 -98q116 98 318 98t308 -129t107 -376q0 -18 -24 -52q-25 -33 -43 -32h-648q12 -186 88 -272t220 -87q144 0 264 66q39 20 43 20q18 0 45 -40t26 -62q0 -41 -110 -86t-258 -45q-252 0 -375 129
q-158 -129 -371 -129z" />
    <glyph glyph-name="ccedilla" unicode="&#xe7;" horiz-adv-x="993" 
d="M588 936q-297 0 -297 -391q0 -217 74 -313t243 -97q126 0 246 60q4 2 8 2q18 0 44 -39t26 -66q0 -36 -97 -70t-225 -34h-8l-24 -88h8q86 0 130 -44t44 -104q0 -182 -236 -182q-86 0 -160 26t-75 62q0 53 39 53q12 0 67 -20t103 -21q117 0 116 72q0 53 -100 86
q-35 10 -35 33l4 24l33 109q-210 20 -310 152t-100 395q0 305 156 434q137 109 330 108q115 1 211 -27t96 -67q1 -27 -23 -69t-40 -41q-16 0 -25 8q-111 49 -223 49z" />
    <glyph glyph-name="egrave" unicode="&#xe8;" horiz-adv-x="1103" 
d="M829 612q0 324 -245 324q-264 0 -287 -324h532zM614 -12q-256 0 -378 133t-123 406q0 273 119 415q120 141 346 141q434 0 434 -534q0 -18 -25 -51t-43 -33h-647q12 -170 88 -250t220 -80t263 66q39 20 43 20q18 0 45 -40t27 -62q0 -41 -111 -86t-258 -45zM721 1261
q0 -21 -59 -21t-93 36q-178 203 -185 215t-7 22q0 27 97 27t128 -53q119 -205 119 -226z" />
    <glyph glyph-name="eacute" unicode="&#xe9;" horiz-adv-x="1103" 
d="M829 612q0 324 -245 324q-264 0 -287 -324h532zM614 -12q-256 0 -378 133t-123 406q0 273 119 415q120 141 346 141q434 0 434 -534q0 -18 -25 -51t-43 -33h-647q12 -170 88 -250t220 -80t263 66q39 20 43 20q18 0 45 -40t27 -62q0 -41 -111 -86t-258 -45zM813 1513
q-1 -15 -31 -53t-164 -184q-33 -37 -91 -37t-58 22t119 226q31 53 128 53t97 -27z" />
    <glyph glyph-name="ecircumflex" unicode="&#xea;" horiz-adv-x="1103" 
d="M829 612q0 324 -245 324q-264 0 -287 -324h532zM614 -12q-256 0 -378 133t-123 406q0 273 119 415q120 141 346 141q434 0 434 -534q0 -18 -25 -51t-43 -33h-647q12 -170 88 -250t220 -80t263 66q39 20 43 20q18 0 45 -40t27 -62q0 -41 -111 -86t-258 -45zM383 1196
q-47 0 -47 29q0 16 12 37l115 180q31 45 94 45h51q63 0 94 -45l117 -180q12 -18 12 -35q0 -31 -47 -31t-73 27l-129 151l-125 -151q-27 -27 -74 -27z" />
    <glyph glyph-name="edieresis" unicode="&#xeb;" horiz-adv-x="1103" 
d="M829 612q0 324 -245 324q-264 0 -287 -324h532zM614 -12q-256 0 -378 133t-123 406q0 273 119 415q120 141 346 141q434 0 434 -534q0 -18 -25 -51t-43 -33h-647q12 -170 88 -250t220 -80t263 66q39 20 43 20q18 0 45 -40t27 -62q0 -41 -111 -86t-258 -45zM727 1243
q-82 0 -82 45v105q0 45 82 45h8q82 0 82 -45v-105q0 -45 -82 -45h-8zM432 1243q-82 0 -82 45v105q0 45 82 45h8q82 0 82 -45v-105q0 -45 -82 -45h-8z" />
    <glyph glyph-name="igrave" unicode="&#xec;" horiz-adv-x="542" 
d="M186 1030q0 45 82 45h8q82 0 82 -45v-989q0 -45 -82 -45h-8q-82 0 -82 45v989zM412 1261q0 -21 -60 -21t-92 36q-178 203 -185 215t-7 22q0 27 97 27t128 -53q119 -205 119 -226z" />
    <glyph glyph-name="iacute" unicode="&#xed;" horiz-adv-x="542" 
d="M186 1030q0 45 82 45h8q82 0 82 -45v-989q0 -45 -82 -45h-8q-82 0 -82 45v989zM504 1513q0 -14 -16 -33q-16 -20 -49 -58t-73 -84t-55 -62q-33 -37 -92 -37t-59 22t119 226q31 53 128 53t97 -27z" />
    <glyph glyph-name="icircumflex" unicode="&#xee;" horiz-adv-x="542" 
d="M186 1030q0 45 82 45h8q82 0 82 -45v-989q0 -45 -82 -45h-8q-82 0 -82 45v989zM74 1196q-46 0 -47 29q0 16 12 37l115 180q31 45 94 45h51q63 0 94 -45l117 -180q12 -18 12 -35q0 -31 -47 -31t-74 27l-129 151l-125 -151q-27 -27 -73 -27z" />
    <glyph glyph-name="idieresis" unicode="&#xef;" horiz-adv-x="542" 
d="M186 1030q0 45 82 45h8q82 0 82 -45v-989q0 -45 -82 -45h-8q-82 0 -82 45v989zM418 1243q-82 0 -82 45v105q0 45 82 45h8q82 0 82 -45v-105q0 -45 -82 -45h-8zM123 1243q-82 0 -82 45v105q0 45 82 45h8q82 0 82 -45v-105q0 -45 -82 -45h-8z" />
    <glyph glyph-name="eth" unicode="&#xf0;" horiz-adv-x="1165" 
d="M288 534q0 -206 71 -302q71 -97 222 -97t223 97q72 96 70 302q0 206 -71 304t-221 98t-222 -98t-72 -304zM428 1283q0 21 31 28l147 20q-53 78 -53 99q0 33 88 32q30 0 58 -31t63 -79l160 22q22 0 36 -22t15 -43q0 -23 -31 -27l-123 -16q233 -365 234 -736
q0 -266 -118 -404t-348 -138t-353 139q-122 139 -122 404t124 409q123 144 352 143q90 0 164 -24q-51 109 -95 184l-176 -24q-18 0 -36 21q-17 22 -17 43z" />
    <glyph glyph-name="ntilde" unicode="&#xf1;" horiz-adv-x="1140" 
d="M987 752v-711q0 -45 -82 -45h-8q-82 0 -82 45v694q0 95 -54 147t-155 52q-147 0 -258 -143v-750q0 -45 -82 -45h-8q-82 0 -82 45v719q0 120 -12 184t-12 74q0 23 36 35t65 12q30 0 42 -15t20 -44l9 -25l6 -27l4 -24q137 154 306 154t258 -88q89 -87 89 -244zM915 1374
q0 -38 -69 -76t-141 -38t-152 20t-110 20q-29 0 -61 -13t-56 -13t-43 20q-18 20 -19 41q0 39 70 77t142 38t151 -20q81 -20 115 -20t65 12q31 14 50 14t39 -22t19 -40z" />
    <glyph glyph-name="ograve" unicode="&#xf2;" horiz-adv-x="1165" 
d="M292 536q0 -208 71 -305q71 -96 220 -96t221 97q72 96 70 302q0 206 -71 304t-221 98t-220 -96t-70 -304zM587 -12q-230 0 -353 139q-122 139 -122 404t124 409q123 144 350 143q227 0 347 -141q120 -142 120 -410t-118 -406t-348 -138zM719 1261q0 -21 -58 -21t-94 36
q-178 203 -185 215t-7 22q0 27 97 27t128 -53q119 -205 119 -226z" />
    <glyph glyph-name="oacute" unicode="&#xf3;" horiz-adv-x="1165" 
d="M292 536q0 -208 71 -305q71 -96 220 -96t221 97q72 96 70 302q0 206 -71 304t-221 98t-220 -96t-70 -304zM587 -12q-230 0 -353 139q-122 139 -122 404t124 409q123 144 350 143q227 0 347 -141q120 -142 120 -410t-118 -406t-348 -138zM811 1513q0 -14 -15 -33
q-16 -20 -50 -58t-74 -84t-54 -62q-33 -37 -92 -37t-59 22t119 226q31 53 128 53t97 -27z" />
    <glyph glyph-name="ocircumflex" unicode="&#xf4;" horiz-adv-x="1165" 
d="M292 536q0 -208 71 -305q71 -96 220 -96t221 97q72 96 70 302q0 206 -71 304t-221 98t-220 -96t-70 -304zM587 -12q-230 0 -353 139q-122 139 -122 404t124 409q123 144 350 143q227 0 347 -141q120 -142 120 -410t-118 -406t-348 -138zM381 1196q-47 0 -47 29
q0 16 12 37l115 180q31 45 94 45h51q63 0 94 -45l117 -180q12 -18 12 -35q0 -31 -47 -31t-73 27l-129 151l-125 -151q-27 -27 -74 -27z" />
    <glyph glyph-name="otilde" unicode="&#xf5;" horiz-adv-x="1165" 
d="M292 536q0 -208 71 -305q71 -96 220 -96t221 97q72 96 70 302q0 206 -71 304t-221 98t-220 -96t-70 -304zM587 -12q-230 0 -353 139q-122 139 -122 404t124 409q123 144 350 143q227 0 347 -141q120 -142 120 -410t-118 -406t-348 -138zM696 1260q-72 0 -152 20t-109 20
t-61 -13t-57 -13t-43 20t-18 41q0 39 70 77t142 38t150 -20q80 -20 115 -20t66 12q31 14 50 14t39 -22t19 -40q0 -39 -69 -77q-70 -37 -142 -37z" />
    <glyph glyph-name="odieresis" unicode="&#xf6;" horiz-adv-x="1165" 
d="M292 536q0 -208 71 -305q71 -96 220 -96t221 97q72 96 70 302q0 206 -71 304t-221 98t-220 -96t-70 -304zM587 -12q-230 0 -353 139q-122 139 -122 404t124 409q123 144 350 143q227 0 347 -141q120 -142 120 -410t-118 -406t-348 -138zM725 1243q-82 0 -82 45v105
q0 45 82 45h8q82 0 82 -45v-105q0 -45 -82 -45h-8zM430 1243q-82 0 -82 45v105q0 45 82 45h8q82 0 82 -45v-105q0 -45 -82 -45h-8z" />
    <glyph glyph-name="divide" unicode="&#xf7;" horiz-adv-x="1146" 
d="M487 145q0 45 82 45h9q82 0 81 -45v-104q0 -45 -81 -45h-9q-82 0 -82 45v104zM160 403q-61 0 -62 62v14q0 61 62 62h827q61 0 62 -62v-14q0 -61 -62 -62h-827zM487 903q0 45 82 45h9q82 0 81 -45v-104q0 -45 -81 -45h-9q-82 0 -82 45v104z" />
    <glyph glyph-name="oslash" unicode="&#xf8;" horiz-adv-x="1165" 
d="M588 137q141 0 214 94t72 304q0 143 -32 227l-467 -547q72 -78 213 -78zM582 934q-148 0 -220 -94t-71 -305q0 -154 37 -244l473 549q-71 94 -219 94zM177 4q-13 0 -30 15q-16 15 -16 27t14 30l64 76q-96 133 -96 378q0 328 159 449q133 102 327 102t312 -112l70 82
q17 16 29 16t34 -20t-2 -52l-79 -92q90 -139 90 -373q0 -541 -465 -540q-207 0 -322 100l-59 -70q-17 -16 -30 -16z" />
    <glyph glyph-name="ugrave" unicode="&#xf9;" horiz-adv-x="1140" 
d="M154 1030q0 45 82 45h8q82 0 82 -45v-694q0 -94 54 -146t155 -53q147 0 258 144v749q0 45 81 45h9q82 0 82 -45v-727q0 -117 12 -183t12 -75q0 -23 -35 -35q-34 -12 -66 -12t-43 18t-20 45l-6 27q-4 10 -6 28t-6 25q-139 -153 -306 -153t-257 88t-90 243v711zM356 1513
q0 27 98 27t128 -53q119 -205 118 -227q0 -20 -59 -20t-92 36q-177 203 -185 215t-8 22z" />
    <glyph glyph-name="uacute" unicode="&#xfa;" horiz-adv-x="1140" 
d="M154 1030q0 45 82 45h8q82 0 82 -45v-694q0 -94 54 -146t155 -53q147 0 258 144v749q0 45 81 45h9q82 0 82 -45v-727q0 -117 12 -183t12 -75q0 -23 -35 -35q-34 -12 -66 -12t-43 18t-20 45l-6 27q-4 10 -6 28t-6 25q-139 -153 -306 -153t-257 88t-90 243v711zM793 1513
q0 -15 -31 -53t-164 -184q-33 -37 -91 -37t-58 22t118 226q31 53 129 53t97 -27z" />
    <glyph glyph-name="ucircumflex" unicode="&#xfb;" horiz-adv-x="1140" 
d="M154 1030q0 45 82 45h8q82 0 82 -45v-694q0 -94 54 -146t155 -53q147 0 258 144v749q0 45 81 45h9q82 0 82 -45v-727q0 -117 12 -183t12 -75q0 -23 -35 -35q-34 -12 -66 -12t-43 18t-20 45l-6 27q-4 10 -6 28t-6 25q-139 -153 -306 -153t-257 88t-90 243v711zM362 1196
q-47 0 -47 29q0 16 13 37l114 180q31 45 95 45h51q63 0 94 -45l117 -180q12 -18 12 -35q0 -31 -47 -31t-74 27l-129 151l-125 -151q-27 -27 -74 -27z" />
    <glyph glyph-name="udieresis" unicode="&#xfc;" horiz-adv-x="1140" 
d="M154 1030q0 45 82 45h8q82 0 82 -45v-694q0 -94 54 -146t155 -53q147 0 258 144v749q0 45 81 45h9q82 0 82 -45v-727q0 -117 12 -183t12 -75q0 -23 -35 -35q-34 -12 -66 -12t-43 18t-20 45l-6 27q-4 10 -6 28t-6 25q-139 -153 -306 -153t-257 88t-90 243v711zM707 1243
q-82 0 -82 45v105q0 45 82 45h8q82 0 82 -45v-105q0 -45 -82 -45h-8zM412 1243q-82 0 -82 45v105q0 45 82 45h8q82 0 82 -45v-105q0 -45 -82 -45h-8z" />
    <glyph glyph-name="yacute" unicode="&#xfd;" horiz-adv-x="1134" 
d="M539 -434q-145 0 -253 47t-116 98q-12 113 16 113q4 0 45 -27q121 -84 291 -84q137 -1 204 99t71 319q-131 -143 -297 -143t-256 88t-90 243v711q0 45 82 45h8q82 0 82 -45v-694q0 -94 54 -146t155 -53q147 0 258 144v749q0 45 81 45h9q82 0 82 -45l2 -827
q3 -349 -97 -493t-331 -144zM819 1513q0 -14 -15 -33q-15 -20 -49 -58t-74 -84t-54 -62q-33 -37 -92 -37t-60 21q0 23 119 227q31 53 128 53t97 -27z" />
    <glyph glyph-name="thorn" unicode="&#xfe;" horiz-adv-x="1167" 
d="M608 934q-133 0 -262 -141v-562q111 -92 248 -92h12q268 4 268 399t-266 396zM346 -381q0 -45 -82 -45h-8q-82 0 -82 45v1876q0 45 82 45h8q82 0 82 -45v-551q142 139 318 139q176 -1 284 -151t107 -389v-19q0 -246 -113 -391t-287 -145t-309 104v-473z" />
    <glyph glyph-name="ydieresis" unicode="&#xff;" horiz-adv-x="1134" 
d="M539 -434q-145 0 -253 47t-116 98q-12 113 16 113q4 0 45 -27q121 -84 291 -84q137 -1 204 99t71 319q-131 -143 -297 -143t-256 88t-90 243v711q0 45 82 45h8q82 0 82 -45v-694q0 -94 54 -146t155 -53q147 0 258 144v749q0 45 81 45h9q82 0 82 -45l2 -827
q3 -349 -97 -493t-331 -144zM702 1243q-82 0 -81 45v105q0 45 81 45h9q82 0 82 -45v-105q0 -45 -82 -45h-9zM408 1243q-82 0 -82 45v105q0 45 82 45h8q82 0 82 -45v-105q0 -45 -82 -45h-8z" />
    <glyph glyph-name="dotlessi" unicode="&#x131;" horiz-adv-x="542" 
d="M186 1030q0 45 82 45h8q82 0 82 -45v-989q0 -45 -82 -45h-8q-82 0 -82 45v989z" />
    <glyph glyph-name="Lslash" unicode="&#x141;" horiz-adv-x="995" 
d="M14 623q-18 0 -18 28v13q0 41 39 61l139 82v586q0 45 82 45h16q82 0 82 -45v-478l221 132q14 8 21 8q18 0 18 -29v-12q0 -41 -39 -62l-221 -131v-665h596q41 0 41 -62v-33q0 -61 -41 -61h-714q-61 0 -62 61v652l-139 -82q-8 -8 -21 -8z" />
    <glyph glyph-name="lslash" unicode="&#x142;" horiz-adv-x="600" 
d="M57 664q-18 0 -18 28v13q0 41 39 61l86 49v680q0 45 82 45h8q82 0 82 -45v-577l86 51q14 8 20 8q18 0 19 -29v-12q0 -41 -39 -62l-86 -51v-536q0 -152 110 -152q35 0 60 6l29 4q16 1 29 -35t14 -61q0 -61 -132 -61t-208 68q-74 68 -74 214v453l-86 -51q-8 -8 -21 -8z" />
    <glyph glyph-name="OE" unicode="&#x152;" horiz-adv-x="2091" 
d="M303 722q0 -280 115 -430q115 -148 331 -148q217 0 331 146q114 148 114 430t-115 426t-331 144t-331 -144q-114 -144 -114 -424zM742 -12q-298 0 -462 187q-163 187 -163 545t159 542q160 184 463 184t459 -168v94q0 61 62 62h720q41 0 41 -62v-33q0 -61 -41 -61h-602
v-467h541q41 0 41 -61v-33q0 -61 -41 -62h-541v-499h604q41 0 41 -62v-33q0 -61 -41 -61h-722q-61 0 -62 61v99q-158 -172 -456 -172z" />
    <glyph glyph-name="oe" unicode="&#x153;" horiz-adv-x="1783" 
d="M1489 612q0 324 -246 324q-264 0 -287 -324h533zM293 537q0 -207 71 -305q72 -98 226 -97q154 0 225 115q-43 116 -43 282t45 281q-73 123 -229 123t-226 -96t-69 -303zM573 -12q-219 0 -340 140t-120 404q0 264 121 408q122 143 342 143t337 -120q121 121 334 120
q424 0 424 -534q-1 -18 -25 -51t-42 -33h-648q12 -170 88 -250t220 -80t264 66q39 20 43 20q18 0 45 -40t26 -62q0 -41 -110 -86t-258 -45q-240 0 -361 114q-121 -114 -340 -114z" />
    <glyph glyph-name="Scaron" unicode="&#x160;" horiz-adv-x="1024" 
d="M76 137q0 25 27 68q28 43 44 43q6 0 52 -25q137 -80 315 -80q106 0 180 69t74 171q0 176 -233 264q-9 3 -49 17t-52 19t-47 18q-285 106 -285 368q0 170 125 273t330 104q109 0 219 -39t111 -86q0 -23 -26 -66t-38 -43t-45 21q-102 57 -225 57t-194 -59t-71 -178
t162 -183q62 -25 101 -36q170 -61 272 -140q131 -100 131 -294t-120 -304q-120 -108 -314 -108q-192 0 -318 51t-126 98zM502 1561q-63 0 -94 45l-115 180q-12 20 -12 37q0 29 47 29t73 -27l125 -152l129 152q27 27 74 27t47 -31q0 -16 -12 -35l-117 -180q-31 -45 -94 -45
h-51z" />
    <glyph glyph-name="scaron" unicode="&#x161;" horiz-adv-x="845" 
d="M72 111q0 23 26 63t45 39q2 0 33 -18q92 -59 227 -60q82 0 134 47q51 47 51 126t-47 123t-185 82t-198 100q-60 63 -60 185t96 204t244 81q106 -1 188 -27t81 -59q0 -27 -24 -69t-42 -41q-2 0 -27 12q-70 37 -156 37t-134 -36q-50 -36 -50 -93t36 -90t122 -60
q194 -59 262 -130t68 -212t-100 -234t-244 -93t-244 42q-102 42 -102 81zM406 1192q-63 0 -95 45l-114 180q-12 20 -13 37q0 29 47 29t74 -27l125 -151l129 151q27 27 74 27t47 -31q0 -16 -12 -35l-117 -180q-31 -45 -94 -45h-51z" />
    <glyph glyph-name="Ydieresis" unicode="&#x178;" horiz-adv-x="1144" 
d="M37 1403q0 35 94 35h23q66 0 88 -31l336 -504l344 506q18 29 102 29t84 -35q0 -8 -16 -37l-430 -637v-688q0 -45 -82 -45h-17q-82 0 -82 45v694l-428 631q-16 23 -16 37zM715 1612q-82 0 -82 45v104q0 45 82 45h8q82 0 82 -45v-104q0 -45 -82 -45h-8zM420 1612
q-82 0 -82 45v104q0 45 82 45h8q82 0 82 -45v-104q0 -45 -82 -45h-8z" />
    <glyph glyph-name="Zcaron" unicode="&#x17d;" horiz-adv-x="1261" 
d="M127 0q-14 0 -32 38q-17 38 -17 62t6 33l840 1145h-738q-41 0 -41 70v16q0 70 41 70h938q12 0 28 -38t17 -62q0 -24 -6 -34l-839 -1144h800q41 0 41 -70v-16q0 -70 -41 -70h-997zM604 1563q-63 0 -94 45l-115 180q-12 23 -12 37q0 29 47 29t74 -27l125 -152l129 152
q27 27 74 27t47 -31q0 -16 -13 -35l-116 -180q-31 -45 -95 -45h-51z" />
    <glyph glyph-name="zcaron" unicode="&#x17e;" horiz-adv-x="1001" 
d="M121 0q-12 0 -29 37q-16 37 -16 59t6 31l600 797h-524q-41 0 -41 61v25q0 61 41 61h719q12 0 30 -47t6 -80l-598 -797h564q41 0 41 -61v-25q0 -61 -41 -61h-758zM494 1192q-63 0 -95 45l-114 180q-12 20 -13 37q0 29 47 29t74 -27l125 -151l129 151q27 27 74 27t47 -31
q0 -16 -12 -35l-117 -180q-31 -45 -94 -45h-51z" />
    <glyph glyph-name="florin" unicode="&#x192;" horiz-adv-x="679" 
d="M129 903q-35 0 -35 39q0 109 56 109h81l29 215q38 284 318 282q128 0 129 -61q-25 -96 -58 -96q-3 0 -31 5t-63 5q-104 0 -125 -152l-27 -198h179q34 0 34 -47t-17 -74t-38 -27h-178l-180 -1282q-6 -45 -88 -45h-9q-76 0 -75 45l180 1282h-82z" />
    <glyph glyph-name="circumflex" unicode="&#x2c6;" 
d="M121 1196q-47 0 -47 29q0 16 12 37l115 180q31 45 94 45h51q63 0 94 -45l117 -180q12 -18 12 -35q0 -31 -47 -31t-73 27l-130 151l-124 -151q-27 -27 -74 -27z" />
    <glyph glyph-name="caron" unicode="&#x2c7;" 
d="M293 1192q-63 0 -94 45l-115 180q-12 20 -12 37q0 29 47 29t74 -27l124 -151l129 151q27 27 74 27t47 -31q0 -16 -12 -35l-117 -180q-31 -45 -94 -45h-51z" />
    <glyph glyph-name="breve" unicode="&#x2d8;" 
d="M618 1434q0 -106 -84 -171t-210 -65q-125 0 -211 65t-86 171q0 31 30 30q23 0 27 -10l18 -41q43 -80 230 -80t217 97q10 30 18 32t21 2q30 1 30 -30z" />
    <glyph glyph-name="dotaccent" unicode="&#x2d9;" 
d="M328 1243q-82 0 -82 45v105q0 45 82 45h8q82 0 82 -45v-105q0 -45 -82 -45h-8z" />
    <glyph glyph-name="ring" unicode="&#x2da;" 
d="M430 1327q0 43 -30 73t-72 30t-72 -30q-29 -30 -29 -73t29 -72t72 -29q42 0 72 30q30 28 30 71zM328 1155q-72 0 -122 50t-50 122t50 123t122 51t123 -51t51 -123t-51 -122t-123 -50z" />
    <glyph glyph-name="ogonek" unicode="&#x2db;" 
d="M217 29h19q37 0 36 -31q0 -12 -12 -55t-12 -70q0 -104 127 -104l106 20q39 0 39 -51v-19q0 -94 -160 -94t-213 84q-37 66 -36 109q0 211 106 211z" />
    <glyph glyph-name="tilde" unicode="&#x2dc;" horiz-adv-x="747" 
d="M700 1374q0 -38 -69 -76t-141 -38t-152 20t-109 20t-61 -13t-58 -13q-24 0 -42 20t-19 41q0 39 70 77q69 38 141 38t152 -20t114 -20t66 12q31 14 50 14q18 0 38 -22t20 -40z" />
    <glyph glyph-name="hungarumlaut" unicode="&#x2dd;" horiz-adv-x="786" 
d="M766 1513q0 -14 -15 -33q-15 -20 -49 -58t-74 -84t-55 -62q-33 -37 -92 -37t-59 22t119 226q31 53 128 53t97 -27zM465 1513q1 -14 -15 -33q-16 -20 -50 -58t-74 -84t-54 -62q-35 -37 -93 -37t-58 22t119 226q31 53 128 53t97 -27z" />
    <glyph glyph-name="pi" unicode="&#x3c0;" horiz-adv-x="1261" 
d="M135 39q0 2 4 18q53 164 95 410t53 457q-102 0 -154 -9l-63 -10q-41 0 -41 76q0 90 303 90h831q49 0 49 -39q0 -109 -69 -108h-113v-609q0 -69 9 -157t10 -111q0 -51 -54 -51h-49q-56 0 -72 64t-16 239v625h-399q-11 -211 -55 -469t-95 -408q-18 -51 -69 -51h-47
q-58 0 -58 43z" />
    <glyph glyph-name="endash" unicode="&#x2013;" horiz-adv-x="1024" 
d="M41 471q-41 0 -41 61v21q0 61 41 61h942q41 0 41 -61v-21q0 -61 -41 -61h-942z" />
    <glyph glyph-name="emdash" unicode="&#x2014;" horiz-adv-x="2048" 
d="M41 471q-41 0 -41 61v21q0 61 41 61h1966q41 0 41 -61v-21q0 -61 -41 -61h-1966z" />
    <glyph glyph-name="quoteleft" unicode="&#x2018;" horiz-adv-x="434" 
d="M201 1055q-82 0 -82 57q0 156 71 279q72 123 136 123t63 -31q0 -12 -18 -49q-70 -131 -70 -314q0 -66 -82 -65h-18z" />
    <glyph glyph-name="quoteright" unicode="&#x2019;" horiz-adv-x="434" 
d="M336 1487q0 -156 -72 -279t-135 -123t-63 31q0 12 18 49q70 137 70 314q0 66 82 65h18q82 0 82 -57z" />
    <glyph glyph-name="quotesinglbase" unicode="&#x201a;" horiz-adv-x="405" 
d="M113 156q0 66 82 65h18q82 0 82 -57q0 -156 -72 -279t-135 -123t-63 31q0 12 18 49q70 138 70 314z" />
    <glyph glyph-name="quotedblleft" unicode="&#x201c;" horiz-adv-x="716" 
d="M449 1055q-82 0 -82 57q0 156 71 279q72 123 136 123t63 -31q0 -12 -19 -49q-70 -131 -69 -314q0 -66 -82 -65h-18zM164 1055q-82 0 -82 57q0 156 72 279t135 123t63 -31q0 -12 -18 -49q-70 -131 -70 -314q0 -66 -82 -65h-18z" />
    <glyph glyph-name="quotedblright" unicode="&#x201d;" horiz-adv-x="716" 
d="M625 1487q0 -156 -72 -279t-135 -123t-64 31q0 12 19 49q70 137 69 314q0 66 82 65h19q82 0 82 -57zM340 1487q0 -156 -72 -279t-135 -123t-63 31q0 12 18 49q70 137 70 314q0 66 82 65h18q82 0 82 -57z" />
    <glyph glyph-name="quotedblbase" unicode="&#x201e;" horiz-adv-x="688" 
d="M397 156q0 66 82 65h19q82 0 82 -57q0 -156 -72 -279t-135 -123t-64 31q0 12 19 49q69 138 69 314zM113 156q0 66 82 65h18q82 0 82 -57q0 -156 -72 -279t-135 -123t-63 31q0 12 18 49q70 138 70 314z" />
    <glyph glyph-name="dagger" unicode="&#x2020;" horiz-adv-x="1095" 
d="M465 864h-324q-41 0 -41 62v41q0 61 41 61h324v365q0 45 84 45t84 -45v-365h321q41 0 41 -61v-41q0 -61 -41 -62h-321v-1106q0 -45 -84 -45t-84 45v1106z" />
    <glyph glyph-name="daggerdbl" unicode="&#x2021;" horiz-adv-x="1095" 
d="M465 123h-324q-41 0 -41 61v41q0 61 41 62h324v577h-324q-41 0 -41 62v41q0 61 41 61h324v365q0 45 84 45t84 -45v-365h321q41 0 41 -61v-41q0 -61 -41 -62h-321v-577h321q41 0 41 -62v-41q0 -61 -41 -61h-321v-365q0 -45 -84 -45t-84 45v365z" />
    <glyph glyph-name="bullet" unicode="&#x2022;" horiz-adv-x="688" 
d="M600 668q0 -106 -75 -182q-75 -74 -183 -74t-182 74t-74 182t75 183t182 75t182 -76t75 -182z" />
    <glyph glyph-name="ellipsis" unicode="&#x2026;" horiz-adv-x="1263" 
d="M958 176q0 45 82 45h35q82 0 82 -45v-135q0 -45 -82 -45h-35q-82 0 -82 45v135zM532 176q0 45 82 45h35q82 0 82 -45v-135q0 -45 -82 -45h-35q-82 0 -82 45v135zM104 176q0 45 82 45h35q82 0 82 -45v-135q0 -45 -82 -45h-35q-82 0 -82 45v135z" />
    <glyph glyph-name="perthousand" unicode="&#x2030;" horiz-adv-x="2125" 
d="M1722 102q150 0 150 217q0 162 -68 205q-33 20 -80 21q-98 0 -125 -78q-23 -59 -22 -154q0 -211 145 -211zM938 313q0 -211 145 -211q150 0 150 217q0 162 -68 205q-33 20 -80 21q-97 0 -124 -78q-23 -59 -23 -154zM1722 -10q-280 0 -280 333t280 332q127 0 204 -80
q77 -79 77 -253t-77 -253t-204 -79zM1083 -10q-281 0 -281 333t281 332q127 0 204 -80q77 -79 77 -253t-77 -253t-204 -79zM412 893q150 0 149 217q0 162 -67 205q-33 20 -80 20q-98 0 -127 -78q-21 -55 -21 -136t8 -119t42 -74t96 -35zM289 4q0 12 8 21l764 1382
q20 39 82 39h10q49 0 49 -19q0 -6 -8 -20l-764 -1382q-20 -39 -82 -39h-10q-49 0 -49 18zM412 780q-281 0 -281 333t281 333q128 0 204 -80t76 -254t-76 -253t-204 -79z" />
    <glyph glyph-name="guilsinglleft" unicode="&#x2039;" horiz-adv-x="614" 
d="M94 528q0 24 27 58l266 319q23 25 45 25t48 -20q24 -20 24 -43q0 -22 -17 -44l-227 -295l227 -297q17 -23 17 -41t-25 -42q-52 -50 -92 4l-266 319q-27 33 -27 57z" />
    <glyph glyph-name="guilsinglright" unicode="&#x203a;" horiz-adv-x="614" 
d="M183 125q-25 -1 -49 23t-23 42q0 18 16 41l227 297l-227 295q-16 23 -16 44t25 42q51 39 91 -4l267 -319q26 -33 26 -58t-26 -57l-267 -319q-20 -27 -44 -27z" />
    <glyph glyph-name="fraction" unicode="&#x2044;" horiz-adv-x="540" 
d="M-102 -6q-53 0 -54 41q0 14 6 31l740 1327q25 47 72 47h8q49 0 49 -41q0 -14 -6 -31l-740 -1327q-25 -47 -67 -47h-8z" />
    <glyph glyph-name="Euro" unicode="&#x20ac;" horiz-adv-x="1228" 
d="M41 483q-41 0 -41 62v14q0 61 41 62h100q-2 20 -2 95t2 95h-100q-41 0 -41 61v15q0 61 41 61h117q41 244 194 371q154 127 396 127q130 0 240 -42t110 -85q0 -27 -26 -69t-44 -42q-4 0 -39 23q-104 67 -260 67q-322 -1 -389 -350h569q41 0 41 -61v-15q0 -61 -41 -61h-585
q-2 -20 -2 -96t2 -94h585q41 0 41 -62v-14q0 -61 -41 -62h-569q35 -174 135 -261t252 -87t281 78q43 25 47 25q16 0 44 -41t27 -62q0 -47 -116 -97t-267 -50q-512 0 -589 495h-113z" />
    <glyph glyph-name="trademark" unicode="&#x2122;" horiz-adv-x="1581" 
d="M352 625q-47 0 -47 24v697h-221q-23 0 -23 34v19q0 35 23 35h541q23 0 22 -35v-19q0 -35 -22 -34h-217v-697q0 -25 -48 -24h-8zM721 1411q0 25 45 25h43q39 0 47 -21l219 -379l29 -71l31 65l217 385q14 20 49 21h39q45 0 45 -25v-762q0 -25 -45 -24h-8q-47 0 -48 24v621
l-231 -404q-8 -14 -25 -14h-47q-16 0 -24 14l-236 410v-627q0 -25 -47 -24h-8q-45 0 -45 24v762z" />
    <glyph glyph-name="Omega" unicode="&#x2126;" horiz-adv-x="1497" 
d="M84 78q0 61 41 61h78l121 -8q-207 190 -207 569q0 745 631 746q633 0 632 -746q0 -379 -209 -569l121 8h78q41 0 41 -61v-17q0 -61 -41 -61h-485q-41 0 -41 61v9q0 35 14 36q336 86 336 615q0 281 -115 425t-331 144t-331 -144q-114 -144 -114 -425q0 -532 334 -615
q14 -2 14 -36v-9q0 -61 -41 -61h-485q-41 0 -41 61v17z" />
    <glyph glyph-name="arrowleft" unicode="&#x2190;" horiz-adv-x="1536" 
d="M0 549q0 18 14 33l478 475q29 29 69 28h113q39 0 39 -11t-21 -32l-434 -426h1235q45 0 45 -61v-20q0 -61 -45 -62h-1235l436 -428q20 -20 21 -31q0 -12 -39 -12h-113q-41 0 -69 29l-480 477q-14 14 -14 33v8z" />
    <glyph glyph-name="arrowup" unicode="&#x2191;" horiz-adv-x="1083" 
d="M-2 668q0 39 11 39t32 -21l428 -436v1155q0 45 61 45h21q61 0 61 -45v-1155l426 434q20 20 33 21q10 0 10 -39v-113q0 -41 -28 -70l-475 -477q-14 -14 -33 -14h-8q-18 0 -33 14l-477 479q-29 29 -29 70v113z" />
    <glyph glyph-name="arrowright" unicode="&#x2192;" horiz-adv-x="1536" 
d="M45 471q-45 0 -45 61v21q0 61 45 61h1233l-436 428q-20 20 -21 33q0 10 39 10h113q41 0 69 -28l480 -477q14 -14 14 -33v-8q0 -18 -14 -33l-478 -475q-29 -29 -69 -29h-113q-39 0 -39 11t21 32l434 426h-1233z" />
    <glyph glyph-name="arrowdown" unicode="&#x2193;" horiz-adv-x="1083" 
d="M0 780v113q0 41 29 70l475 477q14 14 33 14h8q18 0 33 -14l477 -479q29 -29 28 -70v-113q0 -39 -11 -39t-32 21l-428 436v-1155q0 -45 -61 -45h-21q-61 0 -61 45v1155l-426 -434q-20 -20 -31 -21q-12 0 -12 39z" />
    <glyph glyph-name="partialdiff" unicode="&#x2202;" horiz-adv-x="1052" 
d="M548 705q-126 1 -202 -93t-76 -214t58 -196t171 -77q113 0 189 135t88 342q-102 103 -228 103zM82 406q0 227 151 339q133 102 269 103q174 0 278 -113q0 276 -107 452q-108 175 -265 175q-92 0 -168 -47q-23 -15 -35 -15t-37 35t-25 56q1 43 95 82t196 38
q246 0 398 -220t151 -601q0 -197 -48 -343t-130 -222q-150 -137 -318 -137q-135 0 -260 86q-68 43 -106 131q-39 88 -39 201z" />
    <glyph glyph-name="Delta" unicode="&#x2206;" horiz-adv-x="1449" 
d="M727 1268h-10l-479 -1129h964zM70 61q0 33 16 76l541 1270q23 47 71 47h54q49 0 71 -47l539 -1270q16 -45 16 -76q0 -61 -61 -61h-1186q-61 0 -61 61z" />
    <glyph glyph-name="product" unicode="&#x220f;" horiz-adv-x="1536" 
d="M301 1286h-211q-41 0 -41 62v24q0 61 41 62h1354q41 0 41 -62v-24q0 -61 -41 -62h-211v-1454q0 -45 -82 -45h-12q-82 0 -82 45v1454h-580v-1454q0 -45 -82 -45h-12q-82 0 -82 45v1454z" />
    <glyph glyph-name="summation" unicode="&#x2211;" horiz-adv-x="1214" 
d="M1073 1434q61 0 62 -62v-24q0 -61 -62 -62h-733v-8l440 -598q35 -44 0 -86l-483 -621l2 -8h811q61 0 61 -61v-51q0 -61 -61 -62h-1001q-61 0 -62 62q0 41 27 73l538 688l-516 693q-25 33 -24 79q0 47 61 48h940z" />
    <glyph glyph-name="minus" unicode="&#x2212;" horiz-adv-x="1146" 
d="M119 381q-41 0 -41 61v27q0 61 41 61h909q41 0 41 -61v-27q0 -61 -41 -61h-909z" />
    <glyph glyph-name="radical" unicode="&#x221a;" horiz-adv-x="1265" 
d="M123 557q-23 0 -36 33t-13 54t28 34q6 2 130 51t139 49q31 0 45 -43q36 -109 134 -375l112 -304t36 -134l416 1700q8 43 80 43h25q61 0 61 -27q0 -12 -2 -16l-475 -1886q-8 -43 -72 -43h-61q-59 0 -76 43l-332 870q-129 -49 -139 -49z" />
    <glyph glyph-name="infinity" unicode="&#x221e;" horiz-adv-x="1613" 
d="M1198 358q78 0 131 65t53 157t-55 152t-143 61q-48 0 -104 -32q-56 -33 -92 -69t-109 -114q109 -128 175 -174t144 -46zM434 358q135 0 305 207q-150 227 -315 228q-86 -1 -141 -63t-55 -156t58 -154q58 -62 148 -62zM406 236q-120 0 -212 98q-94 98 -94 240t96 238
t238 97q186 0 381 -237q18 18 32 33q87 93 165 149q78 55 200 55t211 -93q88 -93 88 -238q0 -146 -97 -244t-230 -98q-180 -1 -379 241q-109 -127 -194 -184t-205 -57z" />
    <glyph glyph-name="integral" unicode="&#x222b;" horiz-adv-x="761" 
d="M129 -207q190 0 190 389q0 217 -14 559t-14 527q0 516 307 516q141 0 141 -66t-32 -65q-39 12 -68 12q-190 0 -190 -383q0 -213 14 -556t14 -536q0 -516 -307 -516q-141 0 -141 66q-1 65 32 65q41 -12 68 -12z" />
    <glyph glyph-name="approxequal" unicode="&#x2248;" horiz-adv-x="1120" 
d="M162 301q0 35 83 71t173 36t196 -27t148 -27t86 12q45 12 60 11q14 1 32 -19t18 -47q0 -37 -82 -73t-173 -35t-197 27t-146 26t-84 -11q-46 -11 -64 -11t-34 24q-16 25 -16 43zM360 592q-40 0 -84 -12q-45 -12 -64 -11q-19 0 -35 26q-15 26 -15 42q0 35 83 71
q147 64 369 9q106 -27 148 -27t86 11q45 11 60 11q14 0 32 -18q18 -20 18 -47q0 -37 -81 -73q-147 -64 -371 -8q-106 26 -146 26z" />
    <glyph glyph-name="notequal" unicode="&#x2260;" horiz-adv-x="1146" 
d="M193 55q0 18 18 41l98 123h-149q-61 0 -62 62v16q0 61 62 61h260l158 197h-418q-61 0 -62 61v15q0 61 62 61h528l125 154q27 37 76 37h22q51 0 52 -37q0 -18 -17 -39l-92 -115h133q61 0 62 -61v-15q0 -61 -62 -61h-244l-157 -197h401q61 0 62 -61v-16q0 -61 -62 -62h-512
l-131 -162q-29 -37 -76 -37h-22q-53 0 -53 35z" />
    <glyph glyph-name="lessequal" unicode="&#x2264;" horiz-adv-x="1159" 
d="M98 88q0 61 62 62h839q61 0 62 -62v-27q0 -61 -62 -61h-839q-61 0 -62 61v27zM100 696q0 49 47 72l842 356q14 6 31 6q41 0 41 -53v-28q0 -53 -47 -72l-729 -297l729 -299q47 -23 47 -72v-28q0 -53 -41 -54q-16 0 -31 6l-842 357q-47 23 -47 72v34z" />
    <glyph glyph-name="greaterequal" unicode="&#x2265;" horiz-adv-x="1159" 
d="M98 88q0 61 62 62h839q61 0 62 -62v-27q0 -61 -62 -61h-839q-61 0 -62 61v27zM139 227q-41 0 -41 54v28q0 49 47 72l729 299l-729 297q-47 18 -47 72v28q0 53 41 53q16 0 31 -6l842 -356q47 -23 47 -72v-34q0 -49 -47 -72l-842 -357q-15 -6 -31 -6z" />
    <glyph glyph-name="lozenge" unicode="&#x25ca;" horiz-adv-x="1142" 
d="M575 1319l-315 -608l315 -611l318 611zM113 711q0 18 12 41l360 678q23 43 72 43h39q47 0 72 -43l360 -678q12 -23 12 -41t-12 -43l-360 -676q-25 -43 -72 -43h-39q-49 0 -72 43l-360 678q-12 23 -12 41z" />
    <glyph glyph-name="fi" unicode="&#xfb01;" horiz-adv-x="1153" 
d="M797 1030q0 45 82 45h8q82 0 82 -45v-989q0 -45 -82 -45h-8q-82 0 -82 45v989zM870 1329q-82 0 -82 45v121q0 45 82 45h25q82 0 82 -45v-121q0 -45 -82 -45h-25zM221 924h-82q-41 0 -41 61v25q0 61 41 61h82v195q0 283 264 282q150 0 150 -61q0 -25 -13 -61t-30 -35
l-29 6q-33 4 -75 4q-96 0 -95 -152v-178h178q41 0 41 -61v-25q0 -61 -41 -61h-178v-883q0 -45 -82 -45h-8q-82 0 -82 45v883z" />
    <glyph glyph-name="fl" unicode="&#xfb02;" horiz-adv-x="1210" 
d="M778 1495q0 45 82 45h8q82 0 82 -45v-1208q0 -152 111 -152q35 0 59 6l29 4q15 1 29 -35t14 -61q0 -61 -132 -61t-208 68q-74 68 -74 214v1225zM221 924h-82q-41 0 -41 61v25q0 61 41 61h82v195q0 283 264 282q150 0 150 -61q0 -25 -13 -61t-30 -35l-29 6q-33 4 -75 4
q-96 0 -95 -152v-178h178q41 0 41 -61v-25q0 -61 -41 -61h-178v-883q0 -45 -82 -45h-8q-82 0 -82 45v883z" />
    <glyph glyph-name="ampersand.ss01" horiz-adv-x="1277" 
d="M281 418q0 -98 47 -167q79 -116 247 -116q129 0 267 76q-4 49 -4 59v418h-250q-154 0 -231 -63q-76 -64 -76 -207zM102 439q0 123 76 225t182 129v8q-96 39 -153 117t-57 184q0 164 111 254q112 90 294 90t182 -66q0 -24 -13 -62t-32 -38l-43 10q-39 8 -98 8t-111 -22
t-75 -57q-43 -63 -43 -149t74 -161q74 -74 200 -73h242l24 215q2 45 66 45h20q61 0 62 -45v-215h172q41 0 41 -62v-24q0 -61 -41 -62h-172v-401q0 -152 110 -152q35 0 60 6l28 4q16 1 30 -35t13 -61q0 -61 -144 -61t-214 88q-143 -88 -328 -88t-317 100q-146 109 -146 351z
" />
    </font>
</defs>
</svg>
