<?xml version="1.0" standalone="no"?>
<!DOCTYPE svg PUBLIC "-//W3C//DTD SVG 1.1//EN" "http://www.w3.org/Graphics/SVG/1.1/DTD/svg11.dtd" >
<svg xmlns="http://www.w3.org/2000/svg">
<metadata></metadata>
<defs>
<font id="tescobold" horiz-adv-x="1094" >
<font-face units-per-em="2048" ascent="1638" descent="-410" />
<missing-glyph horiz-adv-x="358" />
<glyph horiz-adv-x="2048" />
<glyph horiz-adv-x="2048" />
<glyph unicode="&#xd;" horiz-adv-x="358" />
<glyph unicode=" "  horiz-adv-x="358" />
<glyph unicode="&#x09;" horiz-adv-x="358" />
<glyph unicode="&#xa0;" horiz-adv-x="358" />
<glyph unicode="!" horiz-adv-x="573" d="M428 1378q0 27 -31 27h-278q12 -20 21.5 -52.5t9.5 -80.5l12 -846q0 -27 31 -27h219zM463 137q0 33 -12.5 63t-35.5 53t-55.5 36.5t-72.5 13.5t-72.5 -13.5t-55.5 -36.5t-35.5 -53t-12.5 -63t12.5 -62.5t35.5 -51.5t55.5 -35t72.5 -13t72.5 13t55.5 35t35.5 51.5 t12.5 62.5z" />
<glyph unicode="&#x22;" horiz-adv-x="1022" d="M881 1378q0 27 -31 27h-281q13 -20 21 -52.5t10 -80.5l18 -447q0 -26 31 -26h211zM430 1378q0 27 -31 27h-280q12 -20 20.5 -52.5t10.5 -80.5l18 -447q0 -26 31 -26h211z" />
<glyph unicode="#" horiz-adv-x="1221" d="M1153 791v176q0 14 -6.5 18t-22.5 4h-139l39 258q8 48 13 80.5t18 52.5h-203q-16 0 -22.5 -7t-8.5 -21l-55 -363h-221l39 258q8 48 13 80.5t17 52.5h-204q-16 0 -22.5 -7t-8.5 -21l-55 -363h-201v-176q0 -14 6.5 -18t22.5 -4h143l-31 -201h-198v-176q0 -14 6.5 -18.5 t21.5 -4.5h139l-55 -364q-3 -27 31 -27h186l60 391h221l-55 -364q-2 -14 6.5 -20.5t23.5 -6.5h185l59 391h201v176q0 14 -7 18.5t-22 4.5h-141l30 201h197zM737 791l-30 -201h-222l31 201h221z" />
<glyph unicode="$" horiz-adv-x="1149" d="M1055 379q0 97 -33.5 164.5t-89.5 115.5t-128.5 81t-150.5 61q-58 21 -107.5 41t-85.5 44t-56.5 54t-20.5 70q0 49 19.5 81.5t52 51.5t74.5 27t87 8q69 0 157.5 -20.5t182.5 -63.5l-24 215q-2 13 -4 21.5t-7 14.5t-13 11t-21 10q-23 9 -79 21t-128 18v100q0 27 -31 27 h-178v-135q-95 -16 -163 -55.5t-112.5 -93.5t-65.5 -118t-21 -129q0 -98 34 -166t89.5 -115.5t127.5 -80t148 -59.5q61 -22 108 -42.5t79 -45t48.5 -56t16.5 -74.5q0 -45 -17.5 -76t-49.5 -49.5t-78 -27t-103 -8.5q-56 0 -107 9t-97.5 24t-88 34t-78.5 39l-86 -223 q83 -41 186.5 -74t229.5 -41v-121q0 -26 31 -26h178v155q91 15 161.5 49t117.5 86t71.5 119t24.5 148z" />
<glyph unicode="%" horiz-adv-x="2085" d="M1972 401q0 99 -24.5 178.5t-71.5 135t-116 85t-158 29.5t-158.5 -29.5t-116.5 -85t-71.5 -135t-24.5 -178.5t24.5 -178t71.5 -134t116.5 -84.5t158.5 -29.5t158 29.5t116 84.5t71.5 134t24.5 178zM1524 1364q11 20 6 30.5t-31 10.5h-215l-725 -1399q-6 -15 -1.5 -23 t15.5 -8h228zM854 977q0 99 -24.5 178t-72 134.5t-116.5 85.5t-158 30t-158 -30t-116 -85.5t-71.5 -134.5t-24.5 -178t24.5 -178t71.5 -134t116 -84.5t158 -29.5t158 29.5t116.5 84.5t72 134t24.5 178zM1733 401q0 -81 -11 -130.5t-29 -76.5t-41.5 -35.5t-49.5 -8.5t-50 8.5 t-42 35.5t-29 76.5t-11 130.5t11 131t29 77.5t42 36.5t50 9t49.5 -9t41.5 -36.5t29 -77.5t11 -131zM614 977q0 -81 -10.5 -130.5t-28.5 -76.5t-42 -36t-50 -9t-49.5 9t-41.5 36t-29 76.5t-11 130.5t11 131t29 77.5t41.5 36.5t49.5 9t50 -9t42 -36.5t28.5 -77.5t10.5 -131z " />
<glyph unicode="&#x26;" horiz-adv-x="1393" d="M1372 0l-233 281q68 72 122.5 156.5t94.5 176.5l-201 95q-31 -73 -71 -137t-85 -121l-241 290q16 9 37.5 23t44 29.5t43 31t35.5 27.5q27 24 49.5 50.5t38 59t24 71t8.5 85.5q0 62 -23 120t-71 102.5t-123 71t-180 26.5q-96 0 -171.5 -26.5t-127 -72t-79 -106 t-27.5 -127.5q0 -53 12 -97.5t30 -81t39 -65t39 -49.5q-68 -35 -121.5 -75t-91 -90t-57.5 -113t-20 -144q0 -92 35 -170t97.5 -134.5t148.5 -88t188 -31.5q118 0 225 37t188 100l64 -75q12 -16 29.5 -22.5t29.5 -6.5h301zM793 1114q0 -39 -17 -71t-44.5 -57.5t-62 -46 t-69.5 -36.5q-21 22 -41.5 45.5t-37 49.5t-26.5 53.5t-10 56.5q0 32 11.5 58.5t32 45t49 29t63.5 10.5q75 0 113.5 -39t38.5 -98zM807 274q-23 -18 -46.5 -31.5t-50.5 -22.5t-58.5 -14t-71.5 -5q-48 0 -90 13.5t-72.5 39.5t-48 64t-17.5 88q0 83 40.5 135.5t115.5 89.5z" />
<glyph unicode="'" horiz-adv-x="575" d="M434 1378q0 27 -31 27h-284q12 -20 20.5 -52.5t10.5 -80.5l18 -447q0 -26 31 -26h215z" />
<glyph unicode="(" horiz-adv-x="760" d="M739 -80q-84 50 -147 111t-105.5 138.5t-64 173.5t-21.5 216t21.5 216t64 173.5t105.5 138.5t147 111l-123 207q-120 -54 -214 -135t-158.5 -188t-98.5 -238t-34 -285q0 -153 34 -284.5t98.5 -238t158.5 -188t214 -135.5z" />
<glyph unicode=")" horiz-adv-x="760" d="M649 559q0 154 -34 285t-98.5 238t-158.5 188t-215 135l-123 -207q84 -50 147.5 -111t105.5 -138.5t63.5 -173.5t21.5 -216t-21.5 -216t-63.5 -173.5t-105.5 -138.5t-147.5 -111l123 -207q121 54 215 135.5t158.5 188t98.5 238t34 284.5z" />
<glyph unicode="*" horiz-adv-x="1020" d="M920 1028l-66 203l-248 -92l12 239q0 27 -30 27h-217q12 -20 19.5 -51.5t10.5 -79.5l11 -135l-248 92l-64 -203l258 -74l-168 -209l175 -127l145 220l145 -220l174 127l-167 209z" />
<glyph unicode="+" d="M1067 567v219q0 14 -6.5 18.5t-22.5 4.5h-360v367q0 26 -31 26h-227v-393h-391v-217q0 -14 7.5 -19.5t22.5 -5.5h361v-372q0 -27 29 -27h229v399h389z" />
<glyph unicode="," horiz-adv-x="559" d="M459 94q0 51 -13 90t-37 65.5t-56.5 40t-71.5 13.5q-41 0 -73.5 -13.5t-55 -36t-34.5 -52.5t-12 -64q0 -24 7 -48t23.5 -45t43.5 -38t68 -26q-5 -39 -19 -78t-32 -74t-37.5 -65t-34.5 -50l129 -84q20 19 54.5 65t68 108.5t58 138t24.5 153.5z" />
<glyph unicode="-" horiz-adv-x="760" d="M684 424v223q0 14 -6.5 18.5t-22.5 4.5h-579v-221q0 -14 7.5 -19.5t22.5 -5.5h578z" />
<glyph unicode="." horiz-adv-x="571" d="M461 137q0 33 -12.5 63t-35.5 53t-55.5 36.5t-72.5 13.5t-72.5 -13.5t-55.5 -36.5t-35.5 -53t-12.5 -63t12.5 -62.5t35.5 -51.5t55.5 -35t72.5 -13t72.5 13t55.5 35t35.5 51.5t12.5 62.5z" />
<glyph unicode="/" horiz-adv-x="635" d="M618 1382q0 11 -8 17t-20 6h-217l-353 -1354q-2 -6 -4 -14t-2 -14q0 -11 8.5 -17t20.5 -6h217l352 1354q2 6 4 14t2 14z" />
<glyph unicode="0" d="M1042 688q0 170 -32 303t-95 225t-155.5 140.5t-212.5 48.5q-121 0 -213.5 -48.5t-155.5 -140.5t-95 -225t-32 -303q0 -168 32 -300.5t95 -224t155.5 -140t213.5 -48.5q120 0 212.5 48.5t155.5 140t95 224t32 300.5zM758 688q0 -147 -16.5 -241.5t-45 -148.5t-67 -74.5 t-82.5 -20.5t-82.5 20.5t-67 74.5t-45 148.5t-16.5 241.5q0 148 16.5 243t45 150t67 76t82.5 21t82.5 -21t67 -76t45 -150t16.5 -243z" />
<glyph unicode="1" d="M782 0v1354q0 26 -30 26h-168l-445 -387l131 -151q5 -5 10 -8t11 -3q8 0 13 3t11 8l195 180v-995q0 -27 31 -27h241z" />
<glyph unicode="2" d="M956 0v256q-24 -15 -56.5 -24t-80.5 -9h-379l195 223q65 75 120 144t94.5 139t62 144.5t22.5 160.5q0 91 -33.5 160.5t-91.5 116.5t-135.5 70.5t-165.5 23.5q-74 0 -135 -15.5t-109 -38t-83 -49.5t-58 -49q-28 -27 -38.5 -42t-10.5 -29q0 -13 7.5 -24.5t16.5 -20.5 l123 -121q17 21 35.5 43t40.5 41q15 13 33 26.5t40.5 24t49.5 17t59 6.5q39 0 71 -11.5t55.5 -32.5t36.5 -51.5t13 -68.5q0 -47 -11.5 -92t-43 -100.5t-87 -129t-144.5 -176.5l-310 -362v-127q0 -14 7 -18.5t22 -4.5h868z" />
<glyph unicode="3" d="M967 444q0 101 -35 175t-98 126q-48 39 -112 62.5t-138 36.5l329 350v164q0 14 -6.5 18t-21.5 4h-801v-186q0 -27 31 -27h485l-319 -331v-144q0 -26 24 -26h8q26 0 53.5 -2t53 -5.5t47.5 -7.5t37 -8q96 -22 140 -72t44 -131q0 -60 -20.5 -104.5t-57 -73.5t-87.5 -43 t-111 -14q-50 0 -91.5 6.5t-77 17t-65.5 25t-57 29.5l-82 -209q24 -17 62 -34.5t87.5 -32t108.5 -23.5t125 -9q63 0 128.5 11t126 34.5t113.5 60t92.5 89t62 120.5t22.5 154z" />
<glyph unicode="4" d="M1040 326l-26 180q-2 14 -8.5 21.5t-22.5 7.5h-109v823q0 14 -6.5 18t-21.5 4h-215l-576 -852v-176q0 -26 29 -26h545v-303q0 -14 6.5 -18.5t21.5 -4.5h217v326h166zM629 535h-324l324 499v-499z" />
<glyph unicode="5" d="M954 461q0 126 -42.5 211.5t-116 139t-173.5 78.5t-214 30l10 233h497l21 195q2 17 -8 24.5t-27 7.5h-700l-33 -659q0 -27 31 -27q11 0 20.5 0.5t21 1.5t27 1.5t39.5 0.5q78 0 145 -12t117 -40t78.5 -73t28.5 -112q0 -65 -21 -112.5t-58 -78.5t-88 -46t-110 -15 q-86 0 -151.5 23.5t-118.5 54.5l-86 -213q25 -16 63 -33.5t87 -32t106 -24t119 -9.5q64 0 128.5 11.5t124 36t111.5 62.5t90 92t60 124.5t22 159.5z" />
<glyph unicode="6" d="M1053 463q0 112 -34.5 196.5t-92 140.5t-132 84.5t-155.5 28.5q-88 0 -152.5 -22.5t-115.5 -69.5q15 100 56 174.5t99 120.5q92 72 226 72q66 0 111.5 -8t88.5 -25l-49 193q-5 17 -12 22.5t-23 11.5q-21 8 -63.5 14.5t-91.5 6.5q-145 0 -255 -54.5t-190 -146.5 q-50 -58 -87.5 -128.5t-62.5 -149t-37.5 -161.5t-12.5 -167q0 -165 38 -282.5t104.5 -193t157 -110.5t195.5 -35t195 35.5t155.5 99.5t102.5 154t37 199zM784 446q0 -59 -16 -105t-45 -78t-71 -49t-93 -17q-103 0 -159 65t-56 180q0 55 15 102t43 81.5t68 53.5t91 19 q110 0 166.5 -65t56.5 -187z" />
<glyph unicode="7" d="M1001 1217v141q0 14 -6.5 18t-21.5 4h-907v-211q0 -26 30 -26h609l-484 -1106q-2 -5 -3 -8.5t-1 -10.5q0 -18 31 -18h239z" />
<glyph unicode="8" d="M1044 395q0 112 -62.5 198.5t-174.5 141.5q42 23 76.5 53t60 67t39.5 81.5t14 97.5q0 85 -30.5 154t-88.5 117t-141.5 74t-189.5 26t-190 -27.5t-142 -77t-88.5 -119.5t-30.5 -155q0 -93 44.5 -169.5t135.5 -127.5q-58 -27 -101 -65.5t-71 -84t-41.5 -95.5t-13.5 -101 q0 -93 34 -168.5t98.5 -128.5t156.5 -82t209 -29t209 29t156 83.5t98 132t34 175.5zM745 1034q0 -41 -15 -73.5t-41 -58t-62.5 -44.5t-79.5 -33q-97 31 -145 78t-48 121q0 45 14.5 79.5t41 58t63 35t80.5 11.5q39 0 74 -10.5t61 -32.5t41.5 -54.5t15.5 -76.5zM764 385 q0 -49 -16.5 -87t-45.5 -63.5t-70 -39t-89 -13.5t-90 12.5t-72.5 38.5t-48 65t-17.5 93q0 92 49 147.5t144 90.5q56 -15 103 -35t81 -48.5t53 -67.5t19 -93z" />
<glyph unicode="9" d="M1028 815q0 143 -36.5 256t-108.5 191q-65 69 -153.5 106t-201.5 37q-102 0 -187.5 -32t-150.5 -91q-71 -63 -110 -154t-39 -202q0 -112 35 -196t93 -140.5t134 -84.5t158 -28q88 0 152 25t112 71q-12 -81 -42.5 -149.5t-82.5 -119t-125 -79t-170 -28.5q-26 0 -48.5 1.5 t-47.5 6.5l-29 -217q31 -5 67 -10t83 -5q122 0 229 35.5t182 100.5q27 23 58.5 54t63.5 73.5t61.5 97.5t52.5 125.5t37 159t14 196.5zM748 942q0 -54 -14.5 -99t-42 -77.5t-68.5 -50t-93 -17.5t-93 17t-69.5 49t-43.5 77.5t-15 102.5q0 55 15.5 99.5t44 76t69.5 48t92 16.5 q52 0 92.5 -17.5t68.5 -49.5t42.5 -76.5t14.5 -98.5z" />
<glyph unicode=":" horiz-adv-x="571" d="M461 801q0 34 -12.5 64t-35.5 52.5t-55.5 36t-72.5 13.5t-72.5 -13.5t-55.5 -36t-35.5 -52.5t-12.5 -64q0 -32 12.5 -61.5t35.5 -52t55.5 -35.5t72.5 -13t72.5 13t55.5 35.5t35.5 52t12.5 61.5zM461 137q0 34 -12.5 64t-35.5 52.5t-55.5 36t-72.5 13.5t-72.5 -13.5 t-55.5 -36t-35.5 -52.5t-12.5 -64q0 -32 12.5 -61.5t35.5 -52t55.5 -35.5t72.5 -13t72.5 13t55.5 35.5t35.5 52t12.5 61.5z" />
<glyph unicode=";" horiz-adv-x="571" d="M461 801q0 34 -12.5 64t-35.5 52.5t-55.5 36t-72.5 13.5t-72.5 -13.5t-55.5 -36t-35.5 -52.5t-12.5 -64q0 -32 12.5 -61.5t35.5 -52t55.5 -35.5t72.5 -13t72.5 13t55.5 35.5t35.5 52t12.5 61.5zM461 94q0 51 -13 90t-37 65.5t-56.5 40t-71.5 13.5q-41 0 -73 -13.5 t-54.5 -36t-34.5 -52.5t-12 -64q0 -24 6.5 -48t23 -45t43.5 -38t68 -26q-5 -39 -19 -78t-32 -74t-37.5 -65t-34.5 -50l129 -84q20 19 54.5 65t68 108.5t58 138t24.5 153.5z" />
<glyph unicode="&#x3c;" d="M1065 152v272l-703 260l703 262v273l-1038 -420v-199q0 -19 5.5 -27.5t26.5 -17.5z" />
<glyph unicode="=" d="M1067 778v219q0 14 -6.5 18.5t-22.5 4.5h-1009v-217q0 -14 7.5 -19.5t22.5 -5.5h1008zM1067 356v219q0 14 -6.5 18.5t-22.5 4.5h-1009v-217q0 -14 7.5 -19.5t22.5 -5.5h1008z" />
<glyph unicode="&#x3e;" d="M1067 571v199q0 19 -5.5 27.5t-27.5 17.5l-1005 404v-273l702 -260l-702 -262v-272z" />
<glyph unicode="?" horiz-adv-x="1141" d="M971 1065q0 87 -33 153t-89.5 110.5t-132 67.5t-159.5 23q-77 0 -140 -15t-114.5 -39.5t-92 -55.5t-71.5 -62q-12 -14 -21 -26.5t-9 -26.5q0 -12 7.5 -24t16.5 -21l129 -129q36 42 68.5 73t64.5 50.5t65 29t70 9.5q73 0 113.5 -33.5t40.5 -99.5q0 -37 -13 -68.5t-34 -60 t-47 -55t-53 -54.5q-29 -29 -53.5 -57t-43 -60t-29 -69.5t-10.5 -85.5v-113q0 -27 31 -27h219v78q0 30 5 55.5t19.5 51.5t40.5 56.5t68 70.5q35 32 68.5 67.5t60 77.5t42.5 93t16 116zM702 137q0 33 -12.5 63t-35.5 53t-55.5 36.5t-72.5 13.5t-72.5 -13.5t-55.5 -36.5 t-35.5 -53t-12.5 -63t12.5 -62.5t35.5 -51.5t55.5 -35t72.5 -13t72.5 13t55.5 35t35.5 51.5t12.5 62.5z" />
<glyph unicode="@" horiz-adv-x="1995" d="M1884 694q0 147 -48 276.5t-148 225.5t-254 151.5t-367 55.5q-111 0 -225 -25t-220 -77t-199.5 -132t-162.5 -189t-109 -249.5t-40 -312.5q0 -182 60.5 -330t178 -253t290 -162.5t396.5 -57.5q115 0 236.5 12.5t236.5 46.5l-55 209q-35 -10 -83.5 -19.5t-105 -17 t-118 -12t-121.5 -4.5q-173 0 -301 45t-212 124t-125.5 187t-41.5 234q0 123 27 228.5t75.5 192t115 152.5t146 111.5t169 68.5t182.5 23q163 0 275.5 -38.5t182.5 -104.5t101 -155t31 -189q0 -131 -26.5 -222.5t-66 -148.5t-86.5 -83t-88 -26q-24 0 -40.5 17.5t-16.5 40.5 q0 11 2 28.5t8 44.5l90 459q3 10 7 23t9 26.5t12 26t15 20.5q-80 45 -170 71t-202 26q-134 0 -237 -50.5t-173.5 -136t-106.5 -197.5t-36 -235q0 -88 24 -156t67.5 -114t105.5 -70t137 -24q32 0 66.5 6.5t67.5 20t64.5 35t57.5 52.5q15 -52 69.5 -83t145.5 -31 q118 0 216.5 46t169 132t109.5 209t39 278zM1186 793l-86 -445q-37 -54 -84.5 -84.5t-104.5 -30.5q-23 0 -45 7t-39.5 26t-28 53t-10.5 89q0 109 27.5 185.5t69.5 125.5t91 71.5t91 22.5t69.5 -5.5t49.5 -14.5z" />
<glyph unicode="A" horiz-adv-x="1296" d="M1296 0l-495 1384q-6 21 -31 21h-334q8 -12 13.5 -30t5.5 -46q0 -29 -9.5 -67t-21.5 -70l-416 -1135q-6 -15 -7 -22.5t-1 -14.5q0 -20 33 -20h225l113 330h518l92 -293q6 -20 13.5 -28.5t33.5 -8.5h268zM821 551h-375l195 586z" />
<glyph unicode="B" horiz-adv-x="1311" d="M1208 401q0 128 -63 220t-184 137q43 25 73.5 59.5t50.5 74.5t29.5 82.5t9.5 84.5q0 74 -29.5 140t-86.5 114q-51 43 -128 67.5t-196 24.5h-547q13 -20 22 -52.5t9 -80.5v-1245q0 -27 31 -27h528q109 0 198 30.5t152 84.5t97 127.5t34 158.5zM831 1014q0 -76 -47 -122 t-129 -46h-211v334h211q84 0 130 -44t46 -122zM905 424q0 -43 -14 -79.5t-41.5 -63t-67.5 -41.5t-92 -15h-246v396h246q52 0 92 -14.5t67.5 -41t41.5 -62.5t14 -79z" />
<glyph unicode="C" horiz-adv-x="1282" d="M1247 61l-80 226q-60 -26 -148 -49t-200 -23q-80 0 -154 28.5t-130.5 88t-90.5 151t-34 217.5q0 132 31.5 224t86.5 150.5t129.5 85t159.5 26.5q52 0 101.5 -8.5t93.5 -22.5t82 -31.5t67 -36.5l-22 232q-2 15 -5.5 25t-10 17t-16.5 12t-24 11q-12 6 -39 14.5t-67 16.5 t-92 13.5t-113 5.5q-154 0 -276.5 -56t-208 -154.5t-131 -231.5t-45.5 -287q0 -170 46 -306t135 -231t219.5 -146t299.5 -51q67 0 134 9.5t125 23.5t104 29.5t73 27.5z" />
<glyph unicode="D" horiz-adv-x="1477" d="M1366 702q0 149 -47 277.5t-134 223t-211.5 148.5t-279.5 54h-557q13 -20 22 -52.5t9 -80.5v-1245q0 -27 31 -27h495q155 0 279.5 54t211.5 148.5t134 222.5t47 277zM1065 702q0 -114 -30 -200t-81 -144.5t-119 -88t-143 -29.5h-241v925h241q75 0 143 -29.5t119 -88 t81 -145t30 -200.5z" />
<glyph unicode="E" horiz-adv-x="1167" d="M1090 0v270q-20 -12 -53 -21t-81 -9h-505v372h417q48 0 80.5 -9t52.5 -21v270h-550v313h483q48 0 80.5 -9t52.5 -21l-33 233q-3 20 -11.5 28.5t-31.5 8.5h-854q13 -20 22 -52.5t9 -80.5v-1245q0 -27 31 -27h891z" />
<glyph unicode="F" horiz-adv-x="1098" d="M1049 1135l-33 233q-3 20 -11.5 28.5t-31.5 8.5h-836q13 -20 22 -52.5t9 -80.5v-1245q0 -27 31 -27h252v582h364q48 0 80.5 -9.5t52.5 -21.5v268h-497v346h464q48 0 81 -9t53 -21z" />
<glyph unicode="G" horiz-adv-x="1450" d="M1319 70v675q0 27 -31 27h-479v-213q0 -27 31 -27h204v-303q-42 -9 -89.5 -13.5t-104.5 -4.5q-87 0 -166.5 29.5t-140.5 90t-97 152.5t-36 217q0 129 31.5 222.5t88 153.5t134.5 89t170 29q64 0 122 -10.5t107.5 -26.5t90 -35.5t71.5 -38.5l-23 236q-3 31 -15.5 43.5 t-41.5 23.5q-13 5 -43.5 13.5t-74 17t-98.5 15t-116 6.5q-168 0 -298.5 -56.5t-220.5 -155.5t-136.5 -232.5t-46.5 -286.5q0 -171 48.5 -308t142 -233t229.5 -147.5t311 -51.5q68 0 139 9t135.5 23.5t117.5 33t85 37.5z" />
<glyph unicode="H" horiz-adv-x="1448" d="M1311 1405h-283q-31 0 -31 -29v-495h-546v497q0 27 -31 27h-283q13 -20 22 -52.5t9 -80.5v-1245q0 -27 31 -27h252v639h546v-612q0 -27 31 -27h252v1272q0 48 9 80.5t22 52.5z" />
<glyph unicode="I" horiz-adv-x="618" d="M481 1405h-344q13 -20 22 -52.5t9 -80.5v-1245q0 -27 31 -27h252v1272q0 48 9 80.5t21 52.5z" />
<glyph unicode="J" horiz-adv-x="1092" d="M965 1405h-344q12 -20 21 -52.5t9 -80.5v-817q0 -63 -10.5 -112t-36.5 -82t-69.5 -50.5t-108.5 -17.5q-52 0 -94 16t-74 37.5t-53 43.5t-31 34l-149 -164q18 -28 54.5 -61.5t89.5 -63t123.5 -49t156.5 -19.5q112 0 202 26.5t153 81.5t96.5 140t33.5 203v854q0 48 9 80.5 t22 52.5z" />
<glyph unicode="K" horiz-adv-x="1391" d="M1391 0l-697 750l514 563q28 31 57 57.5t52 34.5h-318q-27 0 -42 -6.5t-33 -28.5l-473 -526v534q0 27 -31 27h-283q13 -20 22 -52.5t9 -80.5v-1245q0 -27 31 -27h252v621l526 -586q18 -20 35.5 -27.5t36.5 -7.5h342z" />
<glyph unicode="L" horiz-adv-x="1155" d="M1094 0v270q-20 -12 -52.5 -21t-80.5 -9h-510v1032q0 48 9 80.5t21 52.5h-344q13 -20 22 -52.5t9 -80.5v-1245q0 -27 31 -27h895z" />
<glyph unicode="M" horiz-adv-x="1722" d="M1585 1405h-379l-348 -827l-338 790q-8 19 -16 28t-31 9h-336q13 -20 22 -52.5t9 -80.5v-1245q0 -27 31 -27h241v1038l373 -921h74l387 942v-1032q0 -27 31 -27h249v1272q0 48 9.5 80.5t21.5 52.5z" />
<glyph unicode="N" horiz-adv-x="1448" d="M1311 1405h-267q-30 0 -30 -27v-846l-512 836q-11 17 -24.5 27t-41.5 10h-299q13 -20 22 -52.5t9 -80.5v-1245q0 -27 31 -27h235v1030l619 -1016q15 -24 51 -24h176v1282q0 48 9 80.5t22 52.5z" />
<glyph unicode="O" horiz-adv-x="1577" d="M1466 702q0 162 -45 297.5t-131 233t-212.5 151.5t-289.5 54t-289 -54t-212.5 -151.5t-131 -233t-44.5 -297.5t44.5 -297t131 -232.5t212.5 -151.5t289 -54t289.5 54t212.5 151.5t131 232.5t45 297zM1165 702q0 -126 -28 -220.5t-78 -156.5t-119.5 -93t-151.5 -31 t-151 31t-119 93t-78 156.5t-28 220.5q0 127 28 221t78 156t119 92.5t151 30.5t151.5 -30.5t119.5 -92.5t78 -156t28 -221z" />
<glyph unicode="P" horiz-adv-x="1257" d="M1155 995q0 110 -37.5 191.5t-109.5 132.5q-59 42 -142.5 64t-208.5 22h-520q13 -20 22 -52.5t9 -80.5v-1245q0 -27 31 -27h245v545q32 -2 74.5 -4t79.5 -2q74 0 133.5 6.5t108 19.5t87.5 32t72 44q75 57 115.5 145t40.5 209zM864 979q0 -50 -15.5 -90.5t-46.5 -69.5 t-77.5 -45t-108.5 -16q-32 0 -56.5 0.5t-44 1t-36 1.5t-33.5 3v418h189q49 0 91 -8.5t72.5 -31t48 -62t17.5 -101.5z" />
<glyph unicode="Q" horiz-adv-x="1610" d="M1499 -217l-321 293q142 97 215 258.5t73 367.5q0 162 -45 297.5t-131 233t-212.5 151.5t-289.5 54t-289 -54t-212.5 -151.5t-131 -233t-44.5 -297.5t44.5 -297t131 -232.5t212.5 -151.5t289 -54q28 0 54.5 1.5t52.5 6.5l152 -149q21 -22 43 -32.5t51 -10.5h358z M1165 702q0 -126 -28 -220t-78 -156.5t-119.5 -93.5t-151.5 -31t-151 31t-119 93.5t-78 156.5t-28 220q0 127 28 221t78 156t119 92.5t151 30.5t151.5 -30.5t119.5 -92.5t78 -156t28 -221z" />
<glyph unicode="R" horiz-adv-x="1366" d="M1337 0l-389 625q23 11 40.5 21.5t33.5 23.5q71 59 106 143t35 193q0 48 -9.5 93t-28 85.5t-45.5 74.5t-62 60q-59 42 -142 64t-208 22h-531q13 -20 22 -52.5t9 -80.5v-1245q0 -27 31 -27h245v557h164h29t33 2l299 -522q12 -23 32.5 -30t38.5 -7h297zM872 989 q0 -100 -60 -155.5t-181 -55.5h-185v404h199q49 0 90.5 -9.5t72 -32t47.5 -59.5t17 -92z" />
<glyph unicode="S" horiz-adv-x="1233" d="M1112 389q0 98 -34.5 167t-92.5 118t-134 82.5t-159 62.5q-64 22 -116.5 42.5t-90 45t-58.5 54.5t-21 71q0 50 20 83t54 53t79 28t96 8q78 0 169.5 -20.5t187.5 -65.5l-25 219q-2 14 -4 23t-7 15.5t-13.5 11t-22.5 10.5q-15 5 -43.5 12t-68 13.5t-88.5 11t-105 4.5 q-135 0 -232 -36t-158.5 -94.5t-90.5 -133t-29 -150.5q0 -100 35 -169t93 -117.5t134 -82t158 -61.5q65 -22 115 -43t83.5 -46t50.5 -57t17 -75q0 -46 -18 -78t-51.5 -51.5t-82.5 -28t-110 -8.5q-62 0 -116 9.5t-102.5 24.5t-91 34.5t-79.5 39.5l-88 -227q47 -24 101 -46 t116.5 -38t133 -25.5t150.5 -9.5q132 0 233 29.5t169 84t102.5 132t34.5 174.5z" />
<glyph unicode="T" horiz-adv-x="1184" d="M1153 1135l-37 233q-3 20 -10 28.5t-27 8.5h-1034v-213q0 -27 31 -27h375v-1138q0 -27 30 -27h252v1165h287q48 0 80.5 -9t52.5 -21z" />
<glyph unicode="U" horiz-adv-x="1427" d="M1300 1405h-282q-31 0 -31 -27v-884q0 -148 -64.5 -218.5t-209.5 -70.5t-209 70.5t-64 218.5v884q0 27 -30 27h-283q12 -20 21.5 -52.5t9.5 -80.5v-811q0 -108 29.5 -198.5t95.5 -156t172 -102.5t258 -37q153 0 259 37t172 102.5t96 156t30 198.5v811q0 48 9 80.5 t21 52.5z" />
<glyph unicode="V" horiz-adv-x="1339" d="M1339 1405h-274q-26 0 -34.5 -8.5t-14.5 -28.5l-336 -1018l-336 1018q-6 20 -13.5 28.5t-33.5 8.5h-297q19 -12 33 -39.5t26 -62.5l463 -1291q9 -20 31 -20h260l467 1308q14 38 27.5 65.5t31.5 39.5z" />
<glyph unicode="W" horiz-adv-x="1833" d="M1833 1405h-279q-26 0 -34 -8.5t-13 -28.5l-223 -973l-215 953q-5 19 -13 26.5t-34 7.5h-240l-229 -985l-215 973q-5 20 -13 27.5t-34 7.5h-291q19 -12 34.5 -41.5t24.5 -67.5l314 -1288q3 -11 10.5 -13.5t19.5 -2.5h269l246 987l235 -969q3 -11 10.5 -14.5t20.5 -3.5 h272l318 1308q9 38 24.5 65.5t34.5 39.5z" />
<glyph unicode="X" horiz-adv-x="1358" d="M1323 0l-487 760l378 555q22 32 41 56.5t45 33.5h-274q-16 0 -26.5 -1.5t-18 -5.5t-13.5 -10.5t-12 -15.5l-264 -401l-246 401q-5 9 -10 15.5t-12.5 10.5t-18 5.5t-26.5 1.5h-305q28 -9 48 -33.5t40 -56.5l362 -574l-448 -655q-16 -22 -24.5 -36.5t-8.5 -26.5 q0 -23 35 -23h241l349 528l311 -510q6 -9 12.5 -13.5t20.5 -4.5h311z" />
<glyph unicode="Y" horiz-adv-x="1288" d="M1288 1405h-282q-32 0 -44 -6.5t-24 -26.5l-289 -479l-268 479q-5 10 -10.5 16.5t-13 10t-18 5t-26.5 1.5h-313q28 -9 48 -32.5t40 -57.5l404 -676v-612q0 -27 30 -27h252v643l428 672q22 34 41 57.5t45 32.5z" />
<glyph unicode="Z" horiz-adv-x="1266" d="M1190 0v270q-20 -12 -52.5 -21t-80.5 -9h-604l725 1003v135q0 27 -31 27h-1032v-213q0 -27 30 -27h643l-725 -1003v-135q0 -27 31 -27h1096z" />
<glyph unicode="[" horiz-adv-x="770" d="M725 -287v211q0 23 -29 23h-282v1224h311v211q0 23 -29 23h-557v-1667q0 -13 7.5 -19t19.5 -6h559z" />
<glyph unicode="\" horiz-adv-x="639" d="M629 0l-357 1374q-5 16 -13 23.5t-23 7.5h-226l357 -1374q5 -16 13 -23.5t23 -7.5h226z" />
<glyph unicode="]" horiz-adv-x="770" d="M631 -287v1667q0 25 -27 25h-559v-211q0 -23 29 -23h282v-1224h-311v-211q0 -23 29 -23h557z" />
<glyph unicode="^" horiz-adv-x="1147" d="M1069 629l-377 760q-8 16 -30 16h-211l-365 -731q-3 -8 -5.5 -14.5t-2.5 -12.5q0 -8 5 -13t19 -5h242l219 465l221 -465h285z" />
<glyph unicode="_" horiz-adv-x="1024" d="M1024 -387v102h-1024v-102h1024z" />
<glyph unicode="`" horiz-adv-x="1217" d="M866 1075l-176 291q-11 17 -21.5 23t-33.5 6h-309q23 -16 46.5 -36.5t45.5 -43.5l194 -209q19 -20 34 -25.5t38 -5.5h182z" />
<glyph unicode="a" horiz-adv-x="1100" d="M958 0v637q0 79 -23.5 144.5t-76 112t-135.5 72t-201 25.5q-56 0 -105.5 -7t-88.5 -17t-66 -19.5t-39 -13.5q-25 -11 -41 -24t-16 -31q0 -8 1.5 -16.5t6.5 -20.5l53 -121q19 11 46.5 23t61.5 22.5t73.5 17.5t83.5 7q47 0 84.5 -8.5t63.5 -27t40 -47.5t14 -71v-41 q-59 8 -106.5 11t-81.5 3q-93 0 -169.5 -18t-130.5 -56.5t-84 -98.5t-30 -144q0 -67 21 -123.5t61.5 -98t100 -64.5t137.5 -23q60 0 107 11t82.5 29t59.5 41t37 46v-84q0 -27 31 -27h229zM694 258q-9 -11 -26.5 -24t-42 -24t-55.5 -18.5t-68 -7.5q-71 0 -109.5 32.5 t-38.5 94.5q0 63 46.5 99t134.5 36q45 0 86.5 -5t72.5 -11v-172z" />
<glyph unicode="b" horiz-adv-x="1155" d="M1065 512q0 108 -29 196t-83 151t-130.5 97.5t-171.5 34.5q-86 0 -147.5 -24.5t-93.5 -59.5v490q0 26 -31 26q-8 0 -24 -1t-36 -3l-208 -14q12 -20 21 -52.5t9 -80.5v-1092q0 -34 -6.5 -65t-17.5 -54q81 -40 190.5 -63t243.5 -23q112 0 206.5 31.5t162.5 97.5 t106.5 167.5t38.5 240.5zM784 485q0 -87 -18.5 -144.5t-50 -92.5t-72 -49.5t-84.5 -14.5q-45 0 -80 7.5t-69 19.5v489q72 66 170 66q43 0 80 -16t64.5 -50.5t43.5 -87.5t16 -127z" />
<glyph unicode="c" horiz-adv-x="997" d="M934 41l-62 217q-47 -20 -103.5 -35.5t-131.5 -15.5q-56 0 -104.5 13.5t-84.5 45t-56.5 82t-20.5 125.5t20 129.5t54.5 90t80.5 52.5t97 17q75 0 139.5 -22t118.5 -56l-19 213q-2 25 -11.5 37.5t-37.5 21.5q-38 14 -91 24.5t-122 10.5q-122 0 -216.5 -36.5t-160 -104.5 t-99.5 -164t-34 -215q0 -140 51 -243t142 -165q62 -43 139.5 -65.5t173.5 -22.5q108 0 192 20.5t146 45.5z" />
<glyph unicode="d" horiz-adv-x="1176" d="M1034 0v1397q0 26 -30 26q-8 0 -24 -1t-36 -3l-209 -14q13 -20 22 -52.5t9 -80.5v-361q-46 44 -106.5 62t-127.5 18q-91 0 -171.5 -35t-140.5 -101t-95 -161.5t-35 -216.5q0 -127 34 -220t90 -153.5t129.5 -90t152.5 -29.5q61 0 108 13t80.5 33t55 42.5t30.5 42.5l10 -88 q3 -27 31 -27h223zM766 299q-13 -18 -31.5 -36t-41.5 -31.5t-51 -22t-60 -8.5q-42 0 -80.5 12t-68 43.5t-47 85t-17.5 137.5q0 145 59 218t156 73q60 0 105.5 -19.5t76.5 -48.5v-403z" />
<glyph unicode="e" horiz-adv-x="1065" d="M983 457v22q0 103 -22 197.5t-74 165.5q-51 67 -133.5 108t-202.5 41q-111 0 -196.5 -37.5t-144.5 -105.5t-89.5 -162.5t-30.5 -208.5q0 -112 35 -204.5t101 -158.5t161.5 -102.5t216.5 -36.5q64 0 118.5 7t99 17.5t79 24t60.5 25.5l-72 195q-56 -22 -121.5 -36.5 t-140.5 -14.5q-113 0 -181.5 52t-80.5 158h559q29 0 44 11.5t15 42.5zM713 584h-348q0 111 46.5 170t131.5 59q170 0 170 -229z" />
<glyph unicode="f" horiz-adv-x="750" d="M827 1151l-20 188q-3 22 -10.5 32t-32.5 20q-31 12 -76.5 22t-120.5 10q-82 0 -150 -27t-117 -76t-76 -117.5t-27 -151.5v-97l-144 -92v-84q0 -14 6.5 -18t22.5 -4h115v-729q0 -27 30 -27h238v756h256l-27 182q-2 14 -8.5 21.5t-21.5 7.5h-199v77q0 84 42 121t118 37 q65 0 112.5 -16t89.5 -35z" />
<glyph unicode="g" horiz-adv-x="1153" d="M1038 905q-77 38 -188.5 62t-245.5 24q-112 0 -206.5 -32.5t-162.5 -97t-106.5 -162.5t-38.5 -228q0 -105 32 -190.5t87.5 -146t130 -93.5t160.5 -33q44 0 83 8t71 20.5t55 28.5t36 31v-96q0 -40 -9 -72.5t-29 -52.5q-29 -29 -79 -47t-128 -18q-82 0 -157 15.5t-132 37.5 l-53 -191q41 -14 81.5 -25t85 -18.5t95 -11.5t112.5 -4q116 0 206 28t153 85q60 54 91.5 135.5t31.5 195.5v729q0 36 6.5 66t17.5 53zM745 291q-29 -26 -75 -43t-99 -17q-41 0 -77.5 14.5t-63.5 46.5t-43 82t-16 122q0 77 18.5 131t49.5 88t71.5 49.5t85.5 15.5q42 0 78 -7 t71 -19v-463z" />
<glyph unicode="h" horiz-adv-x="1182" d="M1040 0v629q0 172 -87.5 267t-264.5 95q-88 0 -160 -33t-118 -86v525q0 26 -31 26q-8 0 -24 -1t-36 -3l-208 -14q12 -20 21 -52.5t9 -80.5v-1245q0 -27 31 -27h238v637q15 24 38.5 46.5t51 39.5t57.5 27t59 10q85 0 118.5 -43.5t33.5 -138.5v-551q0 -27 31 -27h241z" />
<glyph unicode="i" horiz-adv-x="543" d="M428 1239q0 29 -11.5 55t-32.5 45t-51.5 30t-68.5 11t-68 -11t-51.5 -30t-33 -45t-11.5 -55q0 -28 11.5 -53t33 -44t51.5 -30.5t68 -11.5t68.5 11.5t51.5 30.5t32.5 44t11.5 53zM403 0v940q0 27 -30 27h-269q13 -20 22 -52.5t9 -80.5v-807q0 -27 31 -27h237z" />
<glyph unicode="j" horiz-adv-x="547" d="M432 1239q0 28 -11.5 54t-32.5 45t-51.5 30.5t-68.5 11.5t-68 -11.5t-51.5 -30.5t-33 -45t-11.5 -54q0 -29 11.5 -54.5t33 -44.5t51.5 -30.5t68 -11.5t68.5 11.5t51.5 30.5t32.5 44.5t11.5 54.5zM408 -25v965q0 27 -31 27h-268q12 -20 21 -52.5t9 -80.5v-865 q0 -46 -10.5 -75.5t-29 -46t-42.5 -23t-51 -6.5q-31 0 -66.5 6t-66.5 20l-57 -186q38 -19 95.5 -32t135.5 -13q79 0 145.5 22.5t114.5 68t74.5 113.5t26.5 158z" />
<glyph unicode="k" horiz-adv-x="1120" d="M1120 0l-444 535l311 370q17 20 37 37.5t37 24.5h-311q-20 0 -31 -6t-19 -15l-290 -366v817q0 26 -31 26q-8 0 -24 -1t-36 -3l-208 -14q12 -20 21 -52.5t9 -80.5v-1245q0 -27 31 -27h238v457l329 -426q13 -16 30 -23.5t30 -7.5h321z" />
<glyph unicode="l" horiz-adv-x="551" d="M410 0v1397q0 26 -31 26q-8 0 -24 -1t-36 -3l-208 -14q12 -20 21 -52.5t9 -80.5v-1245q0 -27 31 -27h238z" />
<glyph unicode="m" horiz-adv-x="1743" d="M1602 0v645q0 81 -20.5 145t-62 108.5t-104.5 68.5t-147 24q-88 0 -165.5 -40.5t-135.5 -119.5q-39 83 -114 121.5t-169 38.5q-52 0 -98 -12t-84.5 -32.5t-68.5 -48.5t-50 -60q-3 38 -6.5 65.5t-9.5 42.5q-5 11 -13.5 16t-23.5 5h-230q17 -36 23 -76q8 -47 13 -94.5 t5 -94.5v-675q0 -27 31 -27h238v637q13 22 33.5 44t45.5 39.5t52.5 28.5t56.5 11q78 0 106.5 -40.5t28.5 -125.5v-567q0 -27 31 -27h242v637q14 24 35 46t45.5 39t52 27.5t55.5 10.5q78 0 106.5 -40.5t28.5 -125.5v-567q0 -27 31 -27h242z" />
<glyph unicode="n" horiz-adv-x="1178" d="M1036 0v629q0 172 -87.5 267t-264.5 95q-51 0 -96.5 -12t-84 -32.5t-69 -48.5t-51.5 -60q-3 48 -7 72t-9 36q-5 11 -13.5 16t-23.5 5h-230q17 -36 23 -76q8 -47 13 -94.5t5 -94.5v-675q0 -27 31 -27h238v637q15 24 38 46.5t49.5 39.5t56 27t58.5 10q85 0 118.5 -43.5 t33.5 -138.5v-551q0 -27 31 -27h241z" />
<glyph unicode="o" horiz-adv-x="1155" d="M1065 483q0 121 -36.5 215.5t-102 159.5t-154.5 99t-194 34t-194.5 -34t-155 -99t-102 -159.5t-36.5 -215.5q0 -120 36.5 -214.5t102 -160t155 -99.5t194.5 -34t194 34t154.5 99.5t102 160t36.5 214.5zM786 483q0 -139 -55.5 -213.5t-152.5 -74.5t-153 74.5t-56 213.5 q0 140 56 213.5t153 73.5t152.5 -73.5t55.5 -213.5z" />
<glyph unicode="p" horiz-adv-x="1176" d="M1085 494q0 126 -31.5 219.5t-87 155t-130 92t-160.5 30.5q-90 0 -161 -30.5t-130 -102.5q-3 26 -8 51t-10 37q-5 11 -13.5 16t-23.5 5h-230q17 -36 23 -76q9 -47 13.5 -94.5t4.5 -94.5v-1052q0 -27 31 -27h238v432q52 -45 113 -62.5t118 -17.5q92 0 173 35t141 101.5 t95 163t35 219.5zM807 487q0 -71 -15.5 -125.5t-43 -91.5t-66.5 -56t-86 -19q-57 0 -103 20t-83 55v422q35 32 81 55t103 23q42 0 80.5 -12.5t68 -45t47 -87t17.5 -138.5z" />
<glyph unicode="q" horiz-adv-x="1153" d="M1038 899q-71 38 -180 65t-244 27q-112 0 -208 -32t-166 -98.5t-110 -168.5t-40 -241q0 -99 29 -186t83.5 -151.5t133 -101.5t176.5 -37q80 0 137.5 22t95.5 56v-403q0 -27 31 -27h238v1157q0 34 6.5 65t17.5 54zM745 262q-35 -34 -82 -49.5t-92 -15.5q-43 0 -79.5 16.5 t-63.5 51t-42 88.5t-15 130q0 85 18.5 142.5t50 91.5t72 48.5t84.5 14.5q42 0 78 -7t71 -19v-492z" />
<glyph unicode="r" horiz-adv-x="762" d="M733 705l-20 235q-2 20 -16.5 29.5t-51.5 9.5q-72 0 -139 -39t-111 -117q-6 50 -13 79t-15 44q-5 11 -13.5 16t-23.5 5h-230q8 -17 13 -36.5t10 -39.5q9 -47 13.5 -94.5t4.5 -94.5v-675q0 -27 31 -27h238v621q12 18 29.5 36.5t41.5 33.5t55.5 24.5t71.5 9.5 q35 0 65.5 -5.5t59.5 -14.5z" />
<glyph unicode="s" horiz-adv-x="930" d="M840 274q0 63 -16.5 109.5t-46.5 80.5t-72.5 58.5t-94.5 42.5q-53 19 -98 33.5t-77.5 29t-51 31.5t-18.5 41q0 44 34 64t103 20q26 0 59 -4.5t69 -13.5t73.5 -23t72.5 -32l-18 194q-3 25 -13 37.5t-36 20.5q-28 9 -87 18.5t-137 9.5q-97 0 -167.5 -24.5t-117 -65.5 t-69 -94t-22.5 -109q0 -60 17 -106.5t52 -83.5t89.5 -66t129.5 -53q56 -18 90.5 -31.5t53 -27t24.5 -30t6 -38.5q0 -37 -34 -57.5t-117 -20.5q-46 0 -87 7t-76 17.5t-65 23t-55 24.5l-71 -199q78 -37 172.5 -59.5t197.5 -22.5q201 0 302.5 78t101.5 221z" />
<glyph unicode="t" horiz-adv-x="772" d="M748 35l-58 188q-29 -9 -59.5 -14.5t-55.5 -5.5q-37 0 -60 8t-36.5 24.5t-18.5 41t-5 57.5v422h254l-27 182q-2 14 -8.5 21.5t-22.5 7.5h-196v233q0 27 -31 27h-119q-19 -80 -52.5 -138t-72 -99.5t-76 -69.5t-65.5 -48v-94q0 -14 6.5 -18t22.5 -4h114v-492 q0 -83 24.5 -137t66.5 -86t97.5 -44.5t118.5 -12.5q82 0 145 14.5t114 36.5z" />
<glyph unicode="u" horiz-adv-x="1178" d="M1036 0v940q0 27 -30 27h-269q13 -20 22 -52.5t9 -80.5v-521q-32 -45 -83.5 -73.5t-117.5 -28.5q-40 0 -69 9t-47.5 30t-27.5 55t-9 84v551q0 27 -31 27h-272q12 -20 21 -52.5t9 -80.5v-492q0 -192 101 -281q89 -77 241 -77q57 0 103.5 11.5t82.5 30t62 42t41 47.5l8 -88 q3 -27 31 -27h225z" />
<glyph unicode="v" horiz-adv-x="1053" d="M1053 967h-258q-26 0 -34 -8.5t-16 -28.5l-215 -617l-213 617q-4 10 -7 17t-7.5 11.5t-12 6.5t-20.5 2h-270q19 -13 32 -41.5t27 -63.5l324 -842q5 -11 11.5 -15.5t19.5 -4.5h243l336 862q14 37 27.5 64.5t32.5 40.5z" />
<glyph unicode="w" horiz-adv-x="1522" d="M1522 967h-254q-26 0 -34.5 -8t-14.5 -29l-158 -619l-160 596q-6 20 -13.5 28.5t-33.5 8.5h-205l-178 -633l-152 619q-5 19 -13 28t-34 9h-272q19 -13 33 -40.5t26 -64.5l265 -842q6 -20 30 -20h244l162 578l153 -558q7 -20 31 -20h244l274 862q13 38 27 65t33 40z" />
<glyph unicode="x" horiz-adv-x="993" d="M983 0l-342 516l274 389q16 22 28.5 38.5t31.5 23.5h-266q-22 0 -29 -5t-16 -18l-160 -233l-148 233q-8 13 -15.5 18t-29.5 5h-284q18 -7 31.5 -23.5t27.5 -38.5l264 -401l-317 -447q-10 -12 -16.5 -22.5t-6.5 -18.5q0 -16 25 -16h244l206 305l187 -293q6 -12 22 -12h289 z" />
<glyph unicode="y" horiz-adv-x="1075" d="M1075 967h-256q-26 0 -34 -9t-15 -28l-209 -582l-231 582q-8 19 -15 28t-32 9h-283q17 -13 31.5 -41t29.5 -62l365 -803l-37 -90q-29 -72 -73 -105.5t-97 -33.5q-38 0 -68.5 8.5t-62.5 22.5l-65 -203q18 -9 40 -17.5t49.5 -15t63 -10.5t80.5 -4q141 0 234.5 80.5 t156.5 238.5l369 930q15 37 28 64.5t31 40.5z" />
<glyph unicode="z" horiz-adv-x="1004" d="M926 0v242q-20 -13 -52.5 -22t-80.5 -9h-357l484 637v96q0 14 -7 18.5t-22 4.5h-799v-185q0 -26 31 -26h416l-482 -637v-96q0 -14 7 -18.5t22 -4.5h840z" />
<glyph unicode="{" horiz-adv-x="813" d="M768 -287v211q0 23 -29 23h-80q-35 0 -61.5 4.5t-44 20.5t-26.5 48t-9 86v158q0 51 -6 95.5t-21.5 82t-41.5 67t-66 50.5q40 22 66 52t41.5 67.5t21.5 82t6 95.5v156q0 54 9 86t26.5 48t44 20.5t61.5 4.5h109v211q0 23 -29 23h-118q-82 0 -142.5 -15.5t-103 -42.5 t-69 -64t-42 -79.5t-21 -89.5t-5.5 -94v-223q0 -60 -34 -88.5t-95 -28.5h-64v-217q0 -23 29 -23h35q61 0 95 -28t34 -88v-226q0 -71 13.5 -139.5t55 -123.5t116.5 -88.5t198 -33.5h147z" />
<glyph unicode="|" horiz-adv-x="655" d="M465 0v1405h-275v-1405h275z" />
<glyph unicode="}" horiz-adv-x="813" d="M768 438v217q0 23 -29 23h-34q-62 0 -96 28.5t-34 88.5v225q0 47 -5.5 94t-21 89.5t-42 79.5t-69 64t-102.5 42.5t-142 15.5h-148v-211q0 -23 29 -23h80q35 0 61.5 -4.5t44 -20.5t26.5 -48t9 -86v-158q0 -51 6 -95.5t21.5 -82t41.5 -67t66 -50.5q-40 -22 -66 -52 t-41.5 -67.5t-21.5 -82t-6 -95.5v-156q0 -54 -9 -86t-26.5 -48t-44 -20.5t-61.5 -4.5h-109v-211q0 -23 29 -23h119q82 0 142 15.5t102.5 42.5t69 64t42 79.5t21 89.5t5.5 94v224q0 60 34 88t96 28h63z" />
<glyph unicode="~" horiz-adv-x="1313" d="M1255 575l-190 119q-29 -49 -51.5 -81t-43.5 -50.5t-41 -25.5t-44 -7q-31 0 -63 13t-65.5 33t-69.5 42.5t-76.5 42.5t-85 33t-95.5 13q-105 0 -200 -81t-173 -233l191 -119q28 49 51 81t44 50.5t41 25.5t44 7q32 0 63.5 -13t65 -32.5t69.5 -42.5t76 -42.5t85 -32.5 t96 -13q105 0 200 81t172 232z" />
<glyph unicode="&#xa1;" horiz-adv-x="573" d="M463 1268q0 33 -12.5 62.5t-35.5 51.5t-55.5 35t-72.5 13t-72.5 -13t-55.5 -35t-35.5 -51.5t-12.5 -62.5t12.5 -63t35.5 -53t55.5 -36.5t72.5 -13.5t72.5 13.5t55.5 36.5t35.5 53t12.5 63zM455 0q-13 20 -22 52.5t-9 80.5l-12 846q0 27 -31 27h-219l-17 -979 q0 -27 31 -27h279z" />
<glyph unicode="&#xa2;" horiz-adv-x="997" d="M903 248l-61 217q-48 -20 -104 -35.5t-132 -15.5q-56 0 -104.5 13.5t-84.5 45t-56.5 82t-20.5 125.5t20.5 129.5t55 90t80 52.5t96.5 17q75 0 139.5 -22t118.5 -56l-19 213q-2 25 -11.5 37.5t-37.5 21.5q-47 19 -125 31v158h-190v-160q-98 -15 -173.5 -57t-128 -108.5 t-79.5 -154.5t-27 -194q0 -140 51 -242.5t142 -165.5q45 -31 98.5 -51.5t116.5 -28.5v-190h190v188q76 7 137 24t109 36z" />
<glyph unicode="&#xa3;" horiz-adv-x="1122" d="M1098 1120l-25 215q-2 16 -10.5 24t-36.5 17q-23 10 -73 19.5t-134 9.5q-125 0 -210 -39.5t-141.5 -106t-89 -153t-50.5 -180.5l-21 -103h-164v-172q0 -25 9.5 -34t33.5 -9h76l-78 -368h-131v-197q0 -22 11.5 -32.5t29.5 -10.5h950v264q-18 -14 -43.5 -19t-48.5 -5h-508 l76 368h408l-17 183q-2 21 -11 26.5t-26 5.5h-309l17 76q15 70 34 124.5t49 92t74.5 57t112.5 19.5q45 0 85 -8.5t72.5 -20.5t55.5 -24t33 -19z" />
<glyph unicode="&#xa4;" horiz-adv-x="1307" d="M1214 268l-143 146q38 60 60 129.5t22 144.5q0 78 -22 147.5t-60 129.5l143 143l-143 143l-143 -143q-62 38 -131.5 60t-145.5 22q-77 0 -145.5 -22t-128.5 -60l-146 143l-143 -143l145 -143q-40 -60 -61.5 -131t-21.5 -146q0 -77 21.5 -146t61.5 -128l-145 -146 l143 -143l146 145q60 -40 129.5 -62t144.5 -22q78 0 148 22t129 62l143 -145zM909 688q0 -54 -20.5 -102.5t-55.5 -85t-82 -57.5t-100 -21t-100 21t-82 57.5t-55.5 85t-20.5 102.5q0 55 20.5 103.5t55.5 84.5t82 57t100 21t100 -21t82 -57t55.5 -84.5t20.5 -103.5z" />
<glyph unicode="&#xa5;" horiz-adv-x="1288" d="M1288 1380h-278q-32 0 -44 -6.5t-24 -25.5l-293 -476l-272 476q-11 20 -23.5 26t-44.5 6h-309q28 -9 48 -32.5t42 -57.5l334 -532h-229v-144q0 -14 7.5 -19t22.5 -5h267v-164h-297v-143q0 -14 7.5 -19.5t22.5 -5.5h267v-231q0 -27 30 -27h252v258h320v145q0 14 -7 18.5 t-22 4.5h-291v164h320v145q0 14 -7 18.5t-22 4.5h-215l350 532q22 34 42 57.5t46 32.5z" />
<glyph unicode="&#xa6;" horiz-adv-x="655" d="M465 936v469h-275v-469h275zM465 0v469h-275v-469h275z" />
<glyph unicode="&#xa7;" horiz-adv-x="1053" d="M932 682q0 75 -27.5 125.5t-73 84.5t-105.5 54.5t-124 34.5q-41 9 -83 16.5t-76 20.5t-56 35.5t-22 60.5q0 48 39 76.5t110 28.5q38 0 84.5 -7t92 -19t85 -27.5t64.5 -32.5l-13 190q-2 20 -12 34t-35 23q-26 10 -89 24.5t-169 14.5q-90 0 -164 -22.5t-126.5 -63.5 t-81.5 -99t-29 -128q0 -45 12 -83t30.5 -67.5t42.5 -49.5t48 -29q-37 -20 -63 -45.5t-42.5 -55.5t-24 -62.5t-7.5 -66.5q0 -82 31.5 -133.5t85 -83.5t123.5 -50.5t147 -35.5q55 -12 90 -27t55 -34.5t27.5 -42.5t7.5 -50q0 -30 -17 -52t-45.5 -36.5t-65.5 -22t-77 -7.5 q-41 0 -86.5 8t-89.5 20.5t-84 29t-69 34.5l-78 -189q27 -14 67.5 -32t94 -34t118.5 -27t142 -11q99 0 179 22.5t137 64.5t87.5 102.5t30.5 136.5q0 49 -12 89t-31.5 70.5t-43.5 51.5t-48 32q61 37 100 96t39 146zM688 664q0 -29 -7.5 -51.5t-20.5 -40.5t-30 -31.5 t-36 -24.5q-31 3 -58 8.5t-53 12.5q-20 4 -41.5 13t-39.5 24.5t-30 39t-12 58.5q0 22 9 44t27 40t44.5 31t61.5 18q50 -9 85 -25t57.5 -35t33 -40t10.5 -41z" />
<glyph unicode="&#xa8;" horiz-adv-x="1217" d="M973 1202q0 26 -8 50t-25.5 42.5t-43.5 29.5t-62 11t-63 -11t-44.5 -29.5t-26 -42.5t-8.5 -50q0 -24 8.5 -47.5t26 -41.5t44.5 -29t63 -11t62 11t43.5 29t25.5 41.5t8 47.5zM520 1202q0 26 -8.5 50t-26 42.5t-44 29.5t-62.5 11t-62.5 -11t-44 -29.5t-26 -42.5t-8.5 -50 q0 -24 8.5 -47.5t26 -41.5t44 -29t62.5 -11t62.5 11t44 29t26 41.5t8.5 47.5z" />
<glyph unicode="&#xa9;" horiz-adv-x="1800" d="M1690 700q0 108 -28 208.5t-79.5 187.5t-123.5 159t-159.5 123t-188.5 79t-210 28t-210 -28t-188.5 -79t-160 -123t-124 -159t-79.5 -187.5t-28 -208.5t28 -208t79.5 -187t124 -159t160 -123t188.5 -79t210 -28t210 28t188.5 79t159.5 123t123.5 159t79.5 187t28 208z M1483 702q0 -80 -20 -155t-57.5 -141t-90 -120t-117.5 -93t-140.5 -60.5t-158.5 -21.5q-80 0 -154.5 21.5t-139.5 60.5t-118.5 93t-91.5 120t-59 141t-21 155t20 155t57 140.5t89.5 119.5t117.5 92.5t141 59.5t159 21q123 0 229.5 -46.5t185.5 -126.5t124 -187t45 -228z M1202 338l-45 154q-40 -13 -99 -26t-122 -13q-44 0 -88 12t-79 39.5t-57 74t-22 115.5q0 71 18.5 120.5t50.5 80.5t75 45t92 14q55 0 111 -14t124 -45l-20 156q-2 15 -10.5 24.5t-28.5 16.5q-14 5 -61.5 15.5t-118.5 10.5q-107 0 -188.5 -33.5t-136 -90t-82.5 -131.5 t-28 -158q0 -98 29.5 -176t86.5 -132t139.5 -83t187.5 -29q77 0 146.5 15t125.5 38z" />
<glyph unicode="&#xaa;" horiz-adv-x="1014" d="M840 618v506q0 63 -20.5 115t-64.5 88.5t-115 57t-171 20.5q-48 0 -89.5 -5.5t-75 -13t-56.5 -15t-33 -11.5q-22 -8 -35.5 -19t-13.5 -26q0 -13 8 -29l45 -96q16 8 39 17.5t51.5 18t62 14t70.5 5.5q82 0 128 -27.5t46 -93.5v-32q-49 6 -90.5 9t-70.5 3q-79 0 -144 -15 t-111 -46.5t-71 -79t-25 -111.5q0 -53 17.5 -98t52 -78t85 -51.5t116.5 -18.5q51 0 91 8.5t70.5 23t50.5 32.5t31 37v-66q0 -11 7.5 -17t19.5 -6h195zM616 823q-8 -8 -22.5 -18t-35 -18.5t-47.5 -14.5t-58 -6q-60 0 -92.5 25.5t-32.5 74.5q0 51 38.5 79t112.5 28 q38 0 74.5 -3.5t62.5 -8.5v-138z" />
<glyph unicode="&#xab;" horiz-adv-x="1122" d="M1073 184l-272 336l272 336h-291l-272 -336l272 -336h291zM612 184l-272 336l272 336h-290l-273 -336l273 -336h290z" />
<glyph unicode="&#xac;" d="M1063 393v619q0 14 -6.5 18t-22.5 4h-1009v-217q0 -14 7.5 -19t22.5 -5h750v-373q0 -27 29 -27h229z" />
<glyph unicode="&#xad;" d="M1067 567v219q0 14 -6.5 18.5t-22.5 4.5h-1009v-217q0 -14 7.5 -19.5t22.5 -5.5h1008z" />
<glyph unicode="&#xae;" horiz-adv-x="1800" d="M1690 700q0 108 -28 208.5t-79.5 187.5t-123.5 159t-159.5 123t-188.5 79t-210 28t-210 -28t-188.5 -79t-160 -123t-124 -159t-79.5 -187.5t-28 -208.5t28 -208t79.5 -187t124 -159t160 -123t188.5 -79t210 -28t210 28t188.5 79t159.5 123t123.5 159t79.5 187t28 208z M1483 702q0 -80 -20 -155t-57.5 -141t-90 -120t-117.5 -93t-140.5 -60.5t-158.5 -21.5q-80 0 -154.5 21.5t-139.5 60.5t-118.5 93t-91.5 120t-59 141t-21 155t20 155t57 140.5t89.5 119.5t117.5 92.5t141 59.5t159 21q123 0 229.5 -46.5t185.5 -126.5t124 -187t45 -228z M1270 276l-195 351q33 9 60 31t46.5 52.5t30.5 67t11 74.5q0 75 -24.5 124.5t-66.5 79t-99.5 42t-123.5 12.5h-358q12 -22 19.5 -50t7.5 -65v-692q0 -27 34 -27h158v316h121l145 -285q8 -15 21 -23t33 -8h180zM1016 856q0 -32 -11 -55t-30.5 -37.5t-45.5 -21.5t-55 -7h-104 v232h115q24 0 47 -5.5t42 -18t30.5 -34t11.5 -53.5z" />
<glyph unicode="&#xaf;" horiz-adv-x="1106" d="M877 1104v219h-646v-219h646z" />
<glyph unicode="&#xb0;" horiz-adv-x="1024" d="M872 1044q0 75 -28 141t-76.5 115t-114.5 77t-141 28t-141 -28t-114.5 -77t-76.5 -115t-28 -141t28 -140.5t76.5 -114.5t114.5 -77t141 -28t141 28t114.5 77t76.5 114.5t28 140.5zM672 1044q0 -34 -12.5 -64t-34 -53t-50.5 -36.5t-61 -13.5t-61 13.5t-50.5 36.5t-34 53 t-12.5 64t12.5 64.5t34 53t50.5 35.5t61 13t61 -13t50.5 -35.5t34 -53t12.5 -64.5z" />
<glyph unicode="&#xb1;" d="M1067 698v220q0 14 -6.5 18t-22.5 4h-360v367q0 26 -31 26h-227v-393h-391v-217q0 -25 30 -25h361v-372q0 -27 29 -27h229v399h389zM1067 0v219q0 14 -6.5 18.5t-22.5 4.5h-1009v-217q0 -14 7.5 -19.5t22.5 -5.5h1008z" />
<glyph unicode="&#xb2;" horiz-adv-x="967" d="M799 567v219q-25 -15 -57 -23.5t-80 -8.5h-185l76 57q49 37 91 75.5t72.5 80.5t48 88.5t17.5 99.5q0 58 -23.5 104.5t-65.5 79t-101 49.5t-129 17q-63 0 -112 -11.5t-85 -28t-60 -34t-36 -28.5q-22 -19 -31.5 -31.5t-9.5 -26.5q0 -12 7.5 -24t17.5 -21l98 -96 q24 29 46 51t44 36.5t46 22t52 7.5q51 0 76 -24.5t25 -59.5q0 -21 -5.5 -40t-22.5 -42t-47.5 -52.5t-80.5 -70.5l-260 -215v-127q0 -14 6.5 -18.5t22.5 -4.5h645z" />
<glyph unicode="&#xb3;" horiz-adv-x="967" d="M805 840q0 103 -66.5 161.5t-185.5 73.5l217 158v133q0 14 -6.5 18.5t-22.5 4.5h-591v-154q0 -27 30 -27h328l-211 -143v-121q0 -26 25 -26h8q48 0 85.5 -0.5t76.5 -8.5q42 -8 59.5 -26t17.5 -56q0 -45 -39 -66.5t-122 -21.5q-56 0 -115 14.5t-109 37.5l-65 -179 q25 -10 56 -20.5t70 -19.5t88.5 -15t112.5 -6q64 0 128.5 15.5t115.5 50t83 89.5t32 134z" />
<glyph unicode="&#xb4;" horiz-adv-x="1217" d="M891 1395h-299q-23 0 -33.5 -6t-21.5 -23l-187 -291h178q23 0 38 5.5t34 25.5l199 209q21 21 45 42.5t47 37.5z" />
<glyph unicode="&#xb5;" horiz-adv-x="1178" d="M1036 0v940q0 27 -30 27h-269q13 -20 22 -52.5t9 -80.5v-521q-32 -45 -83.5 -73.5t-117.5 -28.5q-153 0 -153 178v551q0 27 -31 27h-272q12 -20 21 -52.5t9 -80.5v-1184q0 -27 31 -27h242v365q17 -2 34 -3t35 -1q57 0 103.5 11.5t82.5 30t62 42t41 47.5l8 -88 q3 -27 31 -27h225z" />
<glyph unicode="&#xb6;" horiz-adv-x="1225" d="M1087 1405h-524q-113 0 -205.5 -38t-158.5 -106.5t-102 -163t-36 -208.5q0 -94 30 -178t80 -150.5t115.5 -110.5t137.5 -57v-745q0 -25 27 -25h202v1620h172v-1595q0 -13 7.5 -19t19.5 -6h203v1673q0 34 10.5 63t21.5 46z" />
<glyph unicode="&#xb7;" horiz-adv-x="571" d="M461 711q0 33 -12.5 63t-35.5 53t-55.5 36.5t-72.5 13.5t-72.5 -13.5t-55.5 -36.5t-35.5 -53t-12.5 -63t12.5 -62.5t35.5 -51.5t55.5 -35t72.5 -13t72.5 13t55.5 35t35.5 51.5t12.5 62.5z" />
<glyph unicode="&#xb8;" horiz-adv-x="1106" d="M844 -96h-279q-23 0 -33.5 -6t-21.5 -23l-160 -262h193q23 0 38.5 4.5t32.5 26.5l150 180q5 6 15.5 17t22.5 23t23.5 23t18.5 17z" />
<glyph unicode="&#xb9;" horiz-adv-x="967" d="M623 567v795q0 27 -31 27h-141l-291 -232l102 -123q10 -10 21 -10q8 0 13 2.5t11 7.5l90 68v-508q0 -27 31 -27h195z" />
<glyph unicode="&#xba;" horiz-adv-x="1155" d="M991 1001q0 96 -31 171t-86.5 127t-131 79t-164.5 27t-165 -27t-131.5 -79t-86.5 -127t-31 -171t31 -171t86.5 -126.5t131.5 -78.5t165 -27t164.5 27t131 78.5t86.5 126.5t31 171zM756 1001q0 -109 -47.5 -169t-130.5 -60q-84 0 -131.5 60t-47.5 169q0 110 47.5 169 t131.5 59q83 0 130.5 -59t47.5 -169z" />
<glyph unicode="&#xbb;" horiz-adv-x="1122" d="M1073 520l-272 336h-291l272 -336l-272 -336h291zM612 520l-272 336h-291l273 -336l-273 -336h291z" />
<glyph unicode="&#xbc;" horiz-adv-x="2085" d="M1905 145l-19 131q-2 14 -8.5 21.5t-22.5 7.5h-63v486q0 14 -6.5 18t-22.5 4h-188l-410 -494v-147q0 -27 29 -27h391v-131q0 -14 6.5 -18t22.5 -4h180v153h111zM1462 1364q11 20 6.5 30.5t-30.5 10.5h-215l-725 -1399q-7 -15 -2 -23t16 -8h227zM573 567v795q0 27 -30 27 h-142l-290 -232l102 -123q10 -10 20 -10q8 0 13.5 2.5t11.5 7.5l90 68v-508q0 -27 31 -27h194zM1585 305h-213l213 266v-266z" />
<glyph unicode="&#xbd;" horiz-adv-x="2085" d="M1870 -8v219q-25 -16 -57 -24.5t-80 -8.5h-185l76 58q49 37 91 75t72.5 80t48 89t17.5 100q0 58 -23.5 104t-65.5 78.5t-101 49.5t-129 17q-63 0 -112 -11.5t-85 -28t-60 -33.5t-36 -29q-22 -19 -31.5 -31t-9.5 -26q0 -13 7.5 -24.5t17.5 -20.5l98 -97q49 58 90.5 87.5 t97.5 29.5q51 0 76 -24.5t25 -59.5q0 -21 -5.5 -40t-22.5 -41.5t-47.5 -52t-80.5 -71.5l-260 -215v-127q0 -14 6.5 -18t22.5 -4h645zM1436 1364q11 20 6 30.5t-31 10.5h-215l-725 -1399q-6 -15 -1.5 -23t15.5 -8h228zM555 567v795q0 27 -31 27h-141l-291 -232l103 -123 q10 -10 20 -10q8 0 13 2.5t12 7.5l90 68v-508q0 -27 30 -27h195z" />
<glyph unicode="&#xbe;" horiz-adv-x="2085" d="M1948 145l-19 131q-2 14 -8.5 21.5t-22.5 7.5h-63v486q0 14 -6.5 18t-22.5 4h-188l-410 -494v-147q0 -27 29 -27h391v-131q0 -14 6.5 -18t22.5 -4h180v153h111zM1534 1364q11 20 6 30.5t-31 10.5h-215l-725 -1399q-6 -15 -1 -23t16 -8h227zM813 817q0 106 -65 162.5 t-181 73.5l211 174v139q0 14 -6.5 18.5t-21.5 4.5h-580v-160q0 -27 31 -27h305l-201 -153v-115q0 -12 6 -19.5t19 -7.5h22q118 0 173 -19.5t55 -72.5q0 -43 -40.5 -60.5t-123.5 -17.5q-29 0 -62.5 4.5t-65 11t-57.5 14t-41 13.5l-57 -174q25 -10 55 -19.5t69 -17.5t89.5 -13 t116.5 -5q61 0 123.5 12.5t113 43.5t82 82t31.5 128zM1628 305h-213l213 266v-266z" />
<glyph unicode="&#xbf;" horiz-adv-x="1141" d="M791 1257q0 33 -12.5 62.5t-36 51.5t-56 35t-72.5 13t-72.5 -13t-55.5 -35t-35.5 -51.5t-12.5 -62.5t12.5 -63t35.5 -52.5t55.5 -36t72.5 -13.5t72.5 13.5t56 36t36 52.5t12.5 63zM1032 201q0 12 -7.5 23.5t-16.5 21.5l-129 129q-36 -42 -69 -73t-65 -50.5t-65 -29 t-70 -9.5q-72 0 -112.5 33.5t-40.5 99.5q0 37 13 68t33.5 59.5t47 55.5t53.5 55q28 28 53 56t43 60.5t28.5 70t10.5 85.5v113q0 26 -30 26h-220v-77q0 -30 -5 -55.5t-19 -51.5t-40.5 -56.5t-68.5 -70.5q-35 -32 -68 -67.5t-59.5 -77.5t-42.5 -93.5t-16 -115.5 q0 -87 33 -153.5t89.5 -111t131.5 -67.5t160 -23q76 0 139.5 15t114.5 39.5t91.5 55t71.5 62.5q13 14 22 27t9 27z" />
<glyph unicode="&#xc0;" horiz-adv-x="1296" d="M1296 0l-495 1384q-6 21 -31 21h-334q8 -12 13.5 -30t5.5 -46q0 -29 -9.5 -67t-21.5 -70l-416 -1135q-6 -15 -7 -22.5t-1 -14.5q0 -20 33 -20h225l113 330h518l92 -293q6 -20 13.5 -28.5t33.5 -8.5h268zM821 551h-375l195 586zM785 1536l-176 291q-11 17 -21.5 23 t-33.5 6h-309q23 -16 46.5 -36.5t45.5 -43.5l194 -209q19 -20 34 -25.5t38 -5.5h182z" />
<glyph unicode="&#xc1;" horiz-adv-x="1296" d="M1296 0l-495 1384q-6 21 -31 21h-334q8 -12 13.5 -30t5.5 -46q0 -29 -9.5 -67t-21.5 -70l-416 -1135q-6 -15 -7 -22.5t-1 -14.5q0 -20 33 -20h225l113 330h518l92 -293q6 -20 13.5 -28.5t33.5 -8.5h268zM821 551h-375l195 586zM1047 1856h-299q-23 0 -33.5 -6t-21.5 -23 l-187 -291h178q23 0 38 5.5t34 25.5l199 209q21 21 45 42.5t47 37.5z" />
<glyph unicode="&#xc2;" horiz-adv-x="1296" d="M1296 0l-495 1384q-6 21 -31 21h-334q8 -12 13.5 -30t5.5 -46q0 -29 -9.5 -67t-21.5 -70l-416 -1135q-6 -15 -7 -22.5t-1 -14.5q0 -20 33 -20h225l113 330h518l92 -293q6 -20 13.5 -28.5t33.5 -8.5h268zM821 551h-375l195 586zM1030 1536l-230 330q-6 8 -10 14.5t-9 10.5 t-12.5 6t-19.5 2h-227l-240 -324q-3 -5 -5.5 -9.5t-2.5 -10.5q0 -19 21 -19h172l180 207l151 -172q19 -22 36 -28.5t34 -6.5h162z" />
<glyph unicode="&#xc3;" horiz-adv-x="1296" d="M1296 0l-495 1384q-6 21 -31 21h-334q8 -12 13.5 -30t5.5 -46q0 -29 -9.5 -67t-21.5 -70l-416 -1135q-6 -15 -7 -22.5t-1 -14.5q0 -20 33 -20h225l113 330h518l92 -293q6 -20 13.5 -28.5t33.5 -8.5h268zM821 551h-375l195 586zM1018 1788l-125 64q-16 -35 -29.5 -54.5 t-26 -29t-25.5 -11.5t-28 -2q-21 0 -44.5 11.5t-57.5 31.5q-21 12 -40.5 23.5t-39 20.5t-41.5 14.5t-49 5.5q-32 0 -65 -15t-64.5 -43.5t-60 -69.5t-50.5 -93l125 -64q18 35 32.5 54t28 27.5t26 9.5t26.5 1t28 -5.5t28.5 -13.5t29.5 -17.5t31 -18.5q29 -17 66 -33t89 -16 q63 0 125.5 54.5t110.5 168.5z" />
<glyph unicode="&#xc4;" horiz-adv-x="1296" d="M1296 0l-495 1384q-6 21 -31 21h-334q8 -12 13.5 -30t5.5 -46q0 -29 -9.5 -67t-21.5 -70l-416 -1135q-6 -15 -7 -22.5t-1 -14.5q0 -20 33 -20h225l113 330h518l92 -293q6 -20 13.5 -28.5t33.5 -8.5h268zM821 551h-375l195 586zM1014 1663q0 26 -8 50t-25.5 42.5 t-43.5 29.5t-62 11t-63 -11t-44.5 -29.5t-26 -42.5t-8.5 -50q0 -24 8.5 -47.5t26 -41.5t44.5 -29t63 -11t62 11t43.5 29t25.5 41.5t8 47.5zM561 1663q0 26 -8.5 50t-26 42.5t-44 29.5t-62.5 11t-62.5 -11t-44 -29.5t-26 -42.5t-8.5 -50q0 -24 8.5 -47.5t26 -41.5t44 -29 t62.5 -11t62.5 11t44 29t26 41.5t8.5 47.5z" />
<glyph unicode="&#xc5;" horiz-adv-x="1296" d="M1296 0l-473 1321q37 35 58.5 84t21.5 104q0 54 -20 100.5t-54.5 81t-82.5 54.5t-103 20t-103 -20t-83 -54.5t-55.5 -81t-20.5 -100.5q0 -58 24.5 -109.5t67.5 -86.5q-14 -32 -27 -65t-22 -56l-416 -1135q-6 -15 -7 -22.5t-1 -14.5q0 -20 33 -20h225l113 330h518l92 -293 q6 -20 13.5 -28.5t33.5 -8.5h268zM754 1509q0 -23 -8.5 -43.5t-23 -36.5t-35 -25t-44.5 -9t-44.5 9t-35.5 25t-24 36.5t-9 43.5t9 44t24 36.5t35.5 25t44.5 9.5t44.5 -9.5t35 -25t23 -36.5t8.5 -44zM821 551h-375l195 586z" />
<glyph unicode="&#xc6;" horiz-adv-x="1921" d="M1843 0v270q-20 -12 -52.5 -21t-80.5 -9h-506v372h418q48 0 80.5 -9t52.5 -21v270h-551v313h484q48 0 80.5 -9t52.5 -21l-33 233q-3 20 -11.5 28.5t-31.5 8.5h-1008q11 -16 17 -33.5t6 -42.5q0 -10 -2 -21t-8 -26.5t-16.5 -36.5t-28.5 -49l-695 -1139q-6 -11 -8 -17.5 t-2 -14.5q0 -25 33 -25h252l188 332h449v-305q0 -27 30 -27h891zM922 551h-328l328 584v-584z" />
<glyph unicode="&#xc7;" horiz-adv-x="1282" d="M1247 61l-80 226q-60 -26 -148 -49t-200 -23q-80 0 -154 28.5t-130.5 88t-90.5 151t-34 217.5q0 132 31.5 224t86.5 150.5t129.5 85t159.5 26.5q52 0 101.5 -8.5t93.5 -22.5t82 -31.5t67 -36.5l-22 232q-2 15 -5.5 25t-10 17t-16.5 12t-24 11q-12 6 -39 14.5t-67 16.5 t-92 13.5t-113 5.5q-154 0 -276.5 -56t-208 -154.5t-131 -231.5t-45.5 -287q0 -170 46 -306t135 -231t219.5 -146t299.5 -51q67 0 134 9.5t125 23.5t104 29.5t73 27.5zM922 -96h-279q-23 0 -33.5 -6t-21.5 -23l-160 -262h193q23 0 38.5 4.5t32.5 26.5l150 180q5 6 15.5 17 t22.5 23t23.5 23t18.5 17z" />
<glyph unicode="&#xc8;" horiz-adv-x="1167" d="M1090 0v270q-20 -12 -53 -21t-81 -9h-505v372h417q48 0 80.5 -9t52.5 -21v270h-550v313h483q48 0 80.5 -9t52.5 -21l-33 233q-3 20 -11.5 28.5t-31.5 8.5h-854q13 -20 22 -52.5t9 -80.5v-1245q0 -27 31 -27h891zM785 1536l-176 291q-11 17 -21.5 23t-33.5 6h-309 q23 -16 46.5 -36.5t45.5 -43.5l194 -209q19 -20 34 -25.5t38 -5.5h182z" />
<glyph unicode="&#xc9;" horiz-adv-x="1167" d="M1090 0v270q-20 -12 -53 -21t-81 -9h-505v372h417q48 0 80.5 -9t52.5 -21v270h-550v313h483q48 0 80.5 -9t52.5 -21l-33 233q-3 20 -11.5 28.5t-31.5 8.5h-854q13 -20 22 -52.5t9 -80.5v-1245q0 -27 31 -27h891zM973 1856h-299q-23 0 -33.5 -6t-21.5 -23l-187 -291h178 q23 0 38 5.5t34 25.5l199 209q21 21 45 42.5t47 37.5z" />
<glyph unicode="&#xca;" horiz-adv-x="1167" d="M1090 0v270q-20 -12 -53 -21t-81 -9h-505v372h417q48 0 80.5 -9t52.5 -21v270h-550v313h483q48 0 80.5 -9t52.5 -21l-33 233q-3 20 -11.5 28.5t-31.5 8.5h-854q13 -20 22 -52.5t9 -80.5v-1245q0 -27 31 -27h891zM989 1536l-230 330q-6 8 -10 14.5t-9 10.5t-12.5 6 t-19.5 2h-227l-240 -324q-3 -5 -5.5 -9.5t-2.5 -10.5q0 -19 21 -19h172l180 207l151 -172q19 -22 36 -28.5t34 -6.5h162z" />
<glyph unicode="&#xcb;" horiz-adv-x="1167" d="M1090 0v270q-20 -12 -53 -21t-81 -9h-505v372h417q48 0 80.5 -9t52.5 -21v270h-550v313h483q48 0 80.5 -9t52.5 -21l-33 233q-3 20 -11.5 28.5t-31.5 8.5h-854q13 -20 22 -52.5t9 -80.5v-1245q0 -27 31 -27h891zM973 1663q0 26 -8 50t-25.5 42.5t-43.5 29.5t-62 11 t-63 -11t-44.5 -29.5t-26 -42.5t-8.5 -50q0 -24 8.5 -47.5t26 -41.5t44.5 -29t63 -11t62 11t43.5 29t25.5 41.5t8 47.5zM520 1663q0 26 -8.5 50t-26 42.5t-44 29.5t-62.5 11t-62.5 -11t-44 -29.5t-26 -42.5t-8.5 -50q0 -24 8.5 -47.5t26 -41.5t44 -29t62.5 -11t62.5 11 t44 29t26 41.5t8.5 47.5z" />
<glyph unicode="&#xcc;" horiz-adv-x="618" d="M481 1405h-344q13 -20 22 -52.5t9 -80.5v-1245q0 -27 31 -27h252v1272q0 48 9 80.5t21 52.5zM457 1536l-176 291q-11 17 -21.5 23t-33.5 6h-309q23 -16 46.5 -36.5t45.5 -43.5l194 -209q19 -20 34 -25.5t38 -5.5h182z" />
<glyph unicode="&#xcd;" horiz-adv-x="618" d="M481 1405h-344q13 -20 22 -52.5t9 -80.5v-1245q0 -27 31 -27h252v1272q0 48 9 80.5t21 52.5zM687 1856h-299q-23 0 -33.5 -6t-21.5 -23l-187 -291h178q23 0 38 5.5t34 25.5l199 209q21 21 45 42.5t47 37.5z" />
<glyph unicode="&#xce;" horiz-adv-x="618" d="M481 1405h-344q13 -20 22 -52.5t9 -80.5v-1245q0 -27 31 -27h252v1272q0 48 9 80.5t21 52.5zM704 1536l-230 330q-6 8 -10 14.5t-9 10.5t-12.5 6t-19.5 2h-227l-240 -324q-3 -5 -5.5 -9.5t-2.5 -10.5q0 -19 21 -19h172l180 207l151 -172q19 -22 36 -28.5t34 -6.5h162z " />
<glyph unicode="&#xcf;" horiz-adv-x="618" d="M481 1405h-344q13 -20 22 -52.5t9 -80.5v-1245q0 -27 31 -27h252v1272q0 48 9 80.5t21 52.5zM663 1663q0 26 -8 50t-25.5 42.5t-43.5 29.5t-62 11t-63 -11t-44.5 -29.5t-26 -42.5t-8.5 -50q0 -24 8.5 -47.5t26 -41.5t44.5 -29t63 -11t62 11t43.5 29t25.5 41.5t8 47.5z M210 1663q0 26 -8.5 50t-26 42.5t-44 29.5t-62.5 11t-62.5 -11t-44 -29.5t-26 -42.5t-8.5 -50q0 -24 8.5 -47.5t26 -41.5t44 -29t62.5 -11t62.5 11t44 29t26 41.5t8.5 47.5z" />
<glyph unicode="&#xd0;" horiz-adv-x="1477" d="M1366 702q0 149 -47 277.5t-134 223t-211.5 148.5t-279.5 54h-557q13 -20 22 -52.5t9 -80.5v-461h-152v-197h152v-587q0 -27 31 -27h495q155 0 279.5 54t211.5 148.5t134 222.5t47 277zM1065 702q0 -114 -30 -200t-81 -144.5t-119 -88t-143 -29.5h-241v374h229v197h-229 v354h241q75 0 143 -29.5t119 -88t81 -145t30 -200.5z" />
<glyph unicode="&#xd1;" horiz-adv-x="1448" d="M1311 1405h-267q-30 0 -30 -27v-846l-512 836q-11 17 -24.5 27t-41.5 10h-299q13 -20 22 -52.5t9 -80.5v-1245q0 -27 31 -27h235v1030l619 -1016q15 -24 51 -24h176v1282q0 48 9 80.5t22 52.5zM1120 1788l-125 64q-16 -35 -29.5 -54.5t-26 -29t-25.5 -11.5t-28 -2 q-21 0 -44.5 11.5t-57.5 31.5q-21 12 -40.5 23.5t-39 20.5t-41.5 14.5t-49 5.5q-32 0 -65 -15t-64.5 -43.5t-60 -69.5t-50.5 -93l125 -64q18 35 32.5 54t28 27.5t26 9.5t26.5 1t28 -5.5t28.5 -13.5t29.5 -17.5t31 -18.5q29 -17 66 -33t89 -16q63 0 125.5 54.5t110.5 168.5z " />
<glyph unicode="&#xd2;" horiz-adv-x="1577" d="M1466 702q0 162 -45 297.5t-131 233t-212.5 151.5t-289.5 54t-289 -54t-212.5 -151.5t-131 -233t-44.5 -297.5t44.5 -297t131 -232.5t212.5 -151.5t289 -54t289.5 54t212.5 151.5t131 232.5t45 297zM1165 702q0 -126 -28 -220.5t-78 -156.5t-119.5 -93t-151.5 -31 t-151 31t-119 93t-78 156.5t-28 220.5q0 127 28 221t78 156t119 92.5t151 30.5t151.5 -30.5t119.5 -92.5t78 -156t28 -221zM968 1536l-176 291q-11 17 -21.5 23t-33.5 6h-309q23 -16 46.5 -36.5t45.5 -43.5l194 -209q19 -20 34 -25.5t38 -5.5h182z" />
<glyph unicode="&#xd3;" horiz-adv-x="1577" d="M1466 702q0 162 -45 297.5t-131 233t-212.5 151.5t-289.5 54t-289 -54t-212.5 -151.5t-131 -233t-44.5 -297.5t44.5 -297t131 -232.5t212.5 -151.5t289 -54t289.5 54t212.5 151.5t131 232.5t45 297zM1165 702q0 -126 -28 -220.5t-78 -156.5t-119.5 -93t-151.5 -31 t-151 31t-119 93t-78 156.5t-28 220.5q0 127 28 221t78 156t119 92.5t151 30.5t151.5 -30.5t119.5 -92.5t78 -156t28 -221zM1157 1856h-299q-23 0 -33.5 -6t-21.5 -23l-187 -291h178q23 0 38 5.5t34 25.5l199 209q21 21 45 42.5t47 37.5z" />
<glyph unicode="&#xd4;" horiz-adv-x="1577" d="M1466 702q0 162 -45 297.5t-131 233t-212.5 151.5t-289.5 54t-289 -54t-212.5 -151.5t-131 -233t-44.5 -297.5t44.5 -297t131 -232.5t212.5 -151.5t289 -54t289.5 54t212.5 151.5t131 232.5t45 297zM1165 702q0 -126 -28 -220.5t-78 -156.5t-119.5 -93t-151.5 -31 t-151 31t-119 93t-78 156.5t-28 220.5q0 127 28 221t78 156t119 92.5t151 30.5t151.5 -30.5t119.5 -92.5t78 -156t28 -221zM1174 1536l-230 330q-6 8 -10 14.5t-9 10.5t-12.5 6t-19.5 2h-227l-240 -324q-3 -5 -5.5 -9.5t-2.5 -10.5q0 -19 21 -19h172l180 207l151 -172 q19 -22 36 -28.5t34 -6.5h162z" />
<glyph unicode="&#xd5;" horiz-adv-x="1577" d="M1466 702q0 162 -45 297.5t-131 233t-212.5 151.5t-289.5 54t-289 -54t-212.5 -151.5t-131 -233t-44.5 -297.5t44.5 -297t131 -232.5t212.5 -151.5t289 -54t289.5 54t212.5 151.5t131 232.5t45 297zM1165 702q0 -126 -28 -220.5t-78 -156.5t-119.5 -93t-151.5 -31 t-151 31t-119 93t-78 156.5t-28 220.5q0 127 28 221t78 156t119 92.5t151 30.5t151.5 -30.5t119.5 -92.5t78 -156t28 -221zM1161 1788l-125 64q-16 -35 -29.5 -54.5t-26 -29t-25.5 -11.5t-28 -2q-21 0 -44.5 11.5t-57.5 31.5q-21 12 -40.5 23.5t-39 20.5t-41.5 14.5t-49 5.5 q-32 0 -65 -15t-64.5 -43.5t-60 -69.5t-50.5 -93l125 -64q18 35 32.5 54t28 27.5t26 9.5t26.5 1t28 -5.5t28.5 -13.5t29.5 -17.5t31 -18.5q29 -17 66 -33t89 -16q63 0 125.5 54.5t110.5 168.5z" />
<glyph unicode="&#xd6;" horiz-adv-x="1577" d="M1466 702q0 162 -45 297.5t-131 233t-212.5 151.5t-289.5 54t-289 -54t-212.5 -151.5t-131 -233t-44.5 -297.5t44.5 -297t131 -232.5t212.5 -151.5t289 -54t289.5 54t212.5 151.5t131 232.5t45 297zM1165 702q0 -126 -28 -220.5t-78 -156.5t-119.5 -93t-151.5 -31 t-151 31t-119 93t-78 156.5t-28 220.5q0 127 28 221t78 156t119 92.5t151 30.5t151.5 -30.5t119.5 -92.5t78 -156t28 -221zM1178 1663q0 26 -8 50t-25.5 42.5t-43.5 29.5t-62 11t-63 -11t-44.5 -29.5t-26 -42.5t-8.5 -50q0 -24 8.5 -47.5t26 -41.5t44.5 -29t63 -11t62 11 t43.5 29t25.5 41.5t8 47.5zM725 1663q0 26 -8.5 50t-26 42.5t-44 29.5t-62.5 11t-62.5 -11t-44 -29.5t-26 -42.5t-8.5 -50q0 -24 8.5 -47.5t26 -41.5t44 -29t62.5 -11t62.5 11t44 29t26 41.5t8.5 47.5z" />
<glyph unicode="&#xd7;" d="M993 399l-282 287l282 285l-145 143q-12 12 -23 12q-10 0 -18 -8l-260 -264l-262 264q-8 8 -19 8q-10 0 -22 -12l-146 -143l283 -285l-283 -287l146 -143q12 -12 22 -12q11 0 19 8l262 264l260 -264q8 -8 18 -8q11 0 23 12z" />
<glyph unicode="&#xd8;" horiz-adv-x="1577" d="M1466 702q0 171 -47.5 308.5t-138.5 234.5l135 195l-164 106l-127 -184q-71 37 -154.5 56.5t-181.5 19.5q-163 0 -289 -54t-212.5 -151.5t-131 -233t-44.5 -297.5q0 -168 47 -305.5t137 -234.5l-131 -191l158 -112l129 186q72 -38 156 -58t181 -20q163 0 289.5 54 t212.5 151.5t131 232.5t45 297zM977 1151l-510 -741q-26 58 -40.5 130.5t-14.5 161.5q0 127 28 221t78 156t119 92.5t151 30.5q54 0 101.5 -12.5t87.5 -38.5zM1165 702q0 -126 -28 -220.5t-78 -156.5t-119.5 -93t-151.5 -31q-109 0 -192 53l514 743q26 -57 40.5 -130.5 t14.5 -164.5z" />
<glyph unicode="&#xd9;" horiz-adv-x="1427" d="M1300 1405h-282q-31 0 -31 -27v-884q0 -148 -64.5 -218.5t-209.5 -70.5t-209 70.5t-64 218.5v884q0 27 -30 27h-283q12 -20 21.5 -52.5t9.5 -80.5v-811q0 -108 29.5 -198.5t95.5 -156t172 -102.5t258 -37q153 0 259 37t172 102.5t96 156t30 198.5v811q0 48 9 80.5 t21 52.5zM866 1536l-176 291q-11 17 -21.5 23t-33.5 6h-309q23 -16 46.5 -36.5t45.5 -43.5l194 -209q19 -20 34 -25.5t38 -5.5h182z" />
<glyph unicode="&#xda;" horiz-adv-x="1427" d="M1300 1405h-282q-31 0 -31 -27v-884q0 -148 -64.5 -218.5t-209.5 -70.5t-209 70.5t-64 218.5v884q0 27 -30 27h-283q12 -20 21.5 -52.5t9.5 -80.5v-811q0 -108 29.5 -198.5t95.5 -156t172 -102.5t258 -37q153 0 259 37t172 102.5t96 156t30 198.5v811q0 48 9 80.5 t21 52.5zM1075 1856h-299q-23 0 -33.5 -6t-21.5 -23l-187 -291h178q23 0 38 5.5t34 25.5l199 209q21 21 45 42.5t47 37.5z" />
<glyph unicode="&#xdb;" horiz-adv-x="1427" d="M1300 1405h-282q-31 0 -31 -27v-884q0 -148 -64.5 -218.5t-209.5 -70.5t-209 70.5t-64 218.5v884q0 27 -30 27h-283q12 -20 21.5 -52.5t9.5 -80.5v-811q0 -108 29.5 -198.5t95.5 -156t172 -102.5t258 -37q153 0 259 37t172 102.5t96 156t30 198.5v811q0 48 9 80.5 t21 52.5zM1090 1536l-230 330q-6 8 -10 14.5t-9 10.5t-12.5 6t-19.5 2h-227l-240 -324q-3 -5 -5.5 -9.5t-2.5 -10.5q0 -19 21 -19h172l180 207l151 -172q19 -22 36 -28.5t34 -6.5h162z" />
<glyph unicode="&#xdc;" horiz-adv-x="1427" d="M1300 1405h-282q-31 0 -31 -27v-884q0 -148 -64.5 -218.5t-209.5 -70.5t-209 70.5t-64 218.5v884q0 27 -30 27h-283q12 -20 21.5 -52.5t9.5 -80.5v-811q0 -108 29.5 -198.5t95.5 -156t172 -102.5t258 -37q153 0 259 37t172 102.5t96 156t30 198.5v811q0 48 9 80.5 t21 52.5zM1106 1663q0 26 -8 50t-25.5 42.5t-43.5 29.5t-62 11t-63 -11t-44.5 -29.5t-26 -42.5t-8.5 -50q0 -24 8.5 -47.5t26 -41.5t44.5 -29t63 -11t62 11t43.5 29t25.5 41.5t8 47.5zM653 1663q0 26 -8.5 50t-26 42.5t-44 29.5t-62.5 11t-62.5 -11t-44 -29.5t-26 -42.5 t-8.5 -50q0 -24 8.5 -47.5t26 -41.5t44 -29t62.5 -11t62.5 11t44 29t26 41.5t8.5 47.5z" />
<glyph unicode="&#xdd;" horiz-adv-x="1288" d="M1288 1405h-282q-32 0 -44 -6.5t-24 -26.5l-289 -479l-268 479q-5 10 -10.5 16.5t-13 10t-18 5t-26.5 1.5h-313q28 -9 48 -32.5t40 -57.5l404 -676v-612q0 -27 30 -27h252v643l428 672q22 34 41 57.5t45 32.5zM1045 1856h-299q-23 0 -33.5 -6t-21.5 -23l-187 -291h178 q23 0 38 5.5t34 25.5l199 209q21 21 45 42.5t47 37.5z" />
<glyph unicode="&#xde;" horiz-adv-x="1257" d="M1155 778q0 110 -37.5 191.5t-109.5 132.5q-59 42 -142.5 64t-208.5 22h-211v190q0 27 -30 27h-279q13 -20 22 -52.5t9 -80.5v-1245q0 -27 31 -27h245v328q32 -2 74.5 -4t79.5 -2q74 0 133.5 6.5t108 19.5t87.5 32t72 44q75 57 115.5 144.5t40.5 209.5zM864 762 q0 -50 -15.5 -90.5t-46.5 -69.5t-77.5 -45t-108.5 -16q-32 0 -56.5 0.5t-44 1t-36 1.5t-33.5 3v418h189q49 0 91 -8.5t72.5 -31t48 -62t17.5 -101.5z" />
<glyph unicode="&#xdf;" horiz-adv-x="1241" d="M1151 410q0 81 -20 143.5t-57.5 108t-90.5 75t-119 43.5q84 42 131 121t47 182q0 83 -31 146.5t-86.5 106t-131 64t-164.5 21.5q-91 0 -169.5 -26.5t-137 -75t-92 -117.5t-33.5 -153v-95l-144 -92v-84q0 -14 6.5 -18t22.5 -4h115v-729q0 -16 8 -21.5t22 -5.5h238v1030 q0 87 41.5 128.5t114.5 41.5q69 0 109 -41t40 -110q0 -93 -53 -148t-146 -61v-164q0 -31 35 -31q76 0 126 -17t80 -47t42 -70.5t12 -88.5q0 -44 -13.5 -84t-40.5 -70.5t-67.5 -48.5t-93.5 -18q-12 0 -31 1t-28 3l-29 -215q6 -3 20.5 -6t33.5 -5.5t40.5 -4t42.5 -1.5 q102 0 185 31.5t142 88.5t91.5 137.5t32.5 179.5z" />
<glyph unicode="&#xe0;" horiz-adv-x="1100" d="M958 0v637q0 79 -23.5 144.5t-76 112t-135.5 72t-201 25.5q-56 0 -105.5 -7t-88.5 -17t-66 -19.5t-39 -13.5q-25 -11 -41 -24t-16 -31q0 -8 1.5 -16.5t6.5 -20.5l53 -121q19 11 46.5 23t61.5 22.5t73.5 17.5t83.5 7q47 0 84.5 -8.5t63.5 -27t40 -47.5t14 -71v-41 q-59 8 -106.5 11t-81.5 3q-93 0 -169.5 -18t-130.5 -56.5t-84 -98.5t-30 -144q0 -67 21 -123.5t61.5 -98t100 -64.5t137.5 -23q60 0 107 11t82.5 29t59.5 41t37 46v-84q0 -27 31 -27h229zM694 258q-9 -11 -26.5 -24t-42 -24t-55.5 -18.5t-68 -7.5q-71 0 -109.5 32.5 t-38.5 94.5q0 63 46.5 99t134.5 36q45 0 86.5 -5t72.5 -11v-172zM724 1075l-176 291q-11 17 -21.5 23t-33.5 6h-309q23 -16 46.5 -36.5t45.5 -43.5l194 -209q19 -20 34 -25.5t38 -5.5h182z" />
<glyph unicode="&#xe1;" horiz-adv-x="1100" d="M958 0v637q0 79 -23.5 144.5t-76 112t-135.5 72t-201 25.5q-56 0 -105.5 -7t-88.5 -17t-66 -19.5t-39 -13.5q-25 -11 -41 -24t-16 -31q0 -8 1.5 -16.5t6.5 -20.5l53 -121q19 11 46.5 23t61.5 22.5t73.5 17.5t83.5 7q47 0 84.5 -8.5t63.5 -27t40 -47.5t14 -71v-41 q-59 8 -106.5 11t-81.5 3q-93 0 -169.5 -18t-130.5 -56.5t-84 -98.5t-30 -144q0 -67 21 -123.5t61.5 -98t100 -64.5t137.5 -23q60 0 107 11t82.5 29t59.5 41t37 46v-84q0 -27 31 -27h229zM694 258q-9 -11 -26.5 -24t-42 -24t-55.5 -18.5t-68 -7.5q-71 0 -109.5 32.5 t-38.5 94.5q0 63 46.5 99t134.5 36q45 0 86.5 -5t72.5 -11v-172zM952 1395h-299q-23 0 -33.5 -6t-21.5 -23l-187 -291h178q23 0 38 5.5t34 25.5l199 209q21 21 45 42.5t47 37.5z" />
<glyph unicode="&#xe2;" horiz-adv-x="1100" d="M958 0v637q0 79 -23.5 144.5t-76 112t-135.5 72t-201 25.5q-56 0 -105.5 -7t-88.5 -17t-66 -19.5t-39 -13.5q-25 -11 -41 -24t-16 -31q0 -8 1.5 -16.5t6.5 -20.5l53 -121q19 11 46.5 23t61.5 22.5t73.5 17.5t83.5 7q47 0 84.5 -8.5t63.5 -27t40 -47.5t14 -71v-41 q-59 8 -106.5 11t-81.5 3q-93 0 -169.5 -18t-130.5 -56.5t-84 -98.5t-30 -144q0 -67 21 -123.5t61.5 -98t100 -64.5t137.5 -23q60 0 107 11t82.5 29t59.5 41t37 46v-84q0 -27 31 -27h229zM694 258q-9 -11 -26.5 -24t-42 -24t-55.5 -18.5t-68 -7.5q-71 0 -109.5 32.5 t-38.5 94.5q0 63 46.5 99t134.5 36q45 0 86.5 -5t72.5 -11v-172zM930 1075l-230 330q-6 8 -10 14.5t-9 10.5t-12.5 6t-19.5 2h-227l-240 -324q-3 -5 -5.5 -9.5t-2.5 -10.5q0 -19 21 -19h172l180 207l151 -172q19 -22 36 -28.5t34 -6.5h162z" />
<glyph unicode="&#xe3;" horiz-adv-x="1100" d="M958 0v637q0 79 -23.5 144.5t-76 112t-135.5 72t-201 25.5q-56 0 -105.5 -7t-88.5 -17t-66 -19.5t-39 -13.5q-25 -11 -41 -24t-16 -31q0 -8 1.5 -16.5t6.5 -20.5l53 -121q19 11 46.5 23t61.5 22.5t73.5 17.5t83.5 7q47 0 84.5 -8.5t63.5 -27t40 -47.5t14 -71v-41 q-59 8 -106.5 11t-81.5 3q-93 0 -169.5 -18t-130.5 -56.5t-84 -98.5t-30 -144q0 -67 21 -123.5t61.5 -98t100 -64.5t137.5 -23q60 0 107 11t82.5 29t59.5 41t37 46v-84q0 -27 31 -27h229zM694 258q-9 -11 -26.5 -24t-42 -24t-55.5 -18.5t-68 -7.5q-71 0 -109.5 32.5 t-38.5 94.5q0 63 46.5 99t134.5 36q45 0 86.5 -5t72.5 -11v-172zM956 1327l-125 64q-16 -35 -29.5 -54.5t-26 -29t-25.5 -11.5t-28 -2q-21 0 -44.5 11.5t-57.5 31.5q-21 12 -40.5 23.5t-39 20.5t-41.5 14.5t-49 5.5q-32 0 -65 -15t-64.5 -43.5t-60 -69.5t-50.5 -93l125 -64 q18 35 32.5 54t28 27.5t26 9.5t26.5 1t28 -5.5t28.5 -13.5t29.5 -17.5t31 -18.5q29 -17 66 -33t89 -16q63 0 125.5 54.5t110.5 168.5z" />
<glyph unicode="&#xe4;" horiz-adv-x="1100" d="M958 0v637q0 79 -23.5 144.5t-76 112t-135.5 72t-201 25.5q-56 0 -105.5 -7t-88.5 -17t-66 -19.5t-39 -13.5q-25 -11 -41 -24t-16 -31q0 -8 1.5 -16.5t6.5 -20.5l53 -121q19 11 46.5 23t61.5 22.5t73.5 17.5t83.5 7q47 0 84.5 -8.5t63.5 -27t40 -47.5t14 -71v-41 q-59 8 -106.5 11t-81.5 3q-93 0 -169.5 -18t-130.5 -56.5t-84 -98.5t-30 -144q0 -67 21 -123.5t61.5 -98t100 -64.5t137.5 -23q60 0 107 11t82.5 29t59.5 41t37 46v-84q0 -27 31 -27h229zM694 258q-9 -11 -26.5 -24t-42 -24t-55.5 -18.5t-68 -7.5q-71 0 -109.5 32.5 t-38.5 94.5q0 63 46.5 99t134.5 36q45 0 86.5 -5t72.5 -11v-172zM933 1202q0 26 -8 50t-25.5 42.5t-43.5 29.5t-62 11t-63 -11t-44.5 -29.5t-26 -42.5t-8.5 -50q0 -24 8.5 -47.5t26 -41.5t44.5 -29t63 -11t62 11t43.5 29t25.5 41.5t8 47.5zM480 1202q0 26 -8.5 50t-26 42.5 t-44 29.5t-62.5 11t-62.5 -11t-44 -29.5t-26 -42.5t-8.5 -50q0 -24 8.5 -47.5t26 -41.5t44 -29t62.5 -11t62.5 11t44 29t26 41.5t8.5 47.5z" />
<glyph unicode="&#xe5;" horiz-adv-x="1100" d="M836 1335q0 54 -20 100.5t-55 81t-82.5 54.5t-102.5 20t-103 -20t-83 -54.5t-55.5 -81t-20.5 -100.5t20.5 -101t55.5 -82t83 -55t103 -20t102.5 20t82.5 55t55 82t20 101zM687 1335q0 -23 -8.5 -43.5t-23.5 -36.5t-35 -25t-44 -9t-44.5 9t-36 25t-24 36.5t-8.5 43.5 t8.5 44t24 36.5t36 25t44.5 9.5t44 -9.5t35 -25t23.5 -36.5t8.5 -44zM958 0v637q0 79 -23.5 144.5t-76 112t-135.5 72t-201 25.5q-56 0 -105.5 -7t-88.5 -17t-66 -19.5t-39 -13.5q-25 -11 -41 -24t-16 -31q0 -8 1.5 -16.5t6.5 -20.5l53 -121q19 11 46.5 23t61.5 22.5 t73.5 17.5t83.5 7q47 0 84.5 -8.5t63.5 -27t40 -47.5t14 -71v-41q-59 8 -106.5 11t-81.5 3q-93 0 -169.5 -18t-130.5 -56.5t-84 -98.5t-30 -144q0 -67 21 -123.5t61.5 -98t100 -64.5t137.5 -23q60 0 107 11t82.5 29t59.5 41t37 46v-84q0 -27 31 -27h229zM694 258 q-9 -11 -26.5 -24t-42 -24t-55.5 -18.5t-68 -7.5q-71 0 -109.5 32.5t-38.5 94.5q0 63 46.5 99t134.5 36q45 0 86.5 -5t72.5 -11v-172z" />
<glyph unicode="&#xe6;" horiz-adv-x="1659" d="M1577 457v22q0 103 -22 197.5t-74 165.5q-51 68 -131.5 108.5t-192.5 40.5q-99 0 -174 -30t-129 -87q-53 62 -134.5 89.5t-197.5 27.5q-56 0 -105.5 -7t-88.5 -17t-66 -19.5t-39 -13.5q-25 -11 -41 -24t-16 -31q0 -8 1.5 -16.5t6.5 -20.5l53 -121q19 11 46.5 23 t61.5 22.5t73.5 17.5t83.5 7q47 0 84.5 -8.5t63.5 -27t40 -47.5t14 -71v-41q-59 8 -106.5 11t-81.5 3q-93 0 -169.5 -18t-130.5 -56.5t-84 -98.5t-30 -144q0 -57 18.5 -112.5t60.5 -99t110.5 -70.5t169.5 -27q84 0 145.5 15t104 37t69 46.5t41.5 42.5q66 -71 163 -110.5 t224 -39.5q64 0 118.5 7t99 17.5t79 24t59.5 25.5l-71 195q-56 -22 -121.5 -36.5t-140.5 -14.5q-113 0 -181.5 52t-81.5 158h560q29 0 44 11.5t15 42.5zM1307 584h-349q0 111 47 170t132 59q170 0 170 -229zM727 260q-9 -11 -29 -24t-47.5 -24.5t-61.5 -19.5t-71 -8 q-164 0 -164 125q0 63 46.5 100t134.5 37q43 0 83 -4.5t68 -9.5q3 -46 12.5 -89t28.5 -83z" />
<glyph unicode="&#xe7;" horiz-adv-x="997" d="M934 41l-62 217q-47 -20 -103.5 -35.5t-131.5 -15.5q-56 0 -104.5 13.5t-84.5 45t-56.5 82t-20.5 125.5t20 129.5t54.5 90t80.5 52.5t97 17q75 0 139.5 -22t118.5 -56l-19 213q-2 25 -11.5 37.5t-37.5 21.5q-38 14 -91 24.5t-122 10.5q-122 0 -216.5 -36.5t-160 -104.5 t-99.5 -164t-34 -215q0 -140 51 -243t142 -165q62 -43 139.5 -65.5t173.5 -22.5q108 0 192 20.5t146 45.5zM763 -96h-279q-23 0 -33.5 -6t-21.5 -23l-160 -262h193q23 0 38.5 4.5t32.5 26.5l150 180q5 6 15.5 17t22.5 23t23.5 23t18.5 17z" />
<glyph unicode="&#xe8;" horiz-adv-x="1065" d="M983 457v22q0 103 -22 197.5t-74 165.5q-51 67 -133.5 108t-202.5 41q-111 0 -196.5 -37.5t-144.5 -105.5t-89.5 -162.5t-30.5 -208.5q0 -112 35 -204.5t101 -158.5t161.5 -102.5t216.5 -36.5q64 0 118.5 7t99 17.5t79 24t60.5 25.5l-72 195q-56 -22 -121.5 -36.5 t-140.5 -14.5q-113 0 -181.5 52t-80.5 158h559q29 0 44 11.5t15 42.5zM713 584h-348q0 111 46.5 170t131.5 59q170 0 170 -229zM746 1075l-176 291q-11 17 -21.5 23t-33.5 6h-309q23 -16 46.5 -36.5t45.5 -43.5l194 -209q19 -20 34 -25.5t38 -5.5h182z" />
<glyph unicode="&#xe9;" horiz-adv-x="1065" d="M983 457v22q0 103 -22 197.5t-74 165.5q-51 67 -133.5 108t-202.5 41q-111 0 -196.5 -37.5t-144.5 -105.5t-89.5 -162.5t-30.5 -208.5q0 -112 35 -204.5t101 -158.5t161.5 -102.5t216.5 -36.5q64 0 118.5 7t99 17.5t79 24t60.5 25.5l-72 195q-56 -22 -121.5 -36.5 t-140.5 -14.5q-113 0 -181.5 52t-80.5 158h559q29 0 44 11.5t15 42.5zM713 584h-348q0 111 46.5 170t131.5 59q170 0 170 -229zM934 1395h-299q-23 0 -33.5 -6t-21.5 -23l-187 -291h178q23 0 38 5.5t34 25.5l199 209q21 21 45 42.5t47 37.5z" />
<glyph unicode="&#xea;" horiz-adv-x="1065" d="M983 457v22q0 103 -22 197.5t-74 165.5q-51 67 -133.5 108t-202.5 41q-111 0 -196.5 -37.5t-144.5 -105.5t-89.5 -162.5t-30.5 -208.5q0 -112 35 -204.5t101 -158.5t161.5 -102.5t216.5 -36.5q64 0 118.5 7t99 17.5t79 24t60.5 25.5l-72 195q-56 -22 -121.5 -36.5 t-140.5 -14.5q-113 0 -181.5 52t-80.5 158h559q29 0 44 11.5t15 42.5zM713 584h-348q0 111 46.5 170t131.5 59q170 0 170 -229zM928 1075l-230 330q-6 8 -10 14.5t-9 10.5t-12.5 6t-19.5 2h-227l-240 -324q-3 -5 -5.5 -9.5t-2.5 -10.5q0 -19 21 -19h172l180 207l151 -172 q19 -22 36 -28.5t34 -6.5h162z" />
<glyph unicode="&#xeb;" horiz-adv-x="1065" d="M983 457v22q0 103 -22 197.5t-74 165.5q-51 67 -133.5 108t-202.5 41q-111 0 -196.5 -37.5t-144.5 -105.5t-89.5 -162.5t-30.5 -208.5q0 -112 35 -204.5t101 -158.5t161.5 -102.5t216.5 -36.5q64 0 118.5 7t99 17.5t79 24t60.5 25.5l-72 195q-56 -22 -121.5 -36.5 t-140.5 -14.5q-113 0 -181.5 52t-80.5 158h559q29 0 44 11.5t15 42.5zM713 584h-348q0 111 46.5 170t131.5 59q170 0 170 -229zM925 1202q0 26 -8 50t-25.5 42.5t-43.5 29.5t-62 11t-63 -11t-44.5 -29.5t-26 -42.5t-8.5 -50q0 -24 8.5 -47.5t26 -41.5t44.5 -29t63 -11t62 11 t43.5 29t25.5 41.5t8 47.5zM472 1202q0 26 -8.5 50t-26 42.5t-44 29.5t-62.5 11t-62.5 -11t-44 -29.5t-26 -42.5t-8.5 -50q0 -24 8.5 -47.5t26 -41.5t44 -29t62.5 -11t62.5 11t44 29t26 41.5t8.5 47.5z" />
<glyph unicode="&#xec;" horiz-adv-x="543" d="M403 0v940q0 27 -30 27h-269q13 -20 22 -52.5t9 -80.5v-807q0 -27 31 -27h237zM402 1075l-176 291q-11 17 -21.5 23t-33.5 6h-309q23 -16 46.5 -36.5t45.5 -43.5l194 -209q19 -20 34 -25.5t38 -5.5h182z" />
<glyph unicode="&#xed;" horiz-adv-x="543" d="M403 0v940q0 27 -30 27h-269q13 -20 22 -52.5t9 -80.5v-807q0 -27 31 -27h237zM626 1395h-299q-23 0 -33.5 -6t-21.5 -23l-187 -291h178q23 0 38 5.5t34 25.5l199 209q21 21 45 42.5t47 37.5z" />
<glyph unicode="&#xee;" horiz-adv-x="543" d="M403 0v940q0 27 -30 27h-269q13 -20 22 -52.5t9 -80.5v-807q0 -27 31 -27h237zM642 1075l-230 330q-6 8 -10 14.5t-9 10.5t-12.5 6t-19.5 2h-227l-240 -324q-3 -5 -5.5 -9.5t-2.5 -10.5q0 -19 21 -19h172l180 207l151 -172q19 -22 36 -28.5t34 -6.5h162z" />
<glyph unicode="&#xef;" horiz-adv-x="543" d="M403 0v940q0 27 -30 27h-269q13 -20 22 -52.5t9 -80.5v-807q0 -27 31 -27h237zM626 1202q0 26 -8 50t-25.5 42.5t-43.5 29.5t-62 11t-63 -11t-44.5 -29.5t-26 -42.5t-8.5 -50q0 -24 8.5 -47.5t26 -41.5t44.5 -29t63 -11t62 11t43.5 29t25.5 41.5t8 47.5zM173 1202 q0 26 -8.5 50t-26 42.5t-44 29.5t-62.5 11t-62.5 -11t-44 -29.5t-26 -42.5t-8.5 -50q0 -24 8.5 -47.5t26 -41.5t44 -29t62.5 -11t62.5 11t44 29t26 41.5t8.5 47.5z" />
<glyph unicode="&#xf0;" horiz-adv-x="1155" d="M1065 524q0 204 -80 382t-235 315l110 90l-94 112l-137 -112q-51 32 -108.5 60.5t-119.5 51.5l-88 -168q41 -18 76.5 -39.5t67.5 -44.5l-135 -110l96 -113l153 125q60 -59 98 -119.5t54 -115.5q-26 18 -76.5 34.5t-128.5 16.5q-83 0 -160 -31t-136.5 -89.5t-95.5 -143.5 t-36 -193t36.5 -193t100 -143.5t149.5 -89.5t185 -31q111 0 204 32t159.5 99.5t103.5 171t37 246.5zM786 432q0 -115 -55.5 -176t-152.5 -61t-153 61t-56 176q0 116 56 176t153 60t152.5 -60t55.5 -176z" />
<glyph unicode="&#xf1;" horiz-adv-x="1178" d="M1036 0v629q0 172 -87.5 267t-264.5 95q-51 0 -96.5 -12t-84 -32.5t-69 -48.5t-51.5 -60q-3 48 -7 72t-9 36q-5 11 -13.5 16t-23.5 5h-230q17 -36 23 -76q8 -47 13 -94.5t5 -94.5v-675q0 -27 31 -27h238v637q15 24 38 46.5t49.5 39.5t56 27t58.5 10q85 0 118.5 -43.5 t33.5 -138.5v-551q0 -27 31 -27h241zM956 1327l-125 64q-16 -35 -29.5 -54.5t-26 -29t-25.5 -11.5t-28 -2q-21 0 -44.5 11.5t-57.5 31.5q-21 12 -40.5 23.5t-39 20.5t-41.5 14.5t-49 5.5q-32 0 -65 -15t-64.5 -43.5t-60 -69.5t-50.5 -93l125 -64q18 35 32.5 54t28 27.5 t26 9.5t26.5 1t28 -5.5t28.5 -13.5t29.5 -17.5t31 -18.5q29 -17 66 -33t89 -16q63 0 125.5 54.5t110.5 168.5z" />
<glyph unicode="&#xf2;" horiz-adv-x="1155" d="M1065 483q0 121 -36.5 215.5t-102 159.5t-154.5 99t-194 34t-194.5 -34t-155 -99t-102 -159.5t-36.5 -215.5q0 -120 36.5 -214.5t102 -160t155 -99.5t194.5 -34t194 34t154.5 99.5t102 160t36.5 214.5zM786 483q0 -139 -55.5 -213.5t-152.5 -74.5t-153 74.5t-56 213.5 q0 140 56 213.5t153 73.5t152.5 -73.5t55.5 -213.5zM765 1075l-176 291q-11 17 -21.5 23t-33.5 6h-309q23 -16 46.5 -36.5t45.5 -43.5l194 -209q19 -20 34 -25.5t38 -5.5h182z" />
<glyph unicode="&#xf3;" horiz-adv-x="1155" d="M1065 483q0 121 -36.5 215.5t-102 159.5t-154.5 99t-194 34t-194.5 -34t-155 -99t-102 -159.5t-36.5 -215.5q0 -120 36.5 -214.5t102 -160t155 -99.5t194.5 -34t194 34t154.5 99.5t102 160t36.5 214.5zM786 483q0 -139 -55.5 -213.5t-152.5 -74.5t-153 74.5t-56 213.5 q0 140 56 213.5t153 73.5t152.5 -73.5t55.5 -213.5zM973 1395h-299q-23 0 -33.5 -6t-21.5 -23l-187 -291h178q23 0 38 5.5t34 25.5l199 209q21 21 45 42.5t47 37.5z" />
<glyph unicode="&#xf4;" horiz-adv-x="1155" d="M1065 483q0 121 -36.5 215.5t-102 159.5t-154.5 99t-194 34t-194.5 -34t-155 -99t-102 -159.5t-36.5 -215.5q0 -120 36.5 -214.5t102 -160t155 -99.5t194.5 -34t194 34t154.5 99.5t102 160t36.5 214.5zM786 483q0 -139 -55.5 -213.5t-152.5 -74.5t-153 74.5t-56 213.5 q0 140 56 213.5t153 73.5t152.5 -73.5t55.5 -213.5zM965 1075l-230 330q-6 8 -10 14.5t-9 10.5t-12.5 6t-19.5 2h-227l-240 -324q-3 -5 -5.5 -9.5t-2.5 -10.5q0 -19 21 -19h172l180 207l151 -172q19 -22 36 -28.5t34 -6.5h162z" />
<glyph unicode="&#xf5;" horiz-adv-x="1155" d="M1065 483q0 121 -36.5 215.5t-102 159.5t-154.5 99t-194 34t-194.5 -34t-155 -99t-102 -159.5t-36.5 -215.5q0 -120 36.5 -214.5t102 -160t155 -99.5t194.5 -34t194 34t154.5 99.5t102 160t36.5 214.5zM786 483q0 -139 -55.5 -213.5t-152.5 -74.5t-153 74.5t-56 213.5 q0 140 56 213.5t153 73.5t152.5 -73.5t55.5 -213.5zM946 1327l-125 64q-16 -35 -29.5 -54.5t-26 -29t-25.5 -11.5t-28 -2q-21 0 -44.5 11.5t-57.5 31.5q-21 12 -40.5 23.5t-39 20.5t-41.5 14.5t-49 5.5q-32 0 -65 -15t-64.5 -43.5t-60 -69.5t-50.5 -93l125 -64 q18 35 32.5 54t28 27.5t26 9.5t26.5 1t28 -5.5t28.5 -13.5t29.5 -17.5t31 -18.5q29 -17 66 -33t89 -16q63 0 125.5 54.5t110.5 168.5z" />
<glyph unicode="&#xf6;" horiz-adv-x="1155" d="M1065 483q0 121 -36.5 215.5t-102 159.5t-154.5 99t-194 34t-194.5 -34t-155 -99t-102 -159.5t-36.5 -215.5q0 -120 36.5 -214.5t102 -160t155 -99.5t194.5 -34t194 34t154.5 99.5t102 160t36.5 214.5zM786 483q0 -139 -55.5 -213.5t-152.5 -74.5t-153 74.5t-56 213.5 q0 140 56 213.5t153 73.5t152.5 -73.5t55.5 -213.5zM933 1202q0 26 -8 50t-25.5 42.5t-43.5 29.5t-62 11t-63 -11t-44.5 -29.5t-26 -42.5t-8.5 -50q0 -24 8.5 -47.5t26 -41.5t44.5 -29t63 -11t62 11t43.5 29t25.5 41.5t8 47.5zM480 1202q0 26 -8.5 50t-26 42.5t-44 29.5 t-62.5 11t-62.5 -11t-44 -29.5t-26 -42.5t-8.5 -50q0 -24 8.5 -47.5t26 -41.5t44 -29t62.5 -11t62.5 11t44 29t26 41.5t8.5 47.5z" />
<glyph unicode="&#xf7;" d="M721 1110q0 31 -12 60t-34 50.5t-53 34.5t-69 13t-69 -13t-53 -34.5t-34 -50.5t-12 -60q0 -32 12 -60t34 -49t53 -33t69 -12t69 12t53 33t34 49t12 60zM1067 575v203q0 14 -6.5 18.5t-22.5 4.5h-1009v-201q0 -25 30 -25h1008zM721 262q0 31 -12 60t-34 50.5t-53 34.5 t-69 13t-69 -13t-53 -34.5t-34 -50.5t-12 -60q0 -32 12 -59.5t34 -48.5t53 -33t69 -12t69 12t53 33t34 48.5t12 59.5z" />
<glyph unicode="&#xf8;" horiz-adv-x="1155" d="M1065 483q0 125 -39 221t-108 162l83 125l-135 86l-82 -125q-46 19 -97.5 29t-108.5 10q-105 0 -194.5 -34t-155 -99t-102 -159.5t-36.5 -215.5t36.5 -214.5t102.5 -159.5l-96 -146l135 -80l90 137q99 -45 220 -45q105 0 194 34t154.5 99.5t102 160t36.5 214.5zM668 758 l-291 -428q-9 31 -15 72t-6 81q0 143 59 218t163 75q21 0 46 -5t44 -13zM797 483q0 -142 -58.5 -219.5t-160.5 -77.5q-25 0 -54 11.5t-45 25.5l291 428q4 -13 9 -32.5t9 -42t6.5 -47t2.5 -46.5z" />
<glyph unicode="&#xf9;" horiz-adv-x="1178" d="M1036 0v940q0 27 -30 27h-269q13 -20 22 -52.5t9 -80.5v-521q-32 -45 -83.5 -73.5t-117.5 -28.5q-40 0 -69 9t-47.5 30t-27.5 55t-9 84v551q0 27 -31 27h-272q12 -20 21 -52.5t9 -80.5v-492q0 -192 101 -281q89 -77 241 -77q57 0 103.5 11.5t82.5 30t62 42t41 47.5l8 -88 q3 -27 31 -27h225zM744 1075l-176 291q-11 17 -21.5 23t-33.5 6h-309q23 -16 46.5 -36.5t45.5 -43.5l194 -209q19 -20 34 -25.5t38 -5.5h182z" />
<glyph unicode="&#xfa;" horiz-adv-x="1178" d="M1036 0v940q0 27 -30 27h-269q13 -20 22 -52.5t9 -80.5v-521q-32 -45 -83.5 -73.5t-117.5 -28.5q-40 0 -69 9t-47.5 30t-27.5 55t-9 84v551q0 27 -31 27h-272q12 -20 21 -52.5t9 -80.5v-492q0 -192 101 -281q89 -77 241 -77q57 0 103.5 11.5t82.5 30t62 42t41 47.5l8 -88 q3 -27 31 -27h225zM983 1395h-299q-23 0 -33.5 -6t-21.5 -23l-187 -291h178q23 0 38 5.5t34 25.5l199 209q21 21 45 42.5t47 37.5z" />
<glyph unicode="&#xfb;" horiz-adv-x="1178" d="M1036 0v940q0 27 -30 27h-269q13 -20 22 -52.5t9 -80.5v-521q-32 -45 -83.5 -73.5t-117.5 -28.5q-40 0 -69 9t-47.5 30t-27.5 55t-9 84v551q0 27 -31 27h-272q12 -20 21 -52.5t9 -80.5v-492q0 -192 101 -281q89 -77 241 -77q57 0 103.5 11.5t82.5 30t62 42t41 47.5l8 -88 q3 -27 31 -27h225zM948 1075l-230 330q-6 8 -10 14.5t-9 10.5t-12.5 6t-19.5 2h-227l-240 -324q-3 -5 -5.5 -9.5t-2.5 -10.5q0 -19 21 -19h172l180 207l151 -172q19 -22 36 -28.5t34 -6.5h162z" />
<glyph unicode="&#xfc;" horiz-adv-x="1178" d="M1036 0v940q0 27 -30 27h-269q13 -20 22 -52.5t9 -80.5v-521q-32 -45 -83.5 -73.5t-117.5 -28.5q-40 0 -69 9t-47.5 30t-27.5 55t-9 84v551q0 27 -31 27h-272q12 -20 21 -52.5t9 -80.5v-492q0 -192 101 -281q89 -77 241 -77q57 0 103.5 11.5t82.5 30t62 42t41 47.5l8 -88 q3 -27 31 -27h225zM964 1202q0 26 -8 50t-25.5 42.5t-43.5 29.5t-62 11t-63 -11t-44.5 -29.5t-26 -42.5t-8.5 -50q0 -24 8.5 -47.5t26 -41.5t44.5 -29t63 -11t62 11t43.5 29t25.5 41.5t8 47.5zM511 1202q0 26 -8.5 50t-26 42.5t-44 29.5t-62.5 11t-62.5 -11t-44 -29.5 t-26 -42.5t-8.5 -50q0 -24 8.5 -47.5t26 -41.5t44 -29t62.5 -11t62.5 11t44 29t26 41.5t8.5 47.5z" />
<glyph unicode="&#xfd;" horiz-adv-x="1075" d="M1075 967h-256q-26 0 -34 -9t-15 -28l-209 -582l-231 582q-8 19 -15 28t-32 9h-283q17 -13 31.5 -41t29.5 -62l365 -803l-37 -90q-29 -72 -73 -105.5t-97 -33.5q-38 0 -68.5 8.5t-62.5 22.5l-65 -203q18 -9 40 -17.5t49.5 -15t63 -10.5t80.5 -4q141 0 234.5 80.5 t156.5 238.5l369 930q15 37 28 64.5t31 40.5zM973 1395h-299q-23 0 -33.5 -6t-21.5 -23l-187 -291h178q23 0 38 5.5t34 25.5l199 209q21 21 45 42.5t47 37.5z" />
<glyph unicode="&#xfe;" horiz-adv-x="1176" d="M1085 494q0 126 -32 219.5t-88 155t-132 92t-165 30.5q-85 0 -150 -25t-108 -63v494q0 26 -31 26q-8 0 -24 -1t-36 -3l-208 -14q12 -20 21 -52.5t9 -80.5v-1622q0 -27 31 -27h238v422q52 -41 113 -55.5t118 -14.5q92 0 173 35t141 101.5t95 163t35 219.5zM807 487 q0 -71 -15.5 -125.5t-43 -91.5t-66.5 -56t-86 -19q-57 0 -103 20t-83 55v422q35 32 81 55t103 23q42 0 80.5 -12.5t68 -45t47 -87t17.5 -138.5z" />
<glyph unicode="&#xff;" horiz-adv-x="1075" d="M1075 967h-256q-26 0 -34 -9t-15 -28l-209 -582l-231 582q-8 19 -15 28t-32 9h-283q17 -13 31.5 -41t29.5 -62l365 -803l-37 -90q-29 -72 -73 -105.5t-97 -33.5q-38 0 -68.5 8.5t-62.5 22.5l-65 -203q18 -9 40 -17.5t49.5 -15t63 -10.5t80.5 -4q141 0 234.5 80.5 t156.5 238.5l369 930q15 37 28 64.5t31 40.5zM913 1202q0 26 -8 50t-25.5 42.5t-43.5 29.5t-62 11t-63 -11t-44.5 -29.5t-26 -42.5t-8.5 -50q0 -24 8.5 -47.5t26 -41.5t44.5 -29t63 -11t62 11t43.5 29t25.5 41.5t8 47.5zM460 1202q0 26 -8.5 50t-26 42.5t-44 29.5t-62.5 11 t-62.5 -11t-44 -29.5t-26 -42.5t-8.5 -50q0 -24 8.5 -47.5t26 -41.5t44 -29t62.5 -11t62.5 11t44 29t26 41.5t8.5 47.5z" />
<glyph unicode="&#x152;" horiz-adv-x="2165" d="M2087 0v270q-20 -12 -52.5 -21t-80.5 -9h-506v372h418q48 0 80.5 -9t52.5 -21v270h-551v313h483q48 0 80.5 -9t52.5 -21l-32 233q-3 20 -11.5 28.5t-31.5 8.5h-818v-133q-16 30 -53 59.5t-90 53.5t-119 38.5t-141 14.5q-147 0 -268 -54t-207.5 -151.5t-134 -233 t-47.5 -297.5t43 -297t124.5 -232.5t200 -151.5t269.5 -54q98 0 171.5 22.5t124.5 52.5t80.5 58.5t40.5 40.5v-114q0 -27 31 -27h891zM1176 702q0 -118 -28.5 -211t-79.5 -157.5t-121 -98.5t-152 -34q-83 0 -153 31t-121 93t-80 156.5t-29 220.5q0 127 29 221t80 156 t121 92.5t153 30.5q82 0 152 -33t121 -97t79.5 -157t28.5 -213z" />
<glyph unicode="&#x153;" horiz-adv-x="1761" d="M1679 457v22q0 103 -21.5 197.5t-74.5 165.5q-51 68 -131.5 108.5t-189.5 40.5q-116 0 -199.5 -36t-140.5 -111q-66 77 -153.5 112t-190.5 35q-105 0 -194.5 -34t-155 -99t-102 -159.5t-36.5 -215.5q0 -120 36.5 -214.5t102 -160t155 -99.5t194.5 -34q106 0 195 37 t155 117q66 -78 159 -116t213 -38q65 0 119.5 7t98.5 17.5t78.5 24t60.5 25.5l-72 195q-56 -22 -121.5 -36.5t-140.5 -14.5q-112 0 -181 52t-81 158h559q29 0 44 11.5t15 42.5zM1409 584h-348q0 111 46.5 170t131.5 59q170 0 170 -229zM786 483q0 -139 -55.5 -213.5 t-152.5 -74.5t-153 74.5t-56 213.5q0 140 56 213.5t153 73.5t152.5 -73.5t55.5 -213.5z" />
<glyph unicode="&#x178;" horiz-adv-x="1288" d="M1288 1405h-282q-32 0 -44 -6.5t-24 -26.5l-289 -479l-268 479q-5 10 -10.5 16.5t-13 10t-18 5t-26.5 1.5h-313q28 -9 48 -32.5t40 -57.5l404 -676v-612q0 -27 30 -27h252v643l428 672q22 34 41 57.5t45 32.5zM993 1663q0 26 -8 50t-25.5 42.5t-43.5 29.5t-62 11t-63 -11 t-44.5 -29.5t-26 -42.5t-8.5 -50q0 -24 8.5 -47.5t26 -41.5t44.5 -29t63 -11t62 11t43.5 29t25.5 41.5t8 47.5zM540 1663q0 26 -8.5 50t-26 42.5t-44 29.5t-62.5 11t-62.5 -11t-44 -29.5t-26 -42.5t-8.5 -50q0 -24 8.5 -47.5t26 -41.5t44 -29t62.5 -11t62.5 11t44 29 t26 41.5t8.5 47.5z" />
<glyph unicode="&#x2c6;" horiz-adv-x="1106" d="M928 1075l-230 330q-6 8 -10 14.5t-9 10.5t-12.5 6t-19.5 2h-227l-240 -324q-3 -5 -5.5 -9.5t-2.5 -10.5q0 -19 21 -19h172l180 207l151 -172q19 -22 36 -28.5t34 -6.5h162z" />
<glyph unicode="&#x2dc;" horiz-adv-x="1106" d="M936 1327l-125 64q-16 -35 -29.5 -54.5t-26 -29t-25.5 -11.5t-28 -2q-21 0 -44.5 11.5t-57.5 31.5q-21 12 -40.5 23.5t-39 20.5t-41.5 14.5t-49 5.5q-32 0 -65 -15t-64.5 -43.5t-60 -69.5t-50.5 -93l125 -64q18 35 32.5 54t28 27.5t26 9.5t26.5 1t28 -5.5t28.5 -13.5 t29.5 -17.5t31 -18.5q29 -17 66 -33t89 -16q63 0 125.5 54.5t110.5 168.5z" />
<glyph unicode="&#x2000;" horiz-adv-x="949" />
<glyph unicode="&#x2001;" horiz-adv-x="1899" />
<glyph unicode="&#x2002;" horiz-adv-x="949" />
<glyph unicode="&#x2003;" horiz-adv-x="1899" />
<glyph unicode="&#x2004;" horiz-adv-x="633" />
<glyph unicode="&#x2005;" horiz-adv-x="474" />
<glyph unicode="&#x2006;" horiz-adv-x="316" />
<glyph unicode="&#x2007;" horiz-adv-x="316" />
<glyph unicode="&#x2008;" horiz-adv-x="237" />
<glyph unicode="&#x2009;" horiz-adv-x="379" />
<glyph unicode="&#x200a;" horiz-adv-x="105" />
<glyph unicode="&#x2010;" horiz-adv-x="760" d="M684 424v223q0 14 -6.5 18.5t-22.5 4.5h-579v-221q0 -14 7.5 -19.5t22.5 -5.5h578z" />
<glyph unicode="&#x2011;" horiz-adv-x="760" d="M684 424v223q0 14 -6.5 18.5t-22.5 4.5h-579v-221q0 -14 7.5 -19.5t22.5 -5.5h578z" />
<glyph unicode="&#x2012;" horiz-adv-x="760" d="M684 424v223q0 14 -6.5 18.5t-22.5 4.5h-579v-221q0 -14 7.5 -19.5t22.5 -5.5h578z" />
<glyph unicode="&#x2013;" horiz-adv-x="1024" d="M1024 424v211h-1024v-211h1024z" />
<glyph unicode="&#x2014;" horiz-adv-x="2048" d="M2048 424v211h-2048v-211h2048z" />
<glyph unicode="&#x2018;" horiz-adv-x="559" d="M459 930q0 24 -7 48t-23.5 45t-43.5 38t-68 26q5 39 19 78t32 74t37.5 65t34.5 50l-129 84q-20 -20 -54.5 -65.5t-68 -108t-58 -138t-24.5 -153.5q0 -51 13 -90t37 -65.5t57 -40t72 -13.5q40 0 72.5 13.5t55 36t34.5 52.5t12 64z" />
<glyph unicode="&#x2019;" horiz-adv-x="559" d="M459 1229q0 51 -13 90t-37 65.5t-56.5 40t-71.5 13.5q-41 0 -73.5 -13.5t-55 -36t-34.5 -52.5t-12 -64q0 -24 7 -48t23.5 -45.5t43.5 -38.5t68 -26q-5 -38 -19 -77t-32 -74.5t-37.5 -65t-34.5 -49.5l129 -84q20 19 54.5 64.5t68 108.5t58 138.5t24.5 153.5z" />
<glyph unicode="&#x201a;" horiz-adv-x="559" d="M459 94q0 51 -13 90t-37 65.5t-56.5 40t-71.5 13.5q-41 0 -73.5 -13.5t-55 -36t-34.5 -52.5t-12 -64q0 -24 7 -48t23.5 -45t43.5 -38t68 -26q-5 -39 -19 -78t-32 -74t-37.5 -65t-34.5 -50l129 -84q20 19 54.5 65t68 108.5t58 138t24.5 153.5z" />
<glyph unicode="&#x201c;" horiz-adv-x="1038" d="M936 930q0 24 -7 48t-23 45t-43.5 38t-67.5 26q4 39 18.5 78t32.5 74t37.5 65t34.5 50l-130 84q-13 -13 -33.5 -38t-43 -59t-45.5 -76.5t-41 -89.5t-29.5 -98.5t-11.5 -103.5q0 -102 49.5 -155.5t128.5 -53.5q40 0 72.5 13.5t55 36t34.5 52.5t12 64zM455 930q0 24 -7 48 t-23.5 45t-43.5 38t-68 26q5 39 19 78t32 74t37.5 65t34.5 50l-129 84q-20 -20 -54.5 -65.5t-68 -108t-58 -138t-24.5 -153.5q0 -51 13 -90t37 -65.5t57 -40t72 -13.5q40 0 72.5 13.5t55 36t34.5 52.5t12 64z" />
<glyph unicode="&#x201d;" horiz-adv-x="1038" d="M936 1229q0 51 -13 90t-37 65.5t-56.5 40t-71.5 13.5q-41 0 -73 -13.5t-54.5 -36t-34.5 -52.5t-12 -64q0 -24 6.5 -48t23 -45.5t43.5 -38.5t68 -26q-5 -38 -19 -77t-32 -74.5t-37.5 -65t-34.5 -49.5l129 -84q20 19 54.5 64.5t68 108.5t58 138.5t24.5 153.5zM455 1229 q0 51 -13 90t-37 65.5t-57 40t-72 13.5q-41 0 -73 -13.5t-54.5 -36t-34.5 -52.5t-12 -64q0 -24 7 -48t23.5 -45.5t43.5 -38.5t68 -26q-5 -38 -19 -77t-32 -74.5t-37.5 -65t-34.5 -49.5l129 -84q20 19 54.5 64.5t68 108.5t58 138.5t24.5 153.5z" />
<glyph unicode="&#x201e;" horiz-adv-x="1038" d="M936 94q0 51 -13 90t-37 65.5t-56.5 40t-71.5 13.5q-41 0 -73 -13.5t-54.5 -36t-34.5 -52.5t-12 -64q0 -24 6.5 -48t23 -45t43.5 -38t68 -26q-5 -39 -19 -78t-32 -74t-37.5 -65t-34.5 -50l129 -84q20 19 54.5 65t68 108.5t58 138t24.5 153.5zM455 94q0 51 -13 90 t-37 65.5t-57 40t-72 13.5q-41 0 -73 -13.5t-54.5 -36t-34.5 -52.5t-12 -64q0 -24 7 -48t23.5 -45t43.5 -38t68 -26q-5 -39 -19 -78t-32 -74t-37.5 -65t-34.5 -50l129 -84q20 19 54.5 65t68 108.5t58 138t24.5 153.5z" />
<glyph unicode="&#x2022;" horiz-adv-x="1004" d="M840 702q0 70 -26.5 131.5t-72.5 107.5t-107.5 72.5t-131.5 26.5t-131.5 -26.5t-107.5 -72.5t-72.5 -107.5t-26.5 -131.5t26.5 -131.5t72.5 -107t107.5 -72t131.5 -26.5t131.5 26.5t107.5 72t72.5 107t26.5 131.5z" />
<glyph unicode="&#x2026;" horiz-adv-x="2048" d="M1870 137q0 33 -12.5 63t-35.5 53t-55.5 36.5t-72.5 13.5t-72.5 -13.5t-55.5 -36.5t-35.5 -53t-12.5 -63t12.5 -62.5t35.5 -51.5t55.5 -35t72.5 -13t72.5 13t55.5 35t35.5 51.5t12.5 62.5zM1192 137q0 33 -12.5 63t-35.5 53t-55.5 36.5t-72.5 13.5t-72.5 -13.5 t-55.5 -36.5t-35.5 -53t-12.5 -63t12.5 -62.5t35.5 -51.5t55.5 -35t72.5 -13t72.5 13t55.5 35t35.5 51.5t12.5 62.5zM514 137q0 33 -12.5 63t-35.5 53t-55.5 36.5t-72.5 13.5t-72.5 -13.5t-55.5 -36.5t-35.5 -53t-12.5 -63t12.5 -62.5t35.5 -51.5t55.5 -35t72.5 -13t72.5 13 t55.5 35t35.5 51.5t12.5 62.5z" />
<glyph unicode="&#x202f;" horiz-adv-x="379" />
<glyph unicode="&#x2039;" horiz-adv-x="662" d="M612 184l-272 336l272 336h-290l-273 -336l273 -336h290z" />
<glyph unicode="&#x203a;" horiz-adv-x="662" d="M612 520l-272 336h-291l273 -336l-273 -336h291z" />
<glyph unicode="&#x205f;" horiz-adv-x="474" />
<glyph unicode="&#x20ac;" horiz-adv-x="1282" d="M1204 59l-71 215q-32 -16 -69.5 -29t-78 -22t-83 -13.5t-83.5 -4.5q-127 0 -207 56t-114 165h360l-18 145q-2 14 -8 18.5t-21 4.5h-352q-1 5 -2 16.5t-2.5 25t-2.5 27t-1 23.5q0 6 0.5 18.5t1.5 26t2 26.5t2 21h489l-24 146q-2 14 -8 18t-21 4h-393q11 45 36.5 87 t65.5 73.5t93 50.5t120 19q61 0 113 -13t91.5 -30t66 -35t36.5 -27l-16 221q-1 12 -3.5 20.5t-8 15t-14.5 12t-23 12.5t-40 16t-62 17t-81.5 14t-97.5 6q-112 0 -205.5 -38t-164.5 -101.5t-118 -146.5t-67 -173h-168v-143q0 -14 7.5 -19.5t23.5 -5.5h102q-2 -18 -3 -43.5 t-1 -44.5q0 -7 0.5 -20t1 -28t1 -28t1.5 -20h-133v-143q0 -14 7.5 -19.5t23.5 -5.5h131q25 -101 73.5 -185t122 -144t173 -93t227.5 -33q45 0 97 6.5t104.5 18t101.5 27.5t90 36z" />
<glyph unicode="&#x2122;" horiz-adv-x="1655" d="M1616 1405h-258l-178 -397l-164 372q-6 14 -11 19.5t-24 5.5h-238q11 -14 17 -37t6 -51v-662q0 -24 27 -24h153v526l178 -450h101l188 450v-502q0 -24 27 -24h153v686q0 28 6 51t17 37zM668 1229l-15 153q-3 23 -22 23h-576v-131q0 -23 29 -23h178v-596q0 -24 27 -24h164 v620h131q64 0 84 -22z" />
<glyph unicode="&#xe000;" horiz-adv-x="965" d="M0 965h965v-965h-965v965z" />
<glyph unicode="&#xfb01;" horiz-adv-x="1190" d="M1051 0v940q0 27 -31 27h-555v77q0 158 197 158q33 0 67.5 -8.5t66.5 -20.5t60 -25t49 -22l-20 201q-2 22 -10.5 32t-32.5 19q-31 13 -91 29t-151 16q-82 0 -155.5 -22.5t-128.5 -69t-87 -116.5t-32 -164v-97l-144 -92v-84q0 -14 6.5 -18t22.5 -4h115v-729q0 -27 30 -27 h238v756h317v-729q0 -27 31 -27h238z" />
<glyph unicode="&#xfb02;" horiz-adv-x="1212" d="M1071 0v1057q0 183 -107.5 274.5t-308.5 91.5q-107 0 -191.5 -27.5t-144 -78t-91 -122.5t-31.5 -161v-80l-144 -92v-84q0 -14 6.5 -18t22.5 -4h115v-729q0 -27 30 -27h238v756h207l-27 182q-2 14 -8.5 21.5t-22.5 7.5h-149v75q0 84 44 124t120 40q34 0 65.5 -7.5 t55.5 -25.5t38.5 -49t14.5 -77v-1020q0 -27 31 -27h237z" />
</font>
</defs>
</svg>
