<?xml version="1.0" standalone="no"?>
<!DOCTYPE svg PUBLIC "-//W3C//DTD SVG 1.1//EN" "http://www.w3.org/Graphics/SVG/1.1/DTD/svg11.dtd" >
<svg xmlns="http://www.w3.org/2000/svg">
<metadata></metadata>
<defs>
<font id="tescoregular" horiz-adv-x="1094" >
<font-face units-per-em="2048" ascent="1638" descent="-410" />
<missing-glyph horiz-adv-x="358" />
<glyph horiz-adv-x="2048" />
<glyph horiz-adv-x="2048" />
<glyph unicode="&#xd;" horiz-adv-x="358" />
<glyph unicode=" "  horiz-adv-x="358" />
<glyph unicode="&#x09;" horiz-adv-x="358" />
<glyph unicode="&#xa0;" horiz-adv-x="358" />
<glyph unicode="!" horiz-adv-x="504" d="M344 1380q0 25 -27 25h-182q11 -17 17 -46t6 -63l14 -841q0 -25 27 -25h133zM383 104q0 26 -8.5 50.5t-25.5 43t-41.5 29.5t-55.5 11q-32 0 -56 -11t-41 -29.5t-25.5 -43t-8.5 -50.5q0 -24 8.5 -47.5t25 -41.5t41 -29t56.5 -11t56.5 11t41 29t25 41.5t8.5 47.5z" />
<glyph unicode="&#x22;" horiz-adv-x="905" d="M754 1380q0 13 -7.5 19t-19.5 6h-195q11 -17 16 -46t7 -63l16 -473q0 -12 7.5 -18t19.5 -6h139zM350 1380q0 25 -26 25h-195q11 -17 16 -46t7 -63l16 -473q0 -24 27 -24h139z" />
<glyph unicode="#" horiz-adv-x="1139" d="M1061 831v107q0 23 -29 23h-160l46 329q1 12 4 25.5t6.5 26t8 23t9.5 15.5h-119q-26 0 -34 -7.5t-11 -29.5l-53 -382h-244l45 329q2 12 4.5 25.5t6.5 26t8.5 23t9.5 15.5h-119q-26 0 -34 -7.5t-11 -29.5l-53 -382h-209v-107q0 -23 29 -23h162l-37 -282h-211v-107 q0 -22 28 -22h162l-53 -393q-3 -27 25 -27h112l58 420h245l-53 -393q-3 -27 25 -27h112l58 420h209v106q0 23 -29 23h-160l37 282h209zM711 831l-37 -282h-246l37 282h246z" />
<glyph unicode="$" horiz-adv-x="1102" d="M997 362q0 87 -27.5 150t-78 110t-123 81.5t-162.5 64.5v494q71 -2 147.5 -19.5t147.5 -48.5l-14 143q-3 14 -7 21t-20 12q-23 8 -86 20t-168 15v127h-114v-131q-103 -12 -175 -49t-117 -89.5t-65 -115t-20 -123.5q0 -87 27 -149t76 -107t118.5 -77.5t155.5 -61.5v-506 q-119 0 -210.5 27t-162.5 65l-53 -143q80 -42 184.5 -68.5t241.5 -28.5v-153h114v158q102 10 176 42.5t122 82.5t70.5 115t22.5 142zM492 811q-55 22 -94.5 44.5t-65.5 48t-38.5 55t-12.5 67.5q0 55 17 95t46 66.5t67.5 42t80.5 23.5v-442zM817 346q0 -52 -16 -89.5t-44 -63 t-67 -40.5t-84 -22v457q46 -18 85 -39.5t67 -50t43.5 -65.5t15.5 -87z" />
<glyph unicode="%" horiz-adv-x="1942" d="M1819 393q0 208 -86.5 313t-243.5 105t-243.5 -105t-86.5 -313q0 -207 86.5 -312.5t243.5 -105.5t243.5 105.5t86.5 312.5zM1413 1386q0 8 -4.5 13.5t-19.5 5.5h-125l-723 -1374q-5 -10 -10 -20.5t-5 -16.5q0 -8 7 -13.5t18 -5.5h127l723 1377q5 8 8.5 18.5t3.5 15.5z M782 987q0 208 -86 313t-243 105t-243.5 -105t-86.5 -313q0 -207 86.5 -312.5t243.5 -105.5q158 0 243.5 105t85.5 313zM1659 393q0 -158 -40.5 -229.5t-129.5 -71.5t-129.5 71.5t-40.5 229.5t40.5 229.5t129.5 71.5t129.5 -71.5t40.5 -229.5zM623 987q0 -158 -41 -229.5 t-129 -71.5q-89 0 -129.5 71.5t-40.5 229.5t40.5 229.5t129.5 71.5q88 0 129 -71.5t41 -229.5z" />
<glyph unicode="&#x26;" horiz-adv-x="1393" d="M1298 586l-135 71q-8 -15 -21.5 -43t-35.5 -65q-22 -38 -52.5 -83t-70.5 -93l-303 377q86 49 146 92.5t97.5 89.5t54.5 97t17 116q0 54 -19 107t-61 94t-109.5 66.5t-164.5 25.5q-89 0 -155.5 -25.5t-110.5 -68t-66 -97.5t-22 -114q0 -50 11.5 -94t30.5 -84.5t44.5 -77.5 t54.5 -74q-83 -45 -143 -90t-99 -96.5t-58 -113t-19 -138.5q0 -86 31.5 -159t88 -126t134.5 -83t172 -30q51 0 103 8.5t104.5 27.5t105 50t104.5 76l92 -113q7 -8 14.5 -11t12.5 -3h207l-199 250q57 66 112 149t107 185zM831 1137q0 -36 -11.5 -69.5t-39.5 -66.5t-75.5 -66 t-120.5 -69l-66 88q-38 51 -53.5 100t-15.5 76q0 87 52.5 133t143.5 46q87 0 136.5 -47.5t49.5 -124.5zM860 250q-60 -54 -136 -87.5t-161 -33.5q-64 0 -115.5 17.5t-87.5 50.5t-55.5 79.5t-19.5 104.5q0 52 15.5 95t45.5 79.5t73 67.5t97 59z" />
<glyph unicode="'" horiz-adv-x="502" d="M350 1380q0 25 -26 25h-195q11 -17 16 -46t7 -63l16 -473q0 -24 27 -24h139z" />
<glyph unicode="(" horiz-adv-x="651" d="M631 -152q-152 95 -237 271.5t-85 439.5q0 262 85 439t237 272l-76 135q-96 -45 -176 -123.5t-137 -186.5t-89 -243t-32 -293t32 -293t89 -243t137 -186.5t176 -123.5z" />
<glyph unicode=")" horiz-adv-x="651" d="M530 559q0 158 -32 293t-89 243t-137 186.5t-176 123.5l-76 -135q152 -95 237 -272t85 -439q0 -263 -85 -439.5t-237 -271.5l76 -135q96 45 176 123.5t137 186.5t89 243t32 293z" />
<glyph unicode="*" horiz-adv-x="971" d="M860 1075l-47 148l-262 -99l12 256q0 25 -26 25h-152q11 -17 15 -46t8 -63l12 -172l-262 99l-47 -148l272 -78l-176 -219l125 -90l153 232l154 -232l125 90l-176 219z" />
<glyph unicode="+" d="M1016 614v134q0 22 -29 22h-360v408q0 28 -23 28h-137v-436h-391v-133q0 -23 28 -23h363v-413q0 -29 22 -29h138v442h389z" />
<glyph unicode="," horiz-adv-x="502" d="M391 72q0 52 -11.5 85.5t-33.5 55.5q-18 20 -43.5 29.5t-54.5 9.5q-30 0 -54 -9.5t-41.5 -26.5t-26.5 -40t-9 -49q0 -15 4 -35t17 -38.5t37.5 -33t66.5 -18.5q-1 -46 -14.5 -92t-32 -86.5t-39 -73t-35.5 -53.5l94 -62q16 18 45.5 61t58.5 102.5t50.5 130t21.5 143.5z" />
<glyph unicode="-" horiz-adv-x="760" d="M659 457v161q0 25 -26 25h-533v-162q0 -12 7.5 -18t19.5 -6h532z" />
<glyph unicode="." horiz-adv-x="502" d="M381 104q0 26 -8.5 50.5t-25.5 43t-41.5 29.5t-55.5 11q-32 0 -56 -11t-41 -29.5t-25.5 -43t-8.5 -50.5q0 -24 8.5 -47.5t25 -41.5t41 -29t56.5 -11t56.5 11t41 29t25 41.5t8.5 47.5z" />
<glyph unicode="/" horiz-adv-x="573" d="M547 1386q0 8 -4.5 13.5t-20.5 5.5h-137l-352 -1354q-3 -11 -5.5 -19.5t-2.5 -13.5q0 -8 4.5 -13t19.5 -5h139l351 1354q3 11 5.5 19t2.5 13z" />
<glyph unicode="0" d="M1008 688q0 178 -31 312.5t-90 224.5t-144.5 135t-195.5 45t-195.5 -45t-144.5 -135t-90 -224.5t-31 -312.5q0 -177 31 -310.5t90 -223t144.5 -134.5t195.5 -45t195.5 45t144.5 134.5t90 223t31 310.5zM819 688q0 -153 -17.5 -260t-52 -175t-85 -99t-117.5 -31t-118 31 t-85.5 99t-52 175t-17.5 260q0 154 17.5 262t52 176t85.5 99.5t118 31.5t117.5 -31.5t85 -99.5t52 -176t17.5 -262z" />
<glyph unicode="1" d="M700 0v1356q0 24 -26 24h-107l-395 -368l78 -97q5 -5 9.5 -8.5t10.5 -3.5q11 0 21 10l231 226v-1114q0 -25 27 -25h151z" />
<glyph unicode="2" d="M918 0v178q-17 -12 -43.5 -18t-49.5 -6h-491l246 278q78 89 137.5 166t99 150t60 147t20.5 158t-29 149.5t-81 110.5t-124 68.5t-159 23.5q-72 0 -132 -15.5t-108 -39.5t-85 -54t-64 -59q-8 -9 -10.5 -18.5t8.5 -20.5l86 -94q27 32 55 58.5t62 45t74 29t91 10.5 q49 0 91 -13.5t72.5 -41.5t47.5 -69.5t17 -96.5q0 -54 -13.5 -107.5t-48 -117.5t-95.5 -145t-155 -191l-309 -361v-79q0 -25 27 -25h803z" />
<glyph unicode="3" d="M915 426q0 97 -31 170t-85 123q-20 18 -47.5 35.5t-63 33.5t-80.5 28.5t-100 19.5l354 405v115q0 24 -26 24h-734v-125q0 -12 7.5 -18t19.5 -6h537l-355 -395v-99q0 -14 6 -20q12 -10 29 -10q28 0 80.5 -5.5t108.5 -19.5q44 -12 80.5 -33.5t62.5 -54t40.5 -75.5t14.5 -97 q0 -79 -25.5 -134.5t-70.5 -91t-106.5 -51.5t-133.5 -16q-48 0 -87.5 5.5t-73.5 14.5t-62.5 21t-54.5 25l-49 -144q51 -28 137 -52t211 -24q92 0 181.5 24.5t159.5 78.5t113 140t43 208z" />
<glyph unicode="4" d="M997 348l-12 111q-3 24 -29 24h-108v873q0 24 -27 24h-159l-572 -866v-143q0 -23 29 -23h563v-323q0 -25 27 -25h139v348h149zM682 483h-446l446 699v-699z" />
<glyph unicode="5" d="M899 446q0 118 -38 201.5t-110 137.5t-175.5 80.5t-233.5 29.5l10 328h522l13 131q2 15 -4 20.5t-19 5.5h-651l-27 -610q0 -25 25 -25q15 0 40.5 1.5t59.5 1.5q72 0 144 -13.5t130.5 -48t95 -93t36.5 -149.5q0 -84 -26 -143.5t-71.5 -97.5t-107 -56t-131.5 -18 q-35 0 -72.5 6t-72.5 15.5t-65 21t-50 21.5l-51 -142q52 -28 135.5 -52t191.5 -24q96 0 186.5 26t160.5 83t112.5 146.5t42.5 215.5z" />
<glyph unicode="6" d="M1016 446q0 111 -32.5 193.5t-89 137t-131.5 81.5t-159 27q-91 0 -171.5 -34t-139.5 -103q9 88 28 156.5t45 121t58 90.5t68 66q54 42 114.5 58.5t122.5 16.5q31 0 59.5 -3.5t52.5 -9.5t40.5 -12.5t23.5 -12.5l-35 139q-2 8 -6.5 17t-21.5 14q-13 5 -42 9.5t-77 4.5 q-72 0 -133 -14t-113.5 -40t-98.5 -63t-87 -82q-50 -55 -86 -125.5t-59.5 -150.5t-34.5 -166t-11 -172q0 -169 36.5 -286.5t100 -190.5t149 -105.5t183.5 -32.5q101 0 183.5 34t141 96t90.5 148.5t32 192.5zM838 426q0 -72 -19 -129t-55 -96.5t-88 -60.5t-119 -21 q-68 0 -118.5 21.5t-84 61t-50.5 95.5t-17 125q0 67 17 124.5t53 100.5t91 67.5t130 24.5q126 0 193 -82t67 -231z" />
<glyph unicode="7" d="M965 1266v90q0 12 -7.5 18t-19.5 6h-840v-139q0 -12 7.5 -18t19.5 -6h655l-491 -1178q-6 -15 -6 -23q0 -16 22 -16h150z" />
<glyph unicode="8" d="M1010 356q0 63 -15.5 118.5t-50 103.5t-89 87.5t-132.5 71.5q67 33 113 73t74.5 82.5t40.5 86.5t12 86q0 75 -26 137.5t-77.5 107.5t-128 70t-176.5 25q-105 0 -184 -26.5t-132.5 -73.5t-80.5 -112t-27 -142q0 -45 10 -88.5t35.5 -85t68.5 -79t109 -69.5 q-79 -35 -131 -78t-83 -91.5t-43.5 -99.5t-12.5 -100q0 -85 29.5 -156t87.5 -122t145 -79t201 -28t201 28t145 78t87.5 120.5t29.5 154.5zM805 1069q0 -51 -14 -90.5t-44.5 -71.5t-79 -58.5t-118.5 -51.5q-72 24 -121 50t-79 57t-43 68.5t-13 84.5q0 57 20 98.5t54.5 69.5 t81 41.5t100.5 13.5q53 0 99.5 -13t81.5 -39t55 -65.5t20 -93.5zM823 354q0 -60 -21 -106t-58.5 -77t-88.5 -46.5t-112 -15.5q-60 0 -112.5 14.5t-91 46.5t-61 82t-22.5 121q0 51 13.5 93.5t44.5 78.5t80.5 66t121.5 55q73 -25 130 -52t96.5 -63t60 -83.5t20.5 -113.5z" />
<glyph unicode="9" d="M987 819q0 158 -36.5 269.5t-100 182t-149 102.5t-183.5 32q-101 0 -183 -34t-140.5 -95.5t-90.5 -148.5t-32 -193q0 -111 32.5 -193.5t88.5 -137t131 -81t159 -26.5q97 0 178 37t144 118q-19 -123 -56 -211t-84.5 -148t-100 -96t-103 -54.5t-94 -24.5t-72.5 -6 q-16 0 -32 1t-30 3l-16 -133q16 -4 44 -6.5t54 -2.5q53 0 119 8.5t136 37t140.5 83t133.5 146.5q27 40 52.5 94t45.5 124.5t32.5 158t12.5 194.5zM793 958q0 -67 -17 -125t-52 -100.5t-90 -67t-130 -24.5q-126 0 -192 83t-66 230q0 145 72 226.5t206 81.5q68 0 118.5 -21.5 t84 -61t50 -96t16.5 -125.5z" />
<glyph unicode=":" horiz-adv-x="502" d="M381 821q0 27 -8.5 51t-25.5 42.5t-41.5 29t-55.5 10.5q-32 0 -56 -10.5t-41 -29t-25.5 -42.5t-8.5 -51q0 -24 8.5 -47.5t25 -41.5t41 -29t56.5 -11t56.5 11t41 29t25 41.5t8.5 47.5zM381 104q0 26 -8.5 50.5t-25.5 43t-41.5 29.5t-55.5 11q-32 0 -56 -11t-41 -29.5 t-25.5 -43t-8.5 -50.5q0 -24 8.5 -47.5t25 -41.5t41 -29t56.5 -11t56.5 11t41 29t25 41.5t8.5 47.5z" />
<glyph unicode=";" horiz-adv-x="502" d="M381 821q0 27 -8.5 51t-25.5 42.5t-41.5 29t-55.5 10.5q-32 0 -56 -10.5t-41 -29t-25.5 -42.5t-8.5 -51q0 -24 8.5 -47.5t25 -41.5t41 -29t56.5 -11t56.5 11t41 29t25 41.5t8.5 47.5zM391 72q0 52 -11.5 85.5t-33.5 55.5q-18 20 -43.5 29.5t-54.5 9.5q-30 0 -54 -9.5 t-41.5 -26.5t-26.5 -40t-9 -49q0 -15 4 -35t17 -38.5t37.5 -33t66.5 -18.5q-1 -46 -14.5 -92t-32 -86.5t-39 -73t-35.5 -53.5l94 -62q16 18 45.5 61t58.5 102.5t50.5 130t21.5 143.5z" />
<glyph unicode="&#x3c;" d="M1016 184v170l-750 328l750 328v170l-940 -422v-123q0 -16 4.5 -24.5t21.5 -16.5z" />
<glyph unicode="=" d="M1016 819v133q0 23 -29 23h-911v-133q0 -23 28 -23h912zM1016 410v133q0 22 -29 22h-911v-133q0 -22 28 -22h912z" />
<glyph unicode="&#x3e;" d="M1016 606v123q0 16 -5 24.5t-22 16.5l-913 410v-170l749 -328l-749 -328v-170z" />
<glyph unicode="?" horiz-adv-x="1081" d="M901 1092q0 79 -28 140t-79 102.5t-122 63t-158 21.5q-72 0 -131 -15.5t-106.5 -39.5t-84 -54t-63.5 -59q-10 -10 -10 -20t8 -19l86 -94q27 31 56 58t62.5 47.5t74.5 32.5t92 12q49 0 89.5 -12t69 -36.5t44.5 -61t16 -85.5q0 -41 -10.5 -74.5t-28.5 -62t-41 -53.5 t-47 -49q-32 -31 -64.5 -62.5t-58 -67.5t-41.5 -77.5t-16 -91.5v-107q0 -25 26 -25h142v82q0 42 12 76t32.5 64t46.5 57.5t54 54.5q32 33 64 68t57.5 77t41 93.5t15.5 116.5zM625 104q0 26 -8.5 50.5t-25.5 43t-41.5 29.5t-55.5 11q-32 0 -56.5 -11t-41 -29.5t-25.5 -43 t-9 -50.5q0 -24 8.5 -47.5t25 -41.5t41.5 -29t57 -11t56.5 11t41 29t25 41.5t8.5 47.5z" />
<glyph unicode="@" horiz-adv-x="1939" d="M1819 723q0 138 -44 261t-135.5 215.5t-233 147t-335.5 54.5q-115 0 -230 -25t-220.5 -77t-196.5 -132t-158.5 -190t-106 -251t-38.5 -314q0 -180 57.5 -327.5t169.5 -252t278 -162t384 -57.5q57 0 114.5 2.5t112.5 8.5t106 15t95 21l-33 162q-22 -7 -67.5 -15.5 t-102.5 -15.5t-119 -11.5t-117 -4.5q-181 0 -313.5 49t-219.5 135t-129 203t-42 254q0 131 28 244t78.5 205.5t121 163.5t156 119.5t182 73.5t200.5 25q163 0 275 -41t181 -113t99.5 -169t30.5 -209q0 -135 -27 -234t-69.5 -163.5t-94.5 -96t-102 -31.5q-13 0 -31.5 3 t-33 16.5t-21 42.5t3.5 80l90 479q5 28 15.5 56t27.5 46q-56 32 -139.5 56t-192.5 24q-124 0 -220.5 -48.5t-162.5 -131.5t-100.5 -193t-34.5 -233q0 -86 21.5 -150.5t61 -107.5t94 -64.5t120.5 -21.5q37 0 76 9t75.5 26t68 41.5t52.5 56.5q2 -22 12 -45.5t32.5 -43t60 -32 t94.5 -12.5q108 0 199 44t157 130t103 213t37 293zM1200 823l-92 -497q-40 -63 -95 -102.5t-126 -39.5q-32 0 -61 10.5t-51 36t-35 67t-13 103.5q0 118 29.5 204.5t75.5 142.5t101.5 83t106.5 27q58 0 94.5 -9.5t65.5 -25.5z" />
<glyph unicode="A" horiz-adv-x="1186" d="M1186 0l-477 1386q-3 11 -11 15t-20 4h-240q10 -11 12.5 -27.5t2.5 -31.5q0 -9 -3 -25t-7.5 -35t-10.5 -38.5t-12 -37.5l-414 -1169q-3 -9 -4.5 -14.5t-1.5 -10.5q0 -6 5 -11t18 -5h135l135 395h569l115 -360q6 -19 15.5 -27t29.5 -8h164zM815 545h-471l246 708z" />
<glyph unicode="B" horiz-adv-x="1243" d="M1130 389q0 61 -13.5 115.5t-44.5 101t-81 83.5t-123 63q56 31 91 70.5t54.5 82.5t26.5 86t7 82q0 65 -21.5 125t-69 106t-122.5 73.5t-183 27.5h-504q11 -17 17 -46t6 -63v-1271q0 -25 27 -25h501q102 0 182 31.5t135.5 84.5t85 124t29.5 149zM856 1036 q0 -51 -16.5 -93.5t-46 -72.5t-71 -46.5t-91.5 -16.5h-283v455h283q106 0 165.5 -56.5t59.5 -169.5zM934 403q0 -57 -18 -105t-52 -82.5t-83 -53.5t-111 -19h-322v521h322q61 0 110 -19t83.5 -53.5t52.5 -82.5t18 -106z" />
<glyph unicode="C" horiz-adv-x="1229" d="M1184 49l-49 160q-62 -25 -146 -46.5t-190 -21.5q-95 0 -182.5 32.5t-154 99.5t-106 170.5t-39.5 244.5q0 153 37 262.5t100.5 180t148.5 104t181 33.5q49 0 95.5 -8.5t88 -21.5t77.5 -29t65 -31l-20 165q-2 16 -7 22.5t-22 14.5q-12 6 -37 14.5t-61.5 16.5t-83.5 13.5 t-103 5.5q-161 0 -283 -57.5t-205 -156t-125 -230.5t-42 -281q0 -172 44.5 -307.5t130 -229.5t210 -143.5t285.5 -49.5q60 0 117 6.5t108 17t93.5 24t74.5 26.5z" />
<glyph unicode="D" horiz-adv-x="1415" d="M1294 702q0 151 -43.5 279.5t-125.5 222.5t-200 147.5t-266 53.5h-512q11 -17 17 -46t6 -63v-1271q0 -25 27 -25h462q148 0 266 53.5t200 147.5t125.5 222.5t43.5 278.5zM1098 702q0 -131 -33.5 -232t-92 -170t-137.5 -104.5t-171 -35.5h-312v1085h312q92 0 171 -36 t137.5 -105t92 -170t33.5 -232z" />
<glyph unicode="E" horiz-adv-x="1104" d="M1016 0v180q-14 -9 -38.5 -15.5t-55.5 -6.5h-570v497h482q30 0 55 -6.5t39 -15.5v180h-576v434h533q31 0 58.5 -5.5t41.5 -16.5l-20 155q-3 25 -29 25h-789q11 -17 17 -46t6 -63v-1271q0 -25 27 -25h819z" />
<glyph unicode="F" horiz-adv-x="1022" d="M963 1225l-21 155q-3 25 -29 25h-766q11 -17 17 -46t6 -63v-1271q0 -25 27 -25h155v635h424q31 0 55.5 -6.5t38.5 -16.5v181h-518v454h510q31 0 59 -5.5t42 -16.5z" />
<glyph unicode="G" horiz-adv-x="1411" d="M1270 57v650q0 24 -27 24h-444v-133q0 -25 26 -25h262v-407q-20 -6 -48.5 -12t-63 -10.5t-73 -7.5t-77.5 -3q-101 0 -193 36.5t-162 108.5t-111.5 179t-41.5 248q0 144 36.5 251.5t102 178.5t156.5 106t199 35q56 0 107.5 -8t96.5 -21.5t83.5 -30t68.5 -34.5l-12 168 q-2 15 -7 22.5t-22 13.5q-11 5 -40.5 13.5t-72.5 17t-98.5 15t-119.5 6.5q-161 0 -286.5 -56t-211.5 -154t-131 -231.5t-45 -289.5q0 -172 46.5 -309t136 -233t220 -147t299.5 -51q64 0 129.5 7.5t124.5 20.5t109 29t84 33z" />
<glyph unicode="H" horiz-adv-x="1389" d="M1241 1405h-178q-12 0 -19.5 -6t-7.5 -19v-534h-684v534q0 25 -26 25h-179q11 -17 17 -46t6 -63v-1271q0 -25 27 -25h155v684h684v-659q0 -13 7.5 -19t19.5 -6h156v1296q0 34 5.5 63t16.5 46z" />
<glyph unicode="I" horiz-adv-x="522" d="M375 1405h-228q11 -17 17 -46t6 -63v-1271q0 -25 27 -25h155v1296q0 34 6 63t17 46z" />
<glyph unicode="J" horiz-adv-x="989" d="M852 1405h-227q11 -17 16.5 -46t5.5 -63v-876q0 -75 -12.5 -132.5t-41.5 -97.5t-78 -60.5t-122 -20.5q-47 0 -88 11t-75.5 28.5t-61.5 38t-45 38.5l-88 -106q21 -23 56 -50t82 -49.5t104.5 -37.5t125.5 -15q120 0 201.5 30.5t131.5 87.5t71.5 138t21.5 183v890q0 34 6 63 t17 46z" />
<glyph unicode="K" horiz-adv-x="1255" d="M1255 0l-735 758l615 618q9 10 20.5 18t18.5 11h-199q-23 0 -34 -5t-23 -18l-566 -567v565q0 25 -26 25h-179q11 -17 17 -46t6 -63v-1271q0 -25 27 -25h155v672l613 -647q14 -16 27.5 -20.5t33.5 -4.5h229z" />
<glyph unicode="L" horiz-adv-x="1067" d="M995 0v180q-14 -9 -38.5 -15.5t-55.5 -6.5h-549v1138q0 34 6 63t17 46h-228q11 -17 17 -46t6 -63v-1271q0 -25 27 -25h798z" />
<glyph unicode="M" horiz-adv-x="1649" d="M1501 1405h-297l-381 -926l-352 897q-6 17 -19.5 23t-31.5 6h-273q11 -17 17 -46t6 -63v-1271q0 -25 27 -25h149v1257l430 -1114h74l453 1114v-1232q0 -25 26 -25h150v1296q0 34 5.5 63t16.5 46z" />
<glyph unicode="N" horiz-adv-x="1374" d="M1227 1405h-172q-27 0 -27 -25v-1020l-590 1016q-9 16 -20.5 22.5t-30.5 6.5h-240q11 -17 17 -46t6 -63v-1271q0 -25 27 -25h149v1204l688 -1186q10 -15 21.5 -21.5t29.5 -6.5h119v1306q0 34 6 63t17 46z" />
<glyph unicode="O" horiz-adv-x="1520" d="M1399 702q0 165 -41.5 301t-122.5 232.5t-200.5 149.5t-274.5 53t-274.5 -53t-200.5 -149.5t-122.5 -232.5t-41.5 -301t41.5 -300.5t122.5 -232t200.5 -149.5t274.5 -53t274.5 53t200.5 149.5t122.5 232t41.5 300.5zM1202 702q0 -138 -31.5 -246t-89 -182.5 t-139.5 -113.5t-182 -39q-101 0 -182.5 39t-139.5 113.5t-89.5 182.5t-31.5 246q0 139 31.5 247.5t89.5 182.5t139.5 113t182.5 39q100 0 182 -39t139.5 -113t89 -182.5t31.5 -247.5z" />
<glyph unicode="P" horiz-adv-x="1194" d="M1081 1016q0 108 -36.5 181t-98.5 120q-24 18 -54.5 34t-70.5 28t-90.5 19t-114.5 7h-469q11 -17 17 -46t6 -63v-1271q0 -25 27 -25h151v586q38 -2 87 -5t124 -3q76 0 134.5 7t104 20.5t80 32.5t62.5 42q32 27 58 60t44.5 74t28.5 91t10 111zM889 997q0 -137 -84 -208.5 t-258 -71.5q-82 0 -129 4.5t-70 7.5v535h244q58 0 112 -11t95 -41t65.5 -82t24.5 -133z" />
<glyph unicode="Q" horiz-adv-x="1520" d="M1399 702q0 165 -41.5 301t-122.5 232.5t-200.5 149.5t-274.5 53t-274.5 -53t-200.5 -149.5t-122.5 -232.5t-41.5 -301t41.5 -300.5t122.5 -232t200.5 -149.5t274.5 -53q37 0 71.5 3t65.5 10l158 -166q17 -19 31 -25t38 -6h222l-269 258q79 44 139.5 109.5t101 149.5 t61 185.5t20.5 216.5zM1202 702q0 -138 -31.5 -246t-89 -182.5t-139.5 -113.5t-182 -39q-101 0 -182.5 39t-139.5 113.5t-89.5 182.5t-31.5 246q0 139 31.5 247.5t89.5 182.5t139.5 113t182.5 39q100 0 182 -39t139.5 -113t89 -182.5t31.5 -247.5z" />
<glyph unicode="R" horiz-adv-x="1266" d="M1227 0l-373 641q69 29 114.5 71.5t72.5 93.5t38 107.5t11 114.5q0 93 -35.5 168.5t-93.5 122.5q-25 19 -55 35t-68.5 27t-86.5 17.5t-108 6.5h-496q11 -17 17 -46t6 -63v-1271q0 -25 27 -25h151v598h318l309 -571q8 -16 19 -21.5t28 -5.5h205zM897 1012 q0 -134 -77 -204.5t-214 -70.5h-258v527h273q54 0 103.5 -11.5t88 -40t61.5 -77.5t23 -123z" />
<glyph unicode="S" horiz-adv-x="1171" d="M1040 373q0 90 -28.5 155t-80.5 113.5t-125 84t-161 65.5q-78 27 -140 52.5t-104.5 56t-65 68.5t-22.5 89q0 67 26.5 111t70 69t98.5 35t113 10q81 0 163.5 -18.5t159.5 -53.5l-18 154q-2 15 -7 23t-22 14q-25 9 -97.5 23t-191.5 14q-131 0 -221 -34.5t-146 -91 t-81 -127.5t-25 -143q0 -89 30 -151.5t80.5 -107t117.5 -75.5t141 -57q78 -27 140.5 -51.5t107 -55t68.5 -73t24 -106.5q0 -66 -24.5 -111t-68 -72.5t-103 -40t-128.5 -12.5q-122 0 -215 28t-164 66l-59 -153q87 -45 198.5 -73t258.5 -28q129 0 223.5 30t156 84t91.5 128 t30 162z" />
<glyph unicode="T" horiz-adv-x="1118" d="M1077 1225l-20 155q-3 25 -29 25h-973v-133q0 -13 7.5 -19t19.5 -6h391v-1222q0 -25 27 -25h155v1247h322q31 0 58.5 -5.5t41.5 -16.5z" />
<glyph unicode="U" horiz-adv-x="1354" d="M1217 1405h-179q-26 0 -26 -25v-891q0 -178 -80 -270t-256 -92q-88 0 -151 23t-103.5 69t-60 113.5t-19.5 156.5v891q0 25 -27 25h-178q11 -17 17 -46t6 -63v-852q0 -104 25.5 -191.5t85.5 -151t159 -99t246 -35.5t246.5 35.5t160 99t86 151t25.5 191.5v852q0 34 6 63 t17 46z" />
<glyph unicode="V" horiz-adv-x="1225" d="M1225 1405h-178q-13 0 -20.5 -1.5t-11.5 -6t-7 -11.5t-7 -18l-383 -1167l-382 1167q-4 11 -7 18t-7 11.5t-11.5 6t-20.5 1.5h-190q17 -12 33 -40.5t28 -64.5l441 -1290q3 -11 10.5 -14.5t19.5 -3.5h187l444 1308q13 36 29 64.5t33 40.5z" />
<glyph unicode="W" horiz-adv-x="1759" d="M1759 1405h-184q-26 0 -33.5 -7.5t-11.5 -29.5l-256 -1135l-281 1129q-3 11 -10.5 14.5t-19.5 3.5h-183l-288 -1149l-256 1137q-5 22 -12.5 29.5t-33.5 7.5h-190q17 -12 34.5 -39.5t26.5 -65.5l304 -1290q3 -11 10.5 -14.5t19.5 -3.5h191l295 1149l284 -1131 q3 -11 11 -14.5t20 -3.5h195l307 1308q9 38 26.5 65.5t34.5 39.5z" />
<glyph unicode="X" horiz-adv-x="1237" d="M1192 0l-469 758l389 600q6 9 20.5 25t28.5 22h-182q-23 0 -29 -5.5t-12 -15.5l-309 -485l-293 485q-6 10 -12 15.5t-29 5.5h-197q16 -8 29.5 -24t19.5 -25l373 -613l-457 -702q-6 -9 -8 -14.5t-2 -10.5q0 -6 5 -11t18 -5h157l381 598l336 -561q11 -17 20 -27t29 -10h193 z" />
<glyph unicode="Y" horiz-adv-x="1096" d="M1096 1405h-170q-23 0 -29 -5.5t-12 -15.5l-338 -563l-322 563q-5 10 -11.5 15.5t-29.5 5.5h-184q14 -9 24 -24.5t15 -24.5l403 -707v-624q0 -13 7.5 -19t19.5 -6h156v651l432 707q6 9 15.5 23.5t23.5 23.5z" />
<glyph unicode="Z" horiz-adv-x="1212" d="M1126 0v180q-14 -9 -38.5 -15.5t-55.5 -6.5h-708l790 1136v86q0 25 -27 25h-962v-133q0 -25 27 -25h714l-792 -1136v-86q0 -25 26 -25h1026z" />
<glyph unicode="[" horiz-adv-x="688" d="M633 -287v123q0 23 -29 23h-282v1401h311v122q0 23 -29 23h-454v-1667q0 -25 26 -25h457z" />
<glyph unicode="\" horiz-adv-x="573" d="M553 0l-356 1374q-5 16 -13.5 23.5t-23.5 7.5h-140l357 -1374q5 -16 13 -23.5t24 -7.5h139z" />
<glyph unicode="]" horiz-adv-x="688" d="M539 -287v1667q0 13 -7.5 19t-19.5 6h-457v-123q0 -22 29 -22h283v-1401h-312v-123q0 -23 29 -23h455z" />
<glyph unicode="^" horiz-adv-x="1034" d="M946 629l-344 760q-8 16 -31 16h-143l-332 -731q-3 -8 -5.5 -14.5t-2.5 -12.5q0 -8 5.5 -13t19.5 -5h131l264 588l266 -588h172z" />
<glyph unicode="_" horiz-adv-x="1024" d="M1024 -387v102h-1024v-102h1024z" />
<glyph unicode="`" horiz-adv-x="1106" d="M770 1075l-186 291q-10 15 -17 22t-28 7h-203q12 -10 26 -24t25 -28l199 -237q17 -20 31.5 -25.5t29.5 -5.5h123z" />
<glyph unicode="a" horiz-adv-x="1042" d="M891 0v639q0 76 -19 138.5t-65 107.5t-121.5 69.5t-189.5 24.5q-50 0 -94.5 -6t-80.5 -14.5t-61 -17t-37 -13.5q-20 -10 -31 -20.5t-6 -28.5q-2 -2 1.5 -11.5t5.5 -15.5l30 -82q12 8 35 19t55 21t73 17t89 7q60 0 105.5 -10.5t76.5 -35t46.5 -64t15.5 -97.5v-49 q-48 8 -110.5 14t-125.5 6q-89 0 -159.5 -21t-120 -61t-75.5 -99.5t-26 -135.5q0 -69 20.5 -125t60 -96.5t97 -62.5t132.5 -22q67 0 118.5 13t89 31t62 37.5t39.5 33.5v-65q0 -25 29 -25h141zM719 229q-12 -15 -33.5 -34.5t-52.5 -37t-72 -30t-92 -12.5q-86 0 -138 40.5 t-52 129.5q0 91 55.5 137.5t171.5 46.5q25 0 54 -2t57.5 -5.5t55 -7.5t46.5 -8v-217z" />
<glyph unicode="b" horiz-adv-x="1104" d="M1004 504q0 112 -29 200.5t-82 149.5t-128 93t-167 32q-89 0 -153.5 -21.5t-122.5 -64.5v500q0 26 -31 26q-8 0 -24 -1t-36 -3l-110 -10q15 -17 22 -46t7 -63v-1132q0 -29 -5 -57t-22 -48q71 -38 168 -61t227 -23q107 0 196 31t153.5 95.5t100.5 164.5t36 238zM819 481 q0 -101 -22.5 -170t-62 -112.5t-93.5 -62.5t-117 -19q-54 0 -107 10t-95 29v587q52 47 109.5 69t129.5 22q57 0 104.5 -21.5t81.5 -65t53 -110t19 -156.5z" />
<glyph unicode="c" horiz-adv-x="930" d="M856 35l-43 145q-16 -7 -37 -15.5t-48.5 -16t-61.5 -12.5t-76 -5q-70 0 -127 20.5t-97 62.5t-61.5 106t-21.5 151q0 89 22.5 155.5t62 110.5t92.5 66t113 22q39 0 74.5 -6.5t66 -16t55 -21.5t42.5 -23l-16 145q-2 16 -8.5 25.5t-24.5 15.5q-25 9 -70 19t-121 10 q-116 0 -204 -38.5t-147.5 -105t-89.5 -156.5t-30 -192q0 -139 39.5 -234t105 -154t149 -85t171.5 -26q96 0 167 15.5t124 37.5z" />
<glyph unicode="d" horiz-adv-x="1122" d="M1004 0q-7 14 -11.5 32t-7.5 40q-8 40 -11 85.5t-3 92.5v1143q0 26 -31 26q-8 0 -23.5 -1t-35.5 -3l-111 -10q16 -17 22.5 -46t6.5 -63v-403q-41 34 -108.5 60t-158.5 26q-92 0 -171 -34t-137 -98.5t-91 -158.5t-33 -215q0 -131 30.5 -225t84.5 -154.5t128 -89.5t161 -29 q49 0 91 8.5t79 24.5t69.5 38.5t63.5 49.5q2 -17 6.5 -40.5t9.5 -37.5q3 -8 10.5 -13t22.5 -5h148zM799 238q-45 -51 -104 -85t-144 -34q-56 0 -105 16.5t-85.5 57t-58 108.5t-21.5 170q0 82 17.5 149.5t52 116t85 75t115.5 26.5q46 0 85 -9t70.5 -23.5t54.5 -32t38 -34.5 v-501z" />
<glyph unicode="e" horiz-adv-x="1030" d="M938 481q0 103 -22 194t-69 158.5t-121.5 106.5t-180.5 39q-111 0 -194.5 -35.5t-139 -101.5t-83.5 -159t-28 -208q0 -111 31.5 -203t93 -158t153 -102.5t210.5 -36.5q63 0 113 5.5t88.5 14t66.5 19t47 19.5l-45 135q-43 -17 -103.5 -30t-144.5 -13q-150 0 -231.5 72.5 t-97.5 236.5h600q28 0 42.5 9.5t14.5 37.5zM760 569h-479q4 56 18 106.5t42 89t73 61t112 22.5q64 0 107.5 -21t70.5 -58t40 -88t16 -112z" />
<glyph unicode="f" horiz-adv-x="666" d="M754 1229l-17 129q-2 17 -9 25t-26 14q-23 8 -59.5 15t-99.5 7q-75 0 -136.5 -25t-105 -70.5t-67 -110t-23.5 -142.5v-110l-148 -70v-55q0 -23 29 -23h119v-788q0 -25 27 -25h145v813h260l-14 117q-3 24 -29 24h-217v105q0 116 50 165.5t136 49.5q66 0 113 -16.5 t72 -28.5z" />
<glyph unicode="g" horiz-adv-x="1106" d="M981 897q-75 40 -170.5 61t-224.5 21q-107 0 -196 -32t-153.5 -96.5t-100.5 -162t-36 -229.5q0 -112 27.5 -199t78.5 -146.5t124.5 -90.5t165.5 -31q90 0 158 21t128 65v-84q0 -126 -75.5 -182t-233.5 -56q-81 0 -146.5 15t-111.5 30l-37 -137q31 -11 64.5 -20.5t73 -16 t86.5 -10.5t106 -4q116 0 200 27t140 81q53 53 79.5 132t26.5 188v750q0 29 6.5 59t20.5 47zM782 227q-52 -45 -111.5 -67.5t-131.5 -22.5q-57 0 -104 20t-80 62t-51.5 107t-18.5 155q0 94 22.5 162t62 111t93.5 63.5t117 20.5q54 0 107 -10.5t95 -28.5v-572z" />
<glyph unicode="h" horiz-adv-x="1122" d="M971 0v629q0 83 -20 148t-62.5 110t-108.5 68.5t-159 23.5q-56 0 -103 -13.5t-84.5 -33t-65.5 -42t-46 -40.5v543q0 26 -31 26q-8 0 -24 -1t-36 -3l-110 -10q15 -17 22 -46t7 -63v-1271q0 -25 26 -25h146v676q20 28 47.5 55.5t61.5 49.5t74.5 35t86.5 13q112 0 159.5 -61 t47.5 -178v-565q0 -25 26 -25h146z" />
<glyph unicode="i" horiz-adv-x="475" d="M350 1262q0 21 -7 40t-21.5 33.5t-37 23.5t-53.5 9q-30 0 -52.5 -9t-37.5 -23.5t-22.5 -33.5t-7.5 -40q0 -20 7.5 -39t22.5 -33.5t37.5 -23.5t52.5 -9q31 0 53.5 9t37 23.5t21.5 33.5t7 39zM324 0v930q0 24 -29 24h-172q29 -38 29 -106v-823q0 -25 28 -25h144z" />
<glyph unicode="j" horiz-adv-x="477" d="M352 1262q0 21 -7 40t-21.5 33.5t-37 23.5t-53.5 9q-30 0 -52.5 -9t-37.5 -23.5t-22.5 -33.5t-7.5 -40q0 -20 7.5 -39t22.5 -33.5t37.5 -23.5t52.5 -9q31 0 53.5 9t37 23.5t21.5 33.5t7 39zM326 -47v977q0 24 -29 24h-172q29 -38 29 -106v-873q0 -67 -16.5 -110 t-43 -67.5t-60.5 -34t-69 -9.5q-23 0 -52.5 5t-55.5 12l-31 -131q32 -11 77 -19t101 -8q70 0 129 22t102 64.5t67 106t24 147.5z" />
<glyph unicode="k" horiz-adv-x="1018" d="M1018 0l-524 528l444 426h-188q-16 0 -29.5 -6.5t-32.5 -23.5l-366 -361v830q0 26 -31 26q-8 0 -24 -1t-36 -3l-110 -10q15 -17 22 -46t7 -63v-1271q0 -25 26 -25h146v475l430 -444q17 -19 31.5 -25t29.5 -6h205z" />
<glyph unicode="l" horiz-adv-x="473" d="M322 0v1393q0 26 -31 26q-8 0 -24 -1t-36 -3l-110 -10q15 -17 22 -46t7 -63v-1271q0 -25 26 -25h146z" />
<glyph unicode="m" horiz-adv-x="1708" d="M1556 0v629q0 83 -19.5 148t-60.5 110t-104.5 68.5t-150.5 23.5q-53 0 -100.5 -14.5t-88.5 -37t-74.5 -50t-58.5 -54.5q-37 76 -110.5 116t-188.5 40q-56 0 -104 -16t-87 -39t-67 -47.5t-43 -42.5q-2 14 -3.5 30t-4.5 33q-3 11 -5 21t-5 18q-4 8 -11 13t-22 5h-137 q6 -14 10.5 -32t7.5 -39q8 -41 11 -86.5t3 -91.5v-680q0 -13 7.5 -19t19.5 -6h145v676q20 28 47.5 55.5t60.5 49.5t70 35t78 13q102 0 147.5 -61.5t45.5 -177.5v-565q0 -25 27 -25h145v676q21 29 48.5 56.5t60.5 49t70.5 34.5t76.5 13q102 0 147 -61t45 -178v-565 q0 -13 7.5 -19t19.5 -6h145z" />
<glyph unicode="n" horiz-adv-x="1116" d="M965 0v629q0 83 -20 148t-62.5 110t-109 68.5t-159.5 23.5q-61 0 -112 -16t-91 -39t-68.5 -47.5t-43.5 -42.5q-2 14 -3.5 31t-4.5 32q-3 22 -10 39q-4 8 -11 13t-22 5h-137q6 -14 10.5 -32t7.5 -39q8 -41 11 -86.5t3 -91.5v-680q0 -13 7.5 -19t19.5 -6h145v676 q20 28 47.5 55.5t62 49.5t75 35t86.5 13q112 0 159.5 -61t47.5 -178v-565q0 -25 26 -25h146z" />
<glyph unicode="o" horiz-adv-x="1106" d="M1006 477q0 124 -33.5 218t-93.5 157t-143 95t-183 32t-183 -32t-143 -95t-93.5 -157t-33.5 -218q0 -114 33.5 -206.5t94 -158t143.5 -101.5t182 -36t182 35.5t143.5 101t94 158.5t33.5 207zM823 477q0 -76 -16.5 -142t-49.5 -114.5t-84 -76t-120 -27.5q-68 0 -119 27.5 t-84.5 76t-50 114.5t-16.5 142q0 78 17 144t50.5 114t84 75.5t118.5 27.5t119 -27.5t84.5 -75.5t50 -114t16.5 -144z" />
<glyph unicode="p" horiz-adv-x="1114" d="M1014 492q0 130 -30.5 222.5t-84.5 151.5t-128 86t-161 27q-51 0 -94 -9t-80.5 -26t-71.5 -41t-65 -53q-1 7 -2.5 19.5t-3.5 25t-4.5 24t-5.5 17.5q-3 8 -10.5 13t-22.5 5h-139q11 -25 20 -80q5 -34 8.5 -78.5t3.5 -90.5v-1057q0 -13 7.5 -19t19.5 -6h145v447 q41 -34 108.5 -60t158.5 -26q92 0 171 34t137 99t91 159.5t33 215.5zM834 487q0 -82 -18 -149t-52.5 -114t-85 -73t-115.5 -26q-46 0 -85 9t-70.5 23t-54.5 31.5t-38 34.5v494q22 25 48 47t56.5 38t66 25t77.5 9q55 0 104.5 -16t86.5 -56t58.5 -107.5t21.5 -169.5z" />
<glyph unicode="q" horiz-adv-x="1106" d="M981 897q-75 42 -169 62t-218 20q-110 0 -201 -33.5t-156 -99.5t-101 -164t-36 -227q0 -112 29 -199.5t82 -148t128 -92t167 -31.5q45 0 82.5 5.5t71 16t63.5 26.5t59 38v-422q0 -13 7.5 -19t19.5 -6h145v1168q0 29 6.5 56.5t20.5 49.5zM782 219q-52 -46 -109.5 -68 t-129.5 -22q-57 0 -104.5 21t-81.5 63.5t-53 108t-19 155.5q0 91 22.5 159t62 113t93.5 67t117 22q54 0 107 -9t95 -30v-580z" />
<glyph unicode="r" horiz-adv-x="672" d="M643 780l-14 156q-2 15 -12 23t-33 8q-47 0 -89 -14.5t-78 -37t-64 -50.5t-46 -56q-2 18 -5 36.5t-6 35.5t-6 31.5t-7 23.5q-3 8 -10.5 13t-22.5 5h-139q6 -14 10.5 -32t7.5 -39q8 -41 11 -86.5t3 -91.5v-680q0 -13 7.5 -19t19.5 -6h145v637q18 28 39.5 56t50 50.5t65 36 t83.5 13.5q23 0 45 -3.5t45 -9.5z" />
<glyph unicode="s" horiz-adv-x="840" d="M739 254q0 54 -12 96t-36 74t-59.5 56.5t-82.5 43.5l-180 74q-48 20 -73.5 47.5t-25.5 69.5q0 41 16.5 67.5t43.5 42t61.5 21.5t69.5 6q21 0 49 -3.5t58 -10.5t60.5 -17.5t57.5 -25.5l-18 129q-2 12 -5.5 17t-17.5 11q-18 8 -72.5 17.5t-128.5 9.5q-89 0 -152 -24 t-102.5 -62.5t-58 -87t-18.5 -98.5q0 -39 7.5 -74t27.5 -67t55.5 -59.5t91.5 -51.5l129 -56q42 -18 70 -33.5t45 -33.5t24.5 -39.5t7.5 -50.5q0 -40 -17.5 -66.5t-46 -42t-65 -21.5t-75.5 -6q-80 0 -139.5 19.5t-106.5 42.5l-45 -127q68 -29 143 -47.5t160 -18.5 q94 0 162 20t112 56.5t65 88t21 114.5z" />
<glyph unicode="t" horiz-adv-x="700" d="M666 12l-39 123q-14 -5 -44 -12.5t-67 -7.5q-41 0 -69.5 11t-46 32t-25.5 51.5t-8 69.5v534h262l-15 117q-3 24 -28 24h-219v236q0 24 -29 24h-80q-2 -65 -19 -116.5t-45 -89.5t-65.5 -62.5t-79.5 -36.5v-73q0 -23 29 -23h117v-577q0 -75 21 -125t57.5 -80t86 -43 t107.5 -13q66 0 118.5 12.5t80.5 24.5z" />
<glyph unicode="u" horiz-adv-x="1118" d="M967 0v930q0 12 -7.5 18t-19.5 6h-170q16 -17 20.5 -46.5t4.5 -55.5v-573q-20 -29 -47.5 -56.5t-62 -49t-75 -35t-86.5 -13.5q-112 0 -159.5 61t-47.5 179v565q0 24 -26 24h-170q15 -17 19.5 -46.5t4.5 -55.5v-526q0 -83 20 -148.5t62.5 -110.5t109 -68.5t159.5 -23.5 q57 0 105.5 14t87.5 35t67.5 44.5t46.5 42.5v-86q0 -25 26 -25h138z" />
<glyph unicode="v" horiz-adv-x="942" d="M942 954h-162q-26 0 -32 -7.5t-13 -28.5l-260 -750l-260 750q-4 10 -6.5 17t-6.5 11.5t-11.5 6t-20.5 1.5h-170q17 -12 33 -39.5t28 -62.5l297 -823q7 -16 14.5 -22.5t22.5 -6.5h174l312 852q12 35 28 62.5t33 39.5z" />
<glyph unicode="w" horiz-adv-x="1440" d="M1440 954h-158q-26 0 -32.5 -7.5t-12.5 -28.5l-205 -756l-211 739q-8 29 -37 29h-139l-229 -768l-197 756q-6 21 -12.5 28.5t-32.5 7.5h-174q17 -12 33.5 -39.5t27.5 -62.5l246 -823q8 -29 37 -29h166l209 702l199 -673q8 -29 36 -29h168l256 852q11 35 28 62.5t34 39.5z " />
<glyph unicode="x" horiz-adv-x="862" d="M834 954h-158q-20 0 -25.5 -3t-11.5 -11l-203 -305l-190 305q-5 8 -12.5 11t-24.5 3h-178q8 -4 15.5 -10t13.5 -12.5t10 -12t6 -8.5l262 -413l-309 -451q-13 -17 -13 -31q0 -16 23 -16h137l244 375l205 -340q9 -16 21.5 -25.5t41.5 -9.5h143l-313 512l277 403 q6 10 16 20.5t23 18.5z" />
<glyph unicode="y" horiz-adv-x="963" d="M963 954h-152q-26 0 -34 -8.5t-15 -27.5l-254 -660l-287 660q-5 10 -7.5 16.5t-7 11t-12 6.5t-20.5 2h-170q17 -12 31.5 -40t30.5 -62l362 -799l-41 -104q-24 -60 -47.5 -98t-50 -59.5t-56.5 -29.5t-67 -8q-20 0 -39 4.5t-34.5 10.5t-27.5 12t-18 10l-47 -135 q26 -14 70 -28.5t112 -14.5q72 0 126.5 18t96 54t73 90.5t59.5 126.5l366 948q14 37 27.5 64.5t32.5 39.5z" />
<glyph unicode="z" horiz-adv-x="926" d="M838 0v166q-17 -12 -43.5 -18.5t-49.5 -6.5h-458l544 719v70q0 24 -26 24h-703v-116q0 -13 7.5 -19t19.5 -6h481l-542 -719v-69q0 -25 26 -25h744z" />
<glyph unicode="{" horiz-adv-x="731" d="M676 -287v123q0 23 -29 23h-74q-42 0 -70 11t-45.5 35.5t-24.5 63.5t-7 94v181q0 144 -39 218t-127 97q88 23 127 97t39 218v181q0 55 7 94t24.5 63.5t45.5 36t70 11.5h103v122q0 23 -29 23h-67q-107 0 -172 -29t-100.5 -78.5t-47.5 -114t-12 -134.5v-238 q0 -42 -12.5 -74.5t-34.5 -54.5t-52 -33.5t-65 -11.5h-29v-133q0 -23 29 -23q35 0 65 -11.5t52 -33.5t34.5 -54.5t12.5 -74.5v-237q0 -71 12 -135.5t47.5 -114t100.5 -78.5t172 -29h96z" />
<glyph unicode="|" horiz-adv-x="573" d="M373 0v1405h-172v-1405h172z" />
<glyph unicode="}" horiz-adv-x="731" d="M676 481v133q0 23 -29 23q-35 0 -65 11.5t-52 33.5t-34.5 54.5t-12.5 74.5v238q0 70 -12 134.5t-47 114t-100.5 78.5t-171.5 29h-97v-123q0 -22 29 -22h74q42 0 70 -11.5t45.5 -36t24.5 -63.5t7 -94v-181q0 -144 39 -218t127 -97q-83 -23 -124.5 -97t-41.5 -218v-181 q0 -55 -7 -94t-24.5 -63.5t-45.5 -35.5t-70 -11h-103v-123q0 -23 29 -23h68q106 0 171.5 29t100.5 78.5t47 114t12 135.5v237q0 42 12.5 74.5t34.5 54.5t52 33.5t65 11.5h29z" />
<glyph unicode="~" horiz-adv-x="1227" d="M1157 561l-123 76q-21 -37 -42 -64.5t-44 -46t-49.5 -28t-58.5 -9.5q-50 0 -106.5 29t-112.5 66q-57 37 -115 59.5t-121 22.5q-44 0 -88 -17.5t-85 -51t-78.5 -81.5t-67.5 -108l122 -76q22 37 43 64.5t44 46t49.5 27.5t58.5 9q51 0 106.5 -28.5t112.5 -65.5t115 -59.5 t121 -22.5q88 0 172.5 68t146.5 190z" />
<glyph unicode="&#xa1;" horiz-adv-x="504" d="M383 1290q0 25 -8.5 48t-25 41t-41 29t-56.5 11t-56.5 -11t-41 -29t-25 -41t-8.5 -48q0 -26 8.5 -50t25.5 -42.5t41 -29.5t56 -11q31 0 55.5 11t41.5 29.5t25.5 42.5t8.5 50zM369 0q-11 17 -17 45.5t-6 63.5l-14 841q0 25 -27 25h-133l-12 -950q0 -25 26 -25h183z" />
<glyph unicode="&#xa2;" horiz-adv-x="930" d="M856 246l-43 145q-32 -14 -83.5 -30.5t-133.5 -18.5v694q70 -5 126.5 -25.5t88.5 -41.5l-16 145q-2 16 -8.5 25.5t-24.5 15.5q-23 9 -62 18t-104 11v168h-115v-174q-95 -15 -166 -58.5t-119 -108t-72 -146.5t-24 -173q0 -123 31 -211t83.5 -147.5t121.5 -92t145 -42.5 v-199h115v193q85 3 148.5 18t111.5 35zM481 356q-93 28 -145.5 108.5t-52.5 217.5q0 71 14.5 128t41 99.5t62.5 70.5t80 42v-666z" />
<glyph unicode="&#xa3;" horiz-adv-x="1073" d="M1042 1184l-16 151q-2 16 -8 25.5t-25 15.5q-24 10 -70.5 19.5t-127.5 9.5q-101 0 -177.5 -28t-132.5 -81.5t-93.5 -131t-59.5 -177.5l-43 -192h-160v-117q0 -25 27 -25h102l-108 -499h-111v-129q0 -25 27 -25h909v178q-17 -12 -43 -18t-49 -6h-555l108 499h395l-14 117 q-3 25 -29 25h-321l39 176q13 57 34.5 108t56 89.5t85.5 60.5t123 22q39 0 74.5 -6.5t65.5 -16t54.5 -21.5t42.5 -23z" />
<glyph unicode="&#xa4;" horiz-adv-x="1217" d="M1151 248l-150 151q45 62 70 135.5t25 153.5q0 84 -25 156.5t-72 132.5l152 151l-102 103l-150 -150q-63 45 -136.5 70t-154.5 25t-155 -25t-134 -72l-151 152l-102 -103l151 -149q-46 -62 -71 -135.5t-25 -155.5q0 -81 25 -155t71 -134l-151 -151l102 -103l151 152 q62 -46 135.5 -71t153.5 -25q84 0 156.5 25t132.5 71l152 -152zM938 688q0 -70 -26.5 -132t-71.5 -108.5t-105 -74t-127 -27.5t-126.5 27.5t-104.5 74t-71.5 108.5t-26.5 132t26.5 132t71.5 108.5t104.5 74t126.5 27.5t127 -27.5t105 -74t71.5 -108.5t26.5 -132z" />
<glyph unicode="&#xa5;" horiz-adv-x="1096" d="M1094 1380h-168q-23 0 -29 -5.5t-12 -14.5l-338 -551l-322 551q-5 9 -11.5 14.5t-29.5 5.5h-182q14 -9 24 -24.5t15 -24.5l336 -571h-289v-101q0 -22 29 -22h327v-172h-356v-100q0 -23 29 -23h327v-317q0 -13 7.5 -19t19.5 -6h152v342h356v100q0 23 -29 23h-327v172h356 v100q0 23 -29 23h-256l361 573q6 10 15.5 24t23.5 23z" />
<glyph unicode="&#xa6;" horiz-adv-x="573" d="M373 936v469h-172v-469h172zM373 0v469h-172v-469h172z" />
<glyph unicode="&#xa7;" horiz-adv-x="1026" d="M895 682q0 70 -24 115t-64.5 74t-94.5 46t-114 31l-109 25q-44 10 -81 23t-64 31.5t-42 42.5t-15 56q0 75 61.5 115.5t169.5 40.5q46 0 90.5 -7.5t82.5 -19t67.5 -24.5t46.5 -25l-14 133q-2 16 -8.5 25.5t-24.5 15.5q-25 10 -86.5 24.5t-165.5 14.5q-89 0 -159.5 -21 t-119.5 -59.5t-75.5 -93t-26.5 -121.5q0 -38 7 -72.5t25.5 -65.5t50 -57t79.5 -46q-45 -17 -76.5 -42.5t-51.5 -56.5t-29 -66t-9 -71q0 -54 20 -96t55.5 -73t83 -52.5t101.5 -36.5l125 -33q110 -29 161.5 -70.5t51.5 -111.5q0 -43 -21 -72.5t-56.5 -47.5t-81.5 -26t-97 -8 q-48 0 -95.5 7t-90 18.5t-78 25.5t-58.5 29l-59 -133q21 -11 57 -27.5t86 -31.5t113.5 -26t138.5 -11q97 0 173.5 22t130 62.5t82 98.5t28.5 130q0 97 -39 156t-121 94q72 34 118 94t46 154zM735 664q0 -38 -14.5 -67t-37 -50t-50.5 -34.5t-55 -20.5q-62 11 -116 23t-94 31 t-63.5 48.5t-23.5 77.5q0 72 55 110t149 47q60 -11 106.5 -24t78.5 -31.5t48.5 -45.5t16.5 -64z" />
<glyph unicode="&#xa8;" horiz-adv-x="1106" d="M885 1180q0 21 -7 40t-21.5 33.5t-37 23.5t-53.5 9t-53.5 -9t-37.5 -23.5t-22.5 -33.5t-7.5 -40q0 -20 7.5 -39t22.5 -33.5t37.5 -23.5t53.5 -9t53.5 9t37 23.5t21.5 33.5t7 39zM461 1180q0 21 -7 40t-21.5 33.5t-37 23.5t-53.5 9t-53.5 -9t-37.5 -23.5t-22.5 -33.5 t-7.5 -40q0 -20 7.5 -39t22.5 -33.5t37.5 -23.5t53.5 -9t53.5 9t37 23.5t21.5 33.5t7 39z" />
<glyph unicode="&#xa9;" horiz-adv-x="1712" d="M1591 702q0 101 -26 195t-74 176t-115 149t-149 115t-175.5 74.5t-195.5 26.5q-101 0 -195 -26.5t-175.5 -74.5t-149 -115t-115 -149t-74 -176t-26.5 -195t26.5 -195t74 -175.5t115 -149t149 -115t175.5 -74t195 -26.5t195 26.5t176 74t149 115t115 149t74 175.5t26 195z M1440 702q0 -120 -46 -226.5t-125.5 -185.5t-185.5 -125t-227 -46q-120 0 -226.5 46t-186 125t-125.5 185.5t-46 226.5q0 121 46 227t125.5 185.5t186 125.5t226.5 46q121 0 227 -46t185.5 -125.5t125.5 -185.5t46 -227zM1124 352l-41 121q-18 -6 -40 -12.5t-47.5 -12 t-53 -9t-55.5 -3.5q-47 0 -90.5 14.5t-76.5 46t-53 80.5t-20 117q0 76 18.5 129t50.5 86.5t74 48.5t89 15q49 0 98.5 -16.5t109.5 -45.5l-18 125q-2 16 -9 25.5t-26 15.5q-12 5 -54.5 15t-105.5 10q-94 0 -165.5 -32t-119.5 -86.5t-72.5 -126.5t-24.5 -152q0 -94 26 -168.5 t76 -126.5t122.5 -79.5t166.5 -27.5q68 0 130 14t111 35z" />
<glyph unicode="&#xaa;" horiz-adv-x="850" d="M735 631v504q0 61 -17 111t-57.5 85t-107 54.5t-164.5 19.5q-39 0 -75.5 -5t-66 -12t-51 -13.5t-30.5 -10.5q-16 -8 -22.5 -17t-6.5 -18q0 -6 1 -12t3 -12l25 -74q9 6 28 14.5t46 16t60 13t69 5.5q57 0 96.5 -8t64 -27t35 -50t10.5 -77v-24q-37 6 -82.5 11t-113.5 5 q-70 0 -126.5 -17t-96.5 -49.5t-62 -79.5t-22 -108q0 -54 17 -99t49.5 -77.5t79.5 -51t106 -18.5q61 0 104 10t72.5 24.5t47.5 30.5t30 27v-53q0 -18 22 -18h135zM575 821q-9 -11 -25.5 -26.5t-40.5 -29.5t-56 -24t-72 -10q-34 0 -61.5 7t-47 22.5t-30.5 40t-11 59.5 q0 71 44 103t135 32q20 0 42.5 -1.5t45 -4.5t42.5 -6t35 -6v-156z" />
<glyph unicode="&#xab;" horiz-adv-x="999" d="M928 184l-273 336l273 336h-209l-273 -336l273 -336h209zM553 184l-272 336l272 336h-209l-272 -336l272 -336h209z" />
<glyph unicode="&#xac;" d="M1012 410v542q0 23 -29 23h-911v-133q0 -23 28 -23h756v-381q0 -28 23 -28h133z" />
<glyph unicode="&#xad;" d="M1016 614v134q0 22 -29 22h-911v-133q0 -23 28 -23h912z" />
<glyph unicode="&#xae;" horiz-adv-x="1712" d="M1591 702q0 101 -26 195t-74 176t-115 149t-149 115t-175.5 74.5t-195.5 26.5q-101 0 -195 -26.5t-175.5 -74.5t-149 -115t-115 -149t-74 -176t-26.5 -195t26.5 -195t74 -175.5t115 -149t149 -115t175.5 -74t195 -26.5t195 26.5t176 74t149 115t115 149t74 175.5t26 195z M1440 702q0 -120 -46 -226.5t-125.5 -185.5t-185.5 -125t-227 -46q-120 0 -226.5 46t-186 125t-125.5 185.5t-46 226.5q0 121 46 227t125.5 185.5t186 125.5t226.5 46q121 0 227 -46t185.5 -125.5t125.5 -185.5t46 -227zM1225 315l-215 344q35 19 58.5 43.5t37 52t19 57 t5.5 58.5q0 53 -21 98t-58 72q-29 22 -74.5 36t-114.5 14h-307q25 -42 25 -107v-643q0 -25 28 -25h111v312h149l162 -283q8 -14 18 -21.5t27 -7.5h150zM983 862q0 -121 -137 -121h-127v232h135q27 0 50.5 -5.5t41 -18t27.5 -34t10 -53.5z" />
<glyph unicode="&#xaf;" horiz-adv-x="1106" d="M877 1104v158h-646v-158h646z" />
<glyph unicode="&#xb0;" horiz-adv-x="1024" d="M872 1044q0 75 -28 141t-76.5 115t-114.5 77t-141 28t-141 -28t-114.5 -77t-76.5 -115t-28 -141t28 -140.5t76.5 -114.5t114.5 -77t141 -28t141 28t114.5 77t76.5 114.5t28 140.5zM711 1044q0 -43 -16 -81t-43 -66.5t-63 -45.5t-77 -17t-77 17t-63 45.5t-43 66.5t-16 81 t16 81.5t43 67t63 45.5t77 17t77 -17t63 -45.5t43 -67t16 -81.5z" />
<glyph unicode="&#xb1;" d="M1016 672v133q0 22 -29 22h-360v408q0 29 -23 29h-137v-437h-391v-133q0 -22 28 -22h363v-414q0 -29 22 -29h138v443h389zM1016 0v133q0 23 -29 23h-911v-133q0 -23 28 -23h912z" />
<glyph unicode="&#xb2;" horiz-adv-x="905" d="M737 586v133q-11 -6 -29.5 -10t-35.5 -4h-318l144 124q57 50 99 93t69.5 84t41 83t13.5 91q0 51 -19 92.5t-55 71t-88 45.5t-117 16q-58 0 -103.5 -11t-79.5 -27.5t-58.5 -36t-40.5 -36.5q-8 -9 -11 -16.5t5 -15.5l77 -76q32 40 79 68t110 28q69 0 105 -31t36 -90 q0 -24 -6.5 -49.5t-27.5 -58t-59 -75t-101 -99.5l-222 -203v-76q0 -8 6 -11t15 -3h571z" />
<glyph unicode="&#xb3;" horiz-adv-x="905" d="M729 838q0 57 -21 100t-61 74q-25 18 -71 36t-117 23l233 213v90q0 8 -5 11.5t-11 3.5h-522v-103q0 -14 20 -14h352l-225 -195v-82q0 -8 4 -12q3 -6 21 -6q38 0 72.5 -4t60.5 -10q54 -13 83 -42.5t29 -86.5q0 -37 -15 -64t-41.5 -45t-63.5 -26.5t-80 -8.5q-26 0 -53 3.5 t-53.5 10t-51 14.5t-43.5 17l-41 -117q37 -15 97.5 -32t154.5 -17q64 0 126 15t111.5 47.5t80 83.5t30.5 123z" />
<glyph unicode="&#xb4;" horiz-adv-x="1106" d="M764 1395h-203q-22 0 -29 -7t-16 -22l-186 -291h123q15 0 29.5 5.5t31.5 25.5l199 237q11 14 25 28t26 24z" />
<glyph unicode="&#xb5;" horiz-adv-x="1118" d="M967 0v930q0 12 -7.5 18t-19.5 6h-170q16 -17 20.5 -46.5t4.5 -55.5v-573q-20 -29 -47.5 -56.5t-62 -49t-75 -35t-86.5 -13.5q-112 0 -159.5 61t-47.5 179v565q0 24 -26 24h-170q15 -17 19.5 -46.5t4.5 -55.5v-1204q0 -13 7.5 -19t19.5 -6h145v430q11 -15 29 -29 t44.5 -25t60.5 -17.5t77 -6.5q52 0 95.5 14t78.5 35t60.5 44.5t40.5 42.5v-86q0 -25 26 -25h138z" />
<glyph unicode="&#xb6;" horiz-adv-x="1184" d="M1036 1405h-473q-113 0 -205.5 -35t-158.5 -100t-102 -157t-36 -206q0 -94 27 -176t78.5 -145t126.5 -103t172 -49v-786q0 -25 27 -25h120v1643h254v-1618q0 -13 7.5 -19t19.5 -6h121v1673q0 34 5.5 63t16.5 46z" />
<glyph unicode="&#xb7;" horiz-adv-x="502" d="M381 688q0 26 -8.5 50t-25.5 42.5t-41.5 29.5t-55.5 11q-32 0 -56 -11t-41 -29.5t-25.5 -42.5t-8.5 -50q0 -24 8.5 -47.5t25 -41.5t41 -29t56.5 -11t56.5 11t41 29t25 41.5t8.5 47.5z" />
<glyph unicode="&#xb8;" horiz-adv-x="1106" d="M733 -96h-188q-22 0 -29.5 -6.5t-15.5 -22.5l-115 -221q-5 -9 -7.5 -15t-2.5 -12q0 -14 18 -14h117l178 240q11 14 22.5 27.5t22.5 23.5z" />
<glyph unicode="&#xb9;" horiz-adv-x="905" d="M547 586v788q0 15 -17 15h-102l-252 -213l68 -84q5 -2 7.5 -4.5t8.5 -2.5q8 0 14 7l125 104v-596q0 -14 19 -14h129z" />
<glyph unicode="&#xba;" horiz-adv-x="877" d="M809 1020q0 98 -27.5 172.5t-76.5 124.5t-117.5 75t-149.5 25t-149 -25t-117 -75t-76.5 -124.5t-27.5 -172.5q0 -90 27.5 -163.5t77 -125t117 -80t148.5 -28.5t149 28t117.5 79.5t77 125t27.5 164.5zM639 1020q0 -57 -11.5 -107t-36.5 -87.5t-63 -59t-90 -21.5 q-51 0 -89 21.5t-62.5 59t-36.5 87.5t-12 107q0 58 12.5 108t37 87t62 58t88.5 21t89 -21t63 -58t37 -87t12 -108z" />
<glyph unicode="&#xbb;" horiz-adv-x="999" d="M928 520l-273 336h-209l273 -336l-273 -336h209zM553 520l-272 336h-209l272 -336l-272 -336h209z" />
<glyph unicode="&#xbc;" horiz-adv-x="1942" d="M1724 170l-6 98q-3 8 -7 11.5t-15 3.5h-72v497q0 15 -20 15h-140l-387 -494v-117q0 -14 21 -14h385v-164q0 -14 18 -14h123v178h100zM1331 1386q0 8 -4.5 13.5t-19.5 5.5h-125l-723 -1374q-5 -10 -10 -20.5t-5 -16.5q0 -8 7 -13.5t18 -5.5h127l723 1377q5 8 8.5 18.5 t3.5 15.5zM506 586v788q0 15 -17 15h-102l-252 -213l68 -84q5 -2 7.5 -4.5t8.5 -2.5q8 0 14 7l125 104v-596q0 -14 19 -14h129zM1483 283h-281l281 366v-366z" />
<glyph unicode="&#xbd;" horiz-adv-x="1942" d="M1704 -8v133q-11 -6 -30 -10t-36 -4h-317l143 125q58 50 100 92.5t69.5 83.5t41 83t13.5 91q0 51 -19 92.5t-55 71t-88 45.5t-117 16q-59 0 -104 -11t-79.5 -27.5t-59 -36t-40.5 -36.5q-8 -9 -11 -16.5t5 -15.5l78 -76q32 40 78.5 68t109.5 28q70 0 106 -31t36 -90 q0 -24 -7 -49.5t-27.5 -58t-59 -75t-101.5 -99.5l-221 -203v-76q0 -14 21 -14h571zM1311 1386q0 8 -4.5 13.5t-20.5 5.5h-125l-723 -1374q-5 -10 -9.5 -20.5t-4.5 -16.5q0 -8 7 -13.5t18 -5.5h126l723 1377q5 8 9 18.5t4 15.5zM485 586v788q0 15 -16 15h-102l-252 -213 l67 -84q5 -2 7.5 -4.5t9.5 -2.5q8 0 14 7l125 104v-596q0 -14 18 -14h129z" />
<glyph unicode="&#xbe;" horiz-adv-x="1942" d="M1796 170l-6 98q-3 8 -7.5 11.5t-15.5 3.5h-71v497q0 15 -21 15h-139l-387 -494v-117q0 -14 20 -14h385v-164q0 -14 19 -14h123v178h100zM1434 1386q0 8 -4.5 13.5t-20.5 5.5h-125l-723 -1374q-5 -10 -9.5 -20.5t-4.5 -16.5q0 -8 6.5 -13.5t17.5 -5.5h127l723 1377 q5 8 9 18.5t4 15.5zM750 838q0 57 -21 100t-61 74q-25 18 -71.5 36t-117.5 23l234 213v90q0 8 -5 11.5t-12 3.5h-522v-103q0 -14 21 -14h352l-225 -195v-82q0 -8 4 -12q3 -6 20 -6q38 0 72.5 -4t60.5 -10q54 -13 83.5 -42.5t29.5 -86.5q0 -37 -15 -64t-41.5 -45t-63.5 -26.5 t-81 -8.5q-25 0 -52.5 3.5t-54 10t-51 14.5t-43.5 17l-40 -117q37 -15 97 -32t154 -17q64 0 126.5 15t112 47.5t80 83.5t30.5 123zM1554 283h-280l280 366v-366z" />
<glyph unicode="&#xbf;" horiz-adv-x="1081" d="M719 1290q0 25 -8.5 48t-25 41t-41 29t-56.5 11t-56.5 -11t-41 -29t-25 -41t-8.5 -48q0 -26 8.5 -50t25.5 -42.5t41 -29.5t56 -11q31 0 55.5 11t41.5 29.5t25.5 42.5t8.5 50zM963 164q0 10 -9 18l-86 94q-27 -30 -55.5 -57.5t-62.5 -47.5t-74.5 -32t-91.5 -12 q-49 0 -89.5 12t-69 36t-44.5 60.5t-16 86.5q0 41 10.5 74.5t28 62t40.5 53.5t48 49q32 31 64.5 62.5t58 67.5t41.5 77.5t16 91.5v107q0 24 -27 24h-141v-82q0 -41 -12.5 -75.5t-33 -64.5t-46.5 -57t-54 -55q-32 -33 -64 -68t-57.5 -77t-41 -93t-15.5 -116q0 -79 28 -140 t79 -103t122 -63.5t158 -21.5q72 0 131.5 15.5t107 39.5t83.5 54t63 59q5 5 8 10.5t3 10.5z" />
<glyph unicode="&#xc0;" horiz-adv-x="1186" d="M1186 0l-477 1386q-3 11 -11 15t-20 4h-240q10 -11 12.5 -27.5t2.5 -31.5q0 -9 -3 -25t-7.5 -35t-10.5 -38.5t-12 -37.5l-414 -1169q-3 -9 -4.5 -14.5t-1.5 -10.5q0 -6 5 -11t18 -5h135l135 395h569l115 -360q6 -19 15.5 -27t29.5 -8h164zM815 545h-471l246 708z M667 1536l-186 291q-10 15 -17 22t-28 7h-203q12 -10 26 -24t25 -28l199 -237q17 -20 31.5 -25.5t29.5 -5.5h123z" />
<glyph unicode="&#xc1;" horiz-adv-x="1186" d="M1186 0l-477 1386q-3 11 -11 15t-20 4h-240q10 -11 12.5 -27.5t2.5 -31.5q0 -9 -3 -25t-7.5 -35t-10.5 -38.5t-12 -37.5l-414 -1169q-3 -9 -4.5 -14.5t-1.5 -10.5q0 -6 5 -11t18 -5h135l135 395h569l115 -360q6 -19 15.5 -27t29.5 -8h164zM815 545h-471l246 708z M928 1856h-203q-22 0 -29 -7t-16 -22l-186 -291h123q15 0 29.5 5.5t31.5 25.5l199 237q11 14 25 28t26 24z" />
<glyph unicode="&#xc2;" horiz-adv-x="1186" d="M1186 0l-477 1386q-3 11 -11 15t-20 4h-240q10 -11 12.5 -27.5t2.5 -31.5q0 -9 -3 -25t-7.5 -35t-10.5 -38.5t-12 -37.5l-414 -1169q-3 -9 -4.5 -14.5t-1.5 -10.5q0 -6 5 -11t18 -5h135l135 395h569l115 -360q6 -19 15.5 -27t29.5 -8h164zM815 545h-471l246 708z M934 1536l-201 291q-5 7 -8.5 12.5t-8 9.5t-11 5.5t-17.5 1.5h-199l-209 -285q-3 -5 -5.5 -9t-2.5 -9q0 -17 19 -17h125l180 211l153 -180q17 -19 31.5 -25t30.5 -6h123z" />
<glyph unicode="&#xc3;" horiz-adv-x="1186" d="M1186 0l-477 1386q-3 11 -11 15t-20 4h-240q10 -11 12.5 -27.5t2.5 -31.5q0 -9 -3 -25t-7.5 -35t-10.5 -38.5t-12 -37.5l-414 -1169q-3 -9 -4.5 -14.5t-1.5 -10.5q0 -6 5 -11t18 -5h135l135 395h569l115 -360q6 -19 15.5 -27t29.5 -8h164zM815 545h-471l246 708z M929 1749l-100 60q-8 -20 -17 -38.5t-20.5 -32.5t-27.5 -22t-37 -8q-40 0 -129 62q-20 14 -38 24.5t-36 17t-37 10t-41 3.5q-62 0 -121 -45.5t-96 -128.5l94 -66q14 23 26 41.5t25.5 31t28.5 19.5t35 7t53 -17.5t70 -42.5q42 -28 81.5 -41.5t67.5 -13.5q33 0 63 9t57 30 t51.5 55.5t47.5 85.5z" />
<glyph unicode="&#xc4;" horiz-adv-x="1186" d="M1186 0l-477 1386q-3 11 -11 15t-20 4h-240q10 -11 12.5 -27.5t2.5 -31.5q0 -9 -3 -25t-7.5 -35t-10.5 -38.5t-12 -37.5l-414 -1169q-3 -9 -4.5 -14.5t-1.5 -10.5q0 -6 5 -11t18 -5h135l135 395h569l115 -360q6 -19 15.5 -27t29.5 -8h164zM815 545h-471l246 708z M905 1641q0 21 -7 40t-21.5 33.5t-37 23.5t-53.5 9t-53.5 -9t-37.5 -23.5t-22.5 -33.5t-7.5 -40q0 -20 7.5 -39t22.5 -33.5t37.5 -23.5t53.5 -9t53.5 9t37 23.5t21.5 33.5t7 39zM481 1641q0 21 -7 40t-21.5 33.5t-37 23.5t-53.5 9t-53.5 -9t-37.5 -23.5t-22.5 -33.5 t-7.5 -40q0 -20 7.5 -39t22.5 -33.5t37.5 -23.5t53.5 -9t53.5 9t37 23.5t21.5 33.5t7 39z" />
<glyph unicode="&#xc5;" horiz-adv-x="1186" d="M1186 0l-461 1341q45 31 71.5 79.5t26.5 107.5q0 47 -17.5 88t-48.5 71.5t-73 48t-90 17.5t-90 -17.5t-73 -48t-48.5 -71.5t-17.5 -88q0 -59 27 -108.5t75 -80.5l-461 -1298q-3 -9 -4.5 -14.5t-1.5 -10.5q0 -6 5 -11t18 -5h135l135 395h569l115 -360q6 -19 15.5 -27 t29.5 -8h164zM715 1528q0 -25 -9.5 -47t-25.5 -39t-38.5 -27t-47.5 -10q-26 0 -48 10t-38 27t-25.5 39t-9.5 47q0 24 9.5 46.5t25.5 39.5t38 27t48 10q25 0 47.5 -10t38.5 -27t25.5 -39.5t9.5 -46.5zM815 545h-471l246 708z" />
<glyph unicode="&#xc6;" horiz-adv-x="1927" d="M1839 0v180q-14 -9 -38.5 -15.5t-55.5 -6.5h-569v497h481q31 0 55.5 -6.5t38.5 -15.5v180h-575v434h532q31 0 58.5 -5.5t41.5 -16.5l-20 155q-3 25 -29 25h-948q16 -22 16 -70q0 -32 -14.5 -63t-34.5 -62l-766 -1163q-8 -11 -10 -16.5t-2 -12.5q0 -6 5 -12t18 -6h137 l266 395h567v-370q0 -13 7.5 -19t19.5 -6h819zM993 545h-467l467 696v-696z" />
<glyph unicode="&#xc7;" horiz-adv-x="1229" d="M1184 49l-49 160q-62 -25 -146 -46.5t-190 -21.5q-95 0 -182.5 32.5t-154 99.5t-106 170.5t-39.5 244.5q0 153 37 262.5t100.5 180t148.5 104t181 33.5q49 0 95.5 -8.5t88 -21.5t77.5 -29t65 -31l-20 165q-2 16 -7 22.5t-22 14.5q-12 6 -37 14.5t-61.5 16.5t-83.5 13.5 t-103 5.5q-161 0 -283 -57.5t-205 -156t-125 -230.5t-42 -281q0 -172 44.5 -307.5t130 -229.5t210 -143.5t285.5 -49.5q60 0 117 6.5t108 17t93.5 24t74.5 26.5zM856 -96h-188q-22 0 -29.5 -6.5t-15.5 -22.5l-115 -221q-5 -9 -7.5 -15t-2.5 -12q0 -14 18 -14h117l178 240 q11 14 22.5 27.5t22.5 23.5z" />
<glyph unicode="&#xc8;" horiz-adv-x="1104" d="M1016 0v180q-14 -9 -38.5 -15.5t-55.5 -6.5h-570v497h482q30 0 55 -6.5t39 -15.5v180h-576v434h533q31 0 58.5 -5.5t41.5 -16.5l-20 155q-3 25 -29 25h-789q11 -17 17 -46t6 -63v-1271q0 -25 27 -25h819zM751 1536l-186 291q-10 15 -17 22t-28 7h-203q12 -10 26 -24 t25 -28l199 -237q17 -20 31.5 -25.5t29.5 -5.5h123z" />
<glyph unicode="&#xc9;" horiz-adv-x="1104" d="M1016 0v180q-14 -9 -38.5 -15.5t-55.5 -6.5h-570v497h482q30 0 55 -6.5t39 -15.5v180h-576v434h533q31 0 58.5 -5.5t41.5 -16.5l-20 155q-3 25 -29 25h-789q11 -17 17 -46t6 -63v-1271q0 -25 27 -25h819zM866 1856h-203q-22 0 -29 -7t-16 -22l-186 -291h123 q15 0 29.5 5.5t31.5 25.5l199 237q11 14 25 28t26 24z" />
<glyph unicode="&#xca;" horiz-adv-x="1104" d="M1016 0v180q-14 -9 -38.5 -15.5t-55.5 -6.5h-570v497h482q30 0 55 -6.5t39 -15.5v180h-576v434h533q31 0 58.5 -5.5t41.5 -16.5l-20 155q-3 25 -29 25h-789q11 -17 17 -46t6 -63v-1271q0 -25 27 -25h819zM903 1536l-201 291q-5 7 -8.5 12.5t-8 9.5t-11 5.5t-17.5 1.5 h-199l-209 -285q-3 -5 -5.5 -9t-2.5 -9q0 -17 19 -17h125l180 211l153 -180q17 -19 31.5 -25t30.5 -6h123z" />
<glyph unicode="&#xcb;" horiz-adv-x="1104" d="M1016 0v180q-14 -9 -38.5 -15.5t-55.5 -6.5h-570v497h482q30 0 55 -6.5t39 -15.5v180h-576v434h533q31 0 58.5 -5.5t41.5 -16.5l-20 155q-3 25 -29 25h-789q11 -17 17 -46t6 -63v-1271q0 -25 27 -25h819zM905 1641q0 21 -7 40t-21.5 33.5t-37 23.5t-53.5 9t-53.5 -9 t-37.5 -23.5t-22.5 -33.5t-7.5 -40q0 -20 7.5 -39t22.5 -33.5t37.5 -23.5t53.5 -9t53.5 9t37 23.5t21.5 33.5t7 39zM481 1641q0 21 -7 40t-21.5 33.5t-37 23.5t-53.5 9t-53.5 -9t-37.5 -23.5t-22.5 -33.5t-7.5 -40q0 -20 7.5 -39t22.5 -33.5t37.5 -23.5t53.5 -9t53.5 9 t37 23.5t21.5 33.5t7 39z" />
<glyph unicode="&#xcc;" horiz-adv-x="522" d="M375 1405h-228q11 -17 17 -46t6 -63v-1271q0 -25 27 -25h155v1296q0 34 6 63t17 46zM381 1536l-186 291q-10 15 -17 22t-28 7h-203q12 -10 26 -24t25 -28l199 -237q17 -20 31.5 -25.5t29.5 -5.5h123z" />
<glyph unicode="&#xcd;" horiz-adv-x="522" d="M375 1405h-228q11 -17 17 -46t6 -63v-1271q0 -25 27 -25h155v1296q0 34 6 63t17 46zM583 1856h-203q-22 0 -29 -7t-16 -22l-186 -291h123q15 0 29.5 5.5t31.5 25.5l199 237q11 14 25 28t26 24z" />
<glyph unicode="&#xce;" horiz-adv-x="522" d="M375 1405h-228q11 -17 17 -46t6 -63v-1271q0 -25 27 -25h155v1296q0 34 6 63t17 46zM593 1536l-201 291q-5 7 -8.5 12.5t-8 9.5t-11 5.5t-17.5 1.5h-199l-209 -285q-3 -5 -5.5 -9t-2.5 -9q0 -17 19 -17h125l180 211l153 -180q17 -19 31.5 -25t30.5 -6h123z" />
<glyph unicode="&#xcf;" horiz-adv-x="522" d="M375 1405h-228q11 -17 17 -46t6 -63v-1271q0 -25 27 -25h155v1296q0 34 6 63t17 46zM596 1641q0 21 -7 40t-21.5 33.5t-37 23.5t-53.5 9t-53.5 -9t-37.5 -23.5t-22.5 -33.5t-7.5 -40q0 -20 7.5 -39t22.5 -33.5t37.5 -23.5t53.5 -9t53.5 9t37 23.5t21.5 33.5t7 39z M172 1641q0 21 -7 40t-21.5 33.5t-37 23.5t-53.5 9t-53.5 -9t-37.5 -23.5t-22.5 -33.5t-7.5 -40q0 -20 7.5 -39t22.5 -33.5t37.5 -23.5t53.5 -9t53.5 9t37 23.5t21.5 33.5t7 39z" />
<glyph unicode="&#xd0;" horiz-adv-x="1415" d="M1294 702q0 151 -43.5 279.5t-125.5 222.5t-200 147.5t-266 53.5h-512q11 -17 17 -46t6 -63v-508h-150v-124q0 -13 7.5 -19t19.5 -6h123v-614q0 -25 27 -25h462q148 0 266 53.5t200 147.5t125.5 222.5t43.5 278.5zM1098 702q0 -131 -33.5 -232t-92 -170t-137.5 -104.5 t-171 -35.5h-312v479h258v149h-258v457h312q92 0 171 -36t137.5 -105t92 -170t33.5 -232z" />
<glyph unicode="&#xd1;" horiz-adv-x="1374" d="M1227 1405h-172q-27 0 -27 -25v-1020l-590 1016q-9 16 -20.5 22.5t-30.5 6.5h-240q11 -17 17 -46t6 -63v-1271q0 -25 27 -25h149v1204l688 -1186q10 -15 21.5 -21.5t29.5 -6.5h119v1306q0 34 6 63t17 46zM1052 1749l-100 60q-8 -20 -17 -38.5t-20.5 -32.5t-27.5 -22 t-37 -8q-40 0 -129 62q-20 14 -38 24.5t-36 17t-37 10t-41 3.5q-62 0 -121 -45.5t-96 -128.5l94 -66q14 23 26 41.5t25.5 31t28.5 19.5t35 7t53 -17.5t70 -42.5q42 -28 81.5 -41.5t67.5 -13.5q33 0 63 9t57 30t51.5 55.5t47.5 85.5z" />
<glyph unicode="&#xd2;" horiz-adv-x="1520" d="M1399 702q0 165 -41.5 301t-122.5 232.5t-200.5 149.5t-274.5 53t-274.5 -53t-200.5 -149.5t-122.5 -232.5t-41.5 -301t41.5 -300.5t122.5 -232t200.5 -149.5t274.5 -53t274.5 53t200.5 149.5t122.5 232t41.5 300.5zM1202 702q0 -138 -31.5 -246t-89 -182.5 t-139.5 -113.5t-182 -39q-101 0 -182.5 39t-139.5 113.5t-89.5 182.5t-31.5 246q0 139 31.5 247.5t89.5 182.5t139.5 113t182.5 39q100 0 182 -39t139.5 -113t89 -182.5t31.5 -247.5zM893 1536l-186 291q-10 15 -17 22t-28 7h-203q12 -10 26 -24t25 -28l199 -237 q17 -20 31.5 -25.5t29.5 -5.5h123z" />
<glyph unicode="&#xd3;" horiz-adv-x="1520" d="M1399 702q0 165 -41.5 301t-122.5 232.5t-200.5 149.5t-274.5 53t-274.5 -53t-200.5 -149.5t-122.5 -232.5t-41.5 -301t41.5 -300.5t122.5 -232t200.5 -149.5t274.5 -53t274.5 53t200.5 149.5t122.5 232t41.5 300.5zM1202 702q0 -138 -31.5 -246t-89 -182.5 t-139.5 -113.5t-182 -39q-101 0 -182.5 39t-139.5 113.5t-89.5 182.5t-31.5 246q0 139 31.5 247.5t89.5 182.5t139.5 113t182.5 39q100 0 182 -39t139.5 -113t89 -182.5t31.5 -247.5zM1051 1856h-203q-22 0 -29 -7t-16 -22l-186 -291h123q15 0 29.5 5.5t31.5 25.5l199 237 q11 14 25 28t26 24z" />
<glyph unicode="&#xd4;" horiz-adv-x="1520" d="M1399 702q0 165 -41.5 301t-122.5 232.5t-200.5 149.5t-274.5 53t-274.5 -53t-200.5 -149.5t-122.5 -232.5t-41.5 -301t41.5 -300.5t122.5 -232t200.5 -149.5t274.5 -53t274.5 53t200.5 149.5t122.5 232t41.5 300.5zM1202 702q0 -138 -31.5 -246t-89 -182.5 t-139.5 -113.5t-182 -39q-101 0 -182.5 39t-139.5 113.5t-89.5 182.5t-31.5 246q0 139 31.5 247.5t89.5 182.5t139.5 113t182.5 39q100 0 182 -39t139.5 -113t89 -182.5t31.5 -247.5zM1108 1536l-201 291q-5 7 -8.5 12.5t-8 9.5t-11 5.5t-17.5 1.5h-199l-209 -285 q-3 -5 -5.5 -9t-2.5 -9q0 -17 19 -17h125l180 211l153 -180q17 -19 31.5 -25t30.5 -6h123z" />
<glyph unicode="&#xd5;" horiz-adv-x="1520" d="M1399 702q0 165 -41.5 301t-122.5 232.5t-200.5 149.5t-274.5 53t-274.5 -53t-200.5 -149.5t-122.5 -232.5t-41.5 -301t41.5 -300.5t122.5 -232t200.5 -149.5t274.5 -53t274.5 53t200.5 149.5t122.5 232t41.5 300.5zM1202 702q0 -138 -31.5 -246t-89 -182.5 t-139.5 -113.5t-182 -39q-101 0 -182.5 39t-139.5 113.5t-89.5 182.5t-31.5 246q0 139 31.5 247.5t89.5 182.5t139.5 113t182.5 39q100 0 182 -39t139.5 -113t89 -182.5t31.5 -247.5zM1114 1749l-100 60q-8 -20 -17 -38.5t-20.5 -32.5t-27.5 -22t-37 -8q-40 0 -129 62 q-20 14 -38 24.5t-36 17t-37 10t-41 3.5q-62 0 -121 -45.5t-96 -128.5l94 -66q14 23 26 41.5t25.5 31t28.5 19.5t35 7t53 -17.5t70 -42.5q42 -28 81.5 -41.5t67.5 -13.5q33 0 63 9t57 30t51.5 55.5t47.5 85.5z" />
<glyph unicode="&#xd6;" horiz-adv-x="1520" d="M1399 702q0 165 -41.5 301t-122.5 232.5t-200.5 149.5t-274.5 53t-274.5 -53t-200.5 -149.5t-122.5 -232.5t-41.5 -301t41.5 -300.5t122.5 -232t200.5 -149.5t274.5 -53t274.5 53t200.5 149.5t122.5 232t41.5 300.5zM1202 702q0 -138 -31.5 -246t-89 -182.5 t-139.5 -113.5t-182 -39q-101 0 -182.5 39t-139.5 113.5t-89.5 182.5t-31.5 246q0 139 31.5 247.5t89.5 182.5t139.5 113t182.5 39q100 0 182 -39t139.5 -113t89 -182.5t31.5 -247.5zM1110 1641q0 21 -7 40t-21.5 33.5t-37 23.5t-53.5 9t-53.5 -9t-37.5 -23.5t-22.5 -33.5 t-7.5 -40q0 -20 7.5 -39t22.5 -33.5t37.5 -23.5t53.5 -9t53.5 9t37 23.5t21.5 33.5t7 39zM686 1641q0 21 -7 40t-21.5 33.5t-37 23.5t-53.5 9t-53.5 -9t-37.5 -23.5t-22.5 -33.5t-7.5 -40q0 -20 7.5 -39t22.5 -33.5t37.5 -23.5t53.5 -9t53.5 9t37 23.5t21.5 33.5t7 39z" />
<glyph unicode="&#xd7;" horiz-adv-x="973" d="M895 367l-305 323l305 324l-90 88q-6 6 -17 6q-8 0 -18 -10l-283 -299l-282 299q-10 10 -19 10q-10 0 -16 -6l-90 -88l305 -324l-305 -323l88 -91q3 -3 7 -5.5t9 -2.5q7 0 11 3t10 10l282 301l283 -301q6 -7 10 -10t11 -3q5 0 9 2.5t7 5.5z" />
<glyph unicode="&#xd8;" horiz-adv-x="1520" d="M1399 702q0 183 -48.5 325.5t-144.5 238.5l133 207l-122 79l-125 -196q-70 40 -153 61t-179 21q-155 0 -274.5 -53t-200.5 -149.5t-122.5 -232.5t-41.5 -301q0 -180 48 -323t144 -240l-131 -207l123 -79l125 196q69 -40 151.5 -61t178.5 -21q155 0 274.5 53t200.5 149.5 t122.5 232t41.5 300.5zM1202 702q0 -138 -31.5 -246t-89 -182.5t-139.5 -113.5t-182 -39q-139 0 -238 72l582 909q48 -74 73 -174.5t25 -225.5zM999 1212l-581 -911q-48 74 -74.5 174.5t-26.5 226.5q0 139 31.5 247.5t89.5 182.5t139.5 113t182.5 39q141 0 239 -72z" />
<glyph unicode="&#xd9;" horiz-adv-x="1354" d="M1217 1405h-179q-26 0 -26 -25v-891q0 -178 -80 -270t-256 -92q-88 0 -151 23t-103.5 69t-60 113.5t-19.5 156.5v891q0 25 -27 25h-178q11 -17 17 -46t6 -63v-852q0 -104 25.5 -191.5t85.5 -151t159 -99t246 -35.5t246.5 35.5t160 99t86 151t25.5 191.5v852q0 34 6 63 t17 46zM790 1536l-186 291q-10 15 -17 22t-28 7h-203q12 -10 26 -24t25 -28l199 -237q17 -20 31.5 -25.5t29.5 -5.5h123z" />
<glyph unicode="&#xda;" horiz-adv-x="1354" d="M1217 1405h-179q-26 0 -26 -25v-891q0 -178 -80 -270t-256 -92q-88 0 -151 23t-103.5 69t-60 113.5t-19.5 156.5v891q0 25 -27 25h-178q11 -17 17 -46t6 -63v-852q0 -104 25.5 -191.5t85.5 -151t159 -99t246 -35.5t246.5 35.5t160 99t86 151t25.5 191.5v852q0 34 6 63 t17 46zM1010 1856h-203q-22 0 -29 -7t-16 -22l-186 -291h123q15 0 29.5 5.5t31.5 25.5l199 237q11 14 25 28t26 24z" />
<glyph unicode="&#xdb;" horiz-adv-x="1354" d="M1217 1405h-179q-26 0 -26 -25v-891q0 -178 -80 -270t-256 -92q-88 0 -151 23t-103.5 69t-60 113.5t-19.5 156.5v891q0 25 -27 25h-178q11 -17 17 -46t6 -63v-852q0 -104 25.5 -191.5t85.5 -151t159 -99t246 -35.5t246.5 35.5t160 99t86 151t25.5 191.5v852q0 34 6 63 t17 46zM1010 1536l-201 291q-5 7 -8.5 12.5t-8 9.5t-11 5.5t-17.5 1.5h-199l-209 -285q-3 -5 -5.5 -9t-2.5 -9q0 -17 19 -17h125l180 211l153 -180q17 -19 31.5 -25t30.5 -6h123z" />
<glyph unicode="&#xdc;" horiz-adv-x="1354" d="M1217 1405h-179q-26 0 -26 -25v-891q0 -178 -80 -270t-256 -92q-88 0 -151 23t-103.5 69t-60 113.5t-19.5 156.5v891q0 25 -27 25h-178q11 -17 17 -46t6 -63v-852q0 -104 25.5 -191.5t85.5 -151t159 -99t246 -35.5t246.5 35.5t160 99t86 151t25.5 191.5v852q0 34 6 63 t17 46zM1008 1641q0 21 -7 40t-21.5 33.5t-37 23.5t-53.5 9t-53.5 -9t-37.5 -23.5t-22.5 -33.5t-7.5 -40q0 -20 7.5 -39t22.5 -33.5t37.5 -23.5t53.5 -9t53.5 9t37 23.5t21.5 33.5t7 39zM584 1641q0 21 -7 40t-21.5 33.5t-37 23.5t-53.5 9t-53.5 -9t-37.5 -23.5t-22.5 -33.5 t-7.5 -40q0 -20 7.5 -39t22.5 -33.5t37.5 -23.5t53.5 -9t53.5 9t37 23.5t21.5 33.5t7 39z" />
<glyph unicode="&#xdd;" horiz-adv-x="1096" d="M1096 1405h-170q-23 0 -29 -5.5t-12 -15.5l-338 -563l-322 563q-5 10 -11.5 15.5t-29.5 5.5h-184q14 -9 24 -24.5t15 -24.5l403 -707v-624q0 -13 7.5 -19t19.5 -6h156v651l432 707q6 9 15.5 23.5t23.5 23.5zM877 1856h-203q-22 0 -29 -7t-16 -22l-186 -291h123 q15 0 29.5 5.5t31.5 25.5l199 237q11 14 25 28t26 24z" />
<glyph unicode="&#xde;" horiz-adv-x="1194" d="M1081 778q0 109 -36.5 182t-98.5 119q-24 18 -54.5 34t-70.5 28t-90.5 19t-114.5 7h-268v213q0 25 -26 25h-175q11 -17 17 -46t6 -63v-1271q0 -25 27 -25h151v350q38 -3 87 -6.5t124 -3.5q76 0 134.5 7.5t104 21t80 32t62.5 41.5q32 27 58 60t44.5 74t28.5 91t10 111z M889 760q0 -137 -84 -208t-258 -71q-82 0 -129 3.5t-70 7.5v534h244q58 0 112 -11t95 -40.5t65.5 -81.5t24.5 -133z" />
<glyph unicode="&#xdf;" horiz-adv-x="1169" d="M1069 408q0 82 -24.5 145.5t-64.5 109t-92.5 73t-107.5 38.5q88 50 134.5 131.5t46.5 190.5q0 66 -22 124.5t-67.5 103t-115.5 70t-166 25.5q-95 0 -166 -27t-118 -77t-71 -123t-24 -164v-67l-148 -70v-55q0 -23 29 -23h119v-788q0 -25 27 -25h145v1020q0 75 13 126.5 t39 83t64 45t89 13.5q88 0 139 -50.5t51 -156.5q0 -65 -19.5 -114.5t-55.5 -83t-86.5 -51t-112.5 -17.5v-119q0 -22 28 -22h37q161 0 238.5 -63t77.5 -203q0 -75 -22 -129.5t-60.5 -90.5t-90.5 -53.5t-112 -17.5q-25 0 -41.5 1.5t-32.5 4.5l-16 -137q12 -3 35 -7t55 -4 q108 0 194.5 29.5t147.5 85t94 136t33 182.5z" />
<glyph unicode="&#xe0;" horiz-adv-x="1042" d="M891 0v639q0 76 -19 138.5t-65 107.5t-121.5 69.5t-189.5 24.5q-50 0 -94.5 -6t-80.5 -14.5t-61 -17t-37 -13.5q-20 -10 -31 -20.5t-6 -28.5q-2 -2 1.5 -11.5t5.5 -15.5l30 -82q12 8 35 19t55 21t73 17t89 7q60 0 105.5 -10.5t76.5 -35t46.5 -64t15.5 -97.5v-49 q-48 8 -110.5 14t-125.5 6q-89 0 -159.5 -21t-120 -61t-75.5 -99.5t-26 -135.5q0 -69 20.5 -125t60 -96.5t97 -62.5t132.5 -22q67 0 118.5 13t89 31t62 37.5t39.5 33.5v-65q0 -25 29 -25h141zM719 229q-12 -15 -33.5 -34.5t-52.5 -37t-72 -30t-92 -12.5q-86 0 -138 40.5 t-52 129.5q0 91 55.5 137.5t171.5 46.5q25 0 54 -2t57.5 -5.5t55 -7.5t46.5 -8v-217zM689 1075l-186 291q-10 15 -17 22t-28 7h-203q12 -10 26 -24t25 -28l199 -237q17 -20 31.5 -25.5t29.5 -5.5h123z" />
<glyph unicode="&#xe1;" horiz-adv-x="1042" d="M891 0v639q0 76 -19 138.5t-65 107.5t-121.5 69.5t-189.5 24.5q-50 0 -94.5 -6t-80.5 -14.5t-61 -17t-37 -13.5q-20 -10 -31 -20.5t-6 -28.5q-2 -2 1.5 -11.5t5.5 -15.5l30 -82q12 8 35 19t55 21t73 17t89 7q60 0 105.5 -10.5t76.5 -35t46.5 -64t15.5 -97.5v-49 q-48 8 -110.5 14t-125.5 6q-89 0 -159.5 -21t-120 -61t-75.5 -99.5t-26 -135.5q0 -69 20.5 -125t60 -96.5t97 -62.5t132.5 -22q67 0 118.5 13t89 31t62 37.5t39.5 33.5v-65q0 -25 29 -25h141zM719 229q-12 -15 -33.5 -34.5t-52.5 -37t-72 -30t-92 -12.5q-86 0 -138 40.5 t-52 129.5q0 91 55.5 137.5t171.5 46.5q25 0 54 -2t57.5 -5.5t55 -7.5t46.5 -8v-217zM805 1395h-203q-22 0 -29 -7t-16 -22l-186 -291h123q15 0 29.5 5.5t31.5 25.5l199 237q11 14 25 28t26 24z" />
<glyph unicode="&#xe2;" horiz-adv-x="1042" d="M891 0v639q0 76 -19 138.5t-65 107.5t-121.5 69.5t-189.5 24.5q-50 0 -94.5 -6t-80.5 -14.5t-61 -17t-37 -13.5q-20 -10 -31 -20.5t-6 -28.5q-2 -2 1.5 -11.5t5.5 -15.5l30 -82q12 8 35 19t55 21t73 17t89 7q60 0 105.5 -10.5t76.5 -35t46.5 -64t15.5 -97.5v-49 q-48 8 -110.5 14t-125.5 6q-89 0 -159.5 -21t-120 -61t-75.5 -99.5t-26 -135.5q0 -69 20.5 -125t60 -96.5t97 -62.5t132.5 -22q67 0 118.5 13t89 31t62 37.5t39.5 33.5v-65q0 -25 29 -25h141zM719 229q-12 -15 -33.5 -34.5t-52.5 -37t-72 -30t-92 -12.5q-86 0 -138 40.5 t-52 129.5q0 91 55.5 137.5t171.5 46.5q25 0 54 -2t57.5 -5.5t55 -7.5t46.5 -8v-217zM872 1075l-201 291q-5 7 -8.5 12.5t-8 9.5t-11 5.5t-17.5 1.5h-199l-209 -285q-3 -5 -5.5 -9t-2.5 -9q0 -17 19 -17h125l180 211l153 -180q17 -19 31.5 -25t30.5 -6h123z" />
<glyph unicode="&#xe3;" horiz-adv-x="1042" d="M891 0v639q0 76 -19 138.5t-65 107.5t-121.5 69.5t-189.5 24.5q-50 0 -94.5 -6t-80.5 -14.5t-61 -17t-37 -13.5q-20 -10 -31 -20.5t-6 -28.5q-2 -2 1.5 -11.5t5.5 -15.5l30 -82q12 8 35 19t55 21t73 17t89 7q60 0 105.5 -10.5t76.5 -35t46.5 -64t15.5 -97.5v-49 q-48 8 -110.5 14t-125.5 6q-89 0 -159.5 -21t-120 -61t-75.5 -99.5t-26 -135.5q0 -69 20.5 -125t60 -96.5t97 -62.5t132.5 -22q67 0 118.5 13t89 31t62 37.5t39.5 33.5v-65q0 -25 29 -25h141zM719 229q-12 -15 -33.5 -34.5t-52.5 -37t-72 -30t-92 -12.5q-86 0 -138 40.5 t-52 129.5q0 91 55.5 137.5t171.5 46.5q25 0 54 -2t57.5 -5.5t55 -7.5t46.5 -8v-217zM890 1288l-100 60q-8 -20 -17 -38.5t-20.5 -32.5t-27.5 -22t-37 -8q-40 0 -129 62q-20 14 -38 24.5t-36 17t-37 10t-41 3.5q-62 0 -121 -45.5t-96 -128.5l94 -66q14 23 26 41.5t25.5 31 t28.5 19.5t35 7t53 -17.5t70 -42.5q42 -28 81.5 -41.5t67.5 -13.5q33 0 63 9t57 30t51.5 55.5t47.5 85.5z" />
<glyph unicode="&#xe4;" horiz-adv-x="1042" d="M891 0v639q0 76 -19 138.5t-65 107.5t-121.5 69.5t-189.5 24.5q-50 0 -94.5 -6t-80.5 -14.5t-61 -17t-37 -13.5q-20 -10 -31 -20.5t-6 -28.5q-2 -2 1.5 -11.5t5.5 -15.5l30 -82q12 8 35 19t55 21t73 17t89 7q60 0 105.5 -10.5t76.5 -35t46.5 -64t15.5 -97.5v-49 q-48 8 -110.5 14t-125.5 6q-89 0 -159.5 -21t-120 -61t-75.5 -99.5t-26 -135.5q0 -69 20.5 -125t60 -96.5t97 -62.5t132.5 -22q67 0 118.5 13t89 31t62 37.5t39.5 33.5v-65q0 -25 29 -25h141zM719 229q-12 -15 -33.5 -34.5t-52.5 -37t-72 -30t-92 -12.5q-86 0 -138 40.5 t-52 129.5q0 91 55.5 137.5t171.5 46.5q25 0 54 -2t57.5 -5.5t55 -7.5t46.5 -8v-217zM866 1180q0 21 -7 40t-21.5 33.5t-37 23.5t-53.5 9t-53.5 -9t-37.5 -23.5t-22.5 -33.5t-7.5 -40q0 -20 7.5 -39t22.5 -33.5t37.5 -23.5t53.5 -9t53.5 9t37 23.5t21.5 33.5t7 39zM442 1180 q0 21 -7 40t-21.5 33.5t-37 23.5t-53.5 9t-53.5 -9t-37.5 -23.5t-22.5 -33.5t-7.5 -40q0 -20 7.5 -39t22.5 -33.5t37.5 -23.5t53.5 -9t53.5 9t37 23.5t21.5 33.5t7 39z" />
<glyph unicode="&#xe5;" horiz-adv-x="1042" d="M763 1303q0 46 -17.5 87t-48.5 72t-73 48.5t-90 17.5t-90 -17.5t-73 -48.5t-48.5 -72t-17.5 -87q0 -47 17.5 -88t48.5 -72t73 -48.5t90 -17.5t90 17.5t73 48.5t48.5 72t17.5 88zM655 1303q0 -25 -9.5 -47t-25.5 -39t-38.5 -27t-47.5 -10q-26 0 -48 10t-38 27t-25.5 39 t-9.5 47q0 24 9.5 46.5t25.5 39t38 26.5t48 10q25 0 47.5 -10t38.5 -26.5t25.5 -39t9.5 -46.5zM891 0v639q0 76 -19 138.5t-65 107.5t-121.5 69.5t-189.5 24.5q-50 0 -94.5 -6t-80.5 -14.5t-61 -17t-37 -13.5q-20 -10 -31 -20.5t-6 -28.5q-2 -2 1.5 -11.5t5.5 -15.5l30 -82 q12 8 35 19t55 21t73 17t89 7q60 0 105.5 -10.5t76.5 -35t46.5 -64t15.5 -97.5v-49q-48 8 -110.5 14t-125.5 6q-89 0 -159.5 -21t-120 -61t-75.5 -99.5t-26 -135.5q0 -69 20.5 -125t60 -96.5t97 -62.5t132.5 -22q67 0 118.5 13t89 31t62 37.5t39.5 33.5v-65q0 -25 29 -25 h141zM719 229q-12 -15 -33.5 -34.5t-52.5 -37t-72 -30t-92 -12.5q-86 0 -138 40.5t-52 129.5q0 91 55.5 137.5t171.5 46.5q25 0 54 -2t57.5 -5.5t55 -7.5t46.5 -8v-217z" />
<glyph unicode="&#xe6;" horiz-adv-x="1640" d="M1548 481q0 103 -21.5 194t-69 158.5t-122 106.5t-180.5 39q-108 0 -187 -36t-134 -112q-44 76 -125.5 112t-212.5 36q-50 0 -94.5 -6t-80.5 -14.5t-61 -17t-37 -13.5q-20 -10 -31.5 -20.5t-5.5 -28.5l5.5 -16t12 -36t12.5 -37.5t7 -19.5q12 8 35 19t55 21t73 17t89 7 q60 0 106.5 -10.5t78.5 -35t48.5 -64t16.5 -97.5v-49q-53 8 -116 14t-126 6q-89 0 -159.5 -21t-120 -61t-75.5 -99.5t-26 -135.5q0 -69 21 -125t62.5 -96.5t104 -62.5t146.5 -22q75 0 133 13.5t103.5 36t80 51t60.5 57.5q62 -72 155 -115t230 -43q63 0 113 5.5t88.5 14 t66.5 19t47 19.5l-45 135q-43 -17 -103.5 -30t-143.5 -13q-151 0 -232.5 72.5t-97.5 236.5h600q28 0 42.5 9.5t14.5 37.5zM1370 569h-479q2 56 15.5 106.5t42.5 89t75 61t113 22.5q64 0 107 -21t70 -58t40 -88t16 -112zM752 252q-15 -20 -39 -44t-59 -44.5t-81 -34.5 t-104 -14q-86 0 -138 40.5t-52 129.5q0 91 55.5 137.5t171.5 46.5q48 0 105 -6t104 -14q6 -113 37 -197z" />
<glyph unicode="&#xe7;" horiz-adv-x="930" d="M856 35l-43 145q-16 -7 -37 -15.5t-48.5 -16t-61.5 -12.5t-76 -5q-70 0 -127 20.5t-97 62.5t-61.5 106t-21.5 151q0 89 22.5 155.5t62 110.5t92.5 66t113 22q39 0 74.5 -6.5t66 -16t55 -21.5t42.5 -23l-16 145q-2 16 -8.5 25.5t-24.5 15.5q-25 9 -70 19t-121 10 q-116 0 -204 -38.5t-147.5 -105t-89.5 -156.5t-30 -192q0 -139 39.5 -234t105 -154t149 -85t171.5 -26q96 0 167 15.5t124 37.5zM673 -96h-188q-22 0 -29.5 -6.5t-15.5 -22.5l-115 -221q-5 -9 -7.5 -15t-2.5 -12q0 -14 18 -14h117l178 240q11 14 22.5 27.5t22.5 23.5z" />
<glyph unicode="&#xe8;" horiz-adv-x="1030" d="M938 481q0 103 -22 194t-69 158.5t-121.5 106.5t-180.5 39q-111 0 -194.5 -35.5t-139 -101.5t-83.5 -159t-28 -208q0 -111 31.5 -203t93 -158t153 -102.5t210.5 -36.5q63 0 113 5.5t88.5 14t66.5 19t47 19.5l-45 135q-43 -17 -103.5 -30t-144.5 -13q-150 0 -231.5 72.5 t-97.5 236.5h600q28 0 42.5 9.5t14.5 37.5zM760 569h-479q4 56 18 106.5t42 89t73 61t112 22.5q64 0 107.5 -21t70.5 -58t40 -88t16 -112zM689 1075l-186 291q-10 15 -17 22t-28 7h-203q12 -10 26 -24t25 -28l199 -237q17 -20 31.5 -25.5t29.5 -5.5h123z" />
<glyph unicode="&#xe9;" horiz-adv-x="1030" d="M938 481q0 103 -22 194t-69 158.5t-121.5 106.5t-180.5 39q-111 0 -194.5 -35.5t-139 -101.5t-83.5 -159t-28 -208q0 -111 31.5 -203t93 -158t153 -102.5t210.5 -36.5q63 0 113 5.5t88.5 14t66.5 19t47 19.5l-45 135q-43 -17 -103.5 -30t-144.5 -13q-150 0 -231.5 72.5 t-97.5 236.5h600q28 0 42.5 9.5t14.5 37.5zM760 569h-479q4 56 18 106.5t42 89t73 61t112 22.5q64 0 107.5 -21t70.5 -58t40 -88t16 -112zM866 1395h-203q-22 0 -29 -7t-16 -22l-186 -291h123q15 0 29.5 5.5t31.5 25.5l199 237q11 14 25 28t26 24z" />
<glyph unicode="&#xea;" horiz-adv-x="1030" d="M938 481q0 103 -22 194t-69 158.5t-121.5 106.5t-180.5 39q-111 0 -194.5 -35.5t-139 -101.5t-83.5 -159t-28 -208q0 -111 31.5 -203t93 -158t153 -102.5t210.5 -36.5q63 0 113 5.5t88.5 14t66.5 19t47 19.5l-45 135q-43 -17 -103.5 -30t-144.5 -13q-150 0 -231.5 72.5 t-97.5 236.5h600q28 0 42.5 9.5t14.5 37.5zM760 569h-479q4 56 18 106.5t42 89t73 61t112 22.5q64 0 107.5 -21t70.5 -58t40 -88t16 -112zM864 1075l-201 291q-5 7 -8.5 12.5t-8 9.5t-11 5.5t-17.5 1.5h-199l-209 -285q-3 -5 -5.5 -9t-2.5 -9q0 -17 19 -17h125l180 211 l153 -180q17 -19 31.5 -25t30.5 -6h123z" />
<glyph unicode="&#xeb;" horiz-adv-x="1030" d="M938 481q0 103 -22 194t-69 158.5t-121.5 106.5t-180.5 39q-111 0 -194.5 -35.5t-139 -101.5t-83.5 -159t-28 -208q0 -111 31.5 -203t93 -158t153 -102.5t210.5 -36.5q63 0 113 5.5t88.5 14t66.5 19t47 19.5l-45 135q-43 -17 -103.5 -30t-144.5 -13q-150 0 -231.5 72.5 t-97.5 236.5h600q28 0 42.5 9.5t14.5 37.5zM760 569h-479q4 56 18 106.5t42 89t73 61t112 22.5q64 0 107.5 -21t70.5 -58t40 -88t16 -112zM866 1180q0 21 -7 40t-21.5 33.5t-37 23.5t-53.5 9t-53.5 -9t-37.5 -23.5t-22.5 -33.5t-7.5 -40q0 -20 7.5 -39t22.5 -33.5 t37.5 -23.5t53.5 -9t53.5 9t37 23.5t21.5 33.5t7 39zM442 1180q0 21 -7 40t-21.5 33.5t-37 23.5t-53.5 9t-53.5 -9t-37.5 -23.5t-22.5 -33.5t-7.5 -40q0 -20 7.5 -39t22.5 -33.5t37.5 -23.5t53.5 -9t53.5 9t37 23.5t21.5 33.5t7 39z" />
<glyph unicode="&#xec;" horiz-adv-x="475" d="M324 0v930q0 24 -29 24h-172q29 -38 29 -106v-823q0 -25 28 -25h144zM351 1075l-186 291q-10 15 -17 22t-28 7h-203q12 -10 26 -24t25 -28l199 -237q17 -20 31.5 -25.5t29.5 -5.5h123z" />
<glyph unicode="&#xed;" horiz-adv-x="475" d="M324 0v930q0 24 -29 24h-172q29 -38 29 -106v-823q0 -25 28 -25h144zM558 1395h-203q-22 0 -29 -7t-16 -22l-186 -291h123q15 0 29.5 5.5t31.5 25.5l199 237q11 14 25 28t26 24z" />
<glyph unicode="&#xee;" horiz-adv-x="475" d="M324 0v930q0 24 -29 24h-172q29 -38 29 -106v-823q0 -25 28 -25h144zM566 1075l-201 291q-5 7 -8.5 12.5t-8 9.5t-11 5.5t-17.5 1.5h-199l-209 -285q-3 -5 -5.5 -9t-2.5 -9q0 -17 19 -17h125l180 211l153 -180q17 -19 31.5 -25t30.5 -6h123z" />
<glyph unicode="&#xef;" horiz-adv-x="475" d="M324 0v930q0 24 -29 24h-172q29 -38 29 -106v-823q0 -25 28 -25h144zM572 1180q0 21 -7 40t-21.5 33.5t-37 23.5t-53.5 9t-53.5 -9t-37.5 -23.5t-22.5 -33.5t-7.5 -40q0 -20 7.5 -39t22.5 -33.5t37.5 -23.5t53.5 -9t53.5 9t37 23.5t21.5 33.5t7 39zM148 1180q0 21 -7 40 t-21.5 33.5t-37 23.5t-53.5 9t-53.5 -9t-37.5 -23.5t-22.5 -33.5t-7.5 -40q0 -20 7.5 -39t22.5 -33.5t37.5 -23.5t53.5 -9t53.5 9t37 23.5t21.5 33.5t7 39z" />
<glyph unicode="&#xf0;" horiz-adv-x="1106" d="M1006 492q0 126 -24 235t-65 201.5t-95.5 169t-116.5 137.5l112 92l-74 92l-129 -106q-46 34 -92.5 61t-91.5 45l-70 -114q38 -20 71.5 -43t62.5 -48l-140 -114l74 -92l152 125q66 -67 103.5 -135.5t57.5 -131.5q-11 12 -33.5 23.5t-51 20.5t-61.5 14.5t-65 5.5 q-91 0 -169.5 -30t-136.5 -90t-91 -149.5t-33 -207.5q0 -108 33.5 -196.5t94 -151t143.5 -96.5t182 -34t182 34.5t143.5 100.5t94 162t33.5 220zM823 453q0 -71 -16.5 -132.5t-49.5 -106.5t-84 -71t-120 -26q-68 0 -119 26t-84.5 71t-50 106.5t-16.5 132.5q0 72 17 133.5 t50.5 106t84 70t118.5 25.5t119 -25.5t84.5 -70t50 -106t16.5 -133.5z" />
<glyph unicode="&#xf1;" horiz-adv-x="1116" d="M965 0v629q0 83 -20 148t-62.5 110t-109 68.5t-159.5 23.5q-61 0 -112 -16t-91 -39t-68.5 -47.5t-43.5 -42.5q-2 14 -3.5 31t-4.5 32q-3 22 -10 39q-4 8 -11 13t-22 5h-137q6 -14 10.5 -32t7.5 -39q8 -41 11 -86.5t3 -91.5v-680q0 -13 7.5 -19t19.5 -6h145v676 q20 28 47.5 55.5t62 49.5t75 35t86.5 13q112 0 159.5 -61t47.5 -178v-565q0 -25 26 -25h146zM896 1288l-100 60q-8 -20 -17 -38.5t-20.5 -32.5t-27.5 -22t-37 -8q-40 0 -129 62q-20 14 -38 24.5t-36 17t-37 10t-41 3.5q-62 0 -121 -45.5t-96 -128.5l94 -66q14 23 26 41.5 t25.5 31t28.5 19.5t35 7t53 -17.5t70 -42.5q42 -28 81.5 -41.5t67.5 -13.5q33 0 63 9t57 30t51.5 55.5t47.5 85.5z" />
<glyph unicode="&#xf2;" horiz-adv-x="1106" d="M1006 477q0 124 -33.5 218t-93.5 157t-143 95t-183 32t-183 -32t-143 -95t-93.5 -157t-33.5 -218q0 -114 33.5 -206.5t94 -158t143.5 -101.5t182 -36t182 35.5t143.5 101t94 158.5t33.5 207zM823 477q0 -76 -16.5 -142t-49.5 -114.5t-84 -76t-120 -27.5q-68 0 -119 27.5 t-84.5 76t-50 114.5t-16.5 142q0 78 17 144t50.5 114t84 75.5t118.5 27.5t119 -27.5t84.5 -75.5t50 -114t16.5 -144zM689 1075l-186 291q-10 15 -17 22t-28 7h-203q12 -10 26 -24t25 -28l199 -237q17 -20 31.5 -25.5t29.5 -5.5h123z" />
<glyph unicode="&#xf3;" horiz-adv-x="1106" d="M1006 477q0 124 -33.5 218t-93.5 157t-143 95t-183 32t-183 -32t-143 -95t-93.5 -157t-33.5 -218q0 -114 33.5 -206.5t94 -158t143.5 -101.5t182 -36t182 35.5t143.5 101t94 158.5t33.5 207zM823 477q0 -76 -16.5 -142t-49.5 -114.5t-84 -76t-120 -27.5q-68 0 -119 27.5 t-84.5 76t-50 114.5t-16.5 142q0 78 17 144t50.5 114t84 75.5t118.5 27.5t119 -27.5t84.5 -75.5t50 -114t16.5 -144zM866 1395h-203q-22 0 -29 -7t-16 -22l-186 -291h123q15 0 29.5 5.5t31.5 25.5l199 237q11 14 25 28t26 24z" />
<glyph unicode="&#xf4;" horiz-adv-x="1106" d="M1006 477q0 124 -33.5 218t-93.5 157t-143 95t-183 32t-183 -32t-143 -95t-93.5 -157t-33.5 -218q0 -114 33.5 -206.5t94 -158t143.5 -101.5t182 -36t182 35.5t143.5 101t94 158.5t33.5 207zM823 477q0 -76 -16.5 -142t-49.5 -114.5t-84 -76t-120 -27.5q-68 0 -119 27.5 t-84.5 76t-50 114.5t-16.5 142q0 78 17 144t50.5 114t84 75.5t118.5 27.5t119 -27.5t84.5 -75.5t50 -114t16.5 -144zM883 1075l-201 291q-5 7 -8.5 12.5t-8 9.5t-11 5.5t-17.5 1.5h-199l-209 -285q-3 -5 -5.5 -9t-2.5 -9q0 -17 19 -17h125l180 211l153 -180q17 -19 31.5 -25 t30.5 -6h123z" />
<glyph unicode="&#xf5;" horiz-adv-x="1106" d="M1006 477q0 124 -33.5 218t-93.5 157t-143 95t-183 32t-183 -32t-143 -95t-93.5 -157t-33.5 -218q0 -114 33.5 -206.5t94 -158t143.5 -101.5t182 -36t182 35.5t143.5 101t94 158.5t33.5 207zM823 477q0 -76 -16.5 -142t-49.5 -114.5t-84 -76t-120 -27.5q-68 0 -119 27.5 t-84.5 76t-50 114.5t-16.5 142q0 78 17 144t50.5 114t84 75.5t118.5 27.5t119 -27.5t84.5 -75.5t50 -114t16.5 -144zM909 1288l-100 60q-8 -20 -17 -38.5t-20.5 -32.5t-27.5 -22t-37 -8q-40 0 -129 62q-20 14 -38 24.5t-36 17t-37 10t-41 3.5q-62 0 -121 -45.5t-96 -128.5 l94 -66q14 23 26 41.5t25.5 31t28.5 19.5t35 7t53 -17.5t70 -42.5q42 -28 81.5 -41.5t67.5 -13.5q33 0 63 9t57 30t51.5 55.5t47.5 85.5z" />
<glyph unicode="&#xf6;" horiz-adv-x="1106" d="M1006 477q0 124 -33.5 218t-93.5 157t-143 95t-183 32t-183 -32t-143 -95t-93.5 -157t-33.5 -218q0 -114 33.5 -206.5t94 -158t143.5 -101.5t182 -36t182 35.5t143.5 101t94 158.5t33.5 207zM823 477q0 -76 -16.5 -142t-49.5 -114.5t-84 -76t-120 -27.5q-68 0 -119 27.5 t-84.5 76t-50 114.5t-16.5 142q0 78 17 144t50.5 114t84 75.5t118.5 27.5t119 -27.5t84.5 -75.5t50 -114t16.5 -144zM885 1180q0 21 -7 40t-21.5 33.5t-37 23.5t-53.5 9t-53.5 -9t-37.5 -23.5t-22.5 -33.5t-7.5 -40q0 -20 7.5 -39t22.5 -33.5t37.5 -23.5t53.5 -9t53.5 9 t37 23.5t21.5 33.5t7 39zM461 1180q0 21 -7 40t-21.5 33.5t-37 23.5t-53.5 9t-53.5 -9t-37.5 -23.5t-22.5 -33.5t-7.5 -40q0 -20 7.5 -39t22.5 -33.5t37.5 -23.5t53.5 -9t53.5 9t37 23.5t21.5 33.5t7 39z" />
<glyph unicode="&#xf7;" d="M676 1032q0 26 -8.5 50t-25.5 42.5t-41.5 29.5t-55.5 11q-32 0 -56 -11t-41 -29.5t-25.5 -42.5t-8.5 -50q0 -24 8.5 -47.5t25 -41.5t41 -29t56.5 -11t56.5 11t41 29t25 41.5t8.5 47.5zM1016 614v134q0 22 -29 22h-911v-133q0 -23 28 -23h912zM676 342q0 26 -8.5 50 t-25.5 42.5t-41.5 29.5t-55.5 11q-32 0 -56 -11t-41 -29.5t-25.5 -42.5t-8.5 -50q0 -25 8.5 -48t25 -41t41 -29t56.5 -11t56.5 11t41 29t25 41t8.5 48z" />
<glyph unicode="&#xf8;" horiz-adv-x="1106" d="M1006 477q0 127 -34 221.5t-95 157.5l94 145l-107 70l-92 -139q-96 47 -219 47q-100 0 -183 -32t-143 -95t-93.5 -157t-33.5 -218q0 -115 35 -208.5t96 -159.5l-98 -150l107 -70l92 142q48 -28 103.5 -42t117.5 -14q99 0 182 35.5t143.5 101t94 158.5t33.5 207zM829 477 q0 -77 -16.5 -143.5t-51 -115.5t-86.5 -77t-122 -28q-42 0 -77 10t-64 29l366 559q26 -47 38.5 -106.5t12.5 -127.5zM690 805l-364 -553q-25 46 -37.5 103t-12.5 122q0 78 17.5 145t52 116t86.5 76.5t121 27.5q80 0 137 -37z" />
<glyph unicode="&#xf9;" horiz-adv-x="1118" d="M967 0v930q0 12 -7.5 18t-19.5 6h-170q16 -17 20.5 -46.5t4.5 -55.5v-573q-20 -29 -47.5 -56.5t-62 -49t-75 -35t-86.5 -13.5q-112 0 -159.5 61t-47.5 179v565q0 24 -26 24h-170q15 -17 19.5 -46.5t4.5 -55.5v-526q0 -83 20 -148.5t62.5 -110.5t109 -68.5t159.5 -23.5 q57 0 105.5 14t87.5 35t67.5 44.5t46.5 42.5v-86q0 -25 26 -25h138zM689 1075l-186 291q-10 15 -17 22t-28 7h-203q12 -10 26 -24t25 -28l199 -237q17 -20 31.5 -25.5t29.5 -5.5h123z" />
<glyph unicode="&#xfa;" horiz-adv-x="1118" d="M967 0v930q0 12 -7.5 18t-19.5 6h-170q16 -17 20.5 -46.5t4.5 -55.5v-573q-20 -29 -47.5 -56.5t-62 -49t-75 -35t-86.5 -13.5q-112 0 -159.5 61t-47.5 179v565q0 24 -26 24h-170q15 -17 19.5 -46.5t4.5 -55.5v-526q0 -83 20 -148.5t62.5 -110.5t109 -68.5t159.5 -23.5 q57 0 105.5 14t87.5 35t67.5 44.5t46.5 42.5v-86q0 -25 26 -25h138zM887 1395h-203q-22 0 -29 -7t-16 -22l-186 -291h123q15 0 29.5 5.5t31.5 25.5l199 237q11 14 25 28t26 24z" />
<glyph unicode="&#xfb;" horiz-adv-x="1118" d="M967 0v930q0 12 -7.5 18t-19.5 6h-170q16 -17 20.5 -46.5t4.5 -55.5v-573q-20 -29 -47.5 -56.5t-62 -49t-75 -35t-86.5 -13.5q-112 0 -159.5 61t-47.5 179v565q0 24 -26 24h-170q15 -17 19.5 -46.5t4.5 -55.5v-526q0 -83 20 -148.5t62.5 -110.5t109 -68.5t159.5 -23.5 q57 0 105.5 14t87.5 35t67.5 44.5t46.5 42.5v-86q0 -25 26 -25h138zM883 1075l-201 291q-5 7 -8.5 12.5t-8 9.5t-11 5.5t-17.5 1.5h-199l-209 -285q-3 -5 -5.5 -9t-2.5 -9q0 -17 19 -17h125l180 211l153 -180q17 -19 31.5 -25t30.5 -6h123z" />
<glyph unicode="&#xfc;" horiz-adv-x="1118" d="M967 0v930q0 12 -7.5 18t-19.5 6h-170q16 -17 20.5 -46.5t4.5 -55.5v-573q-20 -29 -47.5 -56.5t-62 -49t-75 -35t-86.5 -13.5q-112 0 -159.5 61t-47.5 179v565q0 24 -26 24h-170q15 -17 19.5 -46.5t4.5 -55.5v-526q0 -83 20 -148.5t62.5 -110.5t109 -68.5t159.5 -23.5 q57 0 105.5 14t87.5 35t67.5 44.5t46.5 42.5v-86q0 -25 26 -25h138zM866 1180q0 21 -7 40t-21.5 33.5t-37 23.5t-53.5 9t-53.5 -9t-37.5 -23.5t-22.5 -33.5t-7.5 -40q0 -20 7.5 -39t22.5 -33.5t37.5 -23.5t53.5 -9t53.5 9t37 23.5t21.5 33.5t7 39zM442 1180q0 21 -7 40 t-21.5 33.5t-37 23.5t-53.5 9t-53.5 -9t-37.5 -23.5t-22.5 -33.5t-7.5 -40q0 -20 7.5 -39t22.5 -33.5t37.5 -23.5t53.5 -9t53.5 9t37 23.5t21.5 33.5t7 39z" />
<glyph unicode="&#xfd;" horiz-adv-x="963" d="M963 954h-152q-26 0 -34 -8.5t-15 -27.5l-254 -660l-287 660q-5 10 -7.5 16.5t-7 11t-12 6.5t-20.5 2h-170q17 -12 31.5 -40t30.5 -62l362 -799l-41 -104q-24 -60 -47.5 -98t-50 -59.5t-56.5 -29.5t-67 -8q-20 0 -39 4.5t-34.5 10.5t-27.5 12t-18 10l-47 -135 q26 -14 70 -28.5t112 -14.5q72 0 126.5 18t96 54t73 90.5t59.5 126.5l366 948q14 37 27.5 64.5t32.5 39.5zM825 1395h-203q-22 0 -29 -7t-16 -22l-186 -291h123q15 0 29.5 5.5t31.5 25.5l199 237q11 14 25 28t26 24z" />
<glyph unicode="&#xfe;" horiz-adv-x="1114" d="M1014 492q0 130 -30.5 222.5t-84.5 151.5t-128 86t-161 27q-95 0 -165 -27t-130 -78v519q0 26 -30 26q-8 0 -24 -1t-36 -3l-110 -10q15 -17 21.5 -46t6.5 -63v-1648q0 -13 7.5 -19t19.5 -6h145v440q41 -34 108.5 -56.5t158.5 -22.5q92 0 171 34t137 99t91 159.5t33 215.5 zM834 487q0 -82 -18 -149t-52.5 -114t-85 -73t-115.5 -26q-46 0 -85 9t-70.5 23t-54.5 31.5t-38 34.5v494q22 25 48 47t56.5 38t66 25t77.5 9q55 0 104.5 -16t86.5 -56t58.5 -107.5t21.5 -169.5z" />
<glyph unicode="&#xff;" horiz-adv-x="963" d="M963 954h-152q-26 0 -34 -8.5t-15 -27.5l-254 -660l-287 660q-5 10 -7.5 16.5t-7 11t-12 6.5t-20.5 2h-170q17 -12 31.5 -40t30.5 -62l362 -799l-41 -104q-24 -60 -47.5 -98t-50 -59.5t-56.5 -29.5t-67 -8q-20 0 -39 4.5t-34.5 10.5t-27.5 12t-18 10l-47 -135 q26 -14 70 -28.5t112 -14.5q72 0 126.5 18t96 54t73 90.5t59.5 126.5l366 948q14 37 27.5 64.5t32.5 39.5zM812 1180q0 21 -7 40t-21.5 33.5t-37 23.5t-53.5 9t-53.5 -9t-37.5 -23.5t-22.5 -33.5t-7.5 -40q0 -20 7.5 -39t22.5 -33.5t37.5 -23.5t53.5 -9t53.5 9t37 23.5 t21.5 33.5t7 39zM388 1180q0 21 -7 40t-21.5 33.5t-37 23.5t-53.5 9t-53.5 -9t-37.5 -23.5t-22.5 -33.5t-7.5 -40q0 -20 7.5 -39t22.5 -33.5t37.5 -23.5t53.5 -9t53.5 9t37 23.5t21.5 33.5t7 39z" />
<glyph unicode="&#x152;" horiz-adv-x="2136" d="M2048 0v180q-14 -9 -38.5 -15.5t-55.5 -6.5h-574v497h486q31 0 55.5 -6.5t38.5 -15.5v180h-580v434h537q31 0 58.5 -5.5t41.5 -16.5l-20 155q-3 25 -29 25h-788q11 -17 16.5 -46t5.5 -63v-75q-71 105 -186.5 161t-255.5 56q-155 0 -274.5 -53t-200.5 -149.5 t-122.5 -232.5t-41.5 -301t41.5 -300.5t122.5 -232t200.5 -149.5t274.5 -53q142 0 256 55.5t186 163.5v-161q0 -25 27 -25h819zM1202 702q0 -138 -31.5 -246t-89 -182.5t-139.5 -113.5t-182 -39q-101 0 -182.5 39t-139.5 113.5t-89.5 182.5t-31.5 246q0 139 31.5 247.5 t89.5 182.5t139.5 113t182.5 39q100 0 182 -39t139.5 -113t89 -182.5t31.5 -247.5z" />
<glyph unicode="&#x153;" horiz-adv-x="1743" d="M1651 481q0 103 -22 194t-70 158.5t-124 106.5t-184 39q-117 0 -202.5 -45t-139.5 -139q-62 99 -153 141.5t-203 42.5q-100 0 -183 -32t-143 -95t-93.5 -157t-33.5 -218q0 -114 33.5 -206.5t94 -158t143.5 -101.5t182 -36q115 0 205.5 48t150.5 145q123 -193 391 -193 q63 0 113 5.5t89 14t67 19t47 19.5l-45 135q-44 -17 -104 -30t-144 -13q-75 0 -133 17.5t-99 55t-65 96t-33 140.5h600q28 0 43 9.5t15 37.5zM1473 569h-480q5 56 19.5 106.5t43 89t73.5 61t112 22.5q64 0 107 -21t69.5 -58t39.5 -88t16 -112zM823 477q0 -76 -16.5 -142 t-49.5 -114.5t-84 -76t-120 -27.5q-68 0 -119 27.5t-84.5 76t-50 114.5t-16.5 142q0 78 17 144t50.5 114t84 75.5t118.5 27.5t119 -27.5t84.5 -75.5t50 -114t16.5 -144z" />
<glyph unicode="&#x178;" horiz-adv-x="1096" d="M1096 1405h-170q-23 0 -29 -5.5t-12 -15.5l-338 -563l-322 563q-5 10 -11.5 15.5t-29.5 5.5h-184q14 -9 24 -24.5t15 -24.5l403 -707v-624q0 -13 7.5 -19t19.5 -6h156v651l432 707q6 9 15.5 23.5t23.5 23.5zM885 1641q0 21 -7 40t-21.5 33.5t-37 23.5t-53.5 9t-53.5 -9 t-37.5 -23.5t-22.5 -33.5t-7.5 -40q0 -20 7.5 -39t22.5 -33.5t37.5 -23.5t53.5 -9t53.5 9t37 23.5t21.5 33.5t7 39zM461 1641q0 21 -7 40t-21.5 33.5t-37 23.5t-53.5 9t-53.5 -9t-37.5 -23.5t-22.5 -33.5t-7.5 -40q0 -20 7.5 -39t22.5 -33.5t37.5 -23.5t53.5 -9t53.5 9 t37 23.5t21.5 33.5t7 39z" />
<glyph unicode="&#x2c6;" horiz-adv-x="1106" d="M883 1075l-201 291q-5 7 -8.5 12.5t-8 9.5t-11 5.5t-17.5 1.5h-199l-209 -285q-3 -5 -5.5 -9t-2.5 -9q0 -17 19 -17h125l180 211l153 -180q17 -19 31.5 -25t30.5 -6h123z" />
<glyph unicode="&#x2dc;" horiz-adv-x="1106" d="M909 1288l-100 60q-8 -20 -17 -38.5t-20.5 -32.5t-27.5 -22t-37 -8q-40 0 -129 62q-20 14 -38 24.5t-36 17t-37 10t-41 3.5q-62 0 -121 -45.5t-96 -128.5l94 -66q14 23 26 41.5t25.5 31t28.5 19.5t35 7t53 -17.5t70 -42.5q42 -28 81.5 -41.5t67.5 -13.5q33 0 63 9t57 30 t51.5 55.5t47.5 85.5z" />
<glyph unicode="&#x2000;" horiz-adv-x="928" />
<glyph unicode="&#x2001;" horiz-adv-x="1856" />
<glyph unicode="&#x2002;" horiz-adv-x="928" />
<glyph unicode="&#x2003;" horiz-adv-x="1856" />
<glyph unicode="&#x2004;" horiz-adv-x="618" />
<glyph unicode="&#x2005;" horiz-adv-x="464" />
<glyph unicode="&#x2006;" horiz-adv-x="309" />
<glyph unicode="&#x2007;" horiz-adv-x="309" />
<glyph unicode="&#x2008;" horiz-adv-x="232" />
<glyph unicode="&#x2009;" horiz-adv-x="371" />
<glyph unicode="&#x200a;" horiz-adv-x="103" />
<glyph unicode="&#x2010;" horiz-adv-x="760" d="M659 457v161q0 25 -26 25h-533v-162q0 -12 7.5 -18t19.5 -6h532z" />
<glyph unicode="&#x2011;" horiz-adv-x="760" d="M659 457v161q0 25 -26 25h-533v-162q0 -12 7.5 -18t19.5 -6h532z" />
<glyph unicode="&#x2012;" horiz-adv-x="760" d="M659 457v161q0 25 -26 25h-533v-162q0 -12 7.5 -18t19.5 -6h532z" />
<glyph unicode="&#x2013;" horiz-adv-x="1024" d="M1024 424v156h-1024v-156h1024z" />
<glyph unicode="&#x2014;" horiz-adv-x="2048" d="M2048 424v156h-2048v-156h2048z" />
<glyph unicode="&#x2018;" horiz-adv-x="502" d="M385 928q0 15 -4 35t-17 38t-37.5 32.5t-66.5 19.5q1 46 14.5 91.5t32 86t39 73.5t35.5 54l-94 61q-16 -18 -45.5 -60.5t-58.5 -102t-50.5 -130t-21.5 -143.5q0 -53 11.5 -86.5t33.5 -54.5q18 -20 43.5 -29.5t54.5 -9.5q30 0 54 9.5t41.5 26.5t26.5 40t9 49z" />
<glyph unicode="&#x2019;" horiz-adv-x="502" d="M391 1239q0 53 -11.5 86.5t-33.5 54.5q-18 20 -43.5 29.5t-54.5 9.5q-30 0 -54 -9.5t-41.5 -26.5t-26.5 -40t-9 -49q0 -15 4 -35t17 -38t37.5 -32.5t66.5 -19.5q-1 -46 -14.5 -91.5t-32 -86t-39 -73.5t-35.5 -54l94 -61q16 18 45.5 60.5t58.5 102t50.5 130t21.5 143.5z " />
<glyph unicode="&#x201a;" horiz-adv-x="502" d="M391 72q0 52 -11.5 85.5t-33.5 55.5q-18 20 -43.5 29.5t-54.5 9.5q-30 0 -54 -9.5t-41.5 -26.5t-26.5 -40t-9 -49q0 -15 4 -35t17 -38.5t37.5 -33t66.5 -18.5q-1 -46 -14.5 -92t-32 -86.5t-39 -73t-35.5 -53.5l94 -62q16 18 45.5 61t58.5 102.5t50.5 130t21.5 143.5z" />
<glyph unicode="&#x201c;" horiz-adv-x="905" d="M786 928q0 15 -4 35t-17 38t-37.5 32.5t-65.5 19.5q1 46 14 91.5t32 86t39 73.5t35 54l-94 61q-16 -18 -45.5 -60.5t-58.5 -102t-50.5 -130t-21.5 -143.5q0 -53 11.5 -86.5t33.5 -54.5q19 -20 44 -29.5t54 -9.5q30 0 54 9.5t41.5 26.5t26.5 40t9 49zM385 928q0 15 -4 35 t-17 38t-37.5 32.5t-66.5 19.5q1 46 14.5 91.5t32 86t39 73.5t35.5 54l-94 61q-16 -18 -45.5 -60.5t-58.5 -102t-50.5 -130t-21.5 -143.5q0 -53 11.5 -86.5t33.5 -54.5q18 -20 43.5 -29.5t54.5 -9.5q30 0 54 9.5t41.5 26.5t26.5 40t9 49z" />
<glyph unicode="&#x201d;" horiz-adv-x="905" d="M795 1239q0 53 -12 86.5t-33 54.5q-19 20 -44.5 29.5t-54.5 9.5q-30 0 -54 -9.5t-41.5 -26.5t-26.5 -40t-9 -49q0 -15 4 -35t17 -38t38 -32.5t66 -19.5q-1 -46 -14.5 -91.5t-32 -86t-39 -73.5t-35.5 -54l94 -61q16 18 46 60.5t59 102t50.5 130t21.5 143.5zM393 1239 q0 53 -11.5 86.5t-33.5 54.5q-18 20 -43.5 29.5t-54.5 9.5q-30 0 -54 -9.5t-41.5 -26.5t-26.5 -40t-9 -49q0 -15 4 -35t17 -38t37.5 -32.5t66.5 -19.5q-1 -46 -14.5 -91.5t-32 -86t-39 -73.5t-35.5 -54l94 -61q16 18 45.5 60.5t58.5 102t50.5 130t21.5 143.5z" />
<glyph unicode="&#x201e;" horiz-adv-x="905" d="M795 72q0 52 -12 85.5t-33 55.5q-19 20 -44.5 29.5t-54.5 9.5q-30 0 -54 -9.5t-41.5 -26.5t-26.5 -40t-9 -49q0 -15 4 -35t17 -38.5t38 -33t66 -18.5q-1 -46 -14.5 -92t-32 -86.5t-39 -73t-35.5 -53.5l94 -62q16 18 46 61t59 102.5t50.5 130t21.5 143.5zM393 72 q0 52 -11.5 85.5t-33.5 55.5q-18 20 -43.5 29.5t-54.5 9.5q-30 0 -54 -9.5t-41.5 -26.5t-26.5 -40t-9 -49q0 -15 4 -35t17 -38.5t37.5 -33t66.5 -18.5q-1 -46 -14.5 -92t-32 -86.5t-39 -73t-35.5 -53.5l94 -62q16 18 45.5 61t58.5 102.5t50.5 130t21.5 143.5z" />
<glyph unicode="&#x2022;" horiz-adv-x="1004" d="M840 702q0 70 -26.5 131.5t-72.5 107.5t-107.5 72.5t-131.5 26.5t-131.5 -26.5t-107.5 -72.5t-72.5 -107.5t-26.5 -131.5t26.5 -131.5t72.5 -107t107.5 -72t131.5 -26.5t131.5 26.5t107.5 72t72.5 107t26.5 131.5z" />
<glyph unicode="&#x2026;" horiz-adv-x="2048" d="M1837 104q0 26 -8.5 50.5t-25.5 43t-41.5 29.5t-55.5 11q-32 0 -56 -11t-41 -29.5t-25.5 -43t-8.5 -50.5q0 -24 8.5 -47.5t25 -41.5t41 -29t56.5 -11t56.5 11t41 29t25 41.5t8.5 47.5zM1155 104q0 26 -8.5 50.5t-25.5 43t-41.5 29.5t-55.5 11q-32 0 -56 -11t-41 -29.5 t-25.5 -43t-8.5 -50.5q0 -24 8.5 -47.5t25 -41.5t41 -29t56.5 -11t56.5 11t41 29t25 41.5t8.5 47.5zM473 104q0 26 -8.5 50.5t-25.5 43t-41.5 29.5t-55.5 11q-32 0 -56 -11t-41 -29.5t-25.5 -43t-8.5 -50.5q0 -24 8.5 -47.5t25 -41.5t41 -29t56.5 -11t56.5 11t41 29t25 41.5 t8.5 47.5z" />
<glyph unicode="&#x202f;" horiz-adv-x="371" />
<glyph unicode="&#x2039;" horiz-adv-x="645" d="M563 184l-272 336l272 336h-209l-272 -336l272 -336h209z" />
<glyph unicode="&#x203a;" horiz-adv-x="645" d="M563 520l-272 336h-209l272 -336l-272 -336h209z" />
<glyph unicode="&#x205f;" horiz-adv-x="464" />
<glyph unicode="&#x20ac;" horiz-adv-x="1194" d="M1163 47l-55 150q-18 -9 -43.5 -19.5t-60.5 -19.5t-79 -15t-98 -6q-77 0 -144 21t-120.5 64t-91.5 108.5t-57 154.5h438l-10 109q-3 24 -29 24h-416q-2 14 -2 29v29q0 31 1 60t3 55h555l-10 108q-3 25 -29 25h-493q43 167 141 244t234 77q49 0 92 -8t80 -20.5t67.5 -28.5 t55.5 -31l-21 164q-2 15 -7 21t-22 14q-12 5 -33 13.5t-52 16.5t-73 13.5t-96 5.5q-118 0 -211 -36.5t-162 -100.5t-115 -152.5t-69 -191.5h-180v-111q0 -22 29 -22h131q-2 -25 -3 -49.5t-1 -49.5v-39q0 -18 2 -35h-158v-110q0 -23 29 -23h143q21 -121 68 -216t121 -160 t175.5 -99.5t231.5 -34.5q58 0 108.5 7t94 17.5t79 23t62.5 24.5z" />
<glyph unicode="&#x2122;" horiz-adv-x="1655" d="M1585 1405h-211l-194 -447l-176 422q-7 14 -17 19.5t-29 5.5h-184q11 -14 17 -37t6 -51v-662q0 -24 26 -24h107v598l207 -522h71l222 522v-574q0 -24 26 -24h107v686q0 58 22 88zM668 1257l-15 125q-3 23 -22 23h-576v-102q0 -23 29 -23h203v-625q0 -24 26 -24h115v649 h156q64 0 84 -23z" />
<glyph unicode="&#xe000;" horiz-adv-x="955" d="M0 955h955v-955h-955v955z" />
<glyph unicode="&#xfb01;" horiz-adv-x="1102" d="M950 0v930q0 24 -28 24h-539v66q0 51 9.5 97t36.5 81t76 55.5t128 20.5q50 0 93 -8t77.5 -19t59 -22t36.5 -17l-14 129q-3 22 -11.5 30.5t-31.5 16.5q-29 10 -87 22.5t-143 12.5q-79 0 -139 -16t-105 -44t-75 -66t-48 -81t-26 -89t-8 -91v-71l-148 -70v-55q0 -23 29 -23 h119v-788q0 -25 27 -25h145v813h395v-788q0 -25 29 -25h143z" />
<glyph unicode="&#xfb02;" horiz-adv-x="1124" d="M973 0v1065q0 100 -27.5 168t-78 109.5t-120.5 59t-155 17.5q-95 0 -166 -25.5t-119 -73.5t-72 -117t-24 -156v-86l-148 -70v-55q0 -23 29 -23h119v-788q0 -25 27 -25h145v813h260l-14 117q-3 24 -29 24h-217v76q0 69 11.5 117t36 78t64.5 43.5t97 13.5q63 0 103.5 -17.5 t64 -49t32.5 -76t9 -99.5v-1015q0 -25 26 -25h146z" />
</font>
</defs>
</svg>
