<?xml version="1.0" standalone="no"?>
<!DOCTYPE svg PUBLIC "-//W3C//DTD SVG 1.1//EN" "http://www.w3.org/Graphics/SVG/1.1/DTD/svg11.dtd" >
<svg xmlns="http://www.w3.org/2000/svg">
<metadata></metadata>
<defs>
<font id="tesco_display_ltregular" horiz-adv-x="399" >
<font-face units-per-em="2048" ascent="1638" descent="-410" />
<missing-glyph horiz-adv-x="307" />
<glyph unicode="&#xfb01;" horiz-adv-x="989" d="M16 870v41l144 52v81q0 66 16.5 132.5t59.5 121t117.5 88t191.5 33.5q82 0 142.5 -12t88.5 -23q12 -4 16.5 -9t6.5 -17l12 -98q-119 51 -260 51q-86 0 -139.5 -22.5t-82 -61.5t-37.5 -90.5t-9 -106.5v-76h563q18 0 18 -18v-936h-102q-20 0 -21 18v834h-458v-852h-103 q-20 0 -20 18v834h-123q-20 0 -21 18z" />
<glyph unicode="&#xfb02;" horiz-adv-x="1013" d="M16 870v41l144 52v96q0 170 88 265t280 95q82 0 148.5 -17.5t114 -57t73 -105t25.5 -162.5v-1077h-123v1051q0 59 -10.5 109t-37 87t-72.5 57.5t-118 20.5q-139 0 -192 -67.5t-53 -217.5v-86h235q18 0 19 -18l10 -84h-264v-852h-103q-20 0 -20 18v834h-123q-20 0 -21 18z " />
<glyph unicode="&#xfb03;" horiz-adv-x="1546" d="M16 870v41l144 52v86q0 147 90 234t248 87q78 0 148.5 -25.5t125.5 -70.5q41 66 118 105.5t212 39.5q82 0 142.5 -12t88.5 -23q12 -4 16.5 -9t6.5 -17l12 -98q-119 51 -260 51q-84 0 -136 -20.5t-81 -56.5t-40 -83t-11 -98v-99h563q18 0 18 -18v-936h-102q-20 0 -21 18 v834h-458v-852h-103h-6q-4 0 -8 4q-6 2 -6 10v838h-434v-852h-103q-20 0 -20 18v834h-123q-20 0 -21 18zM283 954h434v103q0 25 4 61.5t8 52.5q-43 41 -105.5 66t-127.5 25q-96 0 -154.5 -52.5t-58.5 -179.5v-76z" />
<glyph unicode="&#xfb04;" horiz-adv-x="1572" d="M16 870v41l144 52v86q0 147 89 234t251 87q86 0 152.5 -25.5t117.5 -68.5q41 70 120 106.5t197 36.5q82 0 149 -17.5t114 -57t72.5 -105t25.5 -162.5v-1077h-123v1051q0 59 -10 109t-37 87t-73 57.5t-118 20.5q-139 0 -192 -67.5t-53 -217.5v-86h235q18 0 19 -18l10 -84 h-264v-852h-103q-20 0 -20 18v834h-436v-852h-103q-20 0 -20 18v834h-123q-20 0 -21 18zM283 954h436v99q0 29 3 60.5t9 55.5q-41 45 -100.5 69t-130.5 24q-96 0 -156.5 -52.5t-60.5 -179.5v-76z" />
<glyph horiz-adv-x="0" />
<glyph horiz-adv-x="0" />
<glyph unicode="&#xd;" horiz-adv-x="307" />
<glyph unicode=" "  horiz-adv-x="307" />
<glyph unicode="&#x09;" horiz-adv-x="307" />
<glyph unicode="&#xa0;" horiz-adv-x="307" />
<glyph unicode="!" d="M94 88q0 47 28 80t79 33t78.5 -33t27.5 -80t-27.5 -80t-78.5 -33t-79 33t-28 80zM113 1405h133q20 0 20 -19l-10 -956h-90q-18 0 -19 19l-16 864q0 25 -5 51.5t-13 40.5z" />
<glyph unicode="&#x22;" horiz-adv-x="782" d="M104 1405h150q20 0 20 -19l-14 -587h-100q-18 0 -19 18l-18 496q-2 25 -6 51.5t-13 40.5zM508 1405h149q20 0 21 -19l-14 -587h-101q-18 0 -18 18l-19 496q-2 25 -6 51.5t-12 40.5z" />
<glyph unicode="#" horiz-adv-x="1052" d="M49 444v84h199l45 324h-168q-18 0 -19 18v84h199l55 410q2 10 5.5 13t15.5 3h104q-10 -14 -16 -38.5t-10 -47.5l-45 -340h295l55 410q2 10 5 13t15 3h105q-10 -14 -16.5 -38.5t-10.5 -47.5l-45 -340h184v-102h-196l-43 -324h182v-102h-196l-58 -426h-88q-18 0 -18 14v4 l55 408h-295l-57 -426h-88q-18 0 -19 14v4l56 408h-168q-18 0 -19 18zM358 528h293l45 324h-295z" />
<glyph unicode="$" horiz-adv-x="1003" d="M39 66l41 108q70 -35 162 -60.5t213 -25.5v569q-80 29 -147.5 61t-118 75t-78 101t-27.5 142q0 61 19.5 123t64.5 112t114.5 85t172.5 45v131h86v-127q109 -2 172 -14.5t80 -18.5q14 -6 18 -14t6 -19l12 -98q-143 57 -288 57v-546q88 -31 158.5 -65t120.5 -79t78 -106.5 t28 -145.5q0 -147 -92.5 -249.5t-292.5 -122.5v-162h-86v158q-131 0 -234.5 23.5t-181.5 62.5zM207 1044q0 -100 68.5 -157.5t179.5 -102.5v508q-47 -6 -92.5 -22.5t-80 -45t-55 -72.5t-20.5 -108zM541 92q53 8 99 27.5t79 50.5t51 76t18 106q0 53 -16 93t-48 72t-78 57.5 t-105 50.5v-533z" />
<glyph unicode="%" horiz-adv-x="1839" d="M96 987q0 209 84 313.5t232 104.5q147 0 231 -104.5t84 -313.5q0 -207 -84 -312.5t-231 -105.5t-231.5 105.5t-84.5 312.5zM219 987q0 -154 43.5 -242t149.5 -88t149 88.5t43 241.5q0 156 -43 243t-149 87t-149.5 -87t-43.5 -243zM508 -12q0 8 2 12l713 1405h94 q14 0 14 -12q0 -8 -2 -13l-713 -1405h-94q-14 0 -14 13zM1112 393q0 209 84 313.5t231 104.5t231.5 -104.5t84.5 -313.5q0 -207 -84.5 -312.5t-231.5 -105.5t-231 105.5t-84 312.5zM1235 393q0 -154 43 -242t149 -88t149.5 88.5t43.5 241.5q0 156 -43 243t-150 87 q-106 0 -149 -87t-43 -243z" />
<glyph unicode="&#x26;" horiz-adv-x="1304" d="M82 350q0 76 18.5 137.5t58.5 114.5t105.5 100.5t157.5 94.5q-70 94 -113 174t-43 176q0 55 20.5 108.5t61.5 93.5t104.5 64.5t149.5 24.5q92 0 156.5 -24.5t103.5 -64.5t56.5 -90.5t17.5 -103.5q0 -59 -16.5 -109.5t-54.5 -96.5t-102.5 -92t-160.5 -97l344 -436 q53 63 101.5 137t87.5 157l102 -47l-2 -2q-53 -106 -108.5 -188t-112.5 -145l182 -232h-135q-16 0 -26.5 5t-22.5 22l-86 112q-63 -57 -124 -92t-118 -53t-108.5 -24.5t-96.5 -6.5q-86 0 -158.5 29t-126 80t-83 120.5t-29.5 153.5zM215 369q0 -66 22.5 -119t61.5 -90 t91 -56.5t112 -19.5q104 0 184 34t170 113l-375 482q-129 -66 -197.5 -146t-68.5 -198zM385 1141q0 -33 17.5 -90.5t58.5 -110.5l76 -100q80 39 134 75.5t85.5 73.5t45 76t13.5 80q0 92 -56.5 147.5t-152.5 55.5q-98 0 -159.5 -53.5t-61.5 -153.5z" />
<glyph unicode="'" d="M115 1405h149q20 0 21 -19l-15 -587h-100q-18 0 -18 18l-19 496q-2 25 -6 51.5t-12 40.5z" />
<glyph unicode="(" horiz-adv-x="548" d="M94 559q0 158 30 292t84 241.5t128 186.5t162 126l57 -94q-154 -106 -238 -294t-84 -458t84 -457.5t238 -294.5l-57 -94q-88 47 -162 126t-128 186.5t-84 241.5t-30 292z" />
<glyph unicode=")" horiz-adv-x="548" d="M-6 -193q154 106 237.5 294t83.5 458t-84 457.5t-237 294.5l57 94q88 -47 162 -126t128 -186.5t84 -241.5t30 -292t-30 -292t-84 -241.5t-128 -186.5t-162 -126z" />
<glyph unicode="*" horiz-adv-x="880" d="M84 1087l41 121l264 -108l-12 213q-2 29 -6 53.5t-15 38.5h131q18 0 19 -19l-14 -284l264 106l41 -121l-277 -79l182 -242l-104 -74l-158 256l-157 -256l-105 74l182 242z" />
<glyph unicode="+" horiz-adv-x="1007" d="M49 655v93h400v458h92q18 0 18 -18v-440h379q18 0 18 -19v-92h-397v-465h-92q-18 0 -18 18v447h-381q-18 0 -19 18z" />
<glyph unicode="," d="M90 109q0 45 28.5 75.5t78.5 30.5q45 0 82 -33q16 -18 26 -48t10 -81q0 -66 -17 -130t-42 -120.5t-51.5 -100.5t-44.5 -69l-70 48q10 16 29.5 47.5t38 74.5t33 93.5t14.5 103.5q-37 4 -59.5 16.5t-35 27.5t-16.5 32.5t-4 32.5z" />
<glyph unicode="-" horiz-adv-x="655" d="M74 487v125h508v-125h-508z" />
<glyph unicode="." d="M92 88q0 47 27.5 80t79.5 33q51 0 78.5 -33t27.5 -80t-27.5 -80t-78.5 -33t-79 33t-28 80z" />
<glyph unicode="/" horiz-adv-x="464" d="M-12 16q0 8 2 13l377 1376h94q16 0 16 -16q0 -8 -2 -13l-377 -1376h-94q-16 0 -16 16z" />
<glyph unicode="0" horiz-adv-x="1036" d="M74 688q0 369 114.5 543t329.5 174t330 -174t115 -543q0 -365 -116 -539t-329 -174t-328.5 174.5t-115.5 538.5zM215 688q0 -315 73.5 -460.5t229.5 -145.5t229.5 145.5t73.5 460.5t-73.5 462.5t-229.5 147.5t-229.5 -147t-73.5 -463z" />
<glyph unicode="1" horiz-adv-x="692" d="M72 1022l381 358h77q18 0 19 -18v-1362h-109q-18 0 -18 18v1184l-264 -244q-8 -8 -17 -8q-6 0 -10 3t-8 8z" />
<glyph unicode="2" horiz-adv-x="927" d="M55 18v64l348 410q82 96 137.5 170.5t89.5 139t48 122t14 118.5q0 63 -19.5 109.5t-54 77.5t-82 45t-100.5 14q-100 0 -167.5 -38t-121.5 -97l-63 70q-6 6 -6 12q0 8 6 14q25 27 60.5 54.5t81.5 50t102.5 37t126.5 14.5q82 0 151.5 -22.5t119.5 -66.5t77.5 -108.5 t27.5 -146.5q0 -84 -20 -159t-65.5 -153.5t-116 -170t-170.5 -203.5l-230 -262h549q23 0 43.5 5t30.5 11v-129h-778q-18 0 -19 18z" />
<glyph unicode="3" horiz-adv-x="931" d="M57 41l39 104q51 -23 114.5 -40t170.5 -17q72 0 134.5 17.5t109.5 56.5t74.5 100.5t27.5 151.5q0 123 -57.5 194.5t-155.5 98.5q-57 16 -108.5 21t-86.5 5q-18 0 -18 19v79l367 437h-566q-18 0 -18 18v94h709q18 0 18 -18v-90l-369 -438q119 -12 199 -50 q72 -31 116 -75.5t68.5 -95t32.5 -101.5t8 -94q0 -121 -41 -205t-108.5 -136t-154.5 -77t-179 -25q-117 0 -197 20.5t-129 45.5z" />
<glyph unicode="4" horiz-adv-x="1015" d="M78 375v94l575 911h142q18 0 18 -18v-909h109q14 0 18 -23l10 -74h-137v-356h-104q-18 0 -19 18v338h-594q-18 0 -18 19zM193 453h497v807z" />
<glyph unicode="5" horiz-adv-x="923" d="M57 41l39 104q35 -20 104.5 -38.5t151.5 -18.5q76 0 141.5 19.5t112.5 61.5t75 107.5t28 159.5q0 102 -37 168t-98.5 102.5t-141.5 50t-164 13.5q-35 0 -50 -1t-32 -1q-18 0 -18 18l25 594h624q18 0 19 -16v-4l-11 -92h-522l-14 -385q270 -2 414.5 -106.5t144.5 -338.5 q0 -125 -40 -213t-106.5 -143t-154.5 -81t-185 -26q-102 0 -177.5 20.5t-127.5 45.5z" />
<glyph unicode="6" horiz-adv-x="1036" d="M88 567q0 193 44 363t140 280q80 92 179.5 142.5t242.5 50.5q53 0 79 -4t36 -8t14 -12.5t8 -20.5l17 -84q-29 10 -66 15t-82 5q-72 0 -136 -16t-124 -64q-78 -59 -137 -188t-76 -321q53 78 137.5 121.5t200.5 43.5q86 0 161 -26.5t129 -79.5t85 -134t31 -192 q0 -104 -31 -190t-86 -146.5t-135 -93.5t-178 -33q-96 0 -178 31t-143.5 101.5t-96.5 183t-35 276.5zM233 412q0 -152 71.5 -245t225.5 -93t231 91t77 251t-70 255t-217 95q-86 0 -145.5 -27.5t-98.5 -76t-56.5 -113t-17.5 -137.5z" />
<glyph unicode="7" horiz-adv-x="886" d="M14 1280v100h813q18 0 19 -18v-70l-510 -1292h-103q-18 0 -18 12q0 6 6 23l492 1227h-682q-16 0 -17 18z" />
<glyph unicode="8" horiz-adv-x="1021" d="M61 336q0 51 11.5 103.5t43 102.5t89 97t149.5 90q-80 37 -128 78t-73.5 84t-34.5 87t-9 87q0 74 25.5 135.5t75.5 107.5t127 71.5t179 25.5q100 0 174 -23.5t122 -65.5t71.5 -99.5t23.5 -124.5q0 -43 -10 -88.5t-38 -89.5t-78 -89t-130 -88q92 -39 150.5 -83t92.5 -93 t47 -103.5t13 -113.5q0 -80 -29.5 -147.5t-86 -116.5t-141.5 -77t-195 -28q-115 0 -198 28t-136 76t-80 113.5t-27 143.5zM190 344q0 -72 25 -123t68 -83t100 -47t123 -15t122 16.5t98 49t66.5 83.5t24.5 119q0 74 -23.5 126t-67.5 90t-106.5 66.5t-140.5 55.5 q-158 -53 -223.5 -132t-65.5 -206zM227 1067q0 -106 72 -172t211 -113q55 18 105.5 46t88 65t61 83t23.5 105q0 61 -22.5 104.5t-60 72t-88 42t-107.5 13.5q-59 0 -110.5 -14.5t-89.5 -45t-60.5 -77t-22.5 -109.5z" />
<glyph unicode="9" horiz-adv-x="1052" d="M76 942q0 104 30.5 190.5t86 146.5t135.5 93t178 33q94 0 177 -31t144.5 -101.5t96 -183t34.5 -276.5q0 -223 -53 -383t-144 -261t-212 -148.5t-254 -47.5q-16 0 -35.5 1t-36.5 3l10 99q10 -2 34 -3t42 -1q33 0 80 8t100.5 31.5t107.5 65.5t100 110.5t80 166t46 232.5 q-49 -78 -135 -127t-207 -49q-86 0 -160.5 26.5t-129 80t-85 134t-30.5 191.5zM205 965q0 -160 70 -255.5t217 -95.5q86 0 145 28t98 76t56.5 112.5t17.5 138.5q0 152 -71.5 245t-225.5 93t-230.5 -91.5t-76.5 -250.5z" />
<glyph unicode=":" d="M92 88q0 47 27.5 80t79.5 33q51 0 78.5 -33t27.5 -80t-27.5 -80t-78.5 -33t-79 33t-28 80zM92 842q0 47 27.5 79.5t79.5 32.5q51 0 78.5 -32.5t27.5 -79.5t-27.5 -80t-78.5 -33t-79 33t-28 80z" />
<glyph unicode=";" d="M90 109q0 45 28.5 75.5t78.5 30.5q45 0 82 -33q16 -18 26 -48t10 -81q0 -66 -17 -130t-42 -120.5t-51.5 -100.5t-44.5 -69l-70 48q10 16 29.5 47.5t38 74.5t33 93.5t14.5 103.5q-37 4 -59.5 16.5t-35 27.5t-16.5 32.5t-4 32.5zM96 842q0 47 28 79.5t79 32.5t78.5 -32.5 t27.5 -79.5t-27.5 -80t-78.5 -33t-79 33t-28 80z" />
<glyph unicode="&#x3c;" horiz-adv-x="1007" d="M49 641v104l907 420v-121l-802 -362l802 -363v-120l-886 409q-20 10 -21 33z" />
<glyph unicode="=" horiz-adv-x="1007" d="M49 434v92h889q18 0 18 -18v-92h-888q-18 0 -19 18zM49 877v92h889q18 0 18 -19v-92h-888q-18 0 -19 19z" />
<glyph unicode="&#x3e;" horiz-adv-x="1007" d="M49 199v120l803 363l-803 362v121l887 -409q20 -10 20 -33v-105z" />
<glyph unicode="?" horiz-adv-x="911" d="M61 1247q0 10 11 21q4 4 38.5 34.5t84.5 57.5q49 29 110.5 44t134.5 15q158 0 253 -82t95 -231q0 -66 -15 -115t-38 -90q-35 -59 -81 -105t-91 -98q-53 -57 -75.5 -103t-22.5 -110v-82h-100q-18 0 -19 19v88q0 86 32 142.5t77 103.5q35 37 70.5 71.5t64 72.5t46 83 t17.5 102q0 119 -64.5 173.5t-174.5 54.5q-100 0 -166 -41t-119 -101l-61 64q-6 6 -7 12zM299 88q0 47 27.5 80t79.5 33q51 0 78.5 -33t27.5 -80t-27.5 -80t-78.5 -33t-79 33t-28 80z" />
<glyph unicode="@" horiz-adv-x="1849" d="M94 408q0 264 82 454.5t215 313t299 180t336 57.5q190 0 327.5 -54t226.5 -148.5t132 -218.5t43 -261q0 -170 -36 -298t-97 -214t-146 -130t-184 -44q-55 0 -93 15.5t-61.5 39t-33.5 49t-12 44.5q-25 -35 -60 -63t-72.5 -46t-77.5 -28.5t-75 -10.5q-123 0 -201 82 t-78 256q0 125 34 235.5t98.5 193.5t156.5 131t211 48q94 0 170 -20.5t133 -48.5q-14 -25 -21 -49.5t-12 -47.5l-92 -501q-6 -35 -6 -58q0 -39 11.5 -60.5t28.5 -32.5t35.5 -13t31.5 -2q55 0 111.5 32.5t101.5 101t72.5 176t27.5 255.5q0 119 -32 223.5t-103.5 181 t-187 120.5t-281.5 44q-160 0 -302.5 -59t-250 -172t-170 -276.5t-62.5 -372.5q0 -145 44 -270.5t133.5 -216.5t225.5 -143t320 -52q49 0 103.5 4t108 10t100.5 13t80 16l24 -129q-88 -23 -193.5 -33t-211.5 -10q-215 0 -378 58t-272.5 163.5t-165 254t-55.5 331.5zM664 397 q0 -135 52 -189t126 -54q78 0 134 44t101 113l99 535q-41 23 -81 33t-100 10q-55 0 -114.5 -30t-107.5 -91t-78.5 -153.5t-30.5 -217.5z" />
<glyph unicode="A" horiz-adv-x="1155" d="M10 14q0 4 6 21l430 1186q14 37 23.5 77.5t9.5 63.5q0 12 -1 24.5t-5 18.5h178q18 0 25 -19l469 -1386h-135q-14 0 -21 18l-129 400h-581l-152 -418h-98q-18 0 -19 14zM317 526h508l-239 772z" />
<glyph unicode="B" horiz-adv-x="1146" d="M121 1405h461q113 0 189.5 -27.5t122.5 -74t65.5 -104.5t19.5 -120q0 -39 -6 -83t-24.5 -87t-52.5 -84t-91 -75q74 -25 124 -63t78.5 -86t41 -104.5t12.5 -115.5q0 -76 -26.5 -144.5t-79 -121t-128 -84t-172.5 -31.5h-497q-18 0 -19 18v1295q0 25 -5 51.5t-13 40.5z M272 109h353q135 0 211.5 74.5t76.5 209.5q0 133 -76.5 211t-211.5 78h-353v-573zM272 791h312q111 0 180.5 70.5t69.5 187.5q0 129 -69 188t-198 59h-295v-505z" />
<glyph unicode="C" horiz-adv-x="1126" d="M94 705q0 150 41 281.5t122 230t199.5 156t274.5 57.5q117 0 186.5 -19.5t81.5 -24.5q18 -8 23.5 -17t7.5 -26l12 -108q-57 29 -134 51.5t-169 22.5q-104 0 -195 -36t-158 -112t-105.5 -193.5t-38.5 -279.5q0 -152 41 -262.5t111.5 -183t163.5 -107.5t196 -35 q104 0 190 22.5t133 41.5l41 -123q-63 -25 -160.5 -45.5t-212.5 -20.5q-313 0 -482 190.5t-169 539.5z" />
<glyph unicode="D" horiz-adv-x="1323" d="M121 1405h112h385q147 0 271 -59q162 -80 251 -250t89 -394q0 -152 -42 -280.5t-122 -223t-192.5 -146.5t-254.5 -52h-460q-18 0 -19 18v1295q0 25 -5 51.5t-13 40.5zM272 115h351q98 0 182 40t145.5 114.5t96 184t34.5 248.5t-34.5 249t-96 184.5t-145.5 114.5t-182 40 h-351v-1175z" />
<glyph unicode="E" horiz-adv-x="1011" d="M121 1405h760q18 0 20 -21l14 -106q-12 8 -31.5 11t-39.5 3h-572v-499h590v-129q-10 6 -30.5 11t-43.5 5h-516v-567h605q23 0 43 5t30 11v-129h-792q-18 0 -19 18v1295q0 25 -5 51.5t-13 40.5z" />
<glyph unicode="F" horiz-adv-x="921" d="M121 1405h737q18 0 21 -21l14 -106q-12 8 -31.5 11t-40.5 3h-549v-522h533v-129q-10 6 -30.5 11t-43.5 5h-459v-657h-114q-18 0 -19 18v1295q0 25 -5 51.5t-13 40.5z" />
<glyph unicode="G" horiz-adv-x="1327" d="M94 705q0 158 44 291.5t128 232t207 154t281 55.5q131 0 216 -19.5t103 -27.5q14 -6 17.5 -10.5t5.5 -14.5l14 -127q-61 31 -149.5 54.5t-192.5 23.5q-117 0 -214 -39t-167 -116t-107.5 -191.5t-37.5 -268.5t42 -269.5t115.5 -192t172 -114.5t210.5 -38q86 0 163 13.5 t134 31.5v461h-278q-20 0 -21 18v95h412q20 0 20 -19v-618q0 -8 -3 -15.5t-15 -11.5q-29 -12 -73 -25.5t-99 -24.5t-116.5 -18.5t-125.5 -7.5q-166 0 -294 51.5t-215 146.5t-132 232.5t-45 307.5z" />
<glyph unicode="H" horiz-adv-x="1290" d="M121 1405h131q20 0 20 -19v-561h748v561q0 18 18 19h131q-8 -14 -12 -41t-4 -51v-1313h-115q-18 0 -18 18v691h-748v-709h-114q-18 0 -19 18v1295q0 25 -5 51.5t-13 40.5z" />
<glyph unicode="I" horiz-adv-x="411" d="M121 1405h170q-8 -14 -13.5 -41t-5.5 -51v-1313h-114q-18 0 -19 18v1295q0 25 -5 51.5t-13 40.5z" />
<glyph unicode="J" horiz-adv-x="886" d="M8 100l68 86q41 -39 108.5 -74.5t163.5 -35.5q156 0 216.5 90t60.5 248v899q0 25 -5.5 51.5t-13.5 40.5h170q-8 -14 -13 -41t-5 -51v-918q0 -100 -21.5 -180t-70 -135t-124 -84t-184.5 -29q-63 0 -117.5 12.5t-98.5 32t-77.5 43t-56.5 45.5z" />
<glyph unicode="K" horiz-adv-x="1159" d="M121 1405h131q20 0 20 -19v-593l609 596q8 8 15 12t22 4h147l-657 -645l751 -760h-174q-23 0 -41 18l-672 689v-707h-114q-18 0 -19 18v1295q0 25 -5 51.5t-13 40.5z" />
<glyph unicode="L" horiz-adv-x="952" d="M121 1405h170q-8 -14 -13.5 -41t-5.5 -51v-1200h586q23 0 43.5 5t30.5 11v-129h-774q-18 0 -19 18v1295q0 25 -5 51.5t-13 40.5z" />
<glyph unicode="M" horiz-adv-x="1540" d="M121 1405h205q27 0 33 -5t14 -24l397 -985l436 1014h213q-8 -14 -12 -41t-4 -51v-1313h-109q-18 0 -18 18v1268l-485 -1136h-62l-463 1159v-1309h-108q-18 0 -19 18v1295q0 25 -5 51.5t-13 40.5z" />
<glyph unicode="N" horiz-adv-x="1261" d="M121 1405h192q20 0 31 -16l653 -1153v1150q0 18 19 19h125q-8 -14 -12.5 -41t-4.5 -51v-1323h-104q-20 0 -31 16l-723 1274v-1280h-108q-18 0 -19 18v1295q0 25 -5 51.5t-13 40.5z" />
<glyph unicode="O" horiz-adv-x="1433" d="M94 702q0 168 41 303.5t120 231.5t194.5 148.5t267.5 52.5t267.5 -52.5t194 -148.5t119.5 -231.5t41 -303.5t-41 -303t-119.5 -231t-194 -148.5t-267.5 -52.5t-267.5 52.5t-194.5 148.5t-120 231.5t-41 302.5zM242 702q0 -145 32.5 -260.5t94 -195.5t149.5 -123t199 -43 t199 43t149 123t94 195.5t33 260.5q0 295 -126 459t-349 164q-221 0 -348 -164t-127 -459z" />
<glyph unicode="P" horiz-adv-x="1099" d="M121 1405h444q127 0 202 -25.5t122 -60.5q55 -43 90 -114.5t35 -178.5q0 -123 -36 -199.5t-95 -128.5q-51 -43 -136 -74.5t-227 -31.5q-82 0 -137 3t-111 7v-602h-114q-18 0 -19 18v1295q0 25 -5 51.5t-13 40.5zM272 717q25 -4 85.5 -10.5t140.5 -6.5q182 0 276 76 t94 232q0 92 -27.5 148t-73.5 88t-104.5 42t-119.5 10h-271v-579z" />
<glyph unicode="Q" horiz-adv-x="1433" d="M94 702q0 168 41 303.5t120 231.5t194.5 148.5t267.5 52.5t267.5 -52.5t194 -148.5t119.5 -231.5t41 -303.5q0 -244 -85 -418.5t-250 -254.5l245 -246h-176q-18 0 -27.5 4t-23.5 20l-158 175q-63 -14 -147 -15q-152 0 -267.5 52.5t-194.5 148.5t-120 231.5t-41 302.5z M242 702q0 -145 32.5 -260.5t94 -195.5t149.5 -123t199 -43t199 43t149 123t94 195.5t33 260.5q0 295 -126 459t-349 164q-221 0 -348 -164t-127 -459z" />
<glyph unicode="R" horiz-adv-x="1167" d="M121 1405h454q68 0 118 -7t89 -18.5t68 -28t51 -34.5q53 -43 88 -115t35 -164q0 -49 -10 -105t-37 -110.5t-75 -100.5t-122 -75l363 -647h-154q-23 0 -35 27l-307 585h-375v-612h-114q-18 0 -19 18v1295q0 25 -5 51.5t-13 40.5zM272 721h291q147 0 231.5 74.5t84.5 226.5 q0 86 -27 139t-70 83t-97 41t-110 11h-303v-575z" />
<glyph unicode="S" horiz-adv-x="1054" d="M45 57l41 113q72 -35 164 -60.5t209 -25.5q70 0 134 13.5t113.5 45t78 82.5t28.5 127q0 66 -22.5 111t-65.5 81t-107.5 64.5t-150.5 59.5q-80 29 -148.5 61.5t-118.5 76.5t-79 104.5t-29 146.5q0 70 24.5 138.5t79 121.5t141.5 87t212 34q117 0 187.5 -14.5t86.5 -20.5 q14 -6 18.5 -14.5t6.5 -18.5l12 -104q-72 29 -149.5 44t-151.5 15q-57 0 -116.5 -10t-107.5 -39t-79 -78t-31 -129q0 -61 27 -105t73 -78t110.5 -61.5t139.5 -54.5q88 -31 159 -65.5t121 -83t78 -112t28 -149.5q0 -84 -29 -155.5t-89.5 -124.5t-151.5 -83t-216 -30 q-135 0 -241.5 24.5t-188.5 65.5z" />
<glyph unicode="T" horiz-adv-x="1017" d="M16 1292v113h951q18 0 20 -21l14 -106q-12 8 -31.5 11t-39.5 3h-355v-1292h-114q-18 0 -19 18v1274h-426z" />
<glyph unicode="U" horiz-adv-x="1253" d="M111 1405h131q20 0 20 -19v-903q0 -201 84 -300t281 -99t280.5 99.5t83.5 299.5v903q0 18 21 19h131q-8 -14 -13.5 -41t-5.5 -51v-867q0 -104 -23.5 -191t-80.5 -151.5t-153.5 -100.5t-239.5 -36t-239.5 36t-154 100.5t-81 151.5t-23.5 191v867q0 25 -5 51.5t-13 40.5z " />
<glyph unicode="V" horiz-adv-x="1150" d="M0 1405h150q16 0 22 -21l410 -1265l407 1265q6 20 23 21h139q-25 -23 -45 -84l-442 -1329h-158q-16 0 -25 18l-436 1311q-20 61 -45 84z" />
<glyph unicode="W" horiz-adv-x="1689" d="M0 1405h145q16 0 23 -21l278 -1263l320 1259h147q23 0 29 -24l311 -1233l275 1261q6 20 22 21h140q-10 -10 -24.5 -32.5t-20.5 -51.5l-306 -1329h-157q-23 0 -29 24l-307 1217l-316 -1241h-157q-23 0 -29 24l-299 1303q-6 29 -20.5 52.5t-24.5 33.5z" />
<glyph unicode="X" horiz-adv-x="1107" d="M27 14q0 6 8 21l450 710l-370 619q-8 14 -18.5 25.5t-14.5 15.5h145q10 0 14.5 -5t10.5 -16l311 -524l326 524q6 10 10 15.5t14 5.5h136q-12 -8 -33 -39l-383 -610l457 -756h-144q-16 0 -26 18l-367 623l-397 -641h-111q-18 0 -18 14z" />
<glyph unicode="Y" horiz-adv-x="1026" d="M0 1405h147q10 0 14.5 -5t10.5 -16l338 -600l356 600q6 10 10.5 15.5t14.5 5.5h135q-12 -8 -33 -39l-428 -709v-657h-114q-18 0 -19 18v635l-399 711q-8 14 -18.5 25.5t-14.5 15.5z" />
<glyph unicode="Z" horiz-adv-x="1126" d="M47 18v64l834 1210h-754q-18 0 -18 19v94h925q18 0 19 -19v-63l-832 -1210h772q23 0 43.5 5t30.5 11v-129h-1001q-18 0 -19 18z" />
<glyph unicode="[" horiz-adv-x="585" d="M123 -268v1673h416q18 0 18 -19v-86h-311v-1482h293q18 0 18 -19v-86h-416q-18 0 -18 19z" />
<glyph unicode="\" horiz-adv-x="464" d="M-18 1405h94q23 0 28 -23l379 -1382h-94q-23 0 -29 23z" />
<glyph unicode="]" horiz-adv-x="585" d="M29 -182h311v1482h-293q-18 0 -18 19v86h415q18 0 19 -19v-1673h-416q-18 0 -18 19v86z" />
<glyph unicode="^" horiz-adv-x="907" d="M61 643q0 2 5 14l317 748h115q14 0 19 -6t9 -17l320 -753h-117l-283 665l-280 -665h-88q-16 0 -17 14z" />
<glyph unicode="_" horiz-adv-x="958" d="M-33 -285h1024v-102h-1024v102z" />
<glyph unicode="`" horiz-adv-x="989" d="M309 1395h152q25 0 33 -15l182 -305h-92q-20 0 -33 15l-207 268q-8 10 -19.5 21.5z" />
<glyph unicode="a" horiz-adv-x="940" d="M59 270q0 147 95.5 230.5t281.5 83.5q70 0 137.5 -6.5t116.5 -14.5v70q0 139 -69.5 190t-196.5 51q-92 0 -154.5 -21.5t-97.5 -39.5l-22 59l-4.5 13.5t-2.5 11.5q0 16 23 29q20 10 94 31.5t184 21.5q109 0 180.5 -23.5t113.5 -67.5t59.5 -105.5t17.5 -135.5v-647h-102 q-20 0 -21 18v78q-27 -23 -57.5 -44t-68.5 -38.5t-87 -28t-110 -10.5q-154 0 -232 80t-78 215zM188 274q0 -109 60.5 -153.5t159.5 -44.5q57 0 102 14t81 34.5t60.5 44.5t38.5 44v250q-55 10 -120.5 18t-123.5 8q-129 0 -193.5 -52t-64.5 -163z" />
<glyph unicode="b" horiz-adv-x="1011" d="M94 1407l64 6q16 2 34.5 4t28.5 2q18 0 19 -18v-520q14 12 42.5 29.5t66.5 32.5t85 25.5t101 10.5q184 0 293.5 -124t109.5 -349q0 -139 -35 -238.5t-98.5 -165t-149.5 -96.5t-186 -31q-117 0 -212 19.5t-161 54.5q14 23 17.5 54.5t3.5 54.5v1157q0 29 -5.5 53.5 t-17.5 38.5zM240 125q55 -27 117.5 -37t117.5 -10q70 0 129.5 23.5t103.5 72.5t69.5 126t25.5 185q0 193 -82 289t-211 96q-150 0 -270 -112v-633z" />
<glyph unicode="c" horiz-adv-x="817" d="M74 477q0 102 28.5 192.5t86 158t142.5 106.5t197 39q78 0 120 -8.5t65 -18.5q12 -4 16 -9t6 -17l10 -105q-39 20 -92 33.5t-123 13.5t-129 -24.5t-102 -73.5t-66.5 -122t-23.5 -171q0 -193 90 -287t248 -94q84 0 139 16.5t76 24.5l29 -104q-47 -18 -113 -31.5 t-156 -13.5q-88 0 -169 24.5t-143.5 82.5t-99 153.5t-36.5 234.5z" />
<glyph unicode="d" horiz-adv-x="1036" d="M74 467q0 125 32.5 221t89 160.5t133.5 97.5t167 33q55 0 103 -10.5t85 -25.5t63.5 -31.5t40.5 -28.5v432q0 29 -5 53.5t-17 38.5l63 6q16 2 35 4t29 2q18 0 18 -18v-1168q0 -47 6.5 -112.5t16.5 -120.5h-109q-14 0 -18 14q-2 8 -6 35t-8 62q-18 -20 -49 -44t-71 -44.5 t-90.5 -34t-109.5 -13.5q-86 0 -159.5 27t-127 86t-83 152.5t-29.5 226.5zM207 471q0 -115 23.5 -189.5t63.5 -120.5t94 -64.5t116 -18.5q51 0 95 14t80 37t63.5 49.5t45.5 50.5v531q-16 16 -41.5 36.5t-60.5 38t-80 28.5t-100 11q-147 0 -223 -110.5t-76 -292.5z" />
<glyph unicode="e" horiz-adv-x="946" d="M74 487q0 113 26.5 204t78.5 154.5t132 98.5t187 35q100 0 172.5 -36t119 -101.5t68 -157.5t21.5 -205q0 -29 -31 -28h-643q16 -201 107 -284t255 -83q80 0 137.5 10t100.5 27l33 -96q-39 -16 -109 -33t-184 -17q-117 0 -205 37t-147.5 103.5t-89 161t-29.5 210.5z M205 553h540q-4 74 -18 134.5t-44 104.5t-79 67.5t-121 23.5q-74 0 -126 -27t-84.5 -71t-49 -104t-18.5 -128z" />
<glyph unicode="f" horiz-adv-x="536" d="M16 870v41l144 52v135q0 147 83 234t224 87q66 0 101.5 -8t54.5 -14q12 -4 16 -9.5t6 -17.5l14 -96q-27 10 -70.5 23.5t-107.5 13.5q-90 0 -144 -52.5t-54 -179.5v-125h235q18 0 19 -18l10 -84h-264v-852h-103q-20 0 -20 18v834h-123q-20 0 -21 18z" />
<glyph unicode="g" horiz-adv-x="1015" d="M74 469q0 133 35.5 229.5t98 159t150.5 92t193 29.5q123 0 213 -20.5t154 -51.5q-16 -27 -19.5 -58.5t-3.5 -53.5v-764q0 -102 -22.5 -181t-73.5 -131.5t-133 -79t-201 -26.5q-111 0 -181.5 13.5t-125.5 29.5l26 100q47 -14 108.5 -26.5t151.5 -12.5q160 0 244 60.5 t84 208.5v94q-59 -39 -131 -63.5t-184 -24.5q-178 0 -280.5 120.5t-102.5 356.5zM209 481q0 -201 76.5 -291t203.5 -90q90 0 158 27t125 74v630q-39 16 -94 32t-135 16q-72 0 -133.5 -21.5t-105.5 -69t-69.5 -123t-25.5 -184.5z" />
<glyph unicode="h" horiz-adv-x="1028" d="M94 1407l64 6q16 2 34.5 4t28.5 2q18 0 19 -18v-563q53 59 132 100t187 41q186 0 265 -90t79 -254v-635h-104q-18 0 -19 18v578q0 133 -52 203.5t-185 70.5q-106 0 -181 -53t-122 -121v-696h-103q-20 0 -20 18v1297q0 29 -5.5 53.5t-17.5 38.5z" />
<glyph unicode="i" horiz-adv-x="372" d="M84 1282q0 33 21.5 59.5t74.5 26.5q51 0 72.5 -25.5t21.5 -60.5q0 -29 -21.5 -55.5t-72.5 -26.5q-53 0 -74.5 26.5t-21.5 55.5zM98 954h125q18 0 19 -18v-936h-103q-20 0 -20 18v844q0 63 -21 92z" />
<glyph unicode="j" horiz-adv-x="372" d="M-205 -367l21 93q18 -8 44.5 -11.5t55.5 -3.5q39 0 75 10.5t64.5 37t46 70.5t17.5 110v923q0 63 -21 92h125q18 0 19 -18v-983q0 -176 -85 -258t-214 -82q-45 0 -82 5t-66 15zM84 1282q0 33 21.5 59.5t74.5 26.5q51 0 72.5 -25.5t21.5 -60.5q0 -29 -21.5 -55.5 t-72.5 -26.5q-53 0 -74.5 26.5t-21.5 55.5z" />
<glyph unicode="k" horiz-adv-x="917" d="M94 1407l64 6q16 2 34.5 4t28.5 2q18 0 19 -18v-844l411 377q14 12 25.5 16t28.5 4h131l-465 -424l547 -530h-148q-16 0 -27.5 4t-25.5 16l-477 465v-485h-103q-20 0 -20 18v1297q0 29 -5.5 53.5t-17.5 38.5z" />
<glyph unicode="l" horiz-adv-x="364" d="M94 1407l64 6q16 2 34.5 4t28.5 2q18 0 19 -18v-1401h-103q-20 0 -20 18v1297q0 29 -5.5 53.5t-17.5 38.5z" />
<glyph unicode="m" horiz-adv-x="1622" d="M84 954h100q20 0 27 -18q2 -6 3 -15.5t3 -19.5q4 -14 5 -29.5t3 -44.5q53 63 133 107.5t181 44.5q117 0 189.5 -42t107.5 -122q61 72 148 118t185 46q174 0 251 -90t77 -254v-635h-104q-18 0 -19 18v578q0 133 -50 203.5t-173 70.5q-94 0 -167 -53t-118 -121v-696h-104 q-18 0 -19 18v578q0 133 -50 203.5t-173 70.5q-94 0 -166.5 -53t-117.5 -121v-696h-105q-18 0 -18 18v699q0 47 -4.5 90t-8.5 78q-4 25 -8 42t-8 27z" />
<glyph unicode="n" horiz-adv-x="1024" d="M84 954h100q20 0 27 -18q2 -6 3 -15.5t3 -19.5q4 -14 5 -29.5t3 -44.5q53 63 135 107.5t195 44.5q186 0 265 -90t79 -254v-635h-104q-18 0 -19 18v578q0 131 -53 202.5t-186 71.5q-106 0 -181 -53t-120 -121v-696h-105q-18 0 -18 18v699q0 47 -4.5 90t-8.5 78 q-4 25 -8 42t-8 27z" />
<glyph unicode="o" horiz-adv-x="1019" d="M74 477q0 125 31.5 219.5t89 158t138.5 94t177 30.5q98 0 178 -30.5t137.5 -94t89 -158t31.5 -219.5q0 -117 -31.5 -209t-90 -157.5t-138.5 -100.5t-176 -35t-176 35t-138.5 100.5t-90 158.5t-31.5 208zM209 477q0 -82 17.5 -154.5t54 -128t93 -87t136.5 -31.5 t137.5 31.5t93 87t53 128t17.5 154.5q0 84 -17.5 157t-54.5 127t-93 86t-136 32q-78 0 -134.5 -32t-93 -86t-55 -127t-18.5 -157z" />
<glyph unicode="p" horiz-adv-x="1024" d="M84 954h100q20 0 27 -18q2 -6 4 -18.5t4 -22.5q2 -12 3 -24.5t3 -26.5q18 20 49 43.5t72 44t92 34t113 13.5q86 0 159.5 -26.5t127 -85t83 -150.5t29.5 -225q0 -125 -32.5 -220.5t-89 -159t-134.5 -96t-166 -32.5q-55 0 -103 10t-85 25.5t-63.5 32t-40.5 28.5v-457h-105 q-18 0 -18 19v1075q0 47 -4.5 90t-8.5 78q-6 45 -16 69zM236 203q14 -16 40.5 -37t61.5 -38t80 -28.5t100 -11.5q147 0 223 108.5t76 290.5q0 113 -23.5 189t-63.5 120t-94 62.5t-116 18.5q-51 0 -95 -13.5t-80 -35t-63.5 -47t-45.5 -50.5v-528z" />
<glyph unicode="q" horiz-adv-x="1015" d="M74 465q0 133 35.5 230.5t99 160t152 93t192.5 30.5q123 0 212 -20.5t153 -51.5q-16 -27 -19.5 -58.5t-3.5 -53.5v-1172h-104q-18 0 -19 19v430q-59 -39 -131 -63.5t-184 -24.5q-178 0 -280.5 122.5t-102.5 358.5zM209 477q0 -201 76.5 -293t203.5 -92q90 0 158 26.5 t125 74.5v638q-39 16 -93 32t-134 16q-72 0 -133.5 -22.5t-106.5 -71t-70.5 -124t-25.5 -184.5z" />
<glyph unicode="r" horiz-adv-x="585" d="M84 954h100q20 0 27 -18q2 -6 4 -18.5t4 -22.5q4 -16 6 -48t6 -56q63 82 135 129t164 47q27 0 29 -27l10 -111q-35 6 -67 7q-51 0 -92 -18.5t-74 -47.5t-57.5 -62.5t-42.5 -64.5v-643h-105q-18 0 -18 18v699q0 47 -4.5 90t-8.5 78q-6 45 -16 69z" />
<glyph unicode="s" horiz-adv-x="747" d="M43 37l29 94q35 -18 96 -38.5t147 -20.5q39 0 80 6t74 23.5t54.5 49t21.5 82.5q0 74 -41 113t-127 74l-125 49q-53 20 -88 48t-55.5 59.5t-27.5 67.5t-7 73q0 47 16 94t53 84t97.5 60.5t148.5 23.5q78 0 124 -8t62 -15q12 -4 16.5 -9t6.5 -17l10 -86q-51 23 -105 33 t-102 10q-37 0 -74.5 -5t-69.5 -22.5t-52.5 -49.5t-20.5 -83q0 -55 32 -90t91 -57l137 -54q123 -47 173.5 -109.5t50.5 -168.5q0 -119 -79 -196t-265 -77q-82 0 -151 16.5t-130 45.5z" />
<glyph unicode="t" horiz-adv-x="598" d="M16 870v50q90 31 133.5 98t53.5 196h63q20 0 21 -18v-242h235q16 0 21 -18l10 -84h-266v-600q0 -82 35.5 -129t123.5 -47q43 0 73 9t40 13l29 -90q-25 -10 -70 -21.5t-100 -11.5t-102.5 12.5t-81 42t-53 78t-19.5 121.5v623h-125q-20 0 -21 18z" />
<glyph unicode="u" horiz-adv-x="1005" d="M80 954h119q18 0 18 -18v-578q0 -133 53.5 -203.5t186.5 -70.5q106 0 181 53t120 121v596q0 35 -4 59.5t-11 40.5h119q18 0 19 -18v-936h-105q-18 0 -18 18v97q-53 -59 -132 -99.5t-188 -40.5q-186 0 -265 90.5t-79 253.5v535q0 35 -4 59.5t-10 40.5z" />
<glyph unicode="v" horiz-adv-x="878" d="M0 954h127q23 0 29 -20l286 -848l287 848q6 20 29 20h121q-16 -12 -27.5 -33.5t-22.5 -48.5l-309 -872h-151q-14 0 -21 18l-301 854q-20 57 -47 82z" />
<glyph unicode="w" horiz-adv-x="1380" d="M0 954h127q23 0 29 -20l225 -836l252 830h115q14 0 20 -19l233 -805l230 830q6 20 29 20h120q-33 -27 -49 -82l-254 -872h-143q-14 0 -21 18l-225 748l-231 -766h-144q-14 0 -20 18l-246 854q-16 53 -47 82z" />
<glyph unicode="x" horiz-adv-x="813" d="M10 12q0 6 6 17l328 471l-266 407q-10 16 -18.5 28.5t-16.5 18.5h125q16 0 27 -16l219 -350l237 350q10 16 27 16h115q-8 -6 -16.5 -18t-18.5 -29l-281 -405l326 -502h-115q-18 0 -29 16l-251 396l-279 -412h-102q-16 0 -17 12z" />
<glyph unicode="y" horiz-adv-x="901" d="M0 -348l33 96q8 -4 40.5 -19.5t78.5 -15.5q70 0 117.5 44t97.5 169l51 129l-367 817q-12 27 -22.5 48.5t-24.5 33.5h129q14 0 19.5 -5t9.5 -15l317 -717l271 717q8 20 28 20h123q-16 -12 -27.5 -33.5t-21.5 -48.5l-371 -976q-55 -145 -124.5 -214t-194.5 -69 q-63 0 -103.5 14.5t-58.5 24.5z" />
<glyph unicode="z" horiz-adv-x="839" d="M41 18v52l569 782h-514q-18 0 -18 18v84h676q18 0 18 -18v-51l-569 -783h502q23 0 43 5.5t30 9.5v-117h-719q-18 0 -18 18z" />
<glyph unicode="{" horiz-adv-x="628" d="M29 522v92h4q82 0 135 53.5t53 151.5v244q0 70 11.5 132t44 109.5t93 74t158.5 26.5h54q18 0 18 -19v-86h-78q-100 0 -136 -56t-36 -175v-184q0 -74 -9 -127t-30.5 -91t-54.5 -63.5t-82 -44.5q49 -18 82 -44t54.5 -63.5t30.5 -91t9 -127.5v-184q0 -119 36 -175t136 -56 h60q18 0 18 -19v-86h-72q-98 0 -158.5 27t-93 74t-44 108.5t-11.5 132.5v244q0 98 -51 149.5t-123 55.5q-18 0 -18 18z" />
<glyph unicode="|" horiz-adv-x="471" d="M174 0v1405h123v-1405h-123z" />
<glyph unicode="}" horiz-adv-x="628" d="M29 -182h77q100 0 136.5 56t36.5 175v184q0 74 9 127.5t30.5 91t54.5 63.5t82 44q-49 18 -82 44t-54.5 64t-30.5 91t-9 127v184q0 119 -36 175t-137 56h-59q-18 0 -18 19v86h71q98 0 158.5 -26.5t93.5 -74t44.5 -109.5t11.5 -132v-244q0 -98 51 -149.5t123 -55.5 q18 0 18 -18v-92h-4q-82 0 -135 -53.5t-53 -151.5v-244q0 -72 -11.5 -133t-44.5 -108t-93 -74t-159 -27h-53q-18 0 -18 19v86z" />
<glyph unicode="~" horiz-adv-x="1107" d="M41 406q59 127 134 182t153 55q63 0 114.5 -19.5t106.5 -54.5q59 -39 118.5 -76.5t114.5 -37.5q70 0 112 38.5t83 116.5l90 -47q-59 -127 -134 -182t-153 -55q-63 0 -114.5 19.5t-106.5 53.5q-59 39 -117.5 77t-115.5 38q-70 0 -112 -39t-83 -117z" />
<glyph unicode="&#xa1;" d="M94 1307q0 47 28 79.5t79 32.5t78.5 -32.5t27.5 -79.5t-27.5 -80t-78.5 -33t-79 33t-28 80zM135 18l10 957h91q18 0 18 -19l16 -864q0 -25 5.5 -51.5t13.5 -40.5h-133q-20 0 -21 18z" />
<glyph unicode="&#xa2;" horiz-adv-x="837" d="M74 690q0 92 23.5 175t70.5 148.5t116.5 108.5t164.5 58v172h86v-166q76 0 115.5 -8.5t62.5 -18.5q12 -4 16 -9t6 -17l10 -105q-39 20 -91 33.5t-119 13.5v-772h12q84 0 139 16.5t76 24.5l29 -104q-47 -18 -108.5 -30.5t-147.5 -14.5v-195h-86v199q-76 8 -144.5 38.5 t-120 89t-81 147.5t-29.5 216zM209 684q0 -160 62.5 -251t177.5 -120v752q-109 -25 -174.5 -120t-65.5 -261z" />
<glyph unicode="&#xa3;" horiz-adv-x="999" d="M12 18v95h107l119 561h-117q-18 0 -19 18v84h156l41 195q16 76 43 153.5t77 140t130 101.5t203 39q86 0 130 -10.5t62 -18.5q12 -4 16.5 -9t6.5 -17l12 -105q-41 20 -94.5 36.5t-122.5 16.5q-82 0 -138.5 -23.5t-94 -64.5t-61.5 -98t-38 -127l-45 -209h346q27 0 29 -24 l10 -78h-405l-119 -561h596q23 0 43 5t30 11v-129h-884q-18 0 -19 18z" />
<glyph unicode="&#xa4;" horiz-adv-x="1056" d="M10 238l140 145q-51 63 -80 141t-29 164t28.5 164t80.5 141l-140 146l82 86l144 -148q61 47 134.5 73t157.5 26t158 -26t135 -73l144 148l82 -86l-140 -146q51 -63 80 -141t29 -164t-29 -164t-80 -141l140 -145l-82 -86l-144 147q-61 -47 -135 -72.5t-158 -25.5 t-157.5 25.5t-134.5 72.5l-144 -147zM160 688q0 -78 28.5 -147.5t78.5 -120.5t116.5 -81t144.5 -30q76 0 143.5 30t118 81t79 120.5t28.5 147.5t-28.5 147.5t-79 121t-118 81t-143.5 29.5q-78 0 -144.5 -29.5t-116.5 -81t-78.5 -121t-28.5 -147.5z" />
<glyph unicode="&#xa5;" horiz-adv-x="954" d="M-33 1380h129q10 0 14.5 -5t10.5 -15l350 -608l365 608q6 10 10 15t14 5h127q-12 -8 -33 -39l-376 -614h305v-92h-357v-195h357v-92h-357v-348h-108q-18 0 -19 18v330h-356v92h356v195h-356v92h307l-350 612q-8 14 -18.5 25.5t-14.5 15.5z" />
<glyph unicode="&#xa6;" horiz-adv-x="471" d="M174 0v469h123v-469h-123zM174 936v469h123v-469h-123z" />
<glyph unicode="&#xa7;" horiz-adv-x="931" d="M49 -41l43 96q57 -29 141 -50t179 -21q53 0 104 8t91 28.5t64.5 54.5t24.5 85q0 86 -58 133t-169 76q-57 14 -125 29.5t-126 45t-97 77.5t-39 126q0 33 7 68t28.5 66.5t59.5 59t97 50.5q-59 27 -96 55.5t-57.5 59t-27.5 63.5t-7 70q0 125 94 202.5t275 77.5 q109 0 170 -14t84 -25q16 -6 18 -28l10 -95q-51 23 -120.5 42.5t-149.5 19.5q-117 0 -188.5 -44t-71.5 -134q0 -78 65.5 -121t151.5 -59l125 -25q61 -12 113.5 -28.5t89 -45t58 -71.5t21.5 -107q0 -88 -45 -152.5t-143 -107.5q104 -49 144 -104.5t40 -147.5 q0 -137 -101 -219t-300 -82q-137 0 -232.5 30.5t-144.5 57.5zM201 670q0 -90 74.5 -135t246.5 -68q78 20 134.5 67.5t56.5 129.5q0 45 -18.5 75.5t-53.5 50t-84 32t-111 22.5q-104 -8 -174.5 -48t-70.5 -126z" />
<glyph unicode="&#xa8;" horiz-adv-x="989" d="M195 1180q0 41 21.5 73.5t74.5 32.5q51 0 72.5 -32.5t21.5 -73.5q0 -39 -21.5 -72t-72.5 -33q-53 0 -74.5 33t-21.5 72zM618 1180q0 41 22 73.5t75 32.5q51 0 72.5 -32.5t21.5 -73.5q0 -39 -21.5 -72t-72.5 -33q-53 0 -75 33t-22 72z" />
<glyph unicode="&#xa9;" horiz-adv-x="1658" d="M94 702q0 152 57.5 286t158 233.5t234.5 158t285 58.5q152 0 286 -58.5t233.5 -158t158 -233.5t58.5 -286t-58.5 -285.5t-158 -234t-233.5 -158t-286 -57.5t-285.5 57.5t-234 158t-158 234t-57.5 285.5zM215 702q0 -129 48 -243.5t132 -199.5t195.5 -134t238.5 -49 t239 49t196 134t132 199.5t48 243.5t-48 244t-132 200t-196 134t-239 49t-238.5 -49t-195.5 -134t-132 -200t-48 -244zM489 705q0 78 24 147.5t71 122.5t115.5 84t160.5 31q61 0 101 -9.5t55 -13.5q16 -4 20 -12t6 -19l15 -98q-61 29 -106.5 37t-86.5 8q-49 0 -93 -15.5 t-78 -50t-53 -89t-19 -134.5q0 -72 20.5 -123t56 -84.5t80.5 -49t94 -15.5q47 0 95.5 10t93.5 25l33 -99q-53 -20 -109.5 -31.5t-116.5 -11.5q-184 0 -281.5 102.5t-97.5 287.5z" />
<glyph unicode="&#xaa;" horiz-adv-x="747" d="M45 850q0 117 74 183.5t209 66.5q66 0 115 -6.5t106 -16.5v41q0 113 -52.5 155t-156.5 42q-78 0 -128 -13.5t-81 -29.5l-16 55q-4 12 -4 21q0 8 14 16q16 8 76.5 24.5t136.5 16.5q94 0 156.5 -18.5t99.5 -53.5t51 -83t14 -107v-510h-94q-16 0 -16 18v60 q-37 -35 -96.5 -68t-161.5 -33q-127 0 -186.5 67.5t-59.5 172.5zM156 854q0 -90 49 -122t119 -32q45 0 82.5 12.5t65.5 31t47.5 38t29.5 33.5v180q-47 10 -98.5 17.5t-92.5 7.5q-96 0 -149 -37t-53 -129z" />
<glyph unicode="&#xab;" horiz-adv-x="864" d="M45 520l254 336h145l-251 -336l251 -336h-145zM420 520l254 336h145l-252 -336l252 -336h-145z" />
<glyph unicode="&#xac;" horiz-adv-x="1007" d="M45 877v92h889q18 0 18 -19v-534h-92q-18 0 -18 18v424h-779q-18 0 -18 19z" />
<glyph unicode="&#xad;" horiz-adv-x="655" d="M74 487v125h508v-125h-508z" />
<glyph unicode="&#xae;" horiz-adv-x="1658" d="M94 702q0 152 57.5 286t158 233.5t234.5 158t285 58.5q152 0 286 -58.5t233.5 -158t158 -233.5t58.5 -286t-58.5 -285.5t-158 -234t-233.5 -158t-286 -57.5t-285.5 57.5t-234 158t-158 234t-57.5 285.5zM215 702q0 -129 48 -243.5t132 -199.5t195.5 -134t238.5 -49 t239 49t196 134t132 199.5t48 243.5t-48 244t-132 200t-196 134t-239 49t-238.5 -49t-195.5 -134t-132 -200t-48 -244zM549 1104h287q68 0 110.5 -14.5t69.5 -36.5q35 -29 55.5 -73t20.5 -97q0 -59 -25 -116.5t-102 -104.5l211 -361h-123q-20 0 -31 16l-170 318h-176v-334 h-92q-18 0 -19 18v685q0 23 -4 53t-12 47zM676 727h147q72 0 111 37t39 108q0 78 -43 108t-99 30h-155v-283z" />
<glyph unicode="&#xaf;" horiz-adv-x="989" d="M205 1120v127h596v-127h-596z" />
<glyph unicode="&#xb0;" horiz-adv-x="970" d="M125 1044q0 76 27.5 141.5t77 115t115 77t140.5 27.5q76 0 141.5 -27.5t115 -77t77 -115t27.5 -141.5t-27.5 -141t-77 -114.5t-115 -77t-141.5 -27.5t-141 27.5t-114.5 77t-77 114.5t-27.5 141zM246 1044q0 -51 19.5 -97t52 -79.5t75.5 -54t92 -20.5t92.5 20.5t76 54 t52 79.5t19.5 97t-19.5 97.5t-52 80t-75.5 54t-93 20.5q-49 0 -92 -20.5t-75.5 -54t-52 -79.5t-19.5 -98z" />
<glyph unicode="&#xb1;" horiz-adv-x="1007" d="M49 18v93h889q18 0 18 -19v-92h-888q-18 0 -19 18zM49 717v92h400v459h92q18 0 18 -19v-440h379q18 0 18 -18v-93h-397v-465h-92q-18 0 -18 19v446h-381q-18 0 -19 19z" />
<glyph unicode="&#xb2;" horiz-adv-x="620" d="M31 600v57l239 226q55 51 91 92t55.5 74.5t27 62.5t7.5 59q0 76 -42 109t-114 33q-68 0 -116 -33t-83 -72l-51 58q-6 6 -6 14t12 20q8 8 28.5 25.5t54.5 35t79 31t104 13.5q121 0 186.5 -61.5t65.5 -159.5q0 -47 -11 -88t-35.5 -81t-62.5 -81t-93 -90l-183 -166h340 q16 0 36 4t30 10v-106h-539q-20 0 -20 14z" />
<glyph unicode="&#xb3;" horiz-adv-x="634" d="M31 610l28 88q41 -16 90.5 -28.5t96.5 -12.5q96 0 159.5 42t63.5 135q0 72 -51 116.5t-178 44.5h-15q-20 0 -20 15v69l237 219h-372q-20 0 -21 15v76h486q20 0 20 -15v-80l-238 -223q88 -4 141.5 -27.5t82 -57.5t38 -74t9.5 -72q0 -68 -26.5 -119t-72 -85t-105.5 -50.5 t-128 -16.5q-78 0 -134 13.5t-91 27.5z" />
<glyph unicode="&#xb4;" horiz-adv-x="989" d="M303 1075l182 305q8 14 33 15h152l-15.5 -15.5t-19.5 -21.5l-207 -268q-12 -14 -33 -15h-92z" />
<glyph unicode="&#xb5;" horiz-adv-x="1005" d="M80 954h119q18 0 18 -18v-574q0 -133 53.5 -203.5t188.5 -70.5q106 0 180 51t119 119v596q0 35 -4 59.5t-11 40.5h119q18 0 19 -18v-936h-123v115q-49 -59 -125 -99.5t-189 -40.5q-74 0 -134 27t-93 70v-449h-104q-18 0 -19 19v1212q0 35 -4 59.5t-10 40.5z" />
<glyph unicode="&#xb6;" horiz-adv-x="1097" d="M35 918q0 113 33.5 202.5t96 153t150.5 97.5t197 34h465q-12 -14 -17.5 -39t-5.5 -53v-1690h-106v1682h-303v-1682h-107v832q-100 10 -176 49t-126 100.5t-75.5 141t-25.5 172.5z" />
<glyph unicode="&#xb7;" d="M92 688q0 47 27.5 80t79.5 33q51 0 78.5 -33t27.5 -80t-27.5 -80t-78.5 -33t-79 33t-28 80z" />
<glyph unicode="&#xb8;" horiz-adv-x="989" d="M348 -375q0 8 6 21l107 239q8 18 33 19h149q-8 -6 -17.5 -19.5t-17.5 -25.5l-151 -246h-90q-18 0 -19 12z" />
<glyph unicode="&#xb9;" horiz-adv-x="444" d="M31 1190l225 199h96v-803h-108v665l-156 -135z" />
<glyph unicode="&#xba;" horiz-adv-x="774" d="M41 1020q0 100 25.5 175t71.5 124t109.5 73.5t139.5 24.5t139.5 -24.5t109.5 -73.5t71.5 -124t25.5 -175q0 -92 -25.5 -165t-71.5 -125t-109.5 -79.5t-139.5 -27.5t-139.5 27.5t-109.5 79.5t-71.5 125t-25.5 165zM166 1020q0 -61 12 -117.5t39 -98.5t69 -66.5t101 -24.5 q61 0 103 24.5t68 66.5t38 98t12 118q0 63 -12 118.5t-39 97.5t-69 66.5t-101 24.5t-101 -24.5t-69 -66.5t-39 -97.5t-12 -118.5z" />
<glyph unicode="&#xbb;" horiz-adv-x="864" d="M45 184l252 336l-252 336h145l254 -336l-254 -336h-145zM420 184l252 336l-252 336h145l254 -336l-254 -336h-145z" />
<glyph unicode="&#xbc;" horiz-adv-x="1740" d="M94 1190l225 199h96v-803h-108v665l-156 -135zM393 -25q4 10 11 21l714 1409h109q-4 -12 -8 -19l-715 -1411h-111zM959 188v98l391 519h107q20 0 20 -15v-528h74q23 0 22 -21l4 -67h-100v-174h-84q-18 0 -18 14v160h-396q-20 0 -20 14zM1045 262h330v438z" />
<glyph unicode="&#xbd;" horiz-adv-x="1740" d="M80 1190l225 199h96v-803h-108v665l-156 -135zM362 -25q4 10 11 21l714 1409h109q-4 -12 -8 -19l-715 -1411h-111zM1051 16v57l239 226q55 51 91 92t55.5 74.5t27 62.5t7.5 59q0 76 -42 109t-114 33q-68 0 -116 -33t-83 -72l-51 58q-6 6 -6 14t12 20q8 8 28.5 25.5 t54.5 35t79 31t104 13.5q121 0 186.5 -61.5t65.5 -159.5q0 -47 -11 -88t-35.5 -81t-62.5 -81t-93 -90l-183 -166h340q16 0 36 4t30 10v-106h-539q-20 0 -20 14z" />
<glyph unicode="&#xbe;" horiz-adv-x="1740" d="M99 610l28 88q41 -16 90.5 -28.5t96.5 -12.5q96 0 159.5 42t63.5 135q0 72 -51 116.5t-178 44.5h-15q-20 0 -20 15v69l237 219h-372q-20 0 -21 15v76h486q20 0 20 -15v-80l-238 -223q88 -4 141.5 -27.5t82 -57.5t38 -74t9.5 -72q0 -68 -26.5 -119t-72 -85t-105.5 -50.5 t-128 -16.5q-78 0 -134 13.5t-91 27.5zM503 -25q4 10 11 21l714 1409h109q-4 -12 -8 -19l-715 -1411h-111zM1020 188v98l391 519h107q20 0 20 -15v-528h74q23 0 22 -21l4 -67h-100v-174h-84q-18 0 -18 14v160h-396q-20 0 -20 14zM1106 262h330v438z" />
<glyph unicode="&#xbf;" horiz-adv-x="972" d="M154 289q0 66 15 115t38 90q35 59 81 105t91 97q53 57 75.5 103.5t22.5 109.5v82h101q18 0 18 -18v-88q0 -86 -32 -142.5t-77 -103.5q-35 -37 -70.5 -72t-64 -72.5t-46 -82.5t-17.5 -103q0 -119 64.5 -173t174.5 -54q100 0 166 41t119 100l61 -63q6 -6 7 -13 q0 -10 -11 -20q-4 -4 -38.5 -35t-83.5 -57q-49 -29 -111 -44.5t-135 -15.5q-158 0 -253 82t-95 232zM430 1307q0 47 27.5 79.5t79.5 32.5q51 0 78.5 -32.5t27.5 -79.5t-27.5 -80t-78.5 -33t-79 33t-28 80z" />
<glyph unicode="&#xc0;" horiz-adv-x="1134" d="M0 14q0 4 6 21l430 1186q14 37 23.5 77.5t9.5 63.5q0 12 -1 24.5t-5 18.5h178q18 0 25 -19l469 -1386h-136q-14 0 -20 18l-129 400h-582l-151 -418h-99q-18 0 -18 14zM274 1855h152q25 0 33 -14l182 -305h-92q-20 0 -33 14l-207 269q-8 10 -19 21t-16 15zM307 526h508 l-240 772z" />
<glyph unicode="&#xc1;" horiz-adv-x="1134" d="M0 14q0 4 6 21l430 1186q14 37 23.5 77.5t9.5 63.5q0 12 -1 24.5t-5 18.5h178q18 0 25 -19l469 -1386h-136q-14 0 -20 18l-129 400h-582l-151 -418h-99q-18 0 -18 14zM307 526h508l-240 772zM526 1536l183 305q8 14 32 14h152q-4 -4 -15.5 -15t-19.5 -21l-207 -269 q-12 -14 -33 -14h-92z" />
<glyph unicode="&#xc2;" horiz-adv-x="1134" d="M0 14q0 4 6 21l430 1186q14 37 23.5 77.5t9.5 63.5q0 12 -1 24.5t-5 18.5h178q18 0 25 -19l469 -1386h-136q-14 0 -20 18l-129 400h-582l-151 -418h-99q-18 0 -18 14zM281 1536l204 319h162q25 0 33 -14l184 -305h-96q-20 0 -33 14l-164 219l-176 -233h-114zM307 526h508 l-240 772z" />
<glyph unicode="&#xc3;" horiz-adv-x="1134" d="M0 14q0 4 6 21l430 1186q14 37 23.5 77.5t9.5 63.5q0 12 -1 24.5t-5 18.5h178q18 0 25 -19l469 -1386h-136q-14 0 -20 18l-129 400h-582l-151 -418h-99q-18 0 -18 14zM256 1651q33 92 88 131t102 39q41 0 71 -14.5t71 -45.5q45 -33 76.5 -55.5t66.5 -22.5q39 0 55.5 30 t32.5 71l74 -35q-18 -55 -40 -90t-45.5 -53.5t-48 -25.5t-48.5 -7q-29 0 -69 17.5t-83 47.5q-33 23 -64.5 46.5t-66.5 23.5q-39 0 -57.5 -22.5t-40.5 -69.5zM307 526h508l-240 772z" />
<glyph unicode="&#xc4;" horiz-adv-x="1134" d="M0 14q0 4 6 21l430 1186q14 37 23.5 77.5t9.5 63.5q0 12 -1 24.5t-5 18.5h178q18 0 25 -19l469 -1386h-136q-14 0 -20 18l-129 400h-582l-151 -418h-99q-18 0 -18 14zM264 1640q0 41 21.5 74t74.5 33q51 0 73 -33t22 -74q0 -39 -22 -71.5t-73 -32.5q-53 0 -74.5 33 t-21.5 71zM307 526h508l-240 772zM688 1640q0 41 21.5 74t74.5 33q51 0 73 -33t22 -74q0 -39 -22 -71.5t-73 -32.5q-53 0 -74.5 33t-21.5 71z" />
<glyph unicode="&#xc5;" horiz-adv-x="1134" d="M0 14q0 4 6 21l477 1315q-59 27 -96 81t-37 123q0 47 17.5 88t48 72t71.5 48.5t88 17.5t88.5 -17.5t72 -48.5t48 -71.5t17.5 -88.5q0 -66 -35 -119t-88 -81l457 -1354h-136q-14 0 -20 18l-129 400h-582l-151 -418h-99q-18 0 -18 14zM307 526h508l-240 772zM434 1554 q0 -61 41 -104t100 -43t100.5 43t41.5 104t-41 104.5t-101 43.5q-59 0 -100 -43t-41 -105z" />
<glyph unicode="&#xc6;" horiz-adv-x="1861" d="M0 14q0 4 2 10.5t10 16.5l791 1188q16 23 34.5 57.5t18.5 75.5q0 12 -2 24.5t-4 18.5h881q18 0 20 -21l14 -106q-12 8 -31.5 11t-39.5 3h-572v-499h590v-129q-10 6 -30.5 11t-43.5 5h-516v-567h604q23 0 43.5 5t30.5 11v-129h-792q-18 0 -19 18v388h-596l-268 -406h-105 q-20 0 -20 14zM465 514h524v791z" />
<glyph unicode="&#xc7;" horiz-adv-x="1126" d="M94 705q0 150 41 281.5t122 230t199.5 156t274.5 57.5q117 0 186.5 -19.5t81.5 -24.5q18 -8 23.5 -17t7.5 -26l12 -108q-57 29 -134 51.5t-169 22.5q-104 0 -195 -36t-158 -112t-105.5 -193.5t-38.5 -279.5q0 -152 41 -262.5t111.5 -183t163.5 -107.5t196 -35 q104 0 190 22.5t133 41.5l41 -123q-63 -25 -160.5 -45.5t-212.5 -20.5q-313 0 -482 190.5t-169 539.5zM485 -375q0 8 7 21l106 239q8 18 33 19h149q-8 -6 -17 -19.5t-18 -25.5l-151 -246h-90q-18 0 -19 12z" />
<glyph unicode="&#xc8;" horiz-adv-x="1011" d="M121 1405h760q18 0 20 -21l14 -106q-12 8 -31.5 11t-39.5 3h-572v-499h590v-129q-10 6 -30.5 11t-43.5 5h-516v-567h605q23 0 43 5t30 11v-129h-792q-18 0 -19 18v1295q0 25 -5 51.5t-13 40.5zM285 1855h151q25 0 33 -14l182 -305h-92q-20 0 -33 14l-207 269 q-8 10 -19 21z" />
<glyph unicode="&#xc9;" horiz-adv-x="1011" d="M121 1405h760q18 0 20 -21l14 -106q-12 8 -31.5 11t-39.5 3h-572v-499h590v-129q-10 6 -30.5 11t-43.5 5h-516v-567h605q23 0 43 5t30 11v-129h-792q-18 0 -19 18v1295q0 25 -5 51.5t-13 40.5zM463 1536l182 305q8 14 33 14h151l-15 -15t-19 -21l-207 -269 q-12 -14 -33 -14h-92z" />
<glyph unicode="&#xca;" horiz-adv-x="1011" d="M121 1405h760q18 0 20 -21l14 -106q-12 8 -31.5 11t-39.5 3h-572v-499h590v-129q-10 6 -30.5 11t-43.5 5h-516v-567h605q23 0 43 5t30 11v-129h-792q-18 0 -19 18v1295q0 25 -5 51.5t-13 40.5zM242 1536l204 319h162q25 0 33 -14l184 -305h-96q-20 0 -33 14l-164 219 l-176 -233h-114z" />
<glyph unicode="&#xcb;" horiz-adv-x="1011" d="M121 1405h760q18 0 20 -21l14 -106q-12 8 -31.5 11t-39.5 3h-572v-499h590v-129q-10 6 -30.5 11t-43.5 5h-516v-567h605q23 0 43 5t30 11v-129h-792q-18 0 -19 18v1295q0 25 -5 51.5t-13 40.5zM231 1640q0 41 21.5 74t75.5 33q51 0 72.5 -33t21.5 -74q0 -39 -21.5 -71.5 t-72.5 -32.5q-53 0 -75 33t-22 71zM655 1640q0 41 21.5 74t75.5 33q51 0 72.5 -33t21.5 -74q0 -39 -21.5 -71.5t-72.5 -32.5q-53 0 -75 33t-22 71z" />
<glyph unicode="&#xcc;" horiz-adv-x="411" d="M-76 1855h152q25 0 33 -14l182 -305h-92q-20 0 -33 14l-207 269q-8 10 -19.5 21t-15.5 15zM121 1405h170q-8 -14 -13.5 -41t-5.5 -51v-1313h-114q-18 0 -19 18v1295q0 25 -5 51.5t-13 40.5z" />
<glyph unicode="&#xcd;" horiz-adv-x="411" d="M121 1405h170q-8 -14 -13.5 -41t-5.5 -51v-1313h-114q-18 0 -19 18v1295q0 25 -5 51.5t-13 40.5zM156 1536l182 305q8 14 33 14h151l-15 -15t-20 -21l-206 -269q-12 -14 -33 -14h-92z" />
<glyph unicode="&#xce;" horiz-adv-x="411" d="M-86 1536l205 319h162q25 0 32 -14l185 -305h-97q-20 0 -32 14l-164 219l-176 -233h-115zM121 1405h170q-8 -14 -13.5 -41t-5.5 -51v-1313h-114q-18 0 -19 18v1295q0 25 -5 51.5t-13 40.5z" />
<glyph unicode="&#xcf;" horiz-adv-x="411" d="M-100 1640q0 41 21.5 74t74.5 33q51 0 72.5 -33t21.5 -74q0 -39 -21.5 -71.5t-72.5 -32.5q-53 0 -74.5 33t-21.5 71zM121 1405h170q-8 -14 -13.5 -41t-5.5 -51v-1313h-114q-18 0 -19 18v1295q0 25 -5 51.5t-13 40.5zM324 1640q0 41 21.5 74t74.5 33q51 0 72.5 -33 t21.5 -74q0 -39 -21.5 -71.5t-72.5 -32.5q-53 0 -74.5 33t-21.5 71z" />
<glyph unicode="&#xd0;" horiz-adv-x="1323" d="M-4 662v104h143v547q0 25 -5 51.5t-13 40.5h112h385q147 0 271 -59q162 -80 251 -250t89 -394q0 -152 -42 -280.5t-122 -223t-192.5 -146.5t-254.5 -52h-460q-18 0 -19 18v644h-143zM272 115h351q98 0 182 40t145.5 114.5t96 184t34.5 248.5t-34.5 249t-96 184.5 t-145.5 114.5t-182 40h-351v-524h265v-104h-265v-547z" />
<glyph unicode="&#xd1;" horiz-adv-x="1261" d="M121 1405h192q20 0 31 -16l653 -1153v1150q0 18 19 19h125q-8 -14 -12.5 -41t-4.5 -51v-1323h-104q-20 0 -31 16l-723 1274v-1280h-108q-18 0 -19 18v1295q0 25 -5 51.5t-13 40.5zM315 1651q33 92 88.5 131t102.5 39q41 0 70.5 -14.5t70.5 -45.5q45 -33 77 -55.5 t67 -22.5q39 0 55 30t33 71l73 -35q-18 -55 -39.5 -90t-45 -53.5t-48 -25.5t-49.5 -7q-29 0 -68.5 17.5t-83.5 47.5q-33 23 -64.5 46.5t-66.5 23.5q-39 0 -57 -22.5t-41 -69.5z" />
<glyph unicode="&#xd2;" horiz-adv-x="1433" d="M94 702q0 168 41 303.5t120 231.5t194.5 148.5t267.5 52.5t267.5 -52.5t194 -148.5t119.5 -231.5t41 -303.5t-41 -303t-119.5 -231t-194 -148.5t-267.5 -52.5t-267.5 52.5t-194.5 148.5t-120 231.5t-41 302.5zM242 702q0 -145 32.5 -260.5t94 -195.5t149.5 -123t199 -43 t199 43t149 123t94 195.5t33 260.5q0 295 -126 459t-349 164q-221 0 -348 -164t-127 -459zM457 1855h151q25 0 33 -14l182 -305h-92q-20 0 -33 14l-206 269q-8 10 -19.5 21t-15.5 15z" />
<glyph unicode="&#xd3;" horiz-adv-x="1433" d="M94 702q0 168 41 303.5t120 231.5t194.5 148.5t267.5 52.5t267.5 -52.5t194 -148.5t119.5 -231.5t41 -303.5t-41 -303t-119.5 -231t-194 -148.5t-267.5 -52.5t-267.5 52.5t-194.5 148.5t-120 231.5t-41 302.5zM242 702q0 -145 32.5 -260.5t94 -195.5t149.5 -123t199 -43 t199 43t149 123t94 195.5t33 260.5q0 295 -126 459t-349 164q-221 0 -348 -164t-127 -459zM614 1536l183 305q8 14 32 14h152q-4 -4 -15.5 -15t-19.5 -21l-207 -269q-12 -14 -32 -14h-93z" />
<glyph unicode="&#xd4;" horiz-adv-x="1433" d="M94 702q0 168 41 303.5t120 231.5t194.5 148.5t267.5 52.5t267.5 -52.5t194 -148.5t119.5 -231.5t41 -303.5t-41 -303t-119.5 -231t-194 -148.5t-267.5 -52.5t-267.5 52.5t-194.5 148.5t-120 231.5t-41 302.5zM242 702q0 -145 32.5 -260.5t94 -195.5t149.5 -123t199 -43 t199 43t149 123t94 195.5t33 260.5q0 295 -126 459t-349 164q-221 0 -348 -164t-127 -459zM444 1536l205 319h162q25 0 33 -14l184 -305h-96q-20 0 -33 14l-164 219l-176 -233h-115z" />
<glyph unicode="&#xd5;" horiz-adv-x="1433" d="M94 702q0 168 41 303.5t120 231.5t194.5 148.5t267.5 52.5t267.5 -52.5t194 -148.5t119.5 -231.5t41 -303.5t-41 -303t-119.5 -231t-194 -148.5t-267.5 -52.5t-267.5 52.5t-194.5 148.5t-120 231.5t-41 302.5zM242 702q0 -145 32.5 -260.5t94 -195.5t149.5 -123t199 -43 t199 43t149 123t94 195.5t33 260.5q0 295 -126 459t-349 164q-221 0 -348 -164t-127 -459zM422 1651q33 92 88 131t102 39q41 0 71 -14.5t71 -45.5q45 -33 76.5 -55.5t66.5 -22.5q39 0 55.5 30t32.5 71l74 -35q-18 -55 -40 -90t-45.5 -53.5t-48 -25.5t-48.5 -7 q-29 0 -69 17.5t-83 47.5q-33 23 -64.5 46.5t-66.5 23.5q-39 0 -57.5 -22.5t-40.5 -69.5z" />
<glyph unicode="&#xd6;" horiz-adv-x="1433" d="M94 702q0 168 41 303.5t120 231.5t194.5 148.5t267.5 52.5t267.5 -52.5t194 -148.5t119.5 -231.5t41 -303.5t-41 -303t-119.5 -231t-194 -148.5t-267.5 -52.5t-267.5 52.5t-194.5 148.5t-120 231.5t-41 302.5zM242 702q0 -145 32.5 -260.5t94 -195.5t149.5 -123t199 -43 t199 43t149 123t94 195.5t33 260.5q0 295 -126 459t-349 164q-221 0 -348 -164t-127 -459zM424 1640q0 41 21.5 74t74.5 33q51 0 72.5 -33t21.5 -74q0 -39 -21.5 -71.5t-72.5 -32.5q-53 0 -74.5 33t-21.5 71zM848 1640q0 41 21.5 74t74.5 33q51 0 72.5 -33t21.5 -74 q0 -39 -21.5 -71.5t-72.5 -32.5q-53 0 -74.5 33t-21.5 71z" />
<glyph unicode="&#xd7;" horiz-adv-x="1007" d="M125 346l305 344l-305 344l55 56q6 6 17 6q8 0 18 -11l283 -319l282 321q10 10 19 11q10 0 16 -6l55 -56l-305 -346l305 -346l-55 -55q-6 -6 -16 -6q-8 0 -19 10l-282 321l-283 -319q-10 -10 -18 -10q-10 0 -17 6z" />
<glyph unicode="&#xd8;" horiz-adv-x="1433" d="M94 702q0 168 41 303.5t120 231.5t194.5 148.5t267.5 52.5q195 0 336 -88l123 194l96 -61l-129 -205q98 -96 147 -241.5t49 -334.5q0 -168 -41 -303t-119.5 -231t-194.5 -148.5t-267 -52.5q-195 0 -336 88l-123 -194l-96 61l129 205q-98 96 -147.5 241.5t-49.5 333.5z M242 702q0 -293 125 -454l618 991q-111 86 -268 86q-221 0 -348 -164t-127 -459zM449 166q111 -86 268 -86q111 0 199 43t149 123t94 195.5t33 260.5q0 293 -125 455z" />
<glyph unicode="&#xd9;" horiz-adv-x="1253" d="M111 1405h131q20 0 20 -19v-903q0 -201 84 -300t281 -99t280.5 99.5t83.5 299.5v903q0 18 21 19h131q-8 -14 -13.5 -41t-5.5 -51v-867q0 -104 -23.5 -191t-80.5 -151.5t-153.5 -100.5t-239.5 -36t-239.5 36t-154 100.5t-81 151.5t-23.5 191v867q0 25 -5 51.5t-13 40.5z M367 1855h151q25 0 33 -14l182 -305h-92q-20 0 -33 14l-207 269q-8 10 -19 21z" />
<glyph unicode="&#xda;" horiz-adv-x="1253" d="M111 1405h131q20 0 20 -19v-903q0 -201 84 -300t281 -99t280.5 99.5t83.5 299.5v903q0 18 21 19h131q-8 -14 -13.5 -41t-5.5 -51v-867q0 -104 -23.5 -191t-80.5 -151.5t-153.5 -100.5t-239.5 -36t-239.5 36t-154 100.5t-81 151.5t-23.5 191v867q0 25 -5 51.5t-13 40.5z M586 1536l182 305q8 14 33 14h151l-15 -15t-19 -21l-207 -269q-12 -14 -33 -14h-92z" />
<glyph unicode="&#xdb;" horiz-adv-x="1253" d="M111 1405h131q20 0 20 -19v-903q0 -201 84 -300t281 -99t280.5 99.5t83.5 299.5v903q0 18 21 19h131q-8 -14 -13.5 -41t-5.5 -51v-867q0 -104 -23.5 -191t-80.5 -151.5t-153.5 -100.5t-239.5 -36t-239.5 36t-154 100.5t-81 151.5t-23.5 191v867q0 25 -5 51.5t-13 40.5z M358 1536l205 319h162q25 0 33 -14l184 -305h-96q-20 0 -33 14l-164 219l-176 -233h-115z" />
<glyph unicode="&#xdc;" horiz-adv-x="1253" d="M111 1405h131q20 0 20 -19v-903q0 -201 84 -300t281 -99t280.5 99.5t83.5 299.5v903q0 18 21 19h131q-8 -14 -13.5 -41t-5.5 -51v-867q0 -104 -23.5 -191t-80.5 -151.5t-153.5 -100.5t-239.5 -36t-239.5 36t-154 100.5t-81 151.5t-23.5 191v867q0 25 -5 51.5t-13 40.5z M299 1640q0 41 21.5 74t74.5 33q51 0 72.5 -33t21.5 -74q0 -39 -21.5 -71.5t-72.5 -32.5q-53 0 -74.5 33t-21.5 71zM723 1640q0 41 21.5 74t74.5 33q51 0 72.5 -33t21.5 -74q0 -39 -21.5 -71.5t-72.5 -32.5q-53 0 -74.5 33t-21.5 71z" />
<glyph unicode="&#xdd;" horiz-adv-x="1026" d="M0 1405h147q10 0 14.5 -5t10.5 -16l338 -600l356 600q6 10 10.5 15.5t14.5 5.5h135q-12 -8 -33 -39l-428 -709v-657h-114q-18 0 -19 18v635l-399 711q-8 14 -18.5 25.5t-14.5 15.5zM440 1536l183 305q8 14 32 14h152q-4 -4 -15.5 -15t-19.5 -21l-207 -269 q-12 -14 -33 -14h-92z" />
<glyph unicode="&#xde;" horiz-adv-x="1099" d="M121 1405h131q20 0 20 -19v-225h293q127 0 202 -25.5t122 -60.5q55 -43 90 -114.5t35 -178.5q0 -123 -36 -199.5t-95 -127.5q-51 -43 -136 -75t-227 -32q-82 0 -137 3t-111 7v-358h-114q-18 0 -19 18v1295q0 25 -5 51.5t-13 40.5zM272 473q25 -4 85.5 -10t140.5 -6 q182 0 276 75.5t94 231.5q0 92 -27.5 148.5t-73.5 88t-104.5 42t-119.5 10.5h-271v-580z" />
<glyph unicode="&#xdf;" horiz-adv-x="1079" d="M37 870v41l143 52v77q0 84 22.5 154t66.5 120t113 77.5t161 27.5q94 0 161.5 -25.5t110.5 -68.5t62.5 -99.5t19.5 -119.5q0 -104 -44 -189.5t-151 -148.5q135 -23 219.5 -117t84.5 -254q0 -201 -119 -311.5t-326 -110.5q-29 0 -49 2.5t-35 6.5l10 92q14 -2 36 -3t38 -1 q63 0 120.5 19.5t98.5 60.5t65.5 101t24.5 144q0 160 -87 229.5t-253 69.5h-41q-20 0 -20 19v80q139 8 217 82.5t78 214.5q0 117 -60.5 175t-164.5 58q-123 0 -179.5 -70.5t-56.5 -224.5v-1030h-102q-20 0 -21 18v834h-123q-20 0 -20 18z" />
<glyph unicode="&#xe0;" horiz-adv-x="940" d="M59 270q0 147 95.5 230.5t281.5 83.5q70 0 137.5 -6.5t116.5 -14.5v70q0 139 -69.5 190t-196.5 51q-92 0 -154.5 -21.5t-97.5 -39.5l-22 59l-4.5 13.5t-2.5 11.5q0 16 23 29q20 10 94 31.5t184 21.5q109 0 180.5 -23.5t113.5 -67.5t59.5 -105.5t17.5 -135.5v-647h-102 q-20 0 -21 18v78q-27 -23 -57.5 -44t-68.5 -38.5t-87 -28t-110 -10.5q-154 0 -232 80t-78 215zM188 274q0 -109 60.5 -153.5t159.5 -44.5q57 0 102 14t81 34.5t60.5 44.5t38.5 44v250q-55 10 -120.5 18t-123.5 8q-129 0 -193.5 -52t-64.5 -163zM215 1395h152q25 0 32 -15 l183 -305h-93q-20 0 -32 15l-207 268q-8 10 -19.5 21.5z" />
<glyph unicode="&#xe1;" horiz-adv-x="940" d="M59 270q0 147 95.5 230.5t281.5 83.5q70 0 137.5 -6.5t116.5 -14.5v70q0 139 -69.5 190t-196.5 51q-92 0 -154.5 -21.5t-97.5 -39.5l-22 59l-4.5 13.5t-2.5 11.5q0 16 23 29q20 10 94 31.5t184 21.5q109 0 180.5 -23.5t113.5 -67.5t59.5 -105.5t17.5 -135.5v-647h-102 q-20 0 -21 18v78q-27 -23 -57.5 -44t-68.5 -38.5t-87 -28t-110 -10.5q-154 0 -232 80t-78 215zM188 274q0 -109 60.5 -153.5t159.5 -44.5q57 0 102 14t81 34.5t60.5 44.5t38.5 44v250q-55 10 -120.5 18t-123.5 8q-129 0 -193.5 -52t-64.5 -163zM373 1075l182 305q8 14 33 15 h151q-4 -4 -15 -15.5t-19 -21.5l-207 -268q-12 -14 -33 -15h-92z" />
<glyph unicode="&#xe2;" horiz-adv-x="940" d="M59 270q0 147 95.5 230.5t281.5 83.5q70 0 137.5 -6.5t116.5 -14.5v70q0 139 -69.5 190t-196.5 51q-92 0 -154.5 -21.5t-97.5 -39.5l-22 59l-4.5 13.5t-2.5 11.5q0 16 23 29q20 10 94 31.5t184 21.5q109 0 180.5 -23.5t113.5 -67.5t59.5 -105.5t17.5 -135.5v-647h-102 q-20 0 -21 18v78q-27 -23 -57.5 -44t-68.5 -38.5t-87 -28t-110 -10.5q-154 0 -232 80t-78 215zM180 1075l205 320h162q25 0 33 -15l184 -305h-96q-20 0 -33 15l-164 219l-176 -234h-115zM188 274q0 -109 60.5 -153.5t159.5 -44.5q57 0 102 14t81 34.5t60.5 44.5t38.5 44v250 q-55 10 -120.5 18t-123.5 8q-129 0 -193.5 -52t-64.5 -163z" />
<glyph unicode="&#xe3;" horiz-adv-x="940" d="M59 270q0 147 95.5 230.5t281.5 83.5q70 0 137.5 -6.5t116.5 -14.5v70q0 139 -69.5 190t-196.5 51q-92 0 -154.5 -21.5t-97.5 -39.5l-22 59l-4.5 13.5t-2.5 11.5q0 16 23 29q20 10 94 31.5t184 21.5q109 0 180.5 -23.5t113.5 -67.5t59.5 -105.5t17.5 -135.5v-647h-102 q-20 0 -21 18v78q-27 -23 -57.5 -44t-68.5 -38.5t-87 -28t-110 -10.5q-154 0 -232 80t-78 215zM160 1190q33 92 88 131t102 39q41 0 71 -14.5t71 -45.5q45 -33 76.5 -55t66.5 -22q39 0 55.5 29.5t32.5 70.5l74 -35q-18 -55 -40 -90t-45.5 -53.5t-48 -25.5t-49.5 -7 q-29 0 -68.5 17.5t-82.5 48.5q-33 23 -64.5 46t-66.5 23q-39 0 -57.5 -22.5t-41.5 -69.5zM188 274q0 -109 60.5 -153.5t159.5 -44.5q57 0 102 14t81 34.5t60.5 44.5t38.5 44v250q-55 10 -120.5 18t-123.5 8q-129 0 -193.5 -52t-64.5 -163z" />
<glyph unicode="&#xe4;" horiz-adv-x="940" d="M59 270q0 147 95.5 230.5t281.5 83.5q70 0 137.5 -6.5t116.5 -14.5v70q0 139 -69.5 190t-196.5 51q-92 0 -154.5 -21.5t-97.5 -39.5l-22 59l-4.5 13.5t-2.5 11.5q0 16 23 29q20 10 94 31.5t184 21.5q109 0 180.5 -23.5t113.5 -67.5t59.5 -105.5t17.5 -135.5v-647h-102 q-20 0 -21 18v78q-27 -23 -57.5 -44t-68.5 -38.5t-87 -28t-110 -10.5q-154 0 -232 80t-78 215zM152 1180q0 41 21.5 73.5t74.5 32.5q51 0 72.5 -32.5t21.5 -73.5q0 -39 -21.5 -72t-72.5 -33q-53 0 -74.5 33t-21.5 72zM188 274q0 -109 60.5 -153.5t159.5 -44.5q57 0 102 14 t81 34.5t60.5 44.5t38.5 44v250q-55 10 -120.5 18t-123.5 8q-129 0 -193.5 -52t-64.5 -163zM575 1180q0 41 21.5 73.5t75.5 32.5q51 0 72.5 -32.5t21.5 -73.5q0 -39 -21.5 -72t-72.5 -33q-53 0 -75 33t-22 72z" />
<glyph unicode="&#xe5;" horiz-adv-x="940" d="M59 270q0 147 95.5 230.5t281.5 83.5q70 0 137.5 -6.5t116.5 -14.5v70q0 139 -69.5 190t-196.5 51q-92 0 -154.5 -21.5t-97.5 -39.5l-22 59l-4.5 13.5t-2.5 11.5q0 16 23 29q20 10 94 31.5t184 21.5q109 0 180.5 -23.5t113.5 -67.5t59.5 -105.5t17.5 -135.5v-647h-102 q-20 0 -21 18v78q-27 -23 -57.5 -44t-68.5 -38.5t-87 -28t-110 -10.5q-154 0 -232 80t-78 215zM188 274q0 -109 60.5 -153.5t159.5 -44.5q57 0 102 14t81 34.5t60.5 44.5t38.5 44v250q-55 10 -120.5 18t-123.5 8q-129 0 -193.5 -52t-64.5 -163zM248 1303q0 47 17.5 88 t48 71.5t71.5 48t88 17.5t88 -17.5t72 -48t48 -71.5t17 -88t-17 -88t-48 -72t-72 -48.5t-88 -17.5t-88 17.5t-71.5 48.5t-48 72t-17.5 88zM332 1303q0 -61 41 -104.5t100 -43.5t100 43t41 105q0 61 -41 104t-100 43t-100 -43t-41 -104z" />
<glyph unicode="&#xe6;" horiz-adv-x="1554" d="M59 270q0 147 95.5 230.5t281.5 83.5q70 0 137.5 -6.5t116.5 -14.5v70q0 139 -69.5 190t-196.5 51q-92 0 -154.5 -21.5t-97.5 -39.5l-22 59l-4.5 13.5t-2.5 11.5q0 16 23 29q20 10 94 31.5t184 21.5q139 0 218 -41t116 -133q47 82 130 128t200 46q100 0 173 -36 t119 -101.5t67.5 -157.5t21.5 -205q0 -29 -31 -28h-643q16 -201 107.5 -284t255.5 -83q80 0 137 10t100 27l33 -96q-39 -16 -108.5 -33t-184.5 -17q-125 0 -218 43t-153 121q-6 -6 -39.5 -32.5t-88 -55t-123 -52.5t-142.5 -24q-172 0 -252 80t-80 215zM188 274 q0 -53 16.5 -90t44 -59.5t65.5 -32.5t83 -10q70 0 128.5 19.5t101.5 45t70.5 50t33.5 34.5q-39 98 -43 232q-55 10 -119.5 18t-122.5 8q-129 0 -193.5 -52t-64.5 -163zM815 553h541q-4 74 -18.5 134.5t-44 104.5t-79 67.5t-120.5 23.5q-74 0 -126.5 -27t-85 -71t-49 -104 t-18.5 -128z" />
<glyph unicode="&#xe7;" horiz-adv-x="817" d="M74 477q0 102 28.5 192.5t86 158t142.5 106.5t197 39q78 0 120 -8.5t65 -18.5q12 -4 16 -9t6 -17l10 -105q-39 20 -92 33.5t-123 13.5t-129 -24.5t-102 -73.5t-66.5 -122t-23.5 -171q0 -193 90 -287t248 -94q84 0 139 16.5t76 24.5l29 -104q-47 -18 -113 -31.5 t-156 -13.5q-88 0 -169 24.5t-143.5 82.5t-99 153.5t-36.5 234.5zM291 -375q0 8 6 21l106 239q8 18 33 19h150q-8 -6 -17.5 -19.5t-17.5 -25.5l-152 -246h-90q-18 0 -18 12z" />
<glyph unicode="&#xe8;" horiz-adv-x="944" d="M74 487q0 113 26.5 204t78.5 154.5t132 98.5t187 35q100 0 172.5 -36t119 -101.5t68 -157.5t21.5 -205q0 -29 -31 -28h-643q16 -201 107 -284t255 -83q80 0 137.5 10t100.5 27l33 -96q-39 -16 -109 -33t-184 -17q-117 0 -205 37t-147.5 103.5t-89 161t-29.5 210.5z M205 553h540q-4 74 -18 134.5t-44 104.5t-79 67.5t-121 23.5q-74 0 -126 -27t-84.5 -71t-49 -104t-18.5 -128zM262 1395h152q25 0 32 -15l183 -305h-92q-20 0 -33 15l-207 268q-8 10 -19.5 21.5z" />
<glyph unicode="&#xe9;" horiz-adv-x="944" d="M74 487q0 113 26.5 204t78.5 154.5t132 98.5t187 35q100 0 172.5 -36t119 -101.5t68 -157.5t21.5 -205q0 -29 -31 -28h-643q16 -201 107 -284t255 -83q80 0 137.5 10t100.5 27l33 -96q-39 -16 -109 -33t-184 -17q-117 0 -205 37t-147.5 103.5t-89 161t-29.5 210.5z M205 553h540q-4 74 -18 134.5t-44 104.5t-79 67.5t-121 23.5q-74 0 -126 -27t-84.5 -71t-49 -104t-18.5 -128zM410 1075l182 305q8 14 33 15h151q-4 -4 -15 -15.5t-20 -21.5l-206 -268q-12 -14 -33 -15h-92z" />
<glyph unicode="&#xea;" horiz-adv-x="944" d="M74 487q0 113 26.5 204t78.5 154.5t132 98.5t187 35q100 0 172.5 -36t119 -101.5t68 -157.5t21.5 -205q0 -29 -31 -28h-643q16 -201 107 -284t255 -83q80 0 137.5 10t100.5 27l33 -96q-39 -16 -109 -33t-184 -17q-117 0 -205 37t-147.5 103.5t-89 161t-29.5 210.5z M199 1075l204 320h162q25 0 33 -15l184 -305h-96q-20 0 -33 15l-164 219l-176 -234h-114zM205 553h540q-4 74 -18 134.5t-44 104.5t-79 67.5t-121 23.5q-74 0 -126 -27t-84.5 -71t-49 -104t-18.5 -128z" />
<glyph unicode="&#xeb;" horiz-adv-x="944" d="M74 487q0 113 26.5 204t78.5 154.5t132 98.5t187 35q100 0 172.5 -36t119 -101.5t68 -157.5t21.5 -205q0 -29 -31 -28h-643q16 -201 107 -284t255 -83q80 0 137.5 10t100.5 27l33 -96q-39 -16 -109 -33t-184 -17q-117 0 -205 37t-147.5 103.5t-89 161t-29.5 210.5z M188 1180q0 41 21.5 73.5t75.5 32.5q51 0 72.5 -32.5t21.5 -73.5q0 -39 -21.5 -72t-72.5 -33q-53 0 -75 33t-22 72zM205 553h540q-4 74 -18 134.5t-44 104.5t-79 67.5t-121 23.5q-74 0 -126 -27t-84.5 -71t-49 -104t-18.5 -128zM612 1180q0 41 21.5 73.5t75.5 32.5 q51 0 72.5 -32.5t21.5 -73.5q0 -39 -21.5 -72t-72.5 -33q-53 0 -75 33t-22 72z" />
<glyph unicode="&#xec;" horiz-adv-x="372" d="M-100 1395h151q25 0 33 -15l182 -305h-92q-20 0 -33 15l-207 268q-8 10 -19 21.5t-15 15.5zM98 954h125q18 0 19 -18v-936h-103q-20 0 -20 18v844q0 63 -21 92z" />
<glyph unicode="&#xed;" horiz-adv-x="372" d="M98 954h125q18 0 19 -18v-936h-103q-20 0 -20 18v844q0 63 -21 92zM119 1075l182 305q8 14 33 15h151q-4 -4 -15 -15.5t-19 -21.5l-207 -268q-12 -14 -33 -15h-92z" />
<glyph unicode="&#xee;" horiz-adv-x="372" d="M-113 1075l205 320h162q25 0 33 -15l184 -305h-96q-20 0 -33 15l-164 219l-176 -234h-115zM98 954h125q18 0 19 -18v-936h-103q-20 0 -20 18v844q0 63 -21 92z" />
<glyph unicode="&#xef;" horiz-adv-x="372" d="M-129 1180q0 41 21.5 73.5t74.5 32.5q51 0 72.5 -32.5t21.5 -73.5q0 -39 -21.5 -72t-72.5 -33q-53 0 -74.5 33t-21.5 72zM98 954h125q18 0 19 -18v-936h-103q-20 0 -20 18v844q0 63 -21 92zM295 1180q0 41 21.5 73.5t74.5 32.5q51 0 72.5 -32.5t21.5 -73.5 q0 -39 -21.5 -72t-72.5 -33q-53 0 -74.5 33t-21.5 72z" />
<glyph unicode="&#xf0;" horiz-adv-x="1019" d="M74 444q0 117 30.5 205t86 146.5t131 88t165.5 29.5q70 0 144 -21.5t114 -66.5q-23 74 -66.5 165t-135.5 190l-150 -129l-51 63l143 121q-29 27 -62.5 52.5t-74.5 49.5l49 76q47 -23 89 -50.5t81 -55.5l125 106l51 -63l-114 -99q82 -78 142 -168t99 -189t57.5 -202.5 t18.5 -208.5q0 -123 -32.5 -218t-90 -159.5t-138.5 -97.5t-175 -33q-96 0 -177 33t-138.5 94.5t-89 147.5t-31.5 194zM209 444q0 -76 17.5 -143.5t54 -117.5t93 -78.5t136.5 -28.5t137.5 28.5t93 78.5t53 118t17.5 143q0 76 -17.5 143.5t-54.5 118t-93 79t-136 28.5 q-78 0 -135.5 -28.5t-94 -79t-54 -118t-17.5 -143.5z" />
<glyph unicode="&#xf1;" horiz-adv-x="1024" d="M84 954h100q20 0 27 -18q2 -6 3 -15.5t3 -19.5q4 -14 5 -29.5t3 -44.5q53 63 135 107.5t195 44.5q186 0 265 -90t79 -254v-635h-104q-18 0 -19 18v578q0 131 -53 202.5t-186 71.5q-106 0 -181 -53t-120 -121v-696h-105q-18 0 -18 18v699q0 47 -4.5 90t-8.5 78 q-4 25 -8 42t-8 27zM223 1190q33 92 88.5 131t102.5 39q41 0 70.5 -14.5t70.5 -45.5q45 -33 77 -55t66 -22q39 0 55.5 29.5t32.5 70.5l74 -35q-18 -55 -39.5 -90t-45 -53.5t-48.5 -25.5t-49 -7q-29 0 -69 17.5t-83 48.5q-33 23 -64.5 46t-66.5 23q-39 0 -57.5 -22.5 t-40.5 -69.5z" />
<glyph unicode="&#xf2;" horiz-adv-x="1019" d="M74 477q0 125 31.5 219.5t89 158t138.5 94t177 30.5q98 0 178 -30.5t137.5 -94t89 -158t31.5 -219.5q0 -117 -31.5 -209t-90 -157.5t-138.5 -100.5t-176 -35t-176 35t-138.5 100.5t-90 158.5t-31.5 208zM209 477q0 -82 17.5 -154.5t54 -128t93 -87t136.5 -31.5 t137.5 31.5t93 87t53 128t17.5 154.5q0 84 -17.5 157t-54.5 127t-93 86t-136 32q-78 0 -134.5 -32t-93 -86t-55 -127t-18.5 -157zM272 1395h152q25 0 33 -15l182 -305h-92q-20 0 -33 15l-207 268q-8 10 -19.5 21.5z" />
<glyph unicode="&#xf3;" horiz-adv-x="1019" d="M74 477q0 125 31.5 219.5t89 158t138.5 94t177 30.5q98 0 178 -30.5t137.5 -94t89 -158t31.5 -219.5q0 -117 -31.5 -209t-90 -157.5t-138.5 -100.5t-176 -35t-176 35t-138.5 100.5t-90 158.5t-31.5 208zM209 477q0 -82 17.5 -154.5t54 -128t93 -87t136.5 -31.5 t137.5 31.5t93 87t53 128t17.5 154.5q0 84 -17.5 157t-54.5 127t-93 86t-136 32q-78 0 -134.5 -32t-93 -86t-55 -127t-18.5 -157zM451 1075l182 305q8 14 33 15h151q-4 -4 -15 -15.5t-20 -21.5l-207 -268q-12 -14 -32 -15h-92z" />
<glyph unicode="&#xf4;" horiz-adv-x="1019" d="M74 477q0 125 31.5 219.5t89 158t138.5 94t177 30.5q98 0 178 -30.5t137.5 -94t89 -158t31.5 -219.5q0 -117 -31.5 -209t-90 -157.5t-138.5 -100.5t-176 -35t-176 35t-138.5 100.5t-90 158.5t-31.5 208zM209 477q0 -82 17.5 -154.5t54 -128t93 -87t136.5 -31.5 t137.5 31.5t93 87t53 128t17.5 154.5q0 84 -17.5 157t-54.5 127t-93 86t-136 32q-78 0 -134.5 -32t-93 -86t-55 -127t-18.5 -157zM227 1075l205 320h162q25 0 33 -15l184 -305h-96q-20 0 -33 15l-164 219l-176 -234h-115z" />
<glyph unicode="&#xf5;" horiz-adv-x="1019" d="M74 477q0 125 31.5 219.5t89 158t138.5 94t177 30.5q98 0 178 -30.5t137.5 -94t89 -158t31.5 -219.5q0 -117 -31.5 -209t-90 -157.5t-138.5 -100.5t-176 -35t-176 35t-138.5 100.5t-90 158.5t-31.5 208zM209 477q0 -82 17.5 -154.5t54 -128t93 -87t136.5 -31.5 t137.5 31.5t93 87t53 128t17.5 154.5q0 84 -17.5 157t-54.5 127t-93 86t-136 32q-78 0 -134.5 -32t-93 -86t-55 -127t-18.5 -157zM217 1190q33 92 88 131t103 39q41 0 70.5 -14.5t70.5 -45.5q45 -33 76.5 -55t66.5 -22q39 0 55.5 29.5t32.5 70.5l74 -35q-18 -55 -39.5 -90 t-45.5 -53.5t-48.5 -25.5t-48.5 -7q-29 0 -69 17.5t-83 48.5q-33 23 -64.5 46t-66.5 23q-39 0 -57.5 -22.5t-40.5 -69.5z" />
<glyph unicode="&#xf6;" horiz-adv-x="1019" d="M74 477q0 125 31.5 219.5t89 158t138.5 94t177 30.5q98 0 178 -30.5t137.5 -94t89 -158t31.5 -219.5q0 -117 -31.5 -209t-90 -157.5t-138.5 -100.5t-176 -35t-176 35t-138.5 100.5t-90 158.5t-31.5 208zM209 477q0 -82 17.5 -154.5t54 -128t93 -87t136.5 -31.5 t137.5 31.5t93 87t53 128t17.5 154.5q0 84 -17.5 157t-54.5 127t-93 86t-136 32q-78 0 -134.5 -32t-93 -86t-55 -127t-18.5 -157zM213 1180q0 41 21.5 73.5t74.5 32.5q51 0 72.5 -32.5t21.5 -73.5q0 -39 -21.5 -72t-72.5 -33q-53 0 -74.5 33t-21.5 72zM637 1180 q0 41 21.5 73.5t74.5 32.5q51 0 72.5 -32.5t21.5 -73.5q0 -39 -21.5 -72t-72.5 -33q-53 0 -74.5 33t-21.5 72z" />
<glyph unicode="&#xf7;" horiz-adv-x="1007" d="M49 655v93h889q18 0 18 -19v-92h-888q-18 0 -19 18zM395 324q0 47 28 80.5t79 33.5t78.5 -33.5t27.5 -80.5q0 -43 -26.5 -77t-79.5 -34t-80 34t-27 77zM395 1051q0 47 28 80.5t79 33.5t78.5 -33.5t27.5 -80.5q0 -43 -26.5 -77t-79.5 -34t-80 34t-27 77z" />
<glyph unicode="&#xf8;" horiz-adv-x="1019" d="M74 477q0 125 31.5 219.5t89 158t138.5 94t177 30.5q63 0 120.5 -12.5t104.5 -40.5l88 139l74 -53l-88 -140q66 -63 101.5 -161.5t35.5 -233.5q0 -117 -31.5 -209t-90 -157.5t-138.5 -100.5t-176 -35q-66 0 -122 16.5t-105 45.5l-88 -141l-74 53l90 145 q-66 66 -101.5 163t-35.5 220zM209 477q0 -80 17.5 -152.5t52.5 -125.5l395 630q-33 23 -73 36.5t-91 13.5q-78 0 -134.5 -32t-93 -86t-55 -127t-18.5 -157zM342 129q66 -53 168 -53q80 0 137.5 31.5t93 87t53 128t17.5 154.5q0 86 -17.5 159t-54.5 126z" />
<glyph unicode="&#xf9;" horiz-adv-x="1005" d="M80 954h119q18 0 18 -18v-578q0 -133 53.5 -203.5t186.5 -70.5q106 0 181 53t120 121v596q0 35 -4 59.5t-11 40.5h119q18 0 19 -18v-936h-105q-18 0 -18 18v97q-53 -59 -132 -99.5t-188 -40.5q-186 0 -265 90.5t-79 253.5v535q0 35 -4 59.5t-10 40.5zM215 1395h152 q25 0 32 -15l183 -305h-93q-20 0 -32 15l-207 268q-8 10 -19.5 21.5z" />
<glyph unicode="&#xfa;" horiz-adv-x="1005" d="M80 954h119q18 0 18 -18v-578q0 -133 53.5 -203.5t186.5 -70.5q106 0 181 53t120 121v596q0 35 -4 59.5t-11 40.5h119q18 0 19 -18v-936h-105q-18 0 -18 18v97q-53 -59 -132 -99.5t-188 -40.5q-186 0 -265 90.5t-79 253.5v535q0 35 -4 59.5t-10 40.5zM403 1075l183 305 q8 14 32 15h152l-15.5 -15.5t-19.5 -21.5l-207 -268q-12 -14 -32 -15h-93z" />
<glyph unicode="&#xfb;" horiz-adv-x="1005" d="M80 954h119q18 0 18 -18v-578q0 -133 53.5 -203.5t186.5 -70.5q106 0 181 53t120 121v596q0 35 -4 59.5t-11 40.5h119q18 0 19 -18v-936h-105q-18 0 -18 18v97q-53 -59 -132 -99.5t-188 -40.5q-186 0 -265 90.5t-79 253.5v535q0 35 -4 59.5t-10 40.5zM193 1075l204 320 h162q25 0 33 -15l184 -305h-96q-20 0 -33 15l-164 219l-176 -234h-114z" />
<glyph unicode="&#xfc;" horiz-adv-x="1005" d="M80 954h119q18 0 18 -18v-578q0 -133 53.5 -203.5t186.5 -70.5q106 0 181 53t120 121v596q0 35 -4 59.5t-11 40.5h119q18 0 19 -18v-936h-105q-18 0 -18 18v97q-53 -59 -132 -99.5t-188 -40.5q-186 0 -265 90.5t-79 253.5v535q0 35 -4 59.5t-10 40.5zM172 1180 q0 41 21.5 73.5t74.5 32.5q51 0 72.5 -32.5t21.5 -73.5q0 -39 -21.5 -72t-72.5 -33q-53 0 -74.5 33t-21.5 72zM596 1180q0 41 21.5 73.5t74.5 32.5q51 0 72.5 -32.5t21.5 -73.5q0 -39 -21.5 -72t-72.5 -33q-53 0 -74.5 33t-21.5 72z" />
<glyph unicode="&#xfd;" horiz-adv-x="901" d="M0 -348l33 96q8 -4 40.5 -19.5t78.5 -15.5q70 0 117.5 44t97.5 169l51 129l-367 817q-12 27 -22.5 48.5t-24.5 33.5h129q14 0 19.5 -5t9.5 -15l317 -717l271 717q8 20 28 20h123q-16 -12 -27.5 -33.5t-21.5 -48.5l-371 -976q-55 -145 -124.5 -214t-194.5 -69 q-63 0 -103.5 14.5t-58.5 24.5zM391 1075l182 305q8 14 33 15h152l-15.5 -15.5t-19.5 -21.5l-207 -268q-12 -14 -33 -15h-92z" />
<glyph unicode="&#xfe;" horiz-adv-x="1024" d="M90 1407l64 6q16 2 34.5 4t28.5 2q18 0 19 -18v-547q20 20 50.5 42t69.5 40t88.5 30.5t106.5 12.5q86 0 159.5 -26.5t127 -85t83 -150.5t29.5 -225q0 -125 -32.5 -220.5t-89 -159t-134.5 -96t-166 -32.5q-55 0 -103 10t-85 25.5t-63.5 32t-40.5 28.5v-457h-105 q-18 0 -18 19v1673q0 29 -5.5 53.5t-17.5 38.5zM236 203q14 -16 40.5 -37t61.5 -38t80 -28.5t100 -11.5q147 0 223 108.5t76 290.5q0 113 -23.5 189t-63.5 120t-94 62.5t-116 18.5q-51 0 -95 -13.5t-80 -35t-63.5 -47t-45.5 -50.5v-528z" />
<glyph unicode="&#xff;" horiz-adv-x="901" d="M0 -348l33 96q8 -4 40.5 -19.5t78.5 -15.5q70 0 117.5 44t97.5 169l51 129l-367 817q-12 27 -22.5 48.5t-24.5 33.5h129q14 0 19.5 -5t9.5 -15l317 -717l271 717q8 20 28 20h123q-16 -12 -27.5 -33.5t-21.5 -48.5l-371 -976q-55 -145 -124.5 -214t-194.5 -69 q-63 0 -103.5 14.5t-58.5 24.5zM143 1180q0 41 21.5 73.5t75.5 32.5q51 0 72.5 -32.5t21.5 -73.5q0 -39 -21.5 -72t-72.5 -33q-53 0 -75 33t-22 72zM567 1180q0 41 21.5 73.5t75.5 32.5q51 0 72.5 -32.5t21.5 -73.5q0 -39 -21.5 -72t-72.5 -33q-53 0 -75 33t-22 72z" />
<glyph unicode="&#x152;" horiz-adv-x="2052" d="M94 702q0 168 41 303.5t120 231.5t194.5 148.5t263.5 52.5q70 0 141.5 -17.5t134 -51.5t112.5 -86t79 -122v152q0 25 -5.5 51.5t-13.5 40.5h760q18 0 21 -21l14 -106q-12 8 -31.5 11t-40.5 3h-571v-499h590v-129q-10 6 -31 11t-43 5h-516v-567h604q23 0 43 5t31 11v-129 h-793q-18 0 -18 18v226q-35 -72 -87.5 -123t-113.5 -86t-130 -51.5t-136 -16.5q-147 0 -263 52.5t-195 148.5t-120 231.5t-41 302.5zM242 702q0 -145 32.5 -260.5t94 -195.5t148.5 -123t196 -43q106 0 193 43t148.5 123t95.5 195.5t34 260.5q0 147 -34 263t-95.5 196 t-148.5 122t-193 42q-109 0 -196 -42t-148.5 -122t-94 -195.5t-32.5 -263.5z" />
<glyph unicode="&#x153;" horiz-adv-x="1673" d="M74 477q0 125 31.5 219.5t89 158t138.5 94t177 30.5q119 0 212 -48t150 -159q100 207 355 207q100 0 173 -36t119 -101.5t67.5 -157.5t21.5 -205q0 -29 -31 -28h-643q16 -201 107.5 -284t254.5 -83q80 0 137.5 10t100.5 27l33 -96q-39 -16 -108.5 -33t-184.5 -17 q-291 0 -397 228q-57 -115 -150.5 -171.5t-216.5 -56.5q-96 0 -176 35t-138.5 100.5t-90 158.5t-31.5 208zM209 477q0 -82 17.5 -154.5t54 -128t93 -87t136.5 -31.5t137.5 31.5t93 87t53 128t17.5 154.5q0 84 -17.5 157t-54.5 127t-93 86t-136 32q-78 0 -134.5 -32t-93 -86 t-55 -127t-18.5 -157zM934 553h541q-4 74 -18.5 134.5t-44.5 104.5t-79 67.5t-121 23.5q-74 0 -126 -27t-84.5 -71t-49 -104t-18.5 -128z" />
<glyph unicode="&#x178;" horiz-adv-x="1026" d="M0 1405h147q10 0 14.5 -5t10.5 -16l338 -600l356 600q6 10 10.5 15.5t14.5 5.5h135q-12 -8 -33 -39l-428 -709v-657h-114q-18 0 -19 18v635l-399 711q-8 14 -18.5 25.5t-14.5 15.5zM197 1641q0 41 21.5 73.5t74.5 32.5q51 0 72.5 -32.5t21.5 -73.5q0 -39 -21.5 -72 t-72.5 -33q-53 0 -74.5 33t-21.5 72zM620 1641q0 41 22 73.5t75 32.5q51 0 72.5 -32.5t21.5 -73.5q0 -39 -21.5 -72t-72.5 -33q-53 0 -75 33t-22 72z" />
<glyph unicode="&#x2c6;" horiz-adv-x="989" d="M195 1075l204 320h162q25 0 33 -15l184 -305h-96q-20 0 -33 15l-164 219l-176 -234h-114z" />
<glyph unicode="&#x2dc;" horiz-adv-x="989" d="M182 1190q33 92 88.5 131t102.5 39q41 0 70.5 -14.5t70.5 -45.5q45 -33 77 -55t66 -22q39 0 55.5 29.5t32.5 70.5l74 -35q-18 -55 -39.5 -90t-45 -53.5t-48 -25.5t-49.5 -7q-29 0 -69 17.5t-83 48.5q-33 23 -64.5 46t-66.5 23q-39 0 -57 -22.5t-41 -69.5z" />
<glyph unicode="&#x2000;" horiz-adv-x="927" />
<glyph unicode="&#x2001;" horiz-adv-x="1855" />
<glyph unicode="&#x2002;" horiz-adv-x="927" />
<glyph unicode="&#x2003;" horiz-adv-x="1855" />
<glyph unicode="&#x2004;" horiz-adv-x="618" />
<glyph unicode="&#x2005;" horiz-adv-x="463" />
<glyph unicode="&#x2006;" horiz-adv-x="309" />
<glyph unicode="&#x2007;" horiz-adv-x="309" />
<glyph unicode="&#x2008;" horiz-adv-x="231" />
<glyph unicode="&#x2009;" horiz-adv-x="371" />
<glyph unicode="&#x200a;" horiz-adv-x="103" />
<glyph unicode="&#x2010;" horiz-adv-x="655" d="M74 487v125h508v-125h-508z" />
<glyph unicode="&#x2011;" horiz-adv-x="655" d="M74 487v125h508v-125h-508z" />
<glyph unicode="&#x2012;" horiz-adv-x="655" d="M74 487v125h508v-125h-508z" />
<glyph unicode="&#x2013;" horiz-adv-x="1024" d="M0 487v115h1024v-115h-1024z" />
<glyph unicode="&#x2014;" horiz-adv-x="2048" d="M0 487v115h2048v-115h-2048z" />
<glyph unicode="&#x2018;" d="M84 999q0 66 17.5 130.5t42 121t51 100.5t45.5 68l69 -47q-10 -16 -29.5 -48t-38 -75t-32.5 -93t-14 -103q37 -4 59 -16.5t34.5 -28t16.5 -33t4 -31.5q0 -45 -28.5 -75.5t-77.5 -30.5q-45 0 -82 32q-16 18 -26.5 48t-10.5 81z" />
<glyph unicode="&#x2019;" d="M90 885q10 16 29.5 48t38 75t33 93t14.5 103q-37 4 -59.5 16.5t-35 28t-16.5 32.5t-4 32q0 45 28.5 75.5t78.5 30.5q45 0 82 -33q16 -18 26 -47.5t10 -81.5q0 -66 -17 -130t-42 -120.5t-51.5 -100.5t-44.5 -68z" />
<glyph unicode="&#x201a;" d="M90 109q0 45 28.5 75.5t78.5 30.5q45 0 82 -33q16 -18 26 -48t10 -81q0 -66 -17 -130t-42 -120.5t-51.5 -100.5t-44.5 -69l-70 48q10 16 29.5 47.5t38 74.5t33 93.5t14.5 103.5q-37 4 -59.5 16.5t-35 27.5t-16.5 32.5t-4 32.5z" />
<glyph unicode="&#x201c;" horiz-adv-x="782" d="M84 999q0 66 17.5 130.5t42 121t51 100.5t45.5 68l69 -47q-10 -16 -29.5 -48t-38 -75t-32.5 -93t-14 -103q37 -4 59 -16.5t34.5 -28t16.5 -33t4 -31.5q0 -45 -28.5 -75.5t-77.5 -30.5q-45 0 -82 32q-16 18 -26.5 48t-10.5 81zM465 999q0 66 17.5 130.5t42 121t51 100.5 t45.5 68l69 -47q-10 -16 -29.5 -48t-38 -75t-33 -93t-14.5 -103q37 -4 59.5 -16.5t35 -28t16.5 -33t4 -31.5q0 -45 -28.5 -75.5t-77.5 -30.5q-45 0 -82 32q-37 33 -37 129z" />
<glyph unicode="&#x201d;" horiz-adv-x="782" d="M92 885q10 16 29.5 48t38 75t33 93t14.5 103q-37 4 -59.5 16.5t-35 28t-16.5 32.5t-4 32q0 45 29 75.5t78 30.5q45 0 82 -33q18 -16 27 -46.5t9 -82.5q0 -66 -17 -130t-42 -120.5t-51.5 -100.5t-44.5 -68zM473 885q10 16 29.5 48t38 75t33 93t14.5 103q-37 4 -59.5 16.5 t-35 28t-16.5 32.5t-4 32q0 45 28.5 75.5t78.5 30.5q45 0 82 -33q16 -18 26 -47.5t10 -81.5q0 -66 -17 -130t-42 -120.5t-51.5 -100.5t-44.5 -68z" />
<glyph unicode="&#x201e;" horiz-adv-x="782" d="M92 109q0 45 29 75.5t78 30.5q45 0 82 -33q18 -16 27 -47t9 -82q0 -66 -17 -130t-42 -120.5t-51.5 -100.5t-44.5 -69l-70 48q10 16 29.5 47.5t38 74.5t33 93.5t14.5 103.5q-37 4 -59.5 16.5t-35 27.5t-16.5 32.5t-4 32.5zM473 109q0 45 28.5 75.5t78.5 30.5q45 0 82 -33 q16 -18 26 -48t10 -81q0 -66 -17 -130t-42 -120.5t-51.5 -100.5t-44.5 -69l-70 48q10 16 29.5 47.5t38 74.5t33 93.5t14.5 103.5q-37 4 -59.5 16.5t-35 27.5t-16.5 32.5t-4 32.5z" />
<glyph unicode="&#x2022;" horiz-adv-x="884" d="M137 702q0 63 23.5 119t65.5 96.5t97.5 65.5t118.5 25t118.5 -25t96.5 -65.5t66 -96t25 -119.5q0 -63 -25 -118.5t-66 -97.5t-96 -65.5t-119 -23.5q-63 0 -118.5 23.5t-97.5 65.5t-65.5 97.5t-23.5 118.5z" />
<glyph unicode="&#x2026;" horiz-adv-x="1982" d="M201 88q0 47 27.5 80t78.5 33t79 -33t28 -80t-28 -80t-79 -33t-78.5 33t-27.5 80zM885 88q0 47 27.5 80t78.5 33t79 -33t28 -80t-28 -80t-79 -33t-78.5 33t-27.5 80zM1569 88q0 47 27.5 80t78.5 33t79 -33t28 -80t-28 -80t-79 -33t-78.5 33t-27.5 80z" />
<glyph unicode="&#x202f;" horiz-adv-x="371" />
<glyph unicode="&#x2039;" horiz-adv-x="489" d="M45 520l254 336h145l-251 -336l251 -336h-145z" />
<glyph unicode="&#x203a;" horiz-adv-x="489" d="M45 184l252 336l-252 336h145l254 -336l-254 -336h-145z" />
<glyph unicode="&#x205f;" horiz-adv-x="463" />
<glyph unicode="&#x20ac;" horiz-adv-x="1142" d="M39 528v70h160q-4 27 -4 51.5v50.5q0 29 1 55.5t3 57.5h-136q-25 0 -24 23v69h174q25 123 75 216t122.5 155.5t163 95.5t192.5 33q59 0 97 -5t67 -14q18 -4 38.5 -11t30.5 -13q27 -12 29 -41l12 -100q-49 29 -116.5 48t-163.5 19q-61 0 -121.5 -18.5t-115 -62.5 t-98.5 -117.5t-71 -184.5h523q20 0 24 -22l8 -70h-571q-2 -29 -3 -55.5t-1 -57.5q0 -27 1 -51t3 -51h434q20 0 25 -23l8 -69h-455q20 -119 64.5 -198t104 -127t132 -68.5t148.5 -20.5q102 0 167.5 17.5t106.5 35.5l39 -106q-55 -23 -134 -43.5t-187 -20.5q-115 0 -212.5 30 t-172 94.5t-126 165t-71.5 241.5h-146q-25 0 -24 22z" />
<glyph unicode="&#x2122;" horiz-adv-x="1568" d="M29 1325v80h557q14 0 18 -19l10 -94q-12 8 -31.5 11.5t-39.5 3.5h-168v-676h-94q-18 0 -19 18v658h-215q-18 0 -18 18zM756 1405h164q27 0 34 -19l187 -473l202 492h183q-8 -16 -12.5 -47t-4.5 -53v-674h-102v678l-246 -600h-55l-232 604v-682h-102v674q0 23 -4 53.5 t-12 46.5z" />
<glyph unicode="&#x25fc;" horiz-adv-x="952" d="M0 0v952h952v-952h-952z" />
</font>
</defs>
</svg>
